M48
;DRILL file {Pcbnew (2013-jul-07)-stable} date Sun 15 Mar 2015 20:20:33 GMT
;FORMAT={-:-/ absolute / metric / decimal}
FMAT,2
METRIC,TZ
T1C1.500
T2C3.000
%
G90
G05
M71
T1
X198.11Y-148.29
X198.11Y-153.37
X198.11Y-171.29
X198.11Y-176.37
X198.11Y-195.29
X198.11Y-200.37
X198.11Y-219.29
X198.11Y-224.37
X226.05Y-147.655
X226.05Y-154.005
X226.05Y-170.655
X226.05Y-177.005
X226.05Y-194.655
X226.05Y-201.005
X226.05Y-218.655
X226.05Y-225.005
X253.155Y-156.95
X253.79Y-184.89
X258.87Y-184.89
X259.505Y-156.95
T2
X226.05Y-150.83
X226.05Y-173.83
X226.05Y-197.83
X226.05Y-221.83
X256.33Y-156.95
T0
M30
