M48
;DRILL file {Pcbnew (2013-jul-07)-stable} date Sun 15 Mar 2015 20:20:33 GMT
;FORMAT={-:-/ absolute / metric / decimal}
FMAT,2
METRIC,TZ
T1C0.813
T2C1.000
%
G90
G05
M71
T1
X215.128Y-147.02
X215.128Y-154.64
X215.128Y-170.02
X215.128Y-177.64
X215.128Y-194.02
X215.128Y-201.64
X215.128Y-218.02
X215.128Y-225.64
X219.192Y-148.29
X219.192Y-150.83
X219.192Y-153.37
X219.192Y-171.29
X219.192Y-173.83
X219.192Y-176.37
X219.192Y-195.29
X219.192Y-197.83
X219.192Y-200.37
X219.192Y-219.29
X219.192Y-221.83
X219.192Y-224.37
X252.52Y-167.872
X253.79Y-163.808
X256.33Y-163.808
X258.87Y-163.808
X260.14Y-167.872
T2
X200.65Y-148.29
X200.65Y-153.37
X200.65Y-171.29
X200.65Y-176.37
X200.65Y-195.29
X200.65Y-200.37
X200.65Y-219.29
X200.65Y-224.37
X204.714Y-147.02
X204.714Y-154.64
X204.714Y-170.02
X204.714Y-177.64
X204.714Y-194.02
X204.714Y-201.64
X204.714Y-218.02
X204.714Y-225.64
X208.27Y-147.02
X208.27Y-154.64
X208.27Y-170.02
X208.27Y-177.64
X208.27Y-194.02
X208.27Y-201.64
X208.27Y-218.02
X208.27Y-225.64
X211.826Y-147.02
X211.826Y-154.64
X211.826Y-170.02
X211.826Y-177.64
X211.826Y-194.02
X211.826Y-201.64
X211.826Y-218.02
X211.826Y-225.64
X223.51Y-148.29
X223.51Y-153.37
X223.51Y-171.29
X223.51Y-176.37
X223.51Y-195.29
X223.51Y-200.37
X223.51Y-219.29
X223.51Y-224.37
X252.52Y-171.174
X252.52Y-174.73
X252.52Y-178.286
X253.79Y-159.49
X253.79Y-182.35
X258.87Y-159.49
X258.87Y-182.35
X260.14Y-171.174
X260.14Y-174.73
X260.14Y-178.286
T0
M30
