G04 (created by PCBNEW (2013-jul-07)-stable) date Sun 15 Mar 2015 20:22:26 GMT*
%MOIN*%
G04 Gerber Fmt 3.4, Leading zero omitted, Abs format*
%FSLAX34Y34*%
G01*
G70*
G90*
G04 APERTURE LIST*
%ADD10C,0.00590551*%
%ADD11C,0.055*%
%ADD12C,0.0885827*%
%ADD13R,0.0944882X0.0944882*%
%ADD14C,0.0590551*%
%ADD15C,0.11811*%
%ADD16C,0.0688976*%
%ADD17R,0.0688976X0.0688976*%
G04 APERTURE END LIST*
G54D10*
G54D11*
X99417Y-66091D03*
X102417Y-66091D03*
G54D12*
X99917Y-71791D03*
G54D13*
X101917Y-71791D03*
G54D14*
X99917Y-72791D03*
X101917Y-72791D03*
G54D12*
X99917Y-62791D03*
G54D13*
X101917Y-62791D03*
G54D14*
X99667Y-61791D03*
X102167Y-61791D03*
G54D15*
X100917Y-61791D03*
G54D16*
X100917Y-64491D03*
X101917Y-64491D03*
X99917Y-64491D03*
G54D17*
X102417Y-70191D03*
G54D16*
X99417Y-70191D03*
G54D17*
X99417Y-68791D03*
G54D16*
X102417Y-68791D03*
X99417Y-67391D03*
G54D17*
X102417Y-67391D03*
G54D16*
X83396Y-85834D03*
G54D17*
X83396Y-88834D03*
X81996Y-85834D03*
G54D16*
X81996Y-88834D03*
G54D17*
X80596Y-88834D03*
G54D16*
X80596Y-85834D03*
X86296Y-87334D03*
X86296Y-88334D03*
X86296Y-86334D03*
G54D12*
X87996Y-86334D03*
G54D13*
X87996Y-88334D03*
G54D14*
X88996Y-86084D03*
X88996Y-88584D03*
G54D15*
X88996Y-87334D03*
G54D12*
X78996Y-86334D03*
G54D13*
X78996Y-88334D03*
G54D14*
X77996Y-86334D03*
X77996Y-88334D03*
G54D11*
X84696Y-85834D03*
X84696Y-88834D03*
X84696Y-76385D03*
X84696Y-79385D03*
G54D12*
X78996Y-76885D03*
G54D13*
X78996Y-78885D03*
G54D14*
X77996Y-76885D03*
X77996Y-78885D03*
G54D12*
X87996Y-76885D03*
G54D13*
X87996Y-78885D03*
G54D14*
X88996Y-76635D03*
X88996Y-79135D03*
G54D15*
X88996Y-77885D03*
G54D16*
X86296Y-77885D03*
X86296Y-78885D03*
X86296Y-76885D03*
G54D17*
X80596Y-79385D03*
G54D16*
X80596Y-76385D03*
G54D17*
X81996Y-76385D03*
G54D16*
X81996Y-79385D03*
X83396Y-76385D03*
G54D17*
X83396Y-79385D03*
G54D16*
X83396Y-66937D03*
G54D17*
X83396Y-69937D03*
X81996Y-66937D03*
G54D16*
X81996Y-69937D03*
G54D17*
X80596Y-69937D03*
G54D16*
X80596Y-66937D03*
X86296Y-68437D03*
X86296Y-69437D03*
X86296Y-67437D03*
G54D12*
X87996Y-67437D03*
G54D13*
X87996Y-69437D03*
G54D14*
X88996Y-67187D03*
X88996Y-69687D03*
G54D15*
X88996Y-68437D03*
G54D12*
X78996Y-67437D03*
G54D13*
X78996Y-69437D03*
G54D14*
X77996Y-67437D03*
X77996Y-69437D03*
G54D11*
X84696Y-66937D03*
X84696Y-69937D03*
X84696Y-57881D03*
X84696Y-60881D03*
G54D12*
X78996Y-58381D03*
G54D13*
X78996Y-60381D03*
G54D14*
X77996Y-58381D03*
X77996Y-60381D03*
G54D12*
X87996Y-58381D03*
G54D13*
X87996Y-60381D03*
G54D14*
X88996Y-58131D03*
X88996Y-60631D03*
G54D15*
X88996Y-59381D03*
G54D16*
X86296Y-59381D03*
X86296Y-60381D03*
X86296Y-58381D03*
G54D17*
X80596Y-60881D03*
G54D16*
X80596Y-57881D03*
G54D17*
X81996Y-57881D03*
G54D16*
X81996Y-60881D03*
X83396Y-57881D03*
G54D17*
X83396Y-60881D03*
M02*
