G04 (created by PCBNEW (2013-jul-07)-stable) date Sun 15 Mar 2015 20:22:26 GMT*
%MOIN*%
G04 Gerber Fmt 3.4, Leading zero omitted, Abs format*
%FSLAX34Y34*%
G01*
G70*
G90*
G04 APERTURE LIST*
%ADD10C,0.00590551*%
%ADD11C,0.00787402*%
G04 APERTURE END LIST*
G54D10*
G54D11*
X107874Y-92913D02*
X68503Y-92913D01*
X94685Y-75590D02*
X97637Y-75590D01*
X94685Y-58858D02*
X97637Y-58858D01*
X97637Y-74212D02*
G75*
G03X98425Y-74212I393J0D01*
G74*
G01*
X98425Y-60039D02*
G75*
G03X97637Y-60039I-393J0D01*
G74*
G01*
X97637Y-74212D02*
X97637Y-60039D01*
X98425Y-74212D02*
X98425Y-60039D01*
X98425Y-75590D02*
G75*
G03X97637Y-75590I-393J0D01*
G74*
G01*
X97637Y-58858D02*
G75*
G03X98425Y-58858I393J0D01*
G74*
G01*
X103543Y-58858D02*
G75*
G03X101574Y-56889I-1968J0D01*
G74*
G01*
X100393Y-56889D02*
G75*
G03X98425Y-58858I0J-1968D01*
G74*
G01*
X98425Y-75590D02*
G75*
G03X100393Y-77559I1968J0D01*
G74*
G01*
X101574Y-77559D02*
G75*
G03X103543Y-75590I0J1968D01*
G74*
G01*
X102165Y-59448D02*
G75*
G03X102165Y-59448I-1181J0D01*
G74*
G01*
X102165Y-75196D02*
G75*
G03X102165Y-75196I-1181J0D01*
G74*
G01*
X100393Y-77559D02*
X101574Y-77559D01*
X103543Y-75590D02*
X103543Y-58858D01*
X101574Y-56889D02*
X100393Y-56889D01*
X91929Y-84055D02*
X91929Y-81299D01*
X75196Y-81299D02*
X75196Y-84055D01*
X94685Y-75393D02*
X94685Y-75590D01*
X93897Y-78543D02*
X93897Y-77362D01*
X93897Y-87992D02*
X93897Y-86811D01*
X75196Y-89960D02*
X91929Y-89960D01*
X73228Y-86811D02*
X73228Y-87992D01*
X73228Y-77362D02*
X73228Y-78543D01*
X75196Y-71850D02*
X75196Y-74606D01*
X75196Y-75393D02*
G75*
G03X75196Y-74606I0J393D01*
G74*
G01*
X73228Y-67913D02*
X73228Y-69094D01*
X75196Y-62795D02*
X75196Y-65157D01*
X73228Y-58858D02*
X73228Y-60039D01*
X75196Y-56889D02*
X91929Y-56889D01*
X75196Y-62795D02*
G75*
G03X75196Y-62007I0J393D01*
G74*
G01*
X76771Y-87401D02*
G75*
G03X76771Y-87401I-1181J0D01*
G74*
G01*
X92519Y-87401D02*
G75*
G03X92519Y-87401I-1181J0D01*
G74*
G01*
X73228Y-87992D02*
G75*
G03X75196Y-89960I1968J0D01*
G74*
G01*
X75196Y-84842D02*
G75*
G03X73228Y-86811I0J-1968D01*
G74*
G01*
X93897Y-86811D02*
G75*
G03X91929Y-84842I-1968J0D01*
G74*
G01*
X91929Y-89960D02*
G75*
G03X93897Y-87992I0J1968D01*
G74*
G01*
X91929Y-84055D02*
G75*
G03X91929Y-84842I0J-393D01*
G74*
G01*
X75196Y-84842D02*
G75*
G03X75196Y-84055I0J393D01*
G74*
G01*
X76574Y-84842D02*
X90748Y-84842D01*
X76574Y-84055D02*
X90748Y-84055D01*
X90748Y-84842D02*
G75*
G03X90748Y-84055I0J393D01*
G74*
G01*
X76574Y-84055D02*
G75*
G03X76574Y-84842I0J-393D01*
G74*
G01*
X93897Y-74606D02*
X91929Y-74606D01*
X94685Y-75393D02*
G75*
G03X93897Y-74606I-787J0D01*
G74*
G01*
X90748Y-81299D02*
G75*
G03X90748Y-80511I0J393D01*
G74*
G01*
X76574Y-80511D02*
G75*
G03X76574Y-81299I0J-393D01*
G74*
G01*
X76574Y-74606D02*
G75*
G03X76574Y-75393I0J-393D01*
G74*
G01*
X90748Y-75393D02*
G75*
G03X90748Y-74606I0J393D01*
G74*
G01*
X76574Y-81299D02*
X90748Y-81299D01*
X90748Y-80511D02*
X76574Y-80511D01*
X76574Y-74606D02*
X90748Y-74606D01*
X76574Y-75393D02*
X90748Y-75393D01*
X75196Y-81299D02*
G75*
G03X75196Y-80511I0J393D01*
G74*
G01*
X91929Y-80511D02*
G75*
G03X91929Y-81299I0J-393D01*
G74*
G01*
X91929Y-74606D02*
G75*
G03X91929Y-75393I0J-393D01*
G74*
G01*
X91929Y-80511D02*
G75*
G03X93897Y-78543I0J1968D01*
G74*
G01*
X93897Y-77362D02*
G75*
G03X91929Y-75393I-1968J0D01*
G74*
G01*
X75196Y-75393D02*
G75*
G03X73228Y-77362I0J-1968D01*
G74*
G01*
X73228Y-78543D02*
G75*
G03X75196Y-80511I1968J0D01*
G74*
G01*
X92519Y-77952D02*
G75*
G03X92519Y-77952I-1181J0D01*
G74*
G01*
X76771Y-77952D02*
G75*
G03X76771Y-77952I-1181J0D01*
G74*
G01*
X76771Y-68503D02*
G75*
G03X76771Y-68503I-1181J0D01*
G74*
G01*
X92519Y-68503D02*
G75*
G03X92519Y-68503I-1181J0D01*
G74*
G01*
X73228Y-69094D02*
G75*
G03X75196Y-71062I1968J0D01*
G74*
G01*
X75196Y-65944D02*
G75*
G03X73228Y-67913I0J-1968D01*
G74*
G01*
X93897Y-67913D02*
G75*
G03X91929Y-65944I-1968J0D01*
G74*
G01*
X91929Y-71062D02*
G75*
G03X93897Y-69094I0J1968D01*
G74*
G01*
X94685Y-69094D02*
G75*
G03X93897Y-69094I-393J0D01*
G74*
G01*
X93897Y-67913D02*
G75*
G03X94685Y-67913I393J0D01*
G74*
G01*
X91929Y-65157D02*
G75*
G03X91929Y-65944I0J-393D01*
G74*
G01*
X91929Y-71062D02*
G75*
G03X91929Y-71850I0J-393D01*
G74*
G01*
X75196Y-65944D02*
G75*
G03X75196Y-65157I0J393D01*
G74*
G01*
X75196Y-71850D02*
G75*
G03X75196Y-71062I0J393D01*
G74*
G01*
X76574Y-65944D02*
X90748Y-65944D01*
X76574Y-65157D02*
X90748Y-65157D01*
X90748Y-71062D02*
X76574Y-71062D01*
X76574Y-71850D02*
X90748Y-71850D01*
X90748Y-65944D02*
G75*
G03X90748Y-65157I0J393D01*
G74*
G01*
X76574Y-65157D02*
G75*
G03X76574Y-65944I0J-393D01*
G74*
G01*
X76574Y-71062D02*
G75*
G03X76574Y-71850I0J-393D01*
G74*
G01*
X90748Y-71850D02*
G75*
G03X90748Y-71062I0J393D01*
G74*
G01*
X94685Y-65944D02*
X94685Y-67913D01*
X94685Y-65944D02*
G75*
G03X93897Y-65157I-787J0D01*
G74*
G01*
X93897Y-65157D02*
X91929Y-65157D01*
X94685Y-69094D02*
X94685Y-71062D01*
X91929Y-71850D02*
X93897Y-71850D01*
X93897Y-71850D02*
G75*
G03X94685Y-71062I0J787D01*
G74*
G01*
X93897Y-62795D02*
G75*
G03X94685Y-62007I0J787D01*
G74*
G01*
X91929Y-62795D02*
X93897Y-62795D01*
X94685Y-60039D02*
X94685Y-62007D01*
X90748Y-62795D02*
G75*
G03X90748Y-62007I0J393D01*
G74*
G01*
X76574Y-62007D02*
G75*
G03X76574Y-62795I0J-393D01*
G74*
G01*
X76574Y-62795D02*
X90748Y-62795D01*
X90748Y-62007D02*
X76574Y-62007D01*
X91929Y-62007D02*
G75*
G03X91929Y-62795I0J-393D01*
G74*
G01*
X93897Y-58858D02*
G75*
G03X94685Y-58858I393J0D01*
G74*
G01*
X94685Y-60039D02*
G75*
G03X93897Y-60039I-393J0D01*
G74*
G01*
X91929Y-62007D02*
G75*
G03X93897Y-60039I0J1968D01*
G74*
G01*
X93897Y-58858D02*
G75*
G03X91929Y-56889I-1968J0D01*
G74*
G01*
X75196Y-56889D02*
G75*
G03X73228Y-58858I0J-1968D01*
G74*
G01*
X73228Y-60039D02*
G75*
G03X75196Y-62007I1968J0D01*
G74*
G01*
X92519Y-59448D02*
G75*
G03X92519Y-59448I-1181J0D01*
G74*
G01*
X76771Y-59448D02*
G75*
G03X76771Y-59448I-1181J0D01*
G74*
G01*
M02*
