<?xml version="1.0" encoding="UTF-8" standalone="no"?>
<!-- Creator: CorelDRAW -->

<svg
   xmlns:dc="http://purl.org/dc/elements/1.1/"
   xmlns:cc="http://creativecommons.org/ns#"
   xmlns:rdf="http://www.w3.org/1999/02/22-rdf-syntax-ns#"
   xmlns:svg="http://www.w3.org/2000/svg"
   xmlns="http://www.w3.org/2000/svg"
   xmlns:sodipodi="http://sodipodi.sourceforge.net/DTD/sodipodi-0.dtd"
   xmlns:inkscape="http://www.inkscape.org/namespaces/inkscape"
   xml:space="preserve"
   width="210mm"
   height="297mm"
   style="shape-rendering:geometricPrecision; text-rendering:geometricPrecision; image-rendering:optimizeQuality; fill-rule:evenodd; clip-rule:evenodd"
   viewBox="0 0 210 297"
   id="svg3087"
   version="1.1"
   inkscape:version="0.48.4 r9939"
   sodipodi:docname="OOBB-PL-03-01.svg"><metadata
     id="metadata3104"><rdf:RDF><cc:Work
         rdf:about=""><dc:format>image/svg+xml</dc:format><dc:type
           rdf:resource="http://purl.org/dc/dcmitype/StillImage" /></cc:Work></rdf:RDF></metadata><sodipodi:namedview
     pagecolor="#ffffff"
     bordercolor="#666666"
     borderopacity="1"
     objecttolerance="10"
     gridtolerance="10"
     guidetolerance="10"
     inkscape:pageopacity="0"
     inkscape:pageshadow="2"
     inkscape:window-width="1366"
     inkscape:window-height="702"
     id="namedview3102"
     showgrid="true"
     inkscape:document-units="mm"
     inkscape:snap-bbox="true"
     showguides="true"
     inkscape:guide-bbox="true"
     inkscape:zoom="6.1750108"
     inkscape:cx="93.8987"
     inkscape:cy="23.03185"
     inkscape:window-x="0"
     inkscape:window-y="27"
     inkscape:window-maximized="1"
     inkscape:current-layer="Layer_x0020_1"><inkscape:grid
       type="xygrid"
       id="grid3106"
       empspacing="5"
       visible="true"
       enabled="true"
       snapvisiblegridlinesonly="true"
       units="mm"
       spacingx="0.5mm"
       spacingy="0.5mm"
       dotted="true" /><sodipodi:guide
       orientation="1,0"
       position="17.716535,4.1796522"
       id="guide3108" /><sodipodi:guide
       orientation="0,1"
       position="5.3149606,17.716535"
       id="guide3110" /><sodipodi:guide
       orientation="1,0"
       position="23.031496,23.031496"
       id="guide3112" /><sodipodi:guide
       orientation="0,1"
       position="23.031496,23.031496"
       id="guide3114" /></sodipodi:namedview><defs
     id="defs3089"><style
       type="text/css"
       id="style3091">
    .str0 {stroke:black;stroke-width:0.5644}
    .fil0 {fill:none;fill-rule:nonzero}
   </style></defs><g
     id="Layer_x0020_1"
     transform="translate(26.500299,-6.5002)"><metadata
       id="CorelCorpID_0Corel-Layer" /><g
       id="OOBB-PL-03-01.pdf"><path
         id="_120285640"
         class="fil0 str0"
         d="m -21.4994,290.5 42.9987,0 c 2.7714,0 5.001,2.2309 5.001,5.0009 l 0,3.0001 c 0,2.7696 -2.2296,4.9992 -5.001,4.9992 l -42.9987,0 c -2.77,0 -5.0009,-2.2296 -5.0009,-4.9992 l 0,-3.0001 c 0,-2.77 2.2309,-5.0009 5.0009,-5.0009 z m 0,0 z"
         inkscape:connector-curvature="0"
         style="fill:none;stroke:#000000;stroke-width:0.56440002" /><path
         id="_120284944"
         class="fil0 str0"
         d="m -21.4994,300 0,-0.4011 c -0.4561,-0.2632 -0.8353,-0.6435 -1.0985,-1.0982 l -0.4022,0 0,-1.5008 0,-1.4993 0.4022,0 c 0.2632,-0.4561 0.6424,-0.8353 1.0985,-1.0985 l 0,-0.4022 1.4993,0 1.5008,0 0,0.4022 c 0.4547,0.2632 0.835,0.6424 1.0982,1.0985 l 0.4011,0 0,1.4993 0,1.5008 -0.4011,0 c -0.2632,0.4547 -0.6435,0.835 -1.0982,1.0982 l 0,0.4011 -1.5008,0 -1.4993,0 z m 0,0 z"
         inkscape:connector-curvature="0"
         style="fill:none;stroke:#000000;stroke-width:0.56440002" /><path
         id="_120284272"
         class="fil0 str0"
         d="m -1.5,300 0,-0.4011 c -0.4548,-0.2632 -0.8351,-0.6435 -1.0982,-1.0982 l -0.4011,0 0,-1.5008 0,-1.4993 0.4011,0 c 0.2631,-0.4561 0.6434,-0.8353 1.0982,-1.0985 l 0,-0.4022 1.5007,0 1.4993,0 0,0.4022 c 0.4547,0.2632 0.835,0.6424 1.0982,1.0985 l 0.4025,0 0,1.4993 0,1.5008 -0.4025,0 C 2.335,298.9554 1.9547,299.3357 1.5,299.5989 L 1.5,300 7e-4,300 -1.5,300 z m 0,0 z"
         inkscape:connector-curvature="0"
         style="fill:none;stroke:#000000;stroke-width:0.56440002" /><path
         id="_120284872"
         class="fil0 str0"
         d="m 18.4993,300 0,-0.4011 c -0.4547,-0.2632 -0.8336,-0.6435 -1.0982,-1.0982 l -0.4011,0 0,-1.5008 0,-1.4993 0.4011,0 c 0.2646,-0.4561 0.6435,-0.8353 1.0982,-1.0985 l 0,-0.4022 1.5007,0 1.4993,0 0,0.4022 c 0.4562,0.2632 0.8354,0.6424 1.0986,1.0985 l 0.4021,0 0,1.4993 0,1.5008 -0.4021,0 c -0.2632,0.4547 -0.6424,0.835 -1.0986,1.0982 l 0,0.4011 -1.4993,0 -1.5007,0 z m 0,0 z"
         inkscape:connector-curvature="0"
         style="fill:none;stroke:#000000;stroke-width:0.56440002" /><polygon
         id="_120286264"
         class="fil0 str0"
         points="-6.9998,295.501 -6.9998,298.501 -12.9999,298.501 -12.9999,295.501 "
         style="fill:none;stroke:#000000;stroke-width:0.56440002" /><polygon
         id="_120284392"
         class="fil0 str0"
         points="12.9998,295.501 12.9998,298.501 6.9998,298.501 6.9998,295.501 "
         style="fill:none;stroke:#000000;stroke-width:0.56440002" /></g></g></svg>