  0
SECTION
  2
HEADER
  9
$ACADVER
  1
AC1014
  9
$HANDSEED
  5
FFFF
  9
$MEASUREMENT
 70
     1
  0
ENDSEC
  0
SECTION
  2
TABLES
  0
TABLE
  2
VPORT
  5
8
330
0
100
AcDbSymbolTable
 70
     4
  0
VPORT
  5
2E
330
8
100
AcDbSymbolTableRecord
100
AcDbViewportTableRecord
  2
*ACTIVE
 70
     0
 10
0.0
 20
0.0
 11
1.0
 21
1.0
 12
210.0
 22
148.5
 13
0.0
 23
0.0
 14
10.0
 24
10.0
 15
10.0
 25
10.0
 16
0.0
 26
0.0
 36
1.0
 17
0.0
 27
0.0
 37
0.0
 40
341.0
 41
1.24
 42
50.0
 43
0.0
 44
0.0
 50
0.0
 51
0.0
 71
     0
 72
   100
 73
     1
 74
     3
 75
     0
 76
     0
 77
     0
 78
     0
  0
ENDTAB
  0
TABLE
  2
LTYPE
  5
5
330
0
100
AcDbSymbolTable
 70
     1
  0
LTYPE
  5
14
330
5
100
AcDbSymbolTableRecord
100
AcDbLinetypeTableRecord
  2
BYBLOCK
 70
     0
  3

 72
    65
 73
     0
 40
0.0
  0
LTYPE
  5
15
330
5
100
AcDbSymbolTableRecord
100
AcDbLinetypeTableRecord
  2
BYLAYER
 70
     0
  3

 72
    65
 73
     0
 40
0.0
  0
LTYPE
  5
16
330
5
100
AcDbSymbolTableRecord
100
AcDbLinetypeTableRecord
  2
CONTINUOUS
 70
     0
  3
Solid line
 72
    65
 73
     0
 40
0.0
  0
ENDTAB
  0
TABLE
  2
LAYER
  5
2
100
AcDbSymbolTable
 70
2
  0
LAYER
  5
50
100
AcDbSymbolTableRecord
100
AcDbLayerTableRecord
  2
0
 70
0
  6
CONTINUOUS
  0
LAYER
  5
51
100
AcDbSymbolTableRecord
100
AcDbLayerTableRecord
  2
Layer_1
 70
0
  6
CONTINUOUS
  0
ENDTAB
  0
TABLE
  2
STYLE
  5
3
330
0
100
AcDbSymbolTable
 70
     1
  0
STYLE
  5
11
330
3
100
AcDbSymbolTableRecord
100
AcDbTextStyleTableRecord
  2
STANDARD
 70
     0
 40
0.0
 41
1.0
 50
0.0
 71
     0
 42
2.5
  3
txt
  4

  0
ENDTAB
  0
TABLE
  2
VIEW
  5
6
330
0
100
AcDbSymbolTable
 70
     0
  0
ENDTAB
  0
TABLE
  2
UCS
  5
7
330
0
100
AcDbSymbolTable
 70
     0
  0
ENDTAB
  0
TABLE
  2
APPID
  5
9
330
0
100
AcDbSymbolTable
 70
     2
  0
APPID
  5
12
330
9
100
AcDbSymbolTableRecord
100
AcDbRegAppTableRecord
  2
ACAD
 70
     0
  0
ENDTAB
  0
TABLE
  2
DIMSTYLE
  5
A
330
0
100
AcDbSymbolTable
 70
     1
  0
DIMSTYLE
105
27
330
A
100
AcDbSymbolTableRecord
100
AcDbDimStyleTableRecord
  2
ISO-25
 70
     0
  3

  4

  5

  6

  7

 40
1.0
 41
2.5
 42
0.625
 43
3.75
 44
1.25
 45
0.0
 46
0.0
 47
0.0
 48
0.0
140
2.5
141
2.5
142
0.0
143
0.03937007874016
144
1.0
145
0.0
146
1.0
147
0.625
 71
     0
 72
     0
 73
     0
 74
     0
 75
     0
 76
     0
 77
     1
 78
     8
170
     0
171
     3
172
     1
173
     0
174
     0
175
     0
176
     0
177
     0
178
     0
270
     2
271
     2
272
     2
273
     2
274
     3
340
11
275
     0
280
     0
281
     0
282
     0
283
     0
284
     8
285
     0
286
     0
287
     3
288
     0
  0
ENDTAB
  0
TABLE
  2
BLOCK_RECORD
  5
1
330
0
100
AcDbSymbolTable
 70
     1
  0
BLOCK_RECORD
  5
1F
330
1
100
AcDbSymbolTableRecord
100
AcDbBlockTableRecord
  2
*MODEL_SPACE
  0
BLOCK_RECORD
  5
1B
330
1
100
AcDbSymbolTableRecord
100
AcDbBlockTableRecord
  2
*PAPER_SPACE
  0
ENDTAB
  0
ENDSEC
  0
SECTION
  2
BLOCKS
  0
BLOCK
  5
20
330
1F
100
AcDbEntity
  8
0
100
AcDbBlockBegin
  2
*MODEL_SPACE
 70
     0
 10
0.0
 20
0.0
 30
0.0
  3
*MODEL_SPACE
  1

  0
ENDBLK
  5
21
330
1F
100
AcDbEntity
  8
0
100
AcDbBlockEnd
  0
BLOCK
  5
1C
330
1B
100
AcDbEntity
 67
     1
  8
0
100
AcDbBlockBegin
  2
*PAPER_SPACE
  1

  0
ENDBLK
  5
1D
330
1B
100
AcDbEntity
 67
     1
  8
0
100
AcDbBlockEnd
  0
ENDSEC
  0
SECTION
  2
ENTITIES
  0
LINE
  5
100
100
AcDbEntity
  8
Layer_1
 62
7
100
AcDbLine
 10
19.347646
 20
58.640500
 30
0.0
 11
19.347646
 21
56.197514
 31
0.0
  0
LINE
  5
101
100
AcDbEntity
  8
Layer_1
 62
7
100
AcDbLine
 10
19.347646
 20
56.197514
 30
0.0
 11
19.347646
 21
55.738903
 31
0.0
  0
LINE
  5
102
100
AcDbEntity
  8
Layer_1
 62
7
100
AcDbLine
 10
19.347646
 20
55.738903
 30
0.0
 11
19.347646
 21
2.945709
 31
0.0
  0
LINE
  5
103
100
AcDbEntity
  8
Layer_1
 62
7
100
AcDbLine
 10
19.347646
 20
2.945709
 30
0.0
 11
19.347646
 21
2.487097
 31
0.0
  0
LINE
  5
104
100
AcDbEntity
  8
Layer_1
 62
7
100
AcDbLine
 10
19.347646
 20
2.487097
 30
0.0
 11
19.347646
 21
0.052931
 31
0.0
  0
LINE
  5
105
100
AcDbEntity
  8
Layer_1
 62
7
100
AcDbLine
 10
19.347646
 20
0.052931
 30
0.0
 11
25.247854
 21
0.052931
 31
0.0
  0
LINE
  5
106
100
AcDbEntity
  8
Layer_1
 62
7
100
AcDbLine
 10
25.247854
 20
0.052931
 30
0.0
 11
25.247854
 21
2.487097
 31
0.0
  0
LINE
  5
107
100
AcDbEntity
  8
Layer_1
 62
7
100
AcDbLine
 10
25.247854
 20
2.487097
 30
0.0
 11
148.931743
 21
2.487097
 31
0.0
  0
LINE
  5
108
100
AcDbEntity
  8
Layer_1
 62
7
100
AcDbLine
 10
148.931743
 20
2.487097
 30
0.0
 11
148.931743
 21
0.052931
 31
0.0
  0
LINE
  5
109
100
AcDbEntity
  8
Layer_1
 62
7
100
AcDbLine
 10
148.931743
 20
0.052931
 30
0.0
 11
154.831951
 21
0.052931
 31
0.0
  0
LINE
  5
10a
100
AcDbEntity
  8
Layer_1
 62
7
100
AcDbLine
 10
154.831951
 20
0.052931
 30
0.0
 11
154.831951
 21
2.487097
 31
0.0
  0
LINE
  5
10b
100
AcDbEntity
  8
Layer_1
 62
7
100
AcDbLine
 10
154.831951
 20
2.487097
 30
0.0
 11
278.524660
 21
2.487097
 31
0.0
  0
LINE
  5
10c
100
AcDbEntity
  8
Layer_1
 62
7
100
AcDbLine
 10
278.524660
 20
2.487097
 30
0.0
 11
278.524660
 21
0.052931
 31
0.0
  0
LINE
  5
10d
100
AcDbEntity
  8
Layer_1
 62
7
100
AcDbLine
 10
278.524660
 20
0.052931
 30
0.0
 11
284.424882
 21
0.052931
 31
0.0
  0
LINE
  5
10e
100
AcDbEntity
  8
Layer_1
 62
7
100
AcDbLine
 10
284.424882
 20
0.052931
 30
0.0
 11
284.424882
 21
2.487097
 31
0.0
  0
LINE
  5
10f
100
AcDbEntity
  8
Layer_1
 62
7
100
AcDbLine
 10
284.424882
 20
2.487097
 30
0.0
 11
408.117576
 21
2.487097
 31
0.0
  0
LINE
  5
110
100
AcDbEntity
  8
Layer_1
 62
7
100
AcDbLine
 10
408.117576
 20
2.487097
 30
0.0
 11
408.117576
 21
0.052931
 31
0.0
  0
LINE
  5
111
100
AcDbEntity
  8
Layer_1
 62
7
100
AcDbLine
 10
408.117576
 20
0.052931
 30
0.0
 11
414.017770
 21
0.052931
 31
0.0
  0
LINE
  5
112
100
AcDbEntity
  8
Layer_1
 62
7
100
AcDbLine
 10
414.017770
 20
0.052931
 30
0.0
 11
414.017770
 21
2.487097
 31
0.0
  0
LINE
  5
113
100
AcDbEntity
  8
Layer_1
 62
7
100
AcDbLine
 10
414.017770
 20
2.487097
 30
0.0
 11
537.710493
 21
2.487097
 31
0.0
  0
LINE
  5
114
100
AcDbEntity
  8
Layer_1
 62
7
100
AcDbLine
 10
537.710493
 20
2.487097
 30
0.0
 11
537.710493
 21
0.052931
 31
0.0
  0
LINE
  5
115
100
AcDbEntity
  8
Layer_1
 62
7
100
AcDbLine
 10
537.710493
 20
0.052931
 30
0.0
 11
543.610715
 21
0.052931
 31
0.0
  0
LINE
  5
116
100
AcDbEntity
  8
Layer_1
 62
7
100
AcDbLine
 10
543.610715
 20
0.052931
 30
0.0
 11
543.610715
 21
2.487097
 31
0.0
  0
LINE
  5
117
100
AcDbEntity
  8
Layer_1
 62
7
100
AcDbLine
 10
543.610715
 20
2.487097
 30
0.0
 11
667.294604
 21
2.487097
 31
0.0
  0
LINE
  5
118
100
AcDbEntity
  8
Layer_1
 62
7
100
AcDbLine
 10
667.294604
 20
2.487097
 30
0.0
 11
667.294604
 21
0.052931
 31
0.0
  0
LINE
  5
119
100
AcDbEntity
  8
Layer_1
 62
7
100
AcDbLine
 10
667.294604
 20
0.052931
 30
0.0
 11
673.194798
 21
0.052931
 31
0.0
  0
LINE
  5
11a
100
AcDbEntity
  8
Layer_1
 62
7
100
AcDbLine
 10
673.194798
 20
0.052931
 30
0.0
 11
673.194798
 21
2.487097
 31
0.0
  0
LINE
  5
11b
100
AcDbEntity
  8
Layer_1
 62
7
100
AcDbLine
 10
673.194798
 20
2.487097
 30
0.0
 11
796.887493
 21
2.487097
 31
0.0
  0
LINE
  5
11c
100
AcDbEntity
  8
Layer_1
 62
7
100
AcDbLine
 10
796.887493
 20
2.487097
 30
0.0
 11
796.887493
 21
0.052931
 31
0.0
  0
LINE
  5
11d
100
AcDbEntity
  8
Layer_1
 62
7
100
AcDbLine
 10
796.887493
 20
0.052931
 30
0.0
 11
802.787715
 21
0.052931
 31
0.0
  0
LINE
  5
11e
100
AcDbEntity
  8
Layer_1
 62
7
100
AcDbLine
 10
802.787715
 20
0.052931
 30
0.0
 11
802.787715
 21
2.487097
 31
0.0
  0
LINE
  5
11f
100
AcDbEntity
  8
Layer_1
 62
7
100
AcDbLine
 10
802.787715
 20
2.487097
 30
0.0
 11
926.480438
 21
2.487097
 31
0.0
  0
LINE
  5
120
100
AcDbEntity
  8
Layer_1
 62
7
100
AcDbLine
 10
926.480438
 20
2.487097
 30
0.0
 11
926.480438
 21
0.052931
 31
0.0
  0
LINE
  5
121
100
AcDbEntity
  8
Layer_1
 62
7
100
AcDbLine
 10
926.480438
 20
0.052931
 30
0.0
 11
932.380632
 21
0.052931
 31
0.0
  0
LINE
  5
122
100
AcDbEntity
  8
Layer_1
 62
7
100
AcDbLine
 10
932.380632
 20
0.052931
 30
0.0
 11
932.380632
 21
2.945709
 31
0.0
  0
LINE
  5
123
100
AcDbEntity
  8
Layer_1
 62
7
100
AcDbLine
 10
932.380632
 20
2.945709
 30
0.0
 11
930.881326
 21
2.945709
 31
0.0
  0
LINE
  5
124
100
AcDbEntity
  8
Layer_1
 62
7
100
AcDbLine
 10
930.881326
 20
2.945709
 30
0.0
 11
930.881326
 21
55.738903
 31
0.0
  0
LINE
  5
125
100
AcDbEntity
  8
Layer_1
 62
7
100
AcDbLine
 10
930.881326
 20
55.738903
 30
0.0
 11
932.380632
 21
55.738903
 31
0.0
  0
LINE
  5
126
100
AcDbEntity
  8
Layer_1
 62
7
100
AcDbLine
 10
932.380632
 20
55.738903
 30
0.0
 11
932.380632
 21
58.640500
 31
0.0
  0
LINE
  5
127
100
AcDbEntity
  8
Layer_1
 62
7
100
AcDbLine
 10
932.380632
 20
58.640500
 30
0.0
 11
926.480438
 21
58.640500
 31
0.0
  0
LINE
  5
128
100
AcDbEntity
  8
Layer_1
 62
7
100
AcDbLine
 10
926.480438
 20
58.640500
 30
0.0
 11
926.480438
 21
56.197514
 31
0.0
  0
LINE
  5
129
100
AcDbEntity
  8
Layer_1
 62
7
100
AcDbLine
 10
926.480438
 20
56.197514
 30
0.0
 11
802.787715
 21
56.197514
 31
0.0
  0
LINE
  5
12a
100
AcDbEntity
  8
Layer_1
 62
7
100
AcDbLine
 10
802.787715
 20
56.197514
 30
0.0
 11
802.787715
 21
58.640500
 31
0.0
  0
LINE
  5
12b
100
AcDbEntity
  8
Layer_1
 62
7
100
AcDbLine
 10
802.787715
 20
58.640500
 30
0.0
 11
796.887493
 21
58.640500
 31
0.0
  0
LINE
  5
12c
100
AcDbEntity
  8
Layer_1
 62
7
100
AcDbLine
 10
796.887493
 20
58.640500
 30
0.0
 11
796.887493
 21
56.197514
 31
0.0
  0
LINE
  5
12d
100
AcDbEntity
  8
Layer_1
 62
7
100
AcDbLine
 10
796.887493
 20
56.197514
 30
0.0
 11
673.194798
 21
56.197514
 31
0.0
  0
LINE
  5
12e
100
AcDbEntity
  8
Layer_1
 62
7
100
AcDbLine
 10
673.194798
 20
56.197514
 30
0.0
 11
673.194798
 21
58.640500
 31
0.0
  0
LINE
  5
12f
100
AcDbEntity
  8
Layer_1
 62
7
100
AcDbLine
 10
673.194798
 20
58.640500
 30
0.0
 11
667.294604
 21
58.640500
 31
0.0
  0
LINE
  5
130
100
AcDbEntity
  8
Layer_1
 62
7
100
AcDbLine
 10
667.294604
 20
58.640500
 30
0.0
 11
667.294604
 21
56.197514
 31
0.0
  0
LINE
  5
131
100
AcDbEntity
  8
Layer_1
 62
7
100
AcDbLine
 10
667.294604
 20
56.197514
 30
0.0
 11
543.610715
 21
56.197514
 31
0.0
  0
LINE
  5
132
100
AcDbEntity
  8
Layer_1
 62
7
100
AcDbLine
 10
543.610715
 20
56.197514
 30
0.0
 11
543.610715
 21
58.640500
 31
0.0
  0
LINE
  5
133
100
AcDbEntity
  8
Layer_1
 62
7
100
AcDbLine
 10
543.610715
 20
58.640500
 30
0.0
 11
537.710493
 21
58.640500
 31
0.0
  0
LINE
  5
134
100
AcDbEntity
  8
Layer_1
 62
7
100
AcDbLine
 10
537.710493
 20
58.640500
 30
0.0
 11
537.710493
 21
56.197514
 31
0.0
  0
LINE
  5
135
100
AcDbEntity
  8
Layer_1
 62
7
100
AcDbLine
 10
537.710493
 20
56.197514
 30
0.0
 11
414.017770
 21
56.197514
 31
0.0
  0
LINE
  5
136
100
AcDbEntity
  8
Layer_1
 62
7
100
AcDbLine
 10
414.017770
 20
56.197514
 30
0.0
 11
414.017770
 21
58.640500
 31
0.0
  0
LINE
  5
137
100
AcDbEntity
  8
Layer_1
 62
7
100
AcDbLine
 10
414.017770
 20
58.640500
 30
0.0
 11
408.117576
 21
58.640500
 31
0.0
  0
LINE
  5
138
100
AcDbEntity
  8
Layer_1
 62
7
100
AcDbLine
 10
408.117576
 20
58.640500
 30
0.0
 11
408.117576
 21
56.197514
 31
0.0
  0
LINE
  5
139
100
AcDbEntity
  8
Layer_1
 62
7
100
AcDbLine
 10
408.117576
 20
56.197514
 30
0.0
 11
284.424882
 21
56.197514
 31
0.0
  0
LINE
  5
13a
100
AcDbEntity
  8
Layer_1
 62
7
100
AcDbLine
 10
284.424882
 20
56.197514
 30
0.0
 11
284.424882
 21
58.640500
 31
0.0
  0
LINE
  5
13b
100
AcDbEntity
  8
Layer_1
 62
7
100
AcDbLine
 10
284.424882
 20
58.640500
 30
0.0
 11
278.524660
 21
58.640500
 31
0.0
  0
LINE
  5
13c
100
AcDbEntity
  8
Layer_1
 62
7
100
AcDbLine
 10
278.524660
 20
58.640500
 30
0.0
 11
278.524660
 21
56.197514
 31
0.0
  0
LINE
  5
13d
100
AcDbEntity
  8
Layer_1
 62
7
100
AcDbLine
 10
278.524660
 20
56.197514
 30
0.0
 11
154.831951
 21
56.197514
 31
0.0
  0
LINE
  5
13e
100
AcDbEntity
  8
Layer_1
 62
7
100
AcDbLine
 10
154.831951
 20
56.197514
 30
0.0
 11
154.831951
 21
58.640500
 31
0.0
  0
LINE
  5
13f
100
AcDbEntity
  8
Layer_1
 62
7
100
AcDbLine
 10
154.831951
 20
58.640500
 30
0.0
 11
148.931743
 21
58.640500
 31
0.0
  0
LINE
  5
140
100
AcDbEntity
  8
Layer_1
 62
7
100
AcDbLine
 10
148.931743
 20
58.640500
 30
0.0
 11
148.931743
 21
56.197514
 31
0.0
  0
LINE
  5
141
100
AcDbEntity
  8
Layer_1
 62
7
100
AcDbLine
 10
148.931743
 20
56.197514
 30
0.0
 11
25.247854
 21
56.197514
 31
0.0
  0
LINE
  5
142
100
AcDbEntity
  8
Layer_1
 62
7
100
AcDbLine
 10
25.247854
 20
56.197514
 30
0.0
 11
25.247854
 21
58.640500
 31
0.0
  0
LINE
  5
143
100
AcDbEntity
  8
Layer_1
 62
7
100
AcDbLine
 10
25.247854
 20
58.640500
 30
0.0
 11
19.347646
 21
58.640500
 31
0.0
  0
LINE
  5
144
100
AcDbEntity
  8
Layer_1
 62
7
100
AcDbLine
 10
19.347646
 20
58.640500
 30
0.0
 11
19.347646
 21
58.640500
 31
0.0
  0
LINE
  5
145
100
AcDbEntity
  8
Layer_1
 62
7
100
AcDbLine
 10
29.138725
 20
56.845431
 30
0.0
 11
29.138725
 21
37.853727
 31
0.0
  0
LINE
  5
146
100
AcDbEntity
  8
Layer_1
 62
7
100
AcDbLine
 10
29.138725
 20
54.587648
 30
0.0
 11
29.138725
 21
35.595955
 31
0.0
  0
LINE
  5
147
100
AcDbEntity
  8
Layer_1
 62
7
100
AcDbLine
 10
29.138725
 20
23.517352
 30
0.0
 11
29.138725
 21
1.050290
 31
0.0
  0
LINE
  5
148
100
AcDbEntity
  8
Layer_1
 62
7
100
AcDbLine
 10
32.138724
 20
39.347648
 30
0.0
 11
32.138724
 21
20.355955
 31
0.0
  0
LINE
  5
149
100
AcDbEntity
  8
Layer_1
 62
7
100
AcDbLine
 10
32.138724
 20
9.432092
 30
0.0
 11
32.138724
 21
1.157168
 31
0.0
  0
LINE
  5
14a
100
AcDbEntity
  8
Layer_1
 62
7
100
AcDbLine
 10
32.138724
 20
57.461206
 30
0.0
 11
32.138724
 21
50.271511
 31
0.0
  0
LINE
  5
14b
100
AcDbEntity
  8
Layer_1
 62
7
100
AcDbLine
 10
35.138725
 20
56.845431
 30
0.0
 11
35.138725
 21
37.853727
 31
0.0
  0
LINE
  5
14c
100
AcDbEntity
  8
Layer_1
 62
7
100
AcDbLine
 10
35.138725
 20
54.587648
 30
0.0
 11
35.138725
 21
35.595955
 31
0.0
  0
LINE
  5
14d
100
AcDbEntity
  8
Layer_1
 62
7
100
AcDbLine
 10
35.138725
 20
23.517352
 30
0.0
 11
35.138725
 21
1.050290
 31
0.0
  0
LINE
  5
14e
100
AcDbEntity
  8
Layer_1
 62
7
100
AcDbLine
 10
38.138724
 20
39.347648
 30
0.0
 11
38.138724
 21
20.355955
 31
0.0
  0
LINE
  5
14f
100
AcDbEntity
  8
Layer_1
 62
7
100
AcDbLine
 10
38.138724
 20
9.432092
 30
0.0
 11
38.138724
 21
1.157168
 31
0.0
  0
LINE
  5
150
100
AcDbEntity
  8
Layer_1
 62
7
100
AcDbLine
 10
38.138724
 20
57.461206
 30
0.0
 11
38.138724
 21
50.271511
 31
0.0
  0
LINE
  5
151
100
AcDbEntity
  8
Layer_1
 62
7
100
AcDbLine
 10
41.138724
 20
56.845431
 30
0.0
 11
41.138724
 21
37.853727
 31
0.0
  0
LINE
  5
152
100
AcDbEntity
  8
Layer_1
 62
7
100
AcDbLine
 10
41.138724
 20
54.587648
 30
0.0
 11
41.138724
 21
35.595955
 31
0.0
  0
LINE
  5
153
100
AcDbEntity
  8
Layer_1
 62
7
100
AcDbLine
 10
41.138724
 20
23.517352
 30
0.0
 11
41.138724
 21
1.050290
 31
0.0
  0
LINE
  5
154
100
AcDbEntity
  8
Layer_1
 62
7
100
AcDbLine
 10
44.138724
 20
39.347648
 30
0.0
 11
44.138724
 21
20.355955
 31
0.0
  0
LINE
  5
155
100
AcDbEntity
  8
Layer_1
 62
7
100
AcDbLine
 10
44.138724
 20
9.432092
 30
0.0
 11
44.138724
 21
1.157168
 31
0.0
  0
LINE
  5
156
100
AcDbEntity
  8
Layer_1
 62
7
100
AcDbLine
 10
44.138724
 20
57.461206
 30
0.0
 11
44.138724
 21
50.271511
 31
0.0
  0
LINE
  5
157
100
AcDbEntity
  8
Layer_1
 62
7
100
AcDbLine
 10
47.138724
 20
56.845431
 30
0.0
 11
47.138724
 21
37.853727
 31
0.0
  0
LINE
  5
158
100
AcDbEntity
  8
Layer_1
 62
7
100
AcDbLine
 10
47.138724
 20
54.587648
 30
0.0
 11
47.138724
 21
35.595955
 31
0.0
  0
LINE
  5
159
100
AcDbEntity
  8
Layer_1
 62
7
100
AcDbLine
 10
47.138724
 20
23.517352
 30
0.0
 11
47.138724
 21
1.050290
 31
0.0
  0
LINE
  5
15a
100
AcDbEntity
  8
Layer_1
 62
7
100
AcDbLine
 10
50.138724
 20
39.347648
 30
0.0
 11
50.138724
 21
20.355955
 31
0.0
  0
LINE
  5
15b
100
AcDbEntity
  8
Layer_1
 62
7
100
AcDbLine
 10
50.138724
 20
9.432092
 30
0.0
 11
50.138724
 21
1.157168
 31
0.0
  0
LINE
  5
15c
100
AcDbEntity
  8
Layer_1
 62
7
100
AcDbLine
 10
50.138724
 20
57.461206
 30
0.0
 11
50.138724
 21
50.271511
 31
0.0
  0
LINE
  5
15d
100
AcDbEntity
  8
Layer_1
 62
7
100
AcDbLine
 10
53.138724
 20
56.845431
 30
0.0
 11
53.138724
 21
37.853727
 31
0.0
  0
LINE
  5
15e
100
AcDbEntity
  8
Layer_1
 62
7
100
AcDbLine
 10
53.138724
 20
54.587648
 30
0.0
 11
53.138724
 21
35.595955
 31
0.0
  0
LINE
  5
15f
100
AcDbEntity
  8
Layer_1
 62
7
100
AcDbLine
 10
53.138724
 20
23.517352
 30
0.0
 11
53.138724
 21
1.050290
 31
0.0
  0
LINE
  5
160
100
AcDbEntity
  8
Layer_1
 62
7
100
AcDbLine
 10
56.138724
 20
39.347648
 30
0.0
 11
56.138724
 21
20.355955
 31
0.0
  0
LINE
  5
161
100
AcDbEntity
  8
Layer_1
 62
7
100
AcDbLine
 10
56.138724
 20
9.432092
 30
0.0
 11
56.138724
 21
1.157168
 31
0.0
  0
LINE
  5
162
100
AcDbEntity
  8
Layer_1
 62
7
100
AcDbLine
 10
56.138724
 20
57.461206
 30
0.0
 11
56.138724
 21
50.271511
 31
0.0
  0
LINE
  5
163
100
AcDbEntity
  8
Layer_1
 62
7
100
AcDbLine
 10
59.138724
 20
56.845431
 30
0.0
 11
59.138724
 21
37.853727
 31
0.0
  0
LINE
  5
164
100
AcDbEntity
  8
Layer_1
 62
7
100
AcDbLine
 10
59.138724
 20
54.587648
 30
0.0
 11
59.138724
 21
35.595955
 31
0.0
  0
LINE
  5
165
100
AcDbEntity
  8
Layer_1
 62
7
100
AcDbLine
 10
59.138724
 20
23.517352
 30
0.0
 11
59.138724
 21
1.050290
 31
0.0
  0
LINE
  5
166
100
AcDbEntity
  8
Layer_1
 62
7
100
AcDbLine
 10
62.138724
 20
39.347648
 30
0.0
 11
62.138724
 21
20.355955
 31
0.0
  0
LINE
  5
167
100
AcDbEntity
  8
Layer_1
 62
7
100
AcDbLine
 10
62.138724
 20
9.432092
 30
0.0
 11
62.138724
 21
1.157168
 31
0.0
  0
LINE
  5
168
100
AcDbEntity
  8
Layer_1
 62
7
100
AcDbLine
 10
62.138724
 20
57.461206
 30
0.0
 11
62.138724
 21
50.271511
 31
0.0
  0
LINE
  5
169
100
AcDbEntity
  8
Layer_1
 62
7
100
AcDbLine
 10
65.138723
 20
56.845431
 30
0.0
 11
65.138723
 21
37.853727
 31
0.0
  0
LINE
  5
16a
100
AcDbEntity
  8
Layer_1
 62
7
100
AcDbLine
 10
65.138723
 20
54.587648
 30
0.0
 11
65.138723
 21
35.595955
 31
0.0
  0
LINE
  5
16b
100
AcDbEntity
  8
Layer_1
 62
7
100
AcDbLine
 10
65.138723
 20
23.517352
 30
0.0
 11
65.138723
 21
1.050290
 31
0.0
  0
LINE
  5
16c
100
AcDbEntity
  8
Layer_1
 62
7
100
AcDbLine
 10
68.138723
 20
39.347648
 30
0.0
 11
68.138723
 21
20.355955
 31
0.0
  0
LINE
  5
16d
100
AcDbEntity
  8
Layer_1
 62
7
100
AcDbLine
 10
68.138723
 20
9.432092
 30
0.0
 11
68.138723
 21
1.157168
 31
0.0
  0
LINE
  5
16e
100
AcDbEntity
  8
Layer_1
 62
7
100
AcDbLine
 10
68.138723
 20
57.461206
 30
0.0
 11
68.138723
 21
50.271511
 31
0.0
  0
LINE
  5
16f
100
AcDbEntity
  8
Layer_1
 62
7
100
AcDbLine
 10
71.138723
 20
56.845431
 30
0.0
 11
71.138723
 21
37.853727
 31
0.0
  0
LINE
  5
170
100
AcDbEntity
  8
Layer_1
 62
7
100
AcDbLine
 10
71.138723
 20
54.587648
 30
0.0
 11
71.138723
 21
35.595955
 31
0.0
  0
LINE
  5
171
100
AcDbEntity
  8
Layer_1
 62
7
100
AcDbLine
 10
71.138723
 20
23.517352
 30
0.0
 11
71.138723
 21
1.050290
 31
0.0
  0
LINE
  5
172
100
AcDbEntity
  8
Layer_1
 62
7
100
AcDbLine
 10
74.138722
 20
39.347648
 30
0.0
 11
74.138722
 21
20.355955
 31
0.0
  0
LINE
  5
173
100
AcDbEntity
  8
Layer_1
 62
7
100
AcDbLine
 10
74.138722
 20
9.432092
 30
0.0
 11
74.138722
 21
1.157168
 31
0.0
  0
LINE
  5
174
100
AcDbEntity
  8
Layer_1
 62
7
100
AcDbLine
 10
74.138722
 20
57.461206
 30
0.0
 11
74.138722
 21
50.271511
 31
0.0
  0
LINE
  5
175
100
AcDbEntity
  8
Layer_1
 62
7
100
AcDbLine
 10
77.138722
 20
56.845431
 30
0.0
 11
77.138722
 21
37.853727
 31
0.0
  0
LINE
  5
176
100
AcDbEntity
  8
Layer_1
 62
7
100
AcDbLine
 10
77.138722
 20
54.587648
 30
0.0
 11
77.138722
 21
35.595955
 31
0.0
  0
LINE
  5
177
100
AcDbEntity
  8
Layer_1
 62
7
100
AcDbLine
 10
77.138722
 20
23.517352
 30
0.0
 11
77.138722
 21
1.050290
 31
0.0
  0
LINE
  5
178
100
AcDbEntity
  8
Layer_1
 62
7
100
AcDbLine
 10
80.138722
 20
39.347648
 30
0.0
 11
80.138722
 21
20.355955
 31
0.0
  0
LINE
  5
179
100
AcDbEntity
  8
Layer_1
 62
7
100
AcDbLine
 10
80.138722
 20
9.432092
 30
0.0
 11
80.138722
 21
1.157168
 31
0.0
  0
LINE
  5
17a
100
AcDbEntity
  8
Layer_1
 62
7
100
AcDbLine
 10
80.138722
 20
57.461206
 30
0.0
 11
80.138722
 21
50.271511
 31
0.0
  0
LINE
  5
17b
100
AcDbEntity
  8
Layer_1
 62
7
100
AcDbLine
 10
83.138721
 20
56.845431
 30
0.0
 11
83.138721
 21
37.853727
 31
0.0
  0
LINE
  5
17c
100
AcDbEntity
  8
Layer_1
 62
7
100
AcDbLine
 10
83.138721
 20
54.587648
 30
0.0
 11
83.138721
 21
35.595955
 31
0.0
  0
LINE
  5
17d
100
AcDbEntity
  8
Layer_1
 62
7
100
AcDbLine
 10
83.138721
 20
23.517352
 30
0.0
 11
83.138721
 21
1.050290
 31
0.0
  0
LINE
  5
17e
100
AcDbEntity
  8
Layer_1
 62
7
100
AcDbLine
 10
86.138721
 20
39.347648
 30
0.0
 11
86.138721
 21
20.355955
 31
0.0
  0
LINE
  5
17f
100
AcDbEntity
  8
Layer_1
 62
7
100
AcDbLine
 10
86.138721
 20
9.432092
 30
0.0
 11
86.138721
 21
1.157168
 31
0.0
  0
LINE
  5
180
100
AcDbEntity
  8
Layer_1
 62
7
100
AcDbLine
 10
86.138721
 20
57.461206
 30
0.0
 11
86.138721
 21
50.271511
 31
0.0
  0
LINE
  5
181
100
AcDbEntity
  8
Layer_1
 62
7
100
AcDbLine
 10
89.138720
 20
56.845431
 30
0.0
 11
89.138720
 21
37.853727
 31
0.0
  0
LINE
  5
182
100
AcDbEntity
  8
Layer_1
 62
7
100
AcDbLine
 10
89.138720
 20
54.587648
 30
0.0
 11
89.138720
 21
35.595955
 31
0.0
  0
LINE
  5
183
100
AcDbEntity
  8
Layer_1
 62
7
100
AcDbLine
 10
89.138720
 20
23.517352
 30
0.0
 11
89.138720
 21
1.050290
 31
0.0
  0
LINE
  5
184
100
AcDbEntity
  8
Layer_1
 62
7
100
AcDbLine
 10
92.138720
 20
39.347648
 30
0.0
 11
92.138720
 21
20.355955
 31
0.0
  0
LINE
  5
185
100
AcDbEntity
  8
Layer_1
 62
7
100
AcDbLine
 10
92.138720
 20
9.432092
 30
0.0
 11
92.138720
 21
1.157168
 31
0.0
  0
LINE
  5
186
100
AcDbEntity
  8
Layer_1
 62
7
100
AcDbLine
 10
92.138720
 20
57.461206
 30
0.0
 11
92.138720
 21
50.271511
 31
0.0
  0
LINE
  5
187
100
AcDbEntity
  8
Layer_1
 62
7
100
AcDbLine
 10
95.138720
 20
56.845431
 30
0.0
 11
95.138720
 21
37.853727
 31
0.0
  0
LINE
  5
188
100
AcDbEntity
  8
Layer_1
 62
7
100
AcDbLine
 10
95.138720
 20
54.587648
 30
0.0
 11
95.138720
 21
35.595955
 31
0.0
  0
LINE
  5
189
100
AcDbEntity
  8
Layer_1
 62
7
100
AcDbLine
 10
95.138720
 20
23.517352
 30
0.0
 11
95.138720
 21
1.050290
 31
0.0
  0
LINE
  5
18a
100
AcDbEntity
  8
Layer_1
 62
7
100
AcDbLine
 10
98.138719
 20
39.347648
 30
0.0
 11
98.138719
 21
20.355955
 31
0.0
  0
LINE
  5
18b
100
AcDbEntity
  8
Layer_1
 62
7
100
AcDbLine
 10
98.138719
 20
9.432092
 30
0.0
 11
98.138719
 21
1.157168
 31
0.0
  0
LINE
  5
18c
100
AcDbEntity
  8
Layer_1
 62
7
100
AcDbLine
 10
98.138719
 20
57.461206
 30
0.0
 11
98.138719
 21
50.271511
 31
0.0
  0
LINE
  5
18d
100
AcDbEntity
  8
Layer_1
 62
7
100
AcDbLine
 10
101.138719
 20
56.845431
 30
0.0
 11
101.138719
 21
37.853727
 31
0.0
  0
LINE
  5
18e
100
AcDbEntity
  8
Layer_1
 62
7
100
AcDbLine
 10
101.138719
 20
54.587648
 30
0.0
 11
101.138719
 21
35.595955
 31
0.0
  0
LINE
  5
18f
100
AcDbEntity
  8
Layer_1
 62
7
100
AcDbLine
 10
101.138719
 20
23.517352
 30
0.0
 11
101.138719
 21
1.050290
 31
0.0
  0
LINE
  5
190
100
AcDbEntity
  8
Layer_1
 62
7
100
AcDbLine
 10
104.138719
 20
39.347648
 30
0.0
 11
104.138719
 21
20.355955
 31
0.0
  0
LINE
  5
191
100
AcDbEntity
  8
Layer_1
 62
7
100
AcDbLine
 10
104.138719
 20
9.432092
 30
0.0
 11
104.138719
 21
1.157168
 31
0.0
  0
LINE
  5
192
100
AcDbEntity
  8
Layer_1
 62
7
100
AcDbLine
 10
104.138719
 20
57.461206
 30
0.0
 11
104.138719
 21
50.271511
 31
0.0
  0
LINE
  5
193
100
AcDbEntity
  8
Layer_1
 62
7
100
AcDbLine
 10
107.138718
 20
56.845431
 30
0.0
 11
107.138718
 21
37.853727
 31
0.0
  0
LINE
  5
194
100
AcDbEntity
  8
Layer_1
 62
7
100
AcDbLine
 10
107.138718
 20
54.587648
 30
0.0
 11
107.138718
 21
35.595955
 31
0.0
  0
LINE
  5
195
100
AcDbEntity
  8
Layer_1
 62
7
100
AcDbLine
 10
107.138718
 20
23.517352
 30
0.0
 11
107.138718
 21
1.050290
 31
0.0
  0
LINE
  5
196
100
AcDbEntity
  8
Layer_1
 62
7
100
AcDbLine
 10
110.138718
 20
39.347648
 30
0.0
 11
110.138718
 21
20.355955
 31
0.0
  0
LINE
  5
197
100
AcDbEntity
  8
Layer_1
 62
7
100
AcDbLine
 10
110.138718
 20
9.432092
 30
0.0
 11
110.138718
 21
1.157168
 31
0.0
  0
LINE
  5
198
100
AcDbEntity
  8
Layer_1
 62
7
100
AcDbLine
 10
110.138718
 20
57.461206
 30
0.0
 11
110.138718
 21
50.271511
 31
0.0
  0
LINE
  5
199
100
AcDbEntity
  8
Layer_1
 62
7
100
AcDbLine
 10
113.138718
 20
56.845431
 30
0.0
 11
113.138718
 21
37.853727
 31
0.0
  0
LINE
  5
19a
100
AcDbEntity
  8
Layer_1
 62
7
100
AcDbLine
 10
113.138718
 20
54.587648
 30
0.0
 11
113.138718
 21
35.595955
 31
0.0
  0
LINE
  5
19b
100
AcDbEntity
  8
Layer_1
 62
7
100
AcDbLine
 10
113.138718
 20
23.517352
 30
0.0
 11
113.138718
 21
1.050290
 31
0.0
  0
LINE
  5
19c
100
AcDbEntity
  8
Layer_1
 62
7
100
AcDbLine
 10
116.138717
 20
39.347648
 30
0.0
 11
116.138717
 21
20.355955
 31
0.0
  0
LINE
  5
19d
100
AcDbEntity
  8
Layer_1
 62
7
100
AcDbLine
 10
116.138717
 20
9.432092
 30
0.0
 11
116.138717
 21
1.157168
 31
0.0
  0
LINE
  5
19e
100
AcDbEntity
  8
Layer_1
 62
7
100
AcDbLine
 10
116.138717
 20
57.461206
 30
0.0
 11
116.138717
 21
50.271511
 31
0.0
  0
LINE
  5
19f
100
AcDbEntity
  8
Layer_1
 62
7
100
AcDbLine
 10
119.138717
 20
56.845431
 30
0.0
 11
119.138717
 21
37.853727
 31
0.0
  0
LINE
  5
1a0
100
AcDbEntity
  8
Layer_1
 62
7
100
AcDbLine
 10
119.138717
 20
54.587648
 30
0.0
 11
119.138717
 21
35.595955
 31
0.0
  0
LINE
  5
1a1
100
AcDbEntity
  8
Layer_1
 62
7
100
AcDbLine
 10
119.138717
 20
23.517352
 30
0.0
 11
119.138717
 21
1.050290
 31
0.0
  0
LINE
  5
1a2
100
AcDbEntity
  8
Layer_1
 62
7
100
AcDbLine
 10
122.138717
 20
39.347648
 30
0.0
 11
122.138717
 21
20.355955
 31
0.0
  0
LINE
  5
1a3
100
AcDbEntity
  8
Layer_1
 62
7
100
AcDbLine
 10
122.138717
 20
9.432092
 30
0.0
 11
122.138717
 21
1.157168
 31
0.0
  0
LINE
  5
1a4
100
AcDbEntity
  8
Layer_1
 62
7
100
AcDbLine
 10
122.138717
 20
57.461206
 30
0.0
 11
122.138717
 21
50.271511
 31
0.0
  0
LINE
  5
1a5
100
AcDbEntity
  8
Layer_1
 62
7
100
AcDbLine
 10
125.138716
 20
56.845431
 30
0.0
 11
125.138716
 21
37.853727
 31
0.0
  0
LINE
  5
1a6
100
AcDbEntity
  8
Layer_1
 62
7
100
AcDbLine
 10
125.138716
 20
54.587648
 30
0.0
 11
125.138716
 21
35.595955
 31
0.0
  0
LINE
  5
1a7
100
AcDbEntity
  8
Layer_1
 62
7
100
AcDbLine
 10
125.138716
 20
23.517352
 30
0.0
 11
125.138716
 21
1.050290
 31
0.0
  0
LINE
  5
1a8
100
AcDbEntity
  8
Layer_1
 62
7
100
AcDbLine
 10
128.138716
 20
39.347648
 30
0.0
 11
128.138716
 21
20.355955
 31
0.0
  0
LINE
  5
1a9
100
AcDbEntity
  8
Layer_1
 62
7
100
AcDbLine
 10
128.138716
 20
9.432092
 30
0.0
 11
128.138716
 21
1.157168
 31
0.0
  0
LINE
  5
1aa
100
AcDbEntity
  8
Layer_1
 62
7
100
AcDbLine
 10
128.138716
 20
57.461206
 30
0.0
 11
128.138716
 21
50.271511
 31
0.0
  0
LINE
  5
1ab
100
AcDbEntity
  8
Layer_1
 62
7
100
AcDbLine
 10
131.138716
 20
56.845431
 30
0.0
 11
131.138716
 21
37.853727
 31
0.0
  0
LINE
  5
1ac
100
AcDbEntity
  8
Layer_1
 62
7
100
AcDbLine
 10
131.138716
 20
54.587648
 30
0.0
 11
131.138716
 21
35.595955
 31
0.0
  0
LINE
  5
1ad
100
AcDbEntity
  8
Layer_1
 62
7
100
AcDbLine
 10
131.138716
 20
23.517352
 30
0.0
 11
131.138716
 21
1.050290
 31
0.0
  0
LINE
  5
1ae
100
AcDbEntity
  8
Layer_1
 62
7
100
AcDbLine
 10
134.138715
 20
39.347648
 30
0.0
 11
134.138715
 21
20.355955
 31
0.0
  0
LINE
  5
1af
100
AcDbEntity
  8
Layer_1
 62
7
100
AcDbLine
 10
134.138715
 20
9.432092
 30
0.0
 11
134.138715
 21
1.157168
 31
0.0
  0
LINE
  5
1b0
100
AcDbEntity
  8
Layer_1
 62
7
100
AcDbLine
 10
134.138715
 20
57.461206
 30
0.0
 11
134.138715
 21
50.271511
 31
0.0
  0
LINE
  5
1b1
100
AcDbEntity
  8
Layer_1
 62
7
100
AcDbLine
 10
137.138715
 20
56.845431
 30
0.0
 11
137.138715
 21
37.853727
 31
0.0
  0
LINE
  5
1b2
100
AcDbEntity
  8
Layer_1
 62
7
100
AcDbLine
 10
137.138715
 20
54.587648
 30
0.0
 11
137.138715
 21
35.595955
 31
0.0
  0
LINE
  5
1b3
100
AcDbEntity
  8
Layer_1
 62
7
100
AcDbLine
 10
137.138715
 20
23.517352
 30
0.0
 11
137.138715
 21
1.050290
 31
0.0
  0
LINE
  5
1b4
100
AcDbEntity
  8
Layer_1
 62
7
100
AcDbLine
 10
140.138714
 20
39.347648
 30
0.0
 11
140.138714
 21
20.355955
 31
0.0
  0
LINE
  5
1b5
100
AcDbEntity
  8
Layer_1
 62
7
100
AcDbLine
 10
140.138714
 20
9.432092
 30
0.0
 11
140.138714
 21
1.157168
 31
0.0
  0
LINE
  5
1b6
100
AcDbEntity
  8
Layer_1
 62
7
100
AcDbLine
 10
140.138714
 20
57.461206
 30
0.0
 11
140.138714
 21
50.271511
 31
0.0
  0
LINE
  5
1b7
100
AcDbEntity
  8
Layer_1
 62
7
100
AcDbLine
 10
143.138714
 20
56.845431
 30
0.0
 11
143.138714
 21
37.853727
 31
0.0
  0
LINE
  5
1b8
100
AcDbEntity
  8
Layer_1
 62
7
100
AcDbLine
 10
143.138714
 20
54.587648
 30
0.0
 11
143.138714
 21
35.595955
 31
0.0
  0
LINE
  5
1b9
100
AcDbEntity
  8
Layer_1
 62
7
100
AcDbLine
 10
143.138714
 20
23.517352
 30
0.0
 11
143.138714
 21
1.050290
 31
0.0
  0
LINE
  5
1ba
100
AcDbEntity
  8
Layer_1
 62
7
100
AcDbLine
 10
146.138714
 20
39.347648
 30
0.0
 11
146.138714
 21
20.355955
 31
0.0
  0
LINE
  5
1bb
100
AcDbEntity
  8
Layer_1
 62
7
100
AcDbLine
 10
146.138714
 20
9.432092
 30
0.0
 11
146.138714
 21
1.157168
 31
0.0
  0
LINE
  5
1bc
100
AcDbEntity
  8
Layer_1
 62
7
100
AcDbLine
 10
146.138714
 20
57.461206
 30
0.0
 11
146.138714
 21
50.271511
 31
0.0
  0
LINE
  5
1bd
100
AcDbEntity
  8
Layer_1
 62
7
100
AcDbLine
 10
158.138712
 20
39.347648
 30
0.0
 11
158.138712
 21
20.355955
 31
0.0
  0
LINE
  5
1be
100
AcDbEntity
  8
Layer_1
 62
7
100
AcDbLine
 10
158.138712
 20
9.432092
 30
0.0
 11
158.138712
 21
1.157168
 31
0.0
  0
LINE
  5
1bf
100
AcDbEntity
  8
Layer_1
 62
7
100
AcDbLine
 10
158.138712
 20
57.461206
 30
0.0
 11
158.138712
 21
50.271511
 31
0.0
  0
LINE
  5
1c0
100
AcDbEntity
  8
Layer_1
 62
7
100
AcDbLine
 10
161.138712
 20
56.845431
 30
0.0
 11
161.138712
 21
37.853727
 31
0.0
  0
LINE
  5
1c1
100
AcDbEntity
  8
Layer_1
 62
7
100
AcDbLine
 10
161.138712
 20
54.587648
 30
0.0
 11
161.138712
 21
35.595955
 31
0.0
  0
LINE
  5
1c2
100
AcDbEntity
  8
Layer_1
 62
7
100
AcDbLine
 10
161.138712
 20
23.517352
 30
0.0
 11
161.138712
 21
1.050290
 31
0.0
  0
LINE
  5
1c3
100
AcDbEntity
  8
Layer_1
 62
7
100
AcDbLine
 10
164.138712
 20
39.347648
 30
0.0
 11
164.138712
 21
20.355955
 31
0.0
  0
LINE
  5
1c4
100
AcDbEntity
  8
Layer_1
 62
7
100
AcDbLine
 10
164.138712
 20
9.432092
 30
0.0
 11
164.138712
 21
1.157168
 31
0.0
  0
LINE
  5
1c5
100
AcDbEntity
  8
Layer_1
 62
7
100
AcDbLine
 10
164.138712
 20
57.461206
 30
0.0
 11
164.138712
 21
50.271511
 31
0.0
  0
LINE
  5
1c6
100
AcDbEntity
  8
Layer_1
 62
7
100
AcDbLine
 10
167.138711
 20
56.845431
 30
0.0
 11
167.138711
 21
37.853727
 31
0.0
  0
LINE
  5
1c7
100
AcDbEntity
  8
Layer_1
 62
7
100
AcDbLine
 10
167.138711
 20
54.587648
 30
0.0
 11
167.138711
 21
35.595955
 31
0.0
  0
LINE
  5
1c8
100
AcDbEntity
  8
Layer_1
 62
7
100
AcDbLine
 10
167.138711
 20
23.517352
 30
0.0
 11
167.138711
 21
1.050290
 31
0.0
  0
LINE
  5
1c9
100
AcDbEntity
  8
Layer_1
 62
7
100
AcDbLine
 10
170.138711
 20
39.347648
 30
0.0
 11
170.138711
 21
20.355955
 31
0.0
  0
LINE
  5
1ca
100
AcDbEntity
  8
Layer_1
 62
7
100
AcDbLine
 10
170.138711
 20
9.432092
 30
0.0
 11
170.138711
 21
1.157168
 31
0.0
  0
LINE
  5
1cb
100
AcDbEntity
  8
Layer_1
 62
7
100
AcDbLine
 10
170.138711
 20
57.461206
 30
0.0
 11
170.138711
 21
50.271511
 31
0.0
  0
LINE
  5
1cc
100
AcDbEntity
  8
Layer_1
 62
7
100
AcDbLine
 10
173.138711
 20
56.845431
 30
0.0
 11
173.138711
 21
37.853727
 31
0.0
  0
LINE
  5
1cd
100
AcDbEntity
  8
Layer_1
 62
7
100
AcDbLine
 10
173.138711
 20
54.587648
 30
0.0
 11
173.138711
 21
35.595955
 31
0.0
  0
LINE
  5
1ce
100
AcDbEntity
  8
Layer_1
 62
7
100
AcDbLine
 10
173.138711
 20
23.517352
 30
0.0
 11
173.138711
 21
1.050290
 31
0.0
  0
LINE
  5
1cf
100
AcDbEntity
  8
Layer_1
 62
7
100
AcDbLine
 10
176.138710
 20
39.347648
 30
0.0
 11
176.138710
 21
20.355955
 31
0.0
  0
LINE
  5
1d0
100
AcDbEntity
  8
Layer_1
 62
7
100
AcDbLine
 10
176.138710
 20
9.432092
 30
0.0
 11
176.138710
 21
1.157168
 31
0.0
  0
LINE
  5
1d1
100
AcDbEntity
  8
Layer_1
 62
7
100
AcDbLine
 10
176.138710
 20
57.461206
 30
0.0
 11
176.138710
 21
50.271511
 31
0.0
  0
LINE
  5
1d2
100
AcDbEntity
  8
Layer_1
 62
7
100
AcDbLine
 10
179.138710
 20
56.845431
 30
0.0
 11
179.138710
 21
37.853727
 31
0.0
  0
LINE
  5
1d3
100
AcDbEntity
  8
Layer_1
 62
7
100
AcDbLine
 10
179.138710
 20
54.587648
 30
0.0
 11
179.138710
 21
35.595955
 31
0.0
  0
LINE
  5
1d4
100
AcDbEntity
  8
Layer_1
 62
7
100
AcDbLine
 10
179.138710
 20
23.517352
 30
0.0
 11
179.138710
 21
1.050290
 31
0.0
  0
LINE
  5
1d5
100
AcDbEntity
  8
Layer_1
 62
7
100
AcDbLine
 10
182.138709
 20
39.347648
 30
0.0
 11
182.138709
 21
20.355955
 31
0.0
  0
LINE
  5
1d6
100
AcDbEntity
  8
Layer_1
 62
7
100
AcDbLine
 10
182.138709
 20
9.432092
 30
0.0
 11
182.138709
 21
1.157168
 31
0.0
  0
LINE
  5
1d7
100
AcDbEntity
  8
Layer_1
 62
7
100
AcDbLine
 10
182.138709
 20
57.461206
 30
0.0
 11
182.138709
 21
50.271511
 31
0.0
  0
LINE
  5
1d8
100
AcDbEntity
  8
Layer_1
 62
7
100
AcDbLine
 10
185.138709
 20
56.845431
 30
0.0
 11
185.138709
 21
37.853727
 31
0.0
  0
LINE
  5
1d9
100
AcDbEntity
  8
Layer_1
 62
7
100
AcDbLine
 10
185.138709
 20
54.587648
 30
0.0
 11
185.138709
 21
35.595955
 31
0.0
  0
LINE
  5
1da
100
AcDbEntity
  8
Layer_1
 62
7
100
AcDbLine
 10
185.138709
 20
23.517352
 30
0.0
 11
185.138709
 21
1.050290
 31
0.0
  0
LINE
  5
1db
100
AcDbEntity
  8
Layer_1
 62
7
100
AcDbLine
 10
188.138709
 20
39.347648
 30
0.0
 11
188.138709
 21
20.355955
 31
0.0
  0
LINE
  5
1dc
100
AcDbEntity
  8
Layer_1
 62
7
100
AcDbLine
 10
188.138709
 20
9.432092
 30
0.0
 11
188.138709
 21
1.157168
 31
0.0
  0
LINE
  5
1dd
100
AcDbEntity
  8
Layer_1
 62
7
100
AcDbLine
 10
188.138709
 20
57.461206
 30
0.0
 11
188.138709
 21
50.271511
 31
0.0
  0
LINE
  5
1de
100
AcDbEntity
  8
Layer_1
 62
7
100
AcDbLine
 10
191.138708
 20
56.845431
 30
0.0
 11
191.138708
 21
37.853727
 31
0.0
  0
LINE
  5
1df
100
AcDbEntity
  8
Layer_1
 62
7
100
AcDbLine
 10
191.138708
 20
54.587648
 30
0.0
 11
191.138708
 21
35.595955
 31
0.0
  0
LINE
  5
1e0
100
AcDbEntity
  8
Layer_1
 62
7
100
AcDbLine
 10
191.138708
 20
23.517352
 30
0.0
 11
191.138708
 21
1.050290
 31
0.0
  0
LINE
  5
1e1
100
AcDbEntity
  8
Layer_1
 62
7
100
AcDbLine
 10
194.138708
 20
39.347648
 30
0.0
 11
194.138708
 21
20.355955
 31
0.0
  0
LINE
  5
1e2
100
AcDbEntity
  8
Layer_1
 62
7
100
AcDbLine
 10
194.138708
 20
9.432092
 30
0.0
 11
194.138708
 21
1.157168
 31
0.0
  0
LINE
  5
1e3
100
AcDbEntity
  8
Layer_1
 62
7
100
AcDbLine
 10
194.138708
 20
57.461206
 30
0.0
 11
194.138708
 21
50.271511
 31
0.0
  0
LINE
  5
1e4
100
AcDbEntity
  8
Layer_1
 62
7
100
AcDbLine
 10
197.138708
 20
56.845431
 30
0.0
 11
197.138708
 21
37.853727
 31
0.0
  0
LINE
  5
1e5
100
AcDbEntity
  8
Layer_1
 62
7
100
AcDbLine
 10
197.138708
 20
54.587648
 30
0.0
 11
197.138708
 21
35.595955
 31
0.0
  0
LINE
  5
1e6
100
AcDbEntity
  8
Layer_1
 62
7
100
AcDbLine
 10
197.138708
 20
23.517352
 30
0.0
 11
197.138708
 21
1.050290
 31
0.0
  0
LINE
  5
1e7
100
AcDbEntity
  8
Layer_1
 62
7
100
AcDbLine
 10
200.138707
 20
39.347648
 30
0.0
 11
200.138707
 21
20.355955
 31
0.0
  0
LINE
  5
1e8
100
AcDbEntity
  8
Layer_1
 62
7
100
AcDbLine
 10
200.138707
 20
9.432092
 30
0.0
 11
200.138707
 21
1.157168
 31
0.0
  0
LINE
  5
1e9
100
AcDbEntity
  8
Layer_1
 62
7
100
AcDbLine
 10
200.138707
 20
57.461206
 30
0.0
 11
200.138707
 21
50.271511
 31
0.0
  0
LINE
  5
1ea
100
AcDbEntity
  8
Layer_1
 62
7
100
AcDbLine
 10
203.138707
 20
56.845431
 30
0.0
 11
203.138707
 21
37.853727
 31
0.0
  0
LINE
  5
1eb
100
AcDbEntity
  8
Layer_1
 62
7
100
AcDbLine
 10
203.138707
 20
54.587648
 30
0.0
 11
203.138707
 21
35.595955
 31
0.0
  0
LINE
  5
1ec
100
AcDbEntity
  8
Layer_1
 62
7
100
AcDbLine
 10
203.138707
 20
23.517352
 30
0.0
 11
203.138707
 21
1.050290
 31
0.0
  0
LINE
  5
1ed
100
AcDbEntity
  8
Layer_1
 62
7
100
AcDbLine
 10
206.138707
 20
39.347648
 30
0.0
 11
206.138707
 21
20.355955
 31
0.0
  0
LINE
  5
1ee
100
AcDbEntity
  8
Layer_1
 62
7
100
AcDbLine
 10
206.138707
 20
9.432092
 30
0.0
 11
206.138707
 21
1.157168
 31
0.0
  0
LINE
  5
1ef
100
AcDbEntity
  8
Layer_1
 62
7
100
AcDbLine
 10
206.138707
 20
57.461206
 30
0.0
 11
206.138707
 21
50.271511
 31
0.0
  0
LINE
  5
1f0
100
AcDbEntity
  8
Layer_1
 62
7
100
AcDbLine
 10
203.138707
 20
56.845431
 30
0.0
 11
203.138707
 21
37.853727
 31
0.0
  0
LINE
  5
1f1
100
AcDbEntity
  8
Layer_1
 62
7
100
AcDbLine
 10
203.138707
 20
54.587648
 30
0.0
 11
203.138707
 21
35.595955
 31
0.0
  0
LINE
  5
1f2
100
AcDbEntity
  8
Layer_1
 62
7
100
AcDbLine
 10
203.138707
 20
23.517352
 30
0.0
 11
203.138707
 21
1.050290
 31
0.0
  0
LINE
  5
1f3
100
AcDbEntity
  8
Layer_1
 62
7
100
AcDbLine
 10
206.138707
 20
39.347648
 30
0.0
 11
206.138707
 21
20.355955
 31
0.0
  0
LINE
  5
1f4
100
AcDbEntity
  8
Layer_1
 62
7
100
AcDbLine
 10
206.138707
 20
9.432092
 30
0.0
 11
206.138707
 21
1.157168
 31
0.0
  0
LINE
  5
1f5
100
AcDbEntity
  8
Layer_1
 62
7
100
AcDbLine
 10
206.138707
 20
57.461206
 30
0.0
 11
206.138707
 21
50.271511
 31
0.0
  0
LINE
  5
1f6
100
AcDbEntity
  8
Layer_1
 62
7
100
AcDbLine
 10
209.138706
 20
56.845431
 30
0.0
 11
209.138706
 21
37.853727
 31
0.0
  0
LINE
  5
1f7
100
AcDbEntity
  8
Layer_1
 62
7
100
AcDbLine
 10
209.138706
 20
54.587648
 30
0.0
 11
209.138706
 21
35.595955
 31
0.0
  0
LINE
  5
1f8
100
AcDbEntity
  8
Layer_1
 62
7
100
AcDbLine
 10
209.138706
 20
23.517352
 30
0.0
 11
209.138706
 21
1.050290
 31
0.0
  0
LINE
  5
1f9
100
AcDbEntity
  8
Layer_1
 62
7
100
AcDbLine
 10
212.138706
 20
39.347648
 30
0.0
 11
212.138706
 21
20.355955
 31
0.0
  0
LINE
  5
1fa
100
AcDbEntity
  8
Layer_1
 62
7
100
AcDbLine
 10
212.138706
 20
9.432092
 30
0.0
 11
212.138706
 21
1.157168
 31
0.0
  0
LINE
  5
1fb
100
AcDbEntity
  8
Layer_1
 62
7
100
AcDbLine
 10
212.138706
 20
57.461206
 30
0.0
 11
212.138706
 21
50.271511
 31
0.0
  0
LINE
  5
1fc
100
AcDbEntity
  8
Layer_1
 62
7
100
AcDbLine
 10
215.138706
 20
56.845431
 30
0.0
 11
215.138706
 21
37.853727
 31
0.0
  0
LINE
  5
1fd
100
AcDbEntity
  8
Layer_1
 62
7
100
AcDbLine
 10
215.138706
 20
54.587648
 30
0.0
 11
215.138706
 21
35.595955
 31
0.0
  0
LINE
  5
1fe
100
AcDbEntity
  8
Layer_1
 62
7
100
AcDbLine
 10
215.138706
 20
23.517352
 30
0.0
 11
215.138706
 21
1.050290
 31
0.0
  0
LINE
  5
1ff
100
AcDbEntity
  8
Layer_1
 62
7
100
AcDbLine
 10
218.138705
 20
39.347648
 30
0.0
 11
218.138705
 21
20.355955
 31
0.0
  0
LINE
  5
200
100
AcDbEntity
  8
Layer_1
 62
7
100
AcDbLine
 10
218.138705
 20
9.432092
 30
0.0
 11
218.138705
 21
1.157168
 31
0.0
  0
LINE
  5
201
100
AcDbEntity
  8
Layer_1
 62
7
100
AcDbLine
 10
218.138705
 20
57.461206
 30
0.0
 11
218.138705
 21
50.271511
 31
0.0
  0
LINE
  5
202
100
AcDbEntity
  8
Layer_1
 62
7
100
AcDbLine
 10
221.138705
 20
56.845431
 30
0.0
 11
221.138705
 21
37.853727
 31
0.0
  0
LINE
  5
203
100
AcDbEntity
  8
Layer_1
 62
7
100
AcDbLine
 10
221.138705
 20
54.587648
 30
0.0
 11
221.138705
 21
35.595955
 31
0.0
  0
LINE
  5
204
100
AcDbEntity
  8
Layer_1
 62
7
100
AcDbLine
 10
221.138705
 20
23.517352
 30
0.0
 11
221.138705
 21
1.050290
 31
0.0
  0
LINE
  5
205
100
AcDbEntity
  8
Layer_1
 62
7
100
AcDbLine
 10
224.138704
 20
39.347648
 30
0.0
 11
224.138704
 21
20.355955
 31
0.0
  0
LINE
  5
206
100
AcDbEntity
  8
Layer_1
 62
7
100
AcDbLine
 10
224.138704
 20
9.432092
 30
0.0
 11
224.138704
 21
1.157168
 31
0.0
  0
LINE
  5
207
100
AcDbEntity
  8
Layer_1
 62
7
100
AcDbLine
 10
224.138704
 20
57.461206
 30
0.0
 11
224.138704
 21
50.271511
 31
0.0
  0
LINE
  5
208
100
AcDbEntity
  8
Layer_1
 62
7
100
AcDbLine
 10
227.138704
 20
56.845431
 30
0.0
 11
227.138704
 21
37.853727
 31
0.0
  0
LINE
  5
209
100
AcDbEntity
  8
Layer_1
 62
7
100
AcDbLine
 10
227.138704
 20
54.587648
 30
0.0
 11
227.138704
 21
35.595955
 31
0.0
  0
LINE
  5
20a
100
AcDbEntity
  8
Layer_1
 62
7
100
AcDbLine
 10
227.138704
 20
23.517352
 30
0.0
 11
227.138704
 21
1.050290
 31
0.0
  0
LINE
  5
20b
100
AcDbEntity
  8
Layer_1
 62
7
100
AcDbLine
 10
230.138704
 20
39.347648
 30
0.0
 11
230.138704
 21
20.355955
 31
0.0
  0
LINE
  5
20c
100
AcDbEntity
  8
Layer_1
 62
7
100
AcDbLine
 10
230.138704
 20
9.432092
 30
0.0
 11
230.138704
 21
1.157168
 31
0.0
  0
LINE
  5
20d
100
AcDbEntity
  8
Layer_1
 62
7
100
AcDbLine
 10
230.138704
 20
57.461206
 30
0.0
 11
230.138704
 21
50.271511
 31
0.0
  0
LINE
  5
20e
100
AcDbEntity
  8
Layer_1
 62
7
100
AcDbLine
 10
233.138703
 20
56.845431
 30
0.0
 11
233.138703
 21
37.853727
 31
0.0
  0
LINE
  5
20f
100
AcDbEntity
  8
Layer_1
 62
7
100
AcDbLine
 10
233.138703
 20
54.587648
 30
0.0
 11
233.138703
 21
35.595955
 31
0.0
  0
LINE
  5
210
100
AcDbEntity
  8
Layer_1
 62
7
100
AcDbLine
 10
233.138703
 20
23.517352
 30
0.0
 11
233.138703
 21
1.050290
 31
0.0
  0
LINE
  5
211
100
AcDbEntity
  8
Layer_1
 62
7
100
AcDbLine
 10
236.138703
 20
39.347648
 30
0.0
 11
236.138703
 21
20.355955
 31
0.0
  0
LINE
  5
212
100
AcDbEntity
  8
Layer_1
 62
7
100
AcDbLine
 10
236.138703
 20
9.432092
 30
0.0
 11
236.138703
 21
1.157168
 31
0.0
  0
LINE
  5
213
100
AcDbEntity
  8
Layer_1
 62
7
100
AcDbLine
 10
236.138703
 20
57.461206
 30
0.0
 11
236.138703
 21
50.271511
 31
0.0
  0
LINE
  5
214
100
AcDbEntity
  8
Layer_1
 62
7
100
AcDbLine
 10
239.138703
 20
56.845431
 30
0.0
 11
239.138703
 21
37.853727
 31
0.0
  0
LINE
  5
215
100
AcDbEntity
  8
Layer_1
 62
7
100
AcDbLine
 10
239.138703
 20
54.587648
 30
0.0
 11
239.138703
 21
35.595955
 31
0.0
  0
LINE
  5
216
100
AcDbEntity
  8
Layer_1
 62
7
100
AcDbLine
 10
239.138703
 20
23.517352
 30
0.0
 11
239.138703
 21
1.050290
 31
0.0
  0
LINE
  5
217
100
AcDbEntity
  8
Layer_1
 62
7
100
AcDbLine
 10
242.138702
 20
39.347648
 30
0.0
 11
242.138702
 21
20.355955
 31
0.0
  0
LINE
  5
218
100
AcDbEntity
  8
Layer_1
 62
7
100
AcDbLine
 10
242.138702
 20
9.432092
 30
0.0
 11
242.138702
 21
1.157168
 31
0.0
  0
LINE
  5
219
100
AcDbEntity
  8
Layer_1
 62
7
100
AcDbLine
 10
242.138702
 20
57.461206
 30
0.0
 11
242.138702
 21
50.271511
 31
0.0
  0
LINE
  5
21a
100
AcDbEntity
  8
Layer_1
 62
7
100
AcDbLine
 10
245.138702
 20
56.845431
 30
0.0
 11
245.138702
 21
37.853727
 31
0.0
  0
LINE
  5
21b
100
AcDbEntity
  8
Layer_1
 62
7
100
AcDbLine
 10
245.138702
 20
54.587648
 30
0.0
 11
245.138702
 21
35.595955
 31
0.0
  0
LINE
  5
21c
100
AcDbEntity
  8
Layer_1
 62
7
100
AcDbLine
 10
245.138702
 20
23.517352
 30
0.0
 11
245.138702
 21
1.050290
 31
0.0
  0
LINE
  5
21d
100
AcDbEntity
  8
Layer_1
 62
7
100
AcDbLine
 10
248.138702
 20
39.347648
 30
0.0
 11
248.138702
 21
20.355955
 31
0.0
  0
LINE
  5
21e
100
AcDbEntity
  8
Layer_1
 62
7
100
AcDbLine
 10
248.138702
 20
9.432092
 30
0.0
 11
248.138702
 21
1.157168
 31
0.0
  0
LINE
  5
21f
100
AcDbEntity
  8
Layer_1
 62
7
100
AcDbLine
 10
248.138702
 20
57.461206
 30
0.0
 11
248.138702
 21
50.271511
 31
0.0
  0
LINE
  5
220
100
AcDbEntity
  8
Layer_1
 62
7
100
AcDbLine
 10
251.138701
 20
56.845431
 30
0.0
 11
251.138701
 21
37.853727
 31
0.0
  0
LINE
  5
221
100
AcDbEntity
  8
Layer_1
 62
7
100
AcDbLine
 10
251.138701
 20
54.587648
 30
0.0
 11
251.138701
 21
35.595955
 31
0.0
  0
LINE
  5
222
100
AcDbEntity
  8
Layer_1
 62
7
100
AcDbLine
 10
251.138701
 20
23.517352
 30
0.0
 11
251.138701
 21
1.050290
 31
0.0
  0
LINE
  5
223
100
AcDbEntity
  8
Layer_1
 62
7
100
AcDbLine
 10
254.138701
 20
39.347648
 30
0.0
 11
254.138701
 21
20.355955
 31
0.0
  0
LINE
  5
224
100
AcDbEntity
  8
Layer_1
 62
7
100
AcDbLine
 10
254.138701
 20
9.432092
 30
0.0
 11
254.138701
 21
1.157168
 31
0.0
  0
LINE
  5
225
100
AcDbEntity
  8
Layer_1
 62
7
100
AcDbLine
 10
254.138701
 20
57.461206
 30
0.0
 11
254.138701
 21
50.271511
 31
0.0
  0
LINE
  5
226
100
AcDbEntity
  8
Layer_1
 62
7
100
AcDbLine
 10
257.138701
 20
56.845431
 30
0.0
 11
257.138701
 21
37.853727
 31
0.0
  0
LINE
  5
227
100
AcDbEntity
  8
Layer_1
 62
7
100
AcDbLine
 10
257.138701
 20
54.587648
 30
0.0
 11
257.138701
 21
35.595955
 31
0.0
  0
LINE
  5
228
100
AcDbEntity
  8
Layer_1
 62
7
100
AcDbLine
 10
257.138701
 20
23.517352
 30
0.0
 11
257.138701
 21
1.050290
 31
0.0
  0
LINE
  5
229
100
AcDbEntity
  8
Layer_1
 62
7
100
AcDbLine
 10
260.138700
 20
39.347648
 30
0.0
 11
260.138700
 21
20.355955
 31
0.0
  0
LINE
  5
22a
100
AcDbEntity
  8
Layer_1
 62
7
100
AcDbLine
 10
260.138700
 20
9.432092
 30
0.0
 11
260.138700
 21
1.157168
 31
0.0
  0
LINE
  5
22b
100
AcDbEntity
  8
Layer_1
 62
7
100
AcDbLine
 10
260.138700
 20
57.461206
 30
0.0
 11
260.138700
 21
50.271511
 31
0.0
  0
LINE
  5
22c
100
AcDbEntity
  8
Layer_1
 62
7
100
AcDbLine
 10
263.138700
 20
56.845431
 30
0.0
 11
263.138700
 21
37.853727
 31
0.0
  0
LINE
  5
22d
100
AcDbEntity
  8
Layer_1
 62
7
100
AcDbLine
 10
263.138700
 20
54.587648
 30
0.0
 11
263.138700
 21
35.595955
 31
0.0
  0
LINE
  5
22e
100
AcDbEntity
  8
Layer_1
 62
7
100
AcDbLine
 10
263.138700
 20
23.517352
 30
0.0
 11
263.138700
 21
1.050290
 31
0.0
  0
LINE
  5
22f
100
AcDbEntity
  8
Layer_1
 62
7
100
AcDbLine
 10
266.138700
 20
39.347648
 30
0.0
 11
266.138700
 21
20.355955
 31
0.0
  0
LINE
  5
230
100
AcDbEntity
  8
Layer_1
 62
7
100
AcDbLine
 10
266.138700
 20
9.432092
 30
0.0
 11
266.138700
 21
1.157168
 31
0.0
  0
LINE
  5
231
100
AcDbEntity
  8
Layer_1
 62
7
100
AcDbLine
 10
266.138700
 20
57.461206
 30
0.0
 11
266.138700
 21
50.271511
 31
0.0
  0
LINE
  5
232
100
AcDbEntity
  8
Layer_1
 62
7
100
AcDbLine
 10
269.138699
 20
56.845431
 30
0.0
 11
269.138699
 21
37.853727
 31
0.0
  0
LINE
  5
233
100
AcDbEntity
  8
Layer_1
 62
7
100
AcDbLine
 10
269.138699
 20
54.587648
 30
0.0
 11
269.138699
 21
35.595955
 31
0.0
  0
LINE
  5
234
100
AcDbEntity
  8
Layer_1
 62
7
100
AcDbLine
 10
269.138699
 20
23.517352
 30
0.0
 11
269.138699
 21
1.050290
 31
0.0
  0
LINE
  5
235
100
AcDbEntity
  8
Layer_1
 62
7
100
AcDbLine
 10
272.138699
 20
39.347648
 30
0.0
 11
272.138699
 21
20.355955
 31
0.0
  0
LINE
  5
236
100
AcDbEntity
  8
Layer_1
 62
7
100
AcDbLine
 10
272.138699
 20
9.432092
 30
0.0
 11
272.138699
 21
1.157168
 31
0.0
  0
LINE
  5
237
100
AcDbEntity
  8
Layer_1
 62
7
100
AcDbLine
 10
272.138699
 20
57.461206
 30
0.0
 11
272.138699
 21
50.271511
 31
0.0
  0
LINE
  5
238
100
AcDbEntity
  8
Layer_1
 62
7
100
AcDbLine
 10
275.138698
 20
56.845426
 30
0.0
 11
275.138698
 21
37.853733
 31
0.0
  0
LINE
  5
239
100
AcDbEntity
  8
Layer_1
 62
7
100
AcDbLine
 10
275.138698
 20
23.517352
 30
0.0
 11
275.138698
 21
1.050290
 31
0.0
  0
LINE
  5
23a
100
AcDbEntity
  8
Layer_1
 62
7
100
AcDbLine
 10
287.138697
 20
56.845431
 30
0.0
 11
287.138697
 21
37.853727
 31
0.0
  0
LINE
  5
23b
100
AcDbEntity
  8
Layer_1
 62
7
100
AcDbLine
 10
287.138697
 20
54.587648
 30
0.0
 11
287.138697
 21
35.595955
 31
0.0
  0
LINE
  5
23c
100
AcDbEntity
  8
Layer_1
 62
7
100
AcDbLine
 10
287.138697
 20
23.517352
 30
0.0
 11
287.138697
 21
1.050290
 31
0.0
  0
LINE
  5
23d
100
AcDbEntity
  8
Layer_1
 62
7
100
AcDbLine
 10
290.138697
 20
39.347648
 30
0.0
 11
290.138697
 21
20.355955
 31
0.0
  0
LINE
  5
23e
100
AcDbEntity
  8
Layer_1
 62
7
100
AcDbLine
 10
290.138697
 20
9.432092
 30
0.0
 11
290.138697
 21
1.157168
 31
0.0
  0
LINE
  5
23f
100
AcDbEntity
  8
Layer_1
 62
7
100
AcDbLine
 10
290.138697
 20
57.461206
 30
0.0
 11
290.138697
 21
50.271511
 31
0.0
  0
LINE
  5
240
100
AcDbEntity
  8
Layer_1
 62
7
100
AcDbLine
 10
293.138696
 20
56.845431
 30
0.0
 11
293.138696
 21
37.853727
 31
0.0
  0
LINE
  5
241
100
AcDbEntity
  8
Layer_1
 62
7
100
AcDbLine
 10
293.138696
 20
54.587648
 30
0.0
 11
293.138696
 21
35.595955
 31
0.0
  0
LINE
  5
242
100
AcDbEntity
  8
Layer_1
 62
7
100
AcDbLine
 10
293.138696
 20
23.517352
 30
0.0
 11
293.138696
 21
1.050290
 31
0.0
  0
LINE
  5
243
100
AcDbEntity
  8
Layer_1
 62
7
100
AcDbLine
 10
296.138696
 20
39.347648
 30
0.0
 11
296.138696
 21
20.355955
 31
0.0
  0
LINE
  5
244
100
AcDbEntity
  8
Layer_1
 62
7
100
AcDbLine
 10
296.138696
 20
9.432092
 30
0.0
 11
296.138696
 21
1.157168
 31
0.0
  0
LINE
  5
245
100
AcDbEntity
  8
Layer_1
 62
7
100
AcDbLine
 10
296.138696
 20
57.461206
 30
0.0
 11
296.138696
 21
50.271511
 31
0.0
  0
LINE
  5
246
100
AcDbEntity
  8
Layer_1
 62
7
100
AcDbLine
 10
299.138696
 20
56.845431
 30
0.0
 11
299.138696
 21
37.853727
 31
0.0
  0
LINE
  5
247
100
AcDbEntity
  8
Layer_1
 62
7
100
AcDbLine
 10
299.138696
 20
54.587648
 30
0.0
 11
299.138696
 21
35.595955
 31
0.0
  0
LINE
  5
248
100
AcDbEntity
  8
Layer_1
 62
7
100
AcDbLine
 10
299.138696
 20
23.517352
 30
0.0
 11
299.138696
 21
1.050290
 31
0.0
  0
LINE
  5
249
100
AcDbEntity
  8
Layer_1
 62
7
100
AcDbLine
 10
302.138695
 20
39.347648
 30
0.0
 11
302.138695
 21
20.355955
 31
0.0
  0
LINE
  5
24a
100
AcDbEntity
  8
Layer_1
 62
7
100
AcDbLine
 10
302.138695
 20
9.432092
 30
0.0
 11
302.138695
 21
1.157168
 31
0.0
  0
LINE
  5
24b
100
AcDbEntity
  8
Layer_1
 62
7
100
AcDbLine
 10
302.138695
 20
57.461206
 30
0.0
 11
302.138695
 21
50.271511
 31
0.0
  0
LINE
  5
24c
100
AcDbEntity
  8
Layer_1
 62
7
100
AcDbLine
 10
305.138695
 20
56.845431
 30
0.0
 11
305.138695
 21
37.853727
 31
0.0
  0
LINE
  5
24d
100
AcDbEntity
  8
Layer_1
 62
7
100
AcDbLine
 10
305.138695
 20
54.587648
 30
0.0
 11
305.138695
 21
35.595955
 31
0.0
  0
LINE
  5
24e
100
AcDbEntity
  8
Layer_1
 62
7
100
AcDbLine
 10
305.138695
 20
23.517352
 30
0.0
 11
305.138695
 21
1.050290
 31
0.0
  0
LINE
  5
24f
100
AcDbEntity
  8
Layer_1
 62
7
100
AcDbLine
 10
308.138695
 20
39.347648
 30
0.0
 11
308.138695
 21
20.355955
 31
0.0
  0
LINE
  5
250
100
AcDbEntity
  8
Layer_1
 62
7
100
AcDbLine
 10
308.138695
 20
9.432092
 30
0.0
 11
308.138695
 21
1.157168
 31
0.0
  0
LINE
  5
251
100
AcDbEntity
  8
Layer_1
 62
7
100
AcDbLine
 10
308.138695
 20
57.461206
 30
0.0
 11
308.138695
 21
50.271511
 31
0.0
  0
LINE
  5
252
100
AcDbEntity
  8
Layer_1
 62
7
100
AcDbLine
 10
311.138694
 20
56.845431
 30
0.0
 11
311.138694
 21
37.853727
 31
0.0
  0
LINE
  5
253
100
AcDbEntity
  8
Layer_1
 62
7
100
AcDbLine
 10
311.138694
 20
54.587648
 30
0.0
 11
311.138694
 21
35.595955
 31
0.0
  0
LINE
  5
254
100
AcDbEntity
  8
Layer_1
 62
7
100
AcDbLine
 10
311.138694
 20
23.517352
 30
0.0
 11
311.138694
 21
1.050290
 31
0.0
  0
LINE
  5
255
100
AcDbEntity
  8
Layer_1
 62
7
100
AcDbLine
 10
314.138694
 20
39.347648
 30
0.0
 11
314.138694
 21
20.355955
 31
0.0
  0
LINE
  5
256
100
AcDbEntity
  8
Layer_1
 62
7
100
AcDbLine
 10
314.138694
 20
9.432092
 30
0.0
 11
314.138694
 21
1.157168
 31
0.0
  0
LINE
  5
257
100
AcDbEntity
  8
Layer_1
 62
7
100
AcDbLine
 10
314.138694
 20
57.461206
 30
0.0
 11
314.138694
 21
50.271511
 31
0.0
  0
LINE
  5
258
100
AcDbEntity
  8
Layer_1
 62
7
100
AcDbLine
 10
317.138685
 20
56.845431
 30
0.0
 11
317.138685
 21
37.853727
 31
0.0
  0
LINE
  5
259
100
AcDbEntity
  8
Layer_1
 62
7
100
AcDbLine
 10
317.138685
 20
54.587648
 30
0.0
 11
317.138685
 21
35.595955
 31
0.0
  0
LINE
  5
25a
100
AcDbEntity
  8
Layer_1
 62
7
100
AcDbLine
 10
317.138685
 20
23.517352
 30
0.0
 11
317.138685
 21
1.050290
 31
0.0
  0
LINE
  5
25b
100
AcDbEntity
  8
Layer_1
 62
7
100
AcDbLine
 10
320.138685
 20
39.347648
 30
0.0
 11
320.138685
 21
20.355955
 31
0.0
  0
LINE
  5
25c
100
AcDbEntity
  8
Layer_1
 62
7
100
AcDbLine
 10
320.138685
 20
9.432092
 30
0.0
 11
320.138685
 21
1.157168
 31
0.0
  0
LINE
  5
25d
100
AcDbEntity
  8
Layer_1
 62
7
100
AcDbLine
 10
320.138685
 20
57.461206
 30
0.0
 11
320.138685
 21
50.271511
 31
0.0
  0
LINE
  5
25e
100
AcDbEntity
  8
Layer_1
 62
7
100
AcDbLine
 10
323.138673
 20
56.845431
 30
0.0
 11
323.138673
 21
37.853727
 31
0.0
  0
LINE
  5
25f
100
AcDbEntity
  8
Layer_1
 62
7
100
AcDbLine
 10
323.138673
 20
54.587648
 30
0.0
 11
323.138673
 21
35.595955
 31
0.0
  0
LINE
  5
260
100
AcDbEntity
  8
Layer_1
 62
7
100
AcDbLine
 10
323.138673
 20
23.517352
 30
0.0
 11
323.138673
 21
1.050290
 31
0.0
  0
LINE
  5
261
100
AcDbEntity
  8
Layer_1
 62
7
100
AcDbLine
 10
326.138673
 20
39.347648
 30
0.0
 11
326.138673
 21
20.355955
 31
0.0
  0
LINE
  5
262
100
AcDbEntity
  8
Layer_1
 62
7
100
AcDbLine
 10
326.138673
 20
9.432092
 30
0.0
 11
326.138673
 21
1.157168
 31
0.0
  0
LINE
  5
263
100
AcDbEntity
  8
Layer_1
 62
7
100
AcDbLine
 10
326.138673
 20
57.461206
 30
0.0
 11
326.138673
 21
50.271511
 31
0.0
  0
LINE
  5
264
100
AcDbEntity
  8
Layer_1
 62
7
100
AcDbLine
 10
329.138661
 20
56.845431
 30
0.0
 11
329.138661
 21
37.853727
 31
0.0
  0
LINE
  5
265
100
AcDbEntity
  8
Layer_1
 62
7
100
AcDbLine
 10
329.138661
 20
54.587648
 30
0.0
 11
329.138661
 21
35.595955
 31
0.0
  0
LINE
  5
266
100
AcDbEntity
  8
Layer_1
 62
7
100
AcDbLine
 10
329.138661
 20
23.517352
 30
0.0
 11
329.138661
 21
1.050290
 31
0.0
  0
LINE
  5
267
100
AcDbEntity
  8
Layer_1
 62
7
100
AcDbLine
 10
332.138661
 20
39.347648
 30
0.0
 11
332.138661
 21
20.355955
 31
0.0
  0
LINE
  5
268
100
AcDbEntity
  8
Layer_1
 62
7
100
AcDbLine
 10
332.138661
 20
9.432092
 30
0.0
 11
332.138661
 21
1.157168
 31
0.0
  0
LINE
  5
269
100
AcDbEntity
  8
Layer_1
 62
7
100
AcDbLine
 10
332.138661
 20
57.461206
 30
0.0
 11
332.138661
 21
50.271511
 31
0.0
  0
LINE
  5
26a
100
AcDbEntity
  8
Layer_1
 62
7
100
AcDbLine
 10
335.138649
 20
56.845431
 30
0.0
 11
335.138649
 21
37.853727
 31
0.0
  0
LINE
  5
26b
100
AcDbEntity
  8
Layer_1
 62
7
100
AcDbLine
 10
335.138649
 20
54.587648
 30
0.0
 11
335.138649
 21
35.595955
 31
0.0
  0
LINE
  5
26c
100
AcDbEntity
  8
Layer_1
 62
7
100
AcDbLine
 10
335.138649
 20
23.517352
 30
0.0
 11
335.138649
 21
1.050290
 31
0.0
  0
LINE
  5
26d
100
AcDbEntity
  8
Layer_1
 62
7
100
AcDbLine
 10
338.138649
 20
39.347648
 30
0.0
 11
338.138649
 21
20.355955
 31
0.0
  0
LINE
  5
26e
100
AcDbEntity
  8
Layer_1
 62
7
100
AcDbLine
 10
338.138649
 20
9.432092
 30
0.0
 11
338.138649
 21
1.157168
 31
0.0
  0
LINE
  5
26f
100
AcDbEntity
  8
Layer_1
 62
7
100
AcDbLine
 10
338.138649
 20
57.461206
 30
0.0
 11
338.138649
 21
50.271511
 31
0.0
  0
LINE
  5
270
100
AcDbEntity
  8
Layer_1
 62
7
100
AcDbLine
 10
341.138637
 20
56.845431
 30
0.0
 11
341.138637
 21
37.853727
 31
0.0
  0
LINE
  5
271
100
AcDbEntity
  8
Layer_1
 62
7
100
AcDbLine
 10
341.138637
 20
54.587648
 30
0.0
 11
341.138637
 21
35.595955
 31
0.0
  0
LINE
  5
272
100
AcDbEntity
  8
Layer_1
 62
7
100
AcDbLine
 10
341.138637
 20
23.517352
 30
0.0
 11
341.138637
 21
1.050290
 31
0.0
  0
LINE
  5
273
100
AcDbEntity
  8
Layer_1
 62
7
100
AcDbLine
 10
344.138637
 20
39.347648
 30
0.0
 11
344.138637
 21
20.355955
 31
0.0
  0
LINE
  5
274
100
AcDbEntity
  8
Layer_1
 62
7
100
AcDbLine
 10
344.138637
 20
9.432092
 30
0.0
 11
344.138637
 21
1.157168
 31
0.0
  0
LINE
  5
275
100
AcDbEntity
  8
Layer_1
 62
7
100
AcDbLine
 10
344.138637
 20
57.461206
 30
0.0
 11
344.138637
 21
50.271511
 31
0.0
  0
LINE
  5
276
100
AcDbEntity
  8
Layer_1
 62
7
100
AcDbLine
 10
347.138625
 20
56.845431
 30
0.0
 11
347.138625
 21
37.853727
 31
0.0
  0
LINE
  5
277
100
AcDbEntity
  8
Layer_1
 62
7
100
AcDbLine
 10
347.138625
 20
54.587648
 30
0.0
 11
347.138625
 21
35.595955
 31
0.0
  0
LINE
  5
278
100
AcDbEntity
  8
Layer_1
 62
7
100
AcDbLine
 10
347.138625
 20
23.517352
 30
0.0
 11
347.138625
 21
1.050290
 31
0.0
  0
LINE
  5
279
100
AcDbEntity
  8
Layer_1
 62
7
100
AcDbLine
 10
350.138625
 20
39.347648
 30
0.0
 11
350.138625
 21
20.355955
 31
0.0
  0
LINE
  5
27a
100
AcDbEntity
  8
Layer_1
 62
7
100
AcDbLine
 10
350.138625
 20
9.432092
 30
0.0
 11
350.138625
 21
1.157168
 31
0.0
  0
LINE
  5
27b
100
AcDbEntity
  8
Layer_1
 62
7
100
AcDbLine
 10
350.138625
 20
57.461206
 30
0.0
 11
350.138625
 21
50.271511
 31
0.0
  0
LINE
  5
27c
100
AcDbEntity
  8
Layer_1
 62
7
100
AcDbLine
 10
353.138613
 20
56.845431
 30
0.0
 11
353.138613
 21
37.853727
 31
0.0
  0
LINE
  5
27d
100
AcDbEntity
  8
Layer_1
 62
7
100
AcDbLine
 10
353.138613
 20
54.587648
 30
0.0
 11
353.138613
 21
35.595955
 31
0.0
  0
LINE
  5
27e
100
AcDbEntity
  8
Layer_1
 62
7
100
AcDbLine
 10
353.138613
 20
23.517352
 30
0.0
 11
353.138613
 21
1.050290
 31
0.0
  0
LINE
  5
27f
100
AcDbEntity
  8
Layer_1
 62
7
100
AcDbLine
 10
356.138613
 20
39.347648
 30
0.0
 11
356.138613
 21
20.355955
 31
0.0
  0
LINE
  5
280
100
AcDbEntity
  8
Layer_1
 62
7
100
AcDbLine
 10
356.138613
 20
9.432092
 30
0.0
 11
356.138613
 21
1.157168
 31
0.0
  0
LINE
  5
281
100
AcDbEntity
  8
Layer_1
 62
7
100
AcDbLine
 10
356.138613
 20
57.461206
 30
0.0
 11
356.138613
 21
50.271511
 31
0.0
  0
LINE
  5
282
100
AcDbEntity
  8
Layer_1
 62
7
100
AcDbLine
 10
359.138601
 20
56.845431
 30
0.0
 11
359.138601
 21
37.853727
 31
0.0
  0
LINE
  5
283
100
AcDbEntity
  8
Layer_1
 62
7
100
AcDbLine
 10
359.138601
 20
54.587648
 30
0.0
 11
359.138601
 21
35.595955
 31
0.0
  0
LINE
  5
284
100
AcDbEntity
  8
Layer_1
 62
7
100
AcDbLine
 10
359.138601
 20
23.517352
 30
0.0
 11
359.138601
 21
1.050290
 31
0.0
  0
LINE
  5
285
100
AcDbEntity
  8
Layer_1
 62
7
100
AcDbLine
 10
362.138601
 20
39.347648
 30
0.0
 11
362.138601
 21
20.355955
 31
0.0
  0
LINE
  5
286
100
AcDbEntity
  8
Layer_1
 62
7
100
AcDbLine
 10
362.138601
 20
9.432092
 30
0.0
 11
362.138601
 21
1.157168
 31
0.0
  0
LINE
  5
287
100
AcDbEntity
  8
Layer_1
 62
7
100
AcDbLine
 10
362.138601
 20
57.461206
 30
0.0
 11
362.138601
 21
50.271511
 31
0.0
  0
LINE
  5
288
100
AcDbEntity
  8
Layer_1
 62
7
100
AcDbLine
 10
365.138589
 20
56.845431
 30
0.0
 11
365.138589
 21
37.853727
 31
0.0
  0
LINE
  5
289
100
AcDbEntity
  8
Layer_1
 62
7
100
AcDbLine
 10
365.138589
 20
54.587648
 30
0.0
 11
365.138589
 21
35.595955
 31
0.0
  0
LINE
  5
28a
100
AcDbEntity
  8
Layer_1
 62
7
100
AcDbLine
 10
365.138589
 20
23.517352
 30
0.0
 11
365.138589
 21
1.050290
 31
0.0
  0
LINE
  5
28b
100
AcDbEntity
  8
Layer_1
 62
7
100
AcDbLine
 10
368.138589
 20
39.347648
 30
0.0
 11
368.138589
 21
20.355955
 31
0.0
  0
LINE
  5
28c
100
AcDbEntity
  8
Layer_1
 62
7
100
AcDbLine
 10
368.138589
 20
9.432092
 30
0.0
 11
368.138589
 21
1.157168
 31
0.0
  0
LINE
  5
28d
100
AcDbEntity
  8
Layer_1
 62
7
100
AcDbLine
 10
368.138589
 20
57.461206
 30
0.0
 11
368.138589
 21
50.271511
 31
0.0
  0
LINE
  5
28e
100
AcDbEntity
  8
Layer_1
 62
7
100
AcDbLine
 10
371.138577
 20
56.845431
 30
0.0
 11
371.138577
 21
37.853727
 31
0.0
  0
LINE
  5
28f
100
AcDbEntity
  8
Layer_1
 62
7
100
AcDbLine
 10
371.138577
 20
54.587648
 30
0.0
 11
371.138577
 21
35.595955
 31
0.0
  0
LINE
  5
290
100
AcDbEntity
  8
Layer_1
 62
7
100
AcDbLine
 10
371.138577
 20
23.517352
 30
0.0
 11
371.138577
 21
1.050290
 31
0.0
  0
LINE
  5
291
100
AcDbEntity
  8
Layer_1
 62
7
100
AcDbLine
 10
374.138577
 20
39.347648
 30
0.0
 11
374.138577
 21
20.355955
 31
0.0
  0
LINE
  5
292
100
AcDbEntity
  8
Layer_1
 62
7
100
AcDbLine
 10
374.138577
 20
9.432092
 30
0.0
 11
374.138577
 21
1.157168
 31
0.0
  0
LINE
  5
293
100
AcDbEntity
  8
Layer_1
 62
7
100
AcDbLine
 10
374.138577
 20
57.461206
 30
0.0
 11
374.138577
 21
50.271511
 31
0.0
  0
LINE
  5
294
100
AcDbEntity
  8
Layer_1
 62
7
100
AcDbLine
 10
377.138565
 20
56.845431
 30
0.0
 11
377.138565
 21
37.853727
 31
0.0
  0
LINE
  5
295
100
AcDbEntity
  8
Layer_1
 62
7
100
AcDbLine
 10
377.138565
 20
54.587648
 30
0.0
 11
377.138565
 21
35.595955
 31
0.0
  0
LINE
  5
296
100
AcDbEntity
  8
Layer_1
 62
7
100
AcDbLine
 10
377.138565
 20
23.517352
 30
0.0
 11
377.138565
 21
1.050290
 31
0.0
  0
LINE
  5
297
100
AcDbEntity
  8
Layer_1
 62
7
100
AcDbLine
 10
380.138565
 20
39.347648
 30
0.0
 11
380.138565
 21
20.355955
 31
0.0
  0
LINE
  5
298
100
AcDbEntity
  8
Layer_1
 62
7
100
AcDbLine
 10
380.138565
 20
9.432092
 30
0.0
 11
380.138565
 21
1.157168
 31
0.0
  0
LINE
  5
299
100
AcDbEntity
  8
Layer_1
 62
7
100
AcDbLine
 10
380.138565
 20
57.461206
 30
0.0
 11
380.138565
 21
50.271511
 31
0.0
  0
LINE
  5
29a
100
AcDbEntity
  8
Layer_1
 62
7
100
AcDbLine
 10
383.138553
 20
56.845431
 30
0.0
 11
383.138553
 21
37.853727
 31
0.0
  0
LINE
  5
29b
100
AcDbEntity
  8
Layer_1
 62
7
100
AcDbLine
 10
383.138553
 20
54.587648
 30
0.0
 11
383.138553
 21
35.595955
 31
0.0
  0
LINE
  5
29c
100
AcDbEntity
  8
Layer_1
 62
7
100
AcDbLine
 10
383.138553
 20
23.517352
 30
0.0
 11
383.138553
 21
1.050290
 31
0.0
  0
LINE
  5
29d
100
AcDbEntity
  8
Layer_1
 62
7
100
AcDbLine
 10
386.138553
 20
39.347648
 30
0.0
 11
386.138553
 21
20.355955
 31
0.0
  0
LINE
  5
29e
100
AcDbEntity
  8
Layer_1
 62
7
100
AcDbLine
 10
386.138553
 20
9.432092
 30
0.0
 11
386.138553
 21
1.157168
 31
0.0
  0
LINE
  5
29f
100
AcDbEntity
  8
Layer_1
 62
7
100
AcDbLine
 10
386.138553
 20
57.461206
 30
0.0
 11
386.138553
 21
50.271511
 31
0.0
  0
LINE
  5
2a0
100
AcDbEntity
  8
Layer_1
 62
7
100
AcDbLine
 10
389.138541
 20
56.845431
 30
0.0
 11
389.138541
 21
37.853727
 31
0.0
  0
LINE
  5
2a1
100
AcDbEntity
  8
Layer_1
 62
7
100
AcDbLine
 10
389.138541
 20
54.587648
 30
0.0
 11
389.138541
 21
35.595955
 31
0.0
  0
LINE
  5
2a2
100
AcDbEntity
  8
Layer_1
 62
7
100
AcDbLine
 10
389.138541
 20
23.517352
 30
0.0
 11
389.138541
 21
1.050290
 31
0.0
  0
LINE
  5
2a3
100
AcDbEntity
  8
Layer_1
 62
7
100
AcDbLine
 10
392.138541
 20
39.347648
 30
0.0
 11
392.138541
 21
20.355955
 31
0.0
  0
LINE
  5
2a4
100
AcDbEntity
  8
Layer_1
 62
7
100
AcDbLine
 10
392.138541
 20
9.432092
 30
0.0
 11
392.138541
 21
1.157168
 31
0.0
  0
LINE
  5
2a5
100
AcDbEntity
  8
Layer_1
 62
7
100
AcDbLine
 10
392.138541
 20
57.461206
 30
0.0
 11
392.138541
 21
50.271511
 31
0.0
  0
LINE
  5
2a6
100
AcDbEntity
  8
Layer_1
 62
7
100
AcDbLine
 10
395.138529
 20
56.845431
 30
0.0
 11
395.138529
 21
37.853727
 31
0.0
  0
LINE
  5
2a7
100
AcDbEntity
  8
Layer_1
 62
7
100
AcDbLine
 10
395.138529
 20
54.587648
 30
0.0
 11
395.138529
 21
35.595955
 31
0.0
  0
LINE
  5
2a8
100
AcDbEntity
  8
Layer_1
 62
7
100
AcDbLine
 10
395.138529
 20
23.517352
 30
0.0
 11
395.138529
 21
1.050290
 31
0.0
  0
LINE
  5
2a9
100
AcDbEntity
  8
Layer_1
 62
7
100
AcDbLine
 10
398.138529
 20
39.347648
 30
0.0
 11
398.138529
 21
20.355955
 31
0.0
  0
LINE
  5
2aa
100
AcDbEntity
  8
Layer_1
 62
7
100
AcDbLine
 10
398.138529
 20
9.432092
 30
0.0
 11
398.138529
 21
1.157168
 31
0.0
  0
LINE
  5
2ab
100
AcDbEntity
  8
Layer_1
 62
7
100
AcDbLine
 10
398.138529
 20
57.461206
 30
0.0
 11
398.138529
 21
50.271511
 31
0.0
  0
LINE
  5
2ac
100
AcDbEntity
  8
Layer_1
 62
7
100
AcDbLine
 10
401.138517
 20
56.845431
 30
0.0
 11
401.138517
 21
37.853727
 31
0.0
  0
LINE
  5
2ad
100
AcDbEntity
  8
Layer_1
 62
7
100
AcDbLine
 10
401.138517
 20
54.587648
 30
0.0
 11
401.138517
 21
35.595955
 31
0.0
  0
LINE
  5
2ae
100
AcDbEntity
  8
Layer_1
 62
7
100
AcDbLine
 10
401.138517
 20
23.517352
 30
0.0
 11
401.138517
 21
1.050290
 31
0.0
  0
LINE
  5
2af
100
AcDbEntity
  8
Layer_1
 62
7
100
AcDbLine
 10
404.138517
 20
39.347648
 30
0.0
 11
404.138517
 21
20.355955
 31
0.0
  0
LINE
  5
2b0
100
AcDbEntity
  8
Layer_1
 62
7
100
AcDbLine
 10
404.138517
 20
9.432092
 30
0.0
 11
404.138517
 21
1.157168
 31
0.0
  0
LINE
  5
2b1
100
AcDbEntity
  8
Layer_1
 62
7
100
AcDbLine
 10
404.138517
 20
57.461206
 30
0.0
 11
404.138517
 21
50.271511
 31
0.0
  0
LINE
  5
2b2
100
AcDbEntity
  8
Layer_1
 62
7
100
AcDbLine
 10
407.138519
 20
56.845426
 30
0.0
 11
407.138519
 21
37.853733
 31
0.0
  0
LINE
  5
2b3
100
AcDbEntity
  8
Layer_1
 62
7
100
AcDbLine
 10
407.138519
 20
54.587648
 30
0.0
 11
407.138519
 21
35.595955
 31
0.0
  0
LINE
  5
2b4
100
AcDbEntity
  8
Layer_1
 62
7
100
AcDbLine
 10
407.138519
 20
23.517352
 30
0.0
 11
407.138519
 21
1.050290
 31
0.0
  0
LINE
  5
2b5
100
AcDbEntity
  8
Layer_1
 62
7
100
AcDbLine
 10
416.138501
 20
39.347648
 30
0.0
 11
416.138501
 21
20.355955
 31
0.0
  0
LINE
  5
2b6
100
AcDbEntity
  8
Layer_1
 62
7
100
AcDbLine
 10
416.138501
 20
9.432092
 30
0.0
 11
416.138501
 21
1.157168
 31
0.0
  0
LINE
  5
2b7
100
AcDbEntity
  8
Layer_1
 62
7
100
AcDbLine
 10
416.138501
 20
57.461206
 30
0.0
 11
416.138501
 21
50.271511
 31
0.0
  0
LINE
  5
2b8
100
AcDbEntity
  8
Layer_1
 62
7
100
AcDbLine
 10
419.138481
 20
56.845431
 30
0.0
 11
419.138481
 21
37.853727
 31
0.0
  0
LINE
  5
2b9
100
AcDbEntity
  8
Layer_1
 62
7
100
AcDbLine
 10
419.138481
 20
54.587648
 30
0.0
 11
419.138481
 21
35.595955
 31
0.0
  0
LINE
  5
2ba
100
AcDbEntity
  8
Layer_1
 62
7
100
AcDbLine
 10
419.138481
 20
23.517352
 30
0.0
 11
419.138481
 21
1.050290
 31
0.0
  0
LINE
  5
2bb
100
AcDbEntity
  8
Layer_1
 62
7
100
AcDbLine
 10
422.138481
 20
39.347648
 30
0.0
 11
422.138481
 21
20.355955
 31
0.0
  0
LINE
  5
2bc
100
AcDbEntity
  8
Layer_1
 62
7
100
AcDbLine
 10
422.138481
 20
9.432092
 30
0.0
 11
422.138481
 21
1.157168
 31
0.0
  0
LINE
  5
2bd
100
AcDbEntity
  8
Layer_1
 62
7
100
AcDbLine
 10
422.138481
 20
57.461206
 30
0.0
 11
422.138481
 21
50.271511
 31
0.0
  0
LINE
  5
2be
100
AcDbEntity
  8
Layer_1
 62
7
100
AcDbLine
 10
425.138469
 20
56.845431
 30
0.0
 11
425.138469
 21
37.853727
 31
0.0
  0
LINE
  5
2bf
100
AcDbEntity
  8
Layer_1
 62
7
100
AcDbLine
 10
425.138469
 20
54.587648
 30
0.0
 11
425.138469
 21
35.595955
 31
0.0
  0
LINE
  5
2c0
100
AcDbEntity
  8
Layer_1
 62
7
100
AcDbLine
 10
425.138469
 20
23.517352
 30
0.0
 11
425.138469
 21
1.050290
 31
0.0
  0
LINE
  5
2c1
100
AcDbEntity
  8
Layer_1
 62
7
100
AcDbLine
 10
428.138469
 20
39.347648
 30
0.0
 11
428.138469
 21
20.355955
 31
0.0
  0
LINE
  5
2c2
100
AcDbEntity
  8
Layer_1
 62
7
100
AcDbLine
 10
428.138469
 20
9.432092
 30
0.0
 11
428.138469
 21
1.157168
 31
0.0
  0
LINE
  5
2c3
100
AcDbEntity
  8
Layer_1
 62
7
100
AcDbLine
 10
428.138469
 20
57.461206
 30
0.0
 11
428.138469
 21
50.271511
 31
0.0
  0
LINE
  5
2c4
100
AcDbEntity
  8
Layer_1
 62
7
100
AcDbLine
 10
431.138457
 20
56.845431
 30
0.0
 11
431.138457
 21
37.853727
 31
0.0
  0
LINE
  5
2c5
100
AcDbEntity
  8
Layer_1
 62
7
100
AcDbLine
 10
431.138457
 20
54.587648
 30
0.0
 11
431.138457
 21
35.595955
 31
0.0
  0
LINE
  5
2c6
100
AcDbEntity
  8
Layer_1
 62
7
100
AcDbLine
 10
431.138457
 20
23.517352
 30
0.0
 11
431.138457
 21
1.050290
 31
0.0
  0
LINE
  5
2c7
100
AcDbEntity
  8
Layer_1
 62
7
100
AcDbLine
 10
434.138457
 20
39.347648
 30
0.0
 11
434.138457
 21
20.355955
 31
0.0
  0
LINE
  5
2c8
100
AcDbEntity
  8
Layer_1
 62
7
100
AcDbLine
 10
434.138457
 20
9.432092
 30
0.0
 11
434.138457
 21
1.157168
 31
0.0
  0
LINE
  5
2c9
100
AcDbEntity
  8
Layer_1
 62
7
100
AcDbLine
 10
434.138457
 20
57.461206
 30
0.0
 11
434.138457
 21
50.271511
 31
0.0
  0
LINE
  5
2ca
100
AcDbEntity
  8
Layer_1
 62
7
100
AcDbLine
 10
437.138445
 20
56.845431
 30
0.0
 11
437.138445
 21
37.853727
 31
0.0
  0
LINE
  5
2cb
100
AcDbEntity
  8
Layer_1
 62
7
100
AcDbLine
 10
437.138445
 20
54.587648
 30
0.0
 11
437.138445
 21
35.595955
 31
0.0
  0
LINE
  5
2cc
100
AcDbEntity
  8
Layer_1
 62
7
100
AcDbLine
 10
437.138445
 20
23.517352
 30
0.0
 11
437.138445
 21
1.050290
 31
0.0
  0
LINE
  5
2cd
100
AcDbEntity
  8
Layer_1
 62
7
100
AcDbLine
 10
440.138445
 20
39.347648
 30
0.0
 11
440.138445
 21
20.355955
 31
0.0
  0
LINE
  5
2ce
100
AcDbEntity
  8
Layer_1
 62
7
100
AcDbLine
 10
440.138445
 20
9.432092
 30
0.0
 11
440.138445
 21
1.157168
 31
0.0
  0
LINE
  5
2cf
100
AcDbEntity
  8
Layer_1
 62
7
100
AcDbLine
 10
440.138445
 20
57.461206
 30
0.0
 11
440.138445
 21
50.271511
 31
0.0
  0
LINE
  5
2d0
100
AcDbEntity
  8
Layer_1
 62
7
100
AcDbLine
 10
443.138433
 20
56.845431
 30
0.0
 11
443.138433
 21
37.853727
 31
0.0
  0
LINE
  5
2d1
100
AcDbEntity
  8
Layer_1
 62
7
100
AcDbLine
 10
443.138433
 20
54.587648
 30
0.0
 11
443.138433
 21
35.595955
 31
0.0
  0
LINE
  5
2d2
100
AcDbEntity
  8
Layer_1
 62
7
100
AcDbLine
 10
443.138433
 20
23.517352
 30
0.0
 11
443.138433
 21
1.050290
 31
0.0
  0
LINE
  5
2d3
100
AcDbEntity
  8
Layer_1
 62
7
100
AcDbLine
 10
446.138433
 20
39.347648
 30
0.0
 11
446.138433
 21
20.355955
 31
0.0
  0
LINE
  5
2d4
100
AcDbEntity
  8
Layer_1
 62
7
100
AcDbLine
 10
446.138433
 20
9.432092
 30
0.0
 11
446.138433
 21
1.157168
 31
0.0
  0
LINE
  5
2d5
100
AcDbEntity
  8
Layer_1
 62
7
100
AcDbLine
 10
446.138433
 20
57.461206
 30
0.0
 11
446.138433
 21
50.271511
 31
0.0
  0
LINE
  5
2d6
100
AcDbEntity
  8
Layer_1
 62
7
100
AcDbLine
 10
449.138421
 20
56.845431
 30
0.0
 11
449.138421
 21
37.853727
 31
0.0
  0
LINE
  5
2d7
100
AcDbEntity
  8
Layer_1
 62
7
100
AcDbLine
 10
449.138421
 20
54.587648
 30
0.0
 11
449.138421
 21
35.595955
 31
0.0
  0
LINE
  5
2d8
100
AcDbEntity
  8
Layer_1
 62
7
100
AcDbLine
 10
449.138421
 20
23.517352
 30
0.0
 11
449.138421
 21
1.050290
 31
0.0
  0
LINE
  5
2d9
100
AcDbEntity
  8
Layer_1
 62
7
100
AcDbLine
 10
452.138421
 20
39.347648
 30
0.0
 11
452.138421
 21
20.355955
 31
0.0
  0
LINE
  5
2da
100
AcDbEntity
  8
Layer_1
 62
7
100
AcDbLine
 10
452.138421
 20
9.432092
 30
0.0
 11
452.138421
 21
1.157168
 31
0.0
  0
LINE
  5
2db
100
AcDbEntity
  8
Layer_1
 62
7
100
AcDbLine
 10
452.138421
 20
57.461206
 30
0.0
 11
452.138421
 21
50.271511
 31
0.0
  0
LINE
  5
2dc
100
AcDbEntity
  8
Layer_1
 62
7
100
AcDbLine
 10
455.138409
 20
56.845431
 30
0.0
 11
455.138409
 21
37.853727
 31
0.0
  0
LINE
  5
2dd
100
AcDbEntity
  8
Layer_1
 62
7
100
AcDbLine
 10
455.138409
 20
54.587648
 30
0.0
 11
455.138409
 21
35.595955
 31
0.0
  0
LINE
  5
2de
100
AcDbEntity
  8
Layer_1
 62
7
100
AcDbLine
 10
455.138409
 20
23.517352
 30
0.0
 11
455.138409
 21
1.050290
 31
0.0
  0
LINE
  5
2df
100
AcDbEntity
  8
Layer_1
 62
7
100
AcDbLine
 10
458.138409
 20
39.347648
 30
0.0
 11
458.138409
 21
20.355955
 31
0.0
  0
LINE
  5
2e0
100
AcDbEntity
  8
Layer_1
 62
7
100
AcDbLine
 10
458.138409
 20
9.432092
 30
0.0
 11
458.138409
 21
1.157168
 31
0.0
  0
LINE
  5
2e1
100
AcDbEntity
  8
Layer_1
 62
7
100
AcDbLine
 10
458.138409
 20
57.461206
 30
0.0
 11
458.138409
 21
50.271511
 31
0.0
  0
LINE
  5
2e2
100
AcDbEntity
  8
Layer_1
 62
7
100
AcDbLine
 10
461.138397
 20
56.845431
 30
0.0
 11
461.138397
 21
37.853727
 31
0.0
  0
LINE
  5
2e3
100
AcDbEntity
  8
Layer_1
 62
7
100
AcDbLine
 10
461.138397
 20
54.587648
 30
0.0
 11
461.138397
 21
35.595955
 31
0.0
  0
LINE
  5
2e4
100
AcDbEntity
  8
Layer_1
 62
7
100
AcDbLine
 10
461.138397
 20
23.517352
 30
0.0
 11
461.138397
 21
1.050290
 31
0.0
  0
LINE
  5
2e5
100
AcDbEntity
  8
Layer_1
 62
7
100
AcDbLine
 10
464.138397
 20
39.347648
 30
0.0
 11
464.138397
 21
20.355955
 31
0.0
  0
LINE
  5
2e6
100
AcDbEntity
  8
Layer_1
 62
7
100
AcDbLine
 10
464.138397
 20
9.432092
 30
0.0
 11
464.138397
 21
1.157168
 31
0.0
  0
LINE
  5
2e7
100
AcDbEntity
  8
Layer_1
 62
7
100
AcDbLine
 10
464.138397
 20
57.461206
 30
0.0
 11
464.138397
 21
50.271511
 31
0.0
  0
LINE
  5
2e8
100
AcDbEntity
  8
Layer_1
 62
7
100
AcDbLine
 10
467.138385
 20
56.845431
 30
0.0
 11
467.138385
 21
37.853727
 31
0.0
  0
LINE
  5
2e9
100
AcDbEntity
  8
Layer_1
 62
7
100
AcDbLine
 10
467.138385
 20
54.587648
 30
0.0
 11
467.138385
 21
35.595955
 31
0.0
  0
LINE
  5
2ea
100
AcDbEntity
  8
Layer_1
 62
7
100
AcDbLine
 10
467.138385
 20
23.517352
 30
0.0
 11
467.138385
 21
1.050290
 31
0.0
  0
LINE
  5
2eb
100
AcDbEntity
  8
Layer_1
 62
7
100
AcDbLine
 10
470.138385
 20
39.347648
 30
0.0
 11
470.138385
 21
20.355955
 31
0.0
  0
LINE
  5
2ec
100
AcDbEntity
  8
Layer_1
 62
7
100
AcDbLine
 10
470.138385
 20
9.432092
 30
0.0
 11
470.138385
 21
1.157168
 31
0.0
  0
LINE
  5
2ed
100
AcDbEntity
  8
Layer_1
 62
7
100
AcDbLine
 10
470.138385
 20
57.461206
 30
0.0
 11
470.138385
 21
50.271511
 31
0.0
  0
LINE
  5
2ee
100
AcDbEntity
  8
Layer_1
 62
7
100
AcDbLine
 10
473.138373
 20
56.845431
 30
0.0
 11
473.138373
 21
37.853727
 31
0.0
  0
LINE
  5
2ef
100
AcDbEntity
  8
Layer_1
 62
7
100
AcDbLine
 10
473.138373
 20
54.587648
 30
0.0
 11
473.138373
 21
35.595955
 31
0.0
  0
LINE
  5
2f0
100
AcDbEntity
  8
Layer_1
 62
7
100
AcDbLine
 10
473.138373
 20
23.517352
 30
0.0
 11
473.138373
 21
1.050290
 31
0.0
  0
LINE
  5
2f1
100
AcDbEntity
  8
Layer_1
 62
7
100
AcDbLine
 10
476.138373
 20
39.347648
 30
0.0
 11
476.138373
 21
20.355955
 31
0.0
  0
LINE
  5
2f2
100
AcDbEntity
  8
Layer_1
 62
7
100
AcDbLine
 10
476.138373
 20
9.432092
 30
0.0
 11
476.138373
 21
1.157168
 31
0.0
  0
LINE
  5
2f3
100
AcDbEntity
  8
Layer_1
 62
7
100
AcDbLine
 10
476.138373
 20
57.461206
 30
0.0
 11
476.138373
 21
50.271511
 31
0.0
  0
LINE
  5
2f4
100
AcDbEntity
  8
Layer_1
 62
7
100
AcDbLine
 10
479.138361
 20
56.845431
 30
0.0
 11
479.138361
 21
37.853727
 31
0.0
  0
LINE
  5
2f5
100
AcDbEntity
  8
Layer_1
 62
7
100
AcDbLine
 10
479.138361
 20
54.587648
 30
0.0
 11
479.138361
 21
35.595955
 31
0.0
  0
LINE
  5
2f6
100
AcDbEntity
  8
Layer_1
 62
7
100
AcDbLine
 10
479.138361
 20
23.517352
 30
0.0
 11
479.138361
 21
1.050290
 31
0.0
  0
LINE
  5
2f7
100
AcDbEntity
  8
Layer_1
 62
7
100
AcDbLine
 10
482.138361
 20
39.347648
 30
0.0
 11
482.138361
 21
20.355955
 31
0.0
  0
LINE
  5
2f8
100
AcDbEntity
  8
Layer_1
 62
7
100
AcDbLine
 10
482.138361
 20
9.432092
 30
0.0
 11
482.138361
 21
1.157168
 31
0.0
  0
LINE
  5
2f9
100
AcDbEntity
  8
Layer_1
 62
7
100
AcDbLine
 10
482.138361
 20
57.461206
 30
0.0
 11
482.138361
 21
50.271511
 31
0.0
  0
LINE
  5
2fa
100
AcDbEntity
  8
Layer_1
 62
7
100
AcDbLine
 10
485.138349
 20
56.845431
 30
0.0
 11
485.138349
 21
37.853727
 31
0.0
  0
LINE
  5
2fb
100
AcDbEntity
  8
Layer_1
 62
7
100
AcDbLine
 10
485.138349
 20
54.587648
 30
0.0
 11
485.138349
 21
35.595955
 31
0.0
  0
LINE
  5
2fc
100
AcDbEntity
  8
Layer_1
 62
7
100
AcDbLine
 10
485.138349
 20
23.517352
 30
0.0
 11
485.138349
 21
1.050290
 31
0.0
  0
LINE
  5
2fd
100
AcDbEntity
  8
Layer_1
 62
7
100
AcDbLine
 10
488.138349
 20
39.347648
 30
0.0
 11
488.138349
 21
20.355955
 31
0.0
  0
LINE
  5
2fe
100
AcDbEntity
  8
Layer_1
 62
7
100
AcDbLine
 10
488.138349
 20
9.432092
 30
0.0
 11
488.138349
 21
1.157168
 31
0.0
  0
LINE
  5
2ff
100
AcDbEntity
  8
Layer_1
 62
7
100
AcDbLine
 10
488.138349
 20
57.461206
 30
0.0
 11
488.138349
 21
50.271511
 31
0.0
  0
LINE
  5
300
100
AcDbEntity
  8
Layer_1
 62
7
100
AcDbLine
 10
491.138337
 20
56.845431
 30
0.0
 11
491.138337
 21
37.853727
 31
0.0
  0
LINE
  5
301
100
AcDbEntity
  8
Layer_1
 62
7
100
AcDbLine
 10
491.138337
 20
54.587648
 30
0.0
 11
491.138337
 21
35.595955
 31
0.0
  0
LINE
  5
302
100
AcDbEntity
  8
Layer_1
 62
7
100
AcDbLine
 10
491.138337
 20
23.517352
 30
0.0
 11
491.138337
 21
1.050290
 31
0.0
  0
LINE
  5
303
100
AcDbEntity
  8
Layer_1
 62
7
100
AcDbLine
 10
494.138337
 20
39.347648
 30
0.0
 11
494.138337
 21
20.355955
 31
0.0
  0
LINE
  5
304
100
AcDbEntity
  8
Layer_1
 62
7
100
AcDbLine
 10
494.138337
 20
9.432092
 30
0.0
 11
494.138337
 21
1.157168
 31
0.0
  0
LINE
  5
305
100
AcDbEntity
  8
Layer_1
 62
7
100
AcDbLine
 10
494.138337
 20
57.461206
 30
0.0
 11
494.138337
 21
50.271511
 31
0.0
  0
LINE
  5
306
100
AcDbEntity
  8
Layer_1
 62
7
100
AcDbLine
 10
497.138325
 20
56.845431
 30
0.0
 11
497.138325
 21
37.853727
 31
0.0
  0
LINE
  5
307
100
AcDbEntity
  8
Layer_1
 62
7
100
AcDbLine
 10
497.138325
 20
54.587648
 30
0.0
 11
497.138325
 21
35.595955
 31
0.0
  0
LINE
  5
308
100
AcDbEntity
  8
Layer_1
 62
7
100
AcDbLine
 10
497.138325
 20
23.517352
 30
0.0
 11
497.138325
 21
1.050290
 31
0.0
  0
LINE
  5
309
100
AcDbEntity
  8
Layer_1
 62
7
100
AcDbLine
 10
500.138325
 20
39.347648
 30
0.0
 11
500.138325
 21
20.355955
 31
0.0
  0
LINE
  5
30a
100
AcDbEntity
  8
Layer_1
 62
7
100
AcDbLine
 10
500.138325
 20
9.432092
 30
0.0
 11
500.138325
 21
1.157168
 31
0.0
  0
LINE
  5
30b
100
AcDbEntity
  8
Layer_1
 62
7
100
AcDbLine
 10
500.138325
 20
57.461206
 30
0.0
 11
500.138325
 21
50.271511
 31
0.0
  0
LINE
  5
30c
100
AcDbEntity
  8
Layer_1
 62
7
100
AcDbLine
 10
503.138313
 20
56.845431
 30
0.0
 11
503.138313
 21
37.853727
 31
0.0
  0
LINE
  5
30d
100
AcDbEntity
  8
Layer_1
 62
7
100
AcDbLine
 10
503.138313
 20
54.587648
 30
0.0
 11
503.138313
 21
35.595955
 31
0.0
  0
LINE
  5
30e
100
AcDbEntity
  8
Layer_1
 62
7
100
AcDbLine
 10
503.138313
 20
23.517352
 30
0.0
 11
503.138313
 21
1.050290
 31
0.0
  0
LINE
  5
30f
100
AcDbEntity
  8
Layer_1
 62
7
100
AcDbLine
 10
506.138313
 20
39.347648
 30
0.0
 11
506.138313
 21
20.355955
 31
0.0
  0
LINE
  5
310
100
AcDbEntity
  8
Layer_1
 62
7
100
AcDbLine
 10
506.138313
 20
9.432092
 30
0.0
 11
506.138313
 21
1.157168
 31
0.0
  0
LINE
  5
311
100
AcDbEntity
  8
Layer_1
 62
7
100
AcDbLine
 10
506.138313
 20
57.461206
 30
0.0
 11
506.138313
 21
50.271511
 31
0.0
  0
LINE
  5
312
100
AcDbEntity
  8
Layer_1
 62
7
100
AcDbLine
 10
509.138301
 20
56.845431
 30
0.0
 11
509.138301
 21
37.853727
 31
0.0
  0
LINE
  5
313
100
AcDbEntity
  8
Layer_1
 62
7
100
AcDbLine
 10
509.138301
 20
54.587648
 30
0.0
 11
509.138301
 21
35.595955
 31
0.0
  0
LINE
  5
314
100
AcDbEntity
  8
Layer_1
 62
7
100
AcDbLine
 10
509.138301
 20
23.517352
 30
0.0
 11
509.138301
 21
1.050290
 31
0.0
  0
LINE
  5
315
100
AcDbEntity
  8
Layer_1
 62
7
100
AcDbLine
 10
512.138301
 20
39.347648
 30
0.0
 11
512.138301
 21
20.355955
 31
0.0
  0
LINE
  5
316
100
AcDbEntity
  8
Layer_1
 62
7
100
AcDbLine
 10
512.138301
 20
9.432092
 30
0.0
 11
512.138301
 21
1.157168
 31
0.0
  0
LINE
  5
317
100
AcDbEntity
  8
Layer_1
 62
7
100
AcDbLine
 10
512.138301
 20
57.461206
 30
0.0
 11
512.138301
 21
50.271511
 31
0.0
  0
LINE
  5
318
100
AcDbEntity
  8
Layer_1
 62
7
100
AcDbLine
 10
515.138289
 20
56.845431
 30
0.0
 11
515.138289
 21
37.853727
 31
0.0
  0
LINE
  5
319
100
AcDbEntity
  8
Layer_1
 62
7
100
AcDbLine
 10
515.138289
 20
54.587648
 30
0.0
 11
515.138289
 21
35.595955
 31
0.0
  0
LINE
  5
31a
100
AcDbEntity
  8
Layer_1
 62
7
100
AcDbLine
 10
515.138289
 20
23.517352
 30
0.0
 11
515.138289
 21
1.050290
 31
0.0
  0
LINE
  5
31b
100
AcDbEntity
  8
Layer_1
 62
7
100
AcDbLine
 10
518.138289
 20
39.347648
 30
0.0
 11
518.138289
 21
20.355955
 31
0.0
  0
LINE
  5
31c
100
AcDbEntity
  8
Layer_1
 62
7
100
AcDbLine
 10
518.138289
 20
9.432092
 30
0.0
 11
518.138289
 21
1.157168
 31
0.0
  0
LINE
  5
31d
100
AcDbEntity
  8
Layer_1
 62
7
100
AcDbLine
 10
518.138289
 20
57.461206
 30
0.0
 11
518.138289
 21
50.271511
 31
0.0
  0
LINE
  5
31e
100
AcDbEntity
  8
Layer_1
 62
7
100
AcDbLine
 10
521.138277
 20
56.845431
 30
0.0
 11
521.138277
 21
37.853727
 31
0.0
  0
LINE
  5
31f
100
AcDbEntity
  8
Layer_1
 62
7
100
AcDbLine
 10
521.138277
 20
54.587648
 30
0.0
 11
521.138277
 21
35.595955
 31
0.0
  0
LINE
  5
320
100
AcDbEntity
  8
Layer_1
 62
7
100
AcDbLine
 10
521.138277
 20
23.517352
 30
0.0
 11
521.138277
 21
1.050290
 31
0.0
  0
LINE
  5
321
100
AcDbEntity
  8
Layer_1
 62
7
100
AcDbLine
 10
524.138277
 20
39.347648
 30
0.0
 11
524.138277
 21
20.355955
 31
0.0
  0
LINE
  5
322
100
AcDbEntity
  8
Layer_1
 62
7
100
AcDbLine
 10
524.138277
 20
9.432092
 30
0.0
 11
524.138277
 21
1.157168
 31
0.0
  0
LINE
  5
323
100
AcDbEntity
  8
Layer_1
 62
7
100
AcDbLine
 10
524.138277
 20
57.461206
 30
0.0
 11
524.138277
 21
50.271511
 31
0.0
  0
LINE
  5
324
100
AcDbEntity
  8
Layer_1
 62
7
100
AcDbLine
 10
527.138265
 20
56.845431
 30
0.0
 11
527.138265
 21
37.853727
 31
0.0
  0
LINE
  5
325
100
AcDbEntity
  8
Layer_1
 62
7
100
AcDbLine
 10
527.138265
 20
54.587648
 30
0.0
 11
527.138265
 21
35.595955
 31
0.0
  0
LINE
  5
326
100
AcDbEntity
  8
Layer_1
 62
7
100
AcDbLine
 10
527.138265
 20
23.517352
 30
0.0
 11
527.138265
 21
1.050290
 31
0.0
  0
LINE
  5
327
100
AcDbEntity
  8
Layer_1
 62
7
100
AcDbLine
 10
530.138265
 20
39.347648
 30
0.0
 11
530.138265
 21
20.355955
 31
0.0
  0
LINE
  5
328
100
AcDbEntity
  8
Layer_1
 62
7
100
AcDbLine
 10
530.138265
 20
9.432092
 30
0.0
 11
530.138265
 21
1.157168
 31
0.0
  0
LINE
  5
329
100
AcDbEntity
  8
Layer_1
 62
7
100
AcDbLine
 10
530.138265
 20
57.461206
 30
0.0
 11
530.138265
 21
50.271511
 31
0.0
  0
LINE
  5
32a
100
AcDbEntity
  8
Layer_1
 62
7
100
AcDbLine
 10
533.138253
 20
56.845431
 30
0.0
 11
533.138253
 21
37.853727
 31
0.0
  0
LINE
  5
32b
100
AcDbEntity
  8
Layer_1
 62
7
100
AcDbLine
 10
533.138253
 20
54.587648
 30
0.0
 11
533.138253
 21
35.595955
 31
0.0
  0
LINE
  5
32c
100
AcDbEntity
  8
Layer_1
 62
7
100
AcDbLine
 10
533.138253
 20
23.517352
 30
0.0
 11
533.138253
 21
1.050290
 31
0.0
  0
LINE
  5
32d
100
AcDbEntity
  8
Layer_1
 62
7
100
AcDbLine
 10
536.138253
 20
39.347648
 30
0.0
 11
536.138253
 21
20.355955
 31
0.0
  0
LINE
  5
32e
100
AcDbEntity
  8
Layer_1
 62
7
100
AcDbLine
 10
536.138253
 20
9.432092
 30
0.0
 11
536.138253
 21
1.157168
 31
0.0
  0
LINE
  5
32f
100
AcDbEntity
  8
Layer_1
 62
7
100
AcDbLine
 10
536.138253
 20
57.461206
 30
0.0
 11
536.138253
 21
50.271511
 31
0.0
  0
LINE
  5
330
100
AcDbEntity
  8
Layer_1
 62
7
100
AcDbLine
 10
545.138229
 20
56.845431
 30
0.0
 11
545.138229
 21
37.853727
 31
0.0
  0
LINE
  5
331
100
AcDbEntity
  8
Layer_1
 62
7
100
AcDbLine
 10
545.138229
 20
54.587648
 30
0.0
 11
545.138229
 21
35.595955
 31
0.0
  0
LINE
  5
332
100
AcDbEntity
  8
Layer_1
 62
7
100
AcDbLine
 10
545.138229
 20
23.517352
 30
0.0
 11
545.138229
 21
1.050290
 31
0.0
  0
LINE
  5
333
100
AcDbEntity
  8
Layer_1
 62
7
100
AcDbLine
 10
548.138229
 20
39.347648
 30
0.0
 11
548.138229
 21
20.355955
 31
0.0
  0
LINE
  5
334
100
AcDbEntity
  8
Layer_1
 62
7
100
AcDbLine
 10
548.138229
 20
9.432092
 30
0.0
 11
548.138229
 21
1.157168
 31
0.0
  0
LINE
  5
335
100
AcDbEntity
  8
Layer_1
 62
7
100
AcDbLine
 10
548.138229
 20
57.461206
 30
0.0
 11
548.138229
 21
50.271511
 31
0.0
  0
LINE
  5
336
100
AcDbEntity
  8
Layer_1
 62
7
100
AcDbLine
 10
551.138217
 20
56.845431
 30
0.0
 11
551.138217
 21
37.853727
 31
0.0
  0
LINE
  5
337
100
AcDbEntity
  8
Layer_1
 62
7
100
AcDbLine
 10
551.138217
 20
54.587648
 30
0.0
 11
551.138217
 21
35.595955
 31
0.0
  0
LINE
  5
338
100
AcDbEntity
  8
Layer_1
 62
7
100
AcDbLine
 10
551.138217
 20
23.517352
 30
0.0
 11
551.138217
 21
1.050290
 31
0.0
  0
LINE
  5
339
100
AcDbEntity
  8
Layer_1
 62
7
100
AcDbLine
 10
554.138217
 20
39.347648
 30
0.0
 11
554.138217
 21
20.355955
 31
0.0
  0
LINE
  5
33a
100
AcDbEntity
  8
Layer_1
 62
7
100
AcDbLine
 10
554.138217
 20
9.432092
 30
0.0
 11
554.138217
 21
1.157168
 31
0.0
  0
LINE
  5
33b
100
AcDbEntity
  8
Layer_1
 62
7
100
AcDbLine
 10
554.138217
 20
57.461206
 30
0.0
 11
554.138217
 21
50.271511
 31
0.0
  0
LINE
  5
33c
100
AcDbEntity
  8
Layer_1
 62
7
100
AcDbLine
 10
557.138205
 20
56.845431
 30
0.0
 11
557.138205
 21
37.853727
 31
0.0
  0
LINE
  5
33d
100
AcDbEntity
  8
Layer_1
 62
7
100
AcDbLine
 10
557.138205
 20
54.587648
 30
0.0
 11
557.138205
 21
35.595955
 31
0.0
  0
LINE
  5
33e
100
AcDbEntity
  8
Layer_1
 62
7
100
AcDbLine
 10
557.138205
 20
23.517352
 30
0.0
 11
557.138205
 21
1.050290
 31
0.0
  0
LINE
  5
33f
100
AcDbEntity
  8
Layer_1
 62
7
100
AcDbLine
 10
560.138205
 20
39.347648
 30
0.0
 11
560.138205
 21
20.355955
 31
0.0
  0
LINE
  5
340
100
AcDbEntity
  8
Layer_1
 62
7
100
AcDbLine
 10
560.138205
 20
9.432092
 30
0.0
 11
560.138205
 21
1.157168
 31
0.0
  0
LINE
  5
341
100
AcDbEntity
  8
Layer_1
 62
7
100
AcDbLine
 10
560.138205
 20
57.461206
 30
0.0
 11
560.138205
 21
50.271511
 31
0.0
  0
LINE
  5
342
100
AcDbEntity
  8
Layer_1
 62
7
100
AcDbLine
 10
563.138193
 20
56.845431
 30
0.0
 11
563.138193
 21
37.853727
 31
0.0
  0
LINE
  5
343
100
AcDbEntity
  8
Layer_1
 62
7
100
AcDbLine
 10
563.138193
 20
54.587648
 30
0.0
 11
563.138193
 21
35.595955
 31
0.0
  0
LINE
  5
344
100
AcDbEntity
  8
Layer_1
 62
7
100
AcDbLine
 10
563.138193
 20
23.517352
 30
0.0
 11
563.138193
 21
1.050290
 31
0.0
  0
LINE
  5
345
100
AcDbEntity
  8
Layer_1
 62
7
100
AcDbLine
 10
566.138193
 20
39.347648
 30
0.0
 11
566.138193
 21
20.355955
 31
0.0
  0
LINE
  5
346
100
AcDbEntity
  8
Layer_1
 62
7
100
AcDbLine
 10
566.138193
 20
9.432092
 30
0.0
 11
566.138193
 21
1.157168
 31
0.0
  0
LINE
  5
347
100
AcDbEntity
  8
Layer_1
 62
7
100
AcDbLine
 10
566.138193
 20
57.461206
 30
0.0
 11
566.138193
 21
50.271511
 31
0.0
  0
LINE
  5
348
100
AcDbEntity
  8
Layer_1
 62
7
100
AcDbLine
 10
569.138181
 20
56.845431
 30
0.0
 11
569.138181
 21
37.853727
 31
0.0
  0
LINE
  5
349
100
AcDbEntity
  8
Layer_1
 62
7
100
AcDbLine
 10
569.138181
 20
54.587648
 30
0.0
 11
569.138181
 21
35.595955
 31
0.0
  0
LINE
  5
34a
100
AcDbEntity
  8
Layer_1
 62
7
100
AcDbLine
 10
569.138181
 20
23.517352
 30
0.0
 11
569.138181
 21
1.050290
 31
0.0
  0
LINE
  5
34b
100
AcDbEntity
  8
Layer_1
 62
7
100
AcDbLine
 10
572.138181
 20
39.347648
 30
0.0
 11
572.138181
 21
20.355955
 31
0.0
  0
LINE
  5
34c
100
AcDbEntity
  8
Layer_1
 62
7
100
AcDbLine
 10
572.138181
 20
9.432092
 30
0.0
 11
572.138181
 21
1.157168
 31
0.0
  0
LINE
  5
34d
100
AcDbEntity
  8
Layer_1
 62
7
100
AcDbLine
 10
572.138181
 20
57.461206
 30
0.0
 11
572.138181
 21
50.271511
 31
0.0
  0
LINE
  5
34e
100
AcDbEntity
  8
Layer_1
 62
7
100
AcDbLine
 10
575.138169
 20
56.845431
 30
0.0
 11
575.138169
 21
37.853727
 31
0.0
  0
LINE
  5
34f
100
AcDbEntity
  8
Layer_1
 62
7
100
AcDbLine
 10
575.138169
 20
54.587648
 30
0.0
 11
575.138169
 21
35.595955
 31
0.0
  0
LINE
  5
350
100
AcDbEntity
  8
Layer_1
 62
7
100
AcDbLine
 10
575.138169
 20
23.517352
 30
0.0
 11
575.138169
 21
1.050290
 31
0.0
  0
LINE
  5
351
100
AcDbEntity
  8
Layer_1
 62
7
100
AcDbLine
 10
578.138169
 20
39.347648
 30
0.0
 11
578.138169
 21
20.355955
 31
0.0
  0
LINE
  5
352
100
AcDbEntity
  8
Layer_1
 62
7
100
AcDbLine
 10
578.138169
 20
9.432092
 30
0.0
 11
578.138169
 21
1.157168
 31
0.0
  0
LINE
  5
353
100
AcDbEntity
  8
Layer_1
 62
7
100
AcDbLine
 10
578.138169
 20
57.461206
 30
0.0
 11
578.138169
 21
50.271511
 31
0.0
  0
LINE
  5
354
100
AcDbEntity
  8
Layer_1
 62
7
100
AcDbLine
 10
581.138157
 20
56.845431
 30
0.0
 11
581.138157
 21
37.853727
 31
0.0
  0
LINE
  5
355
100
AcDbEntity
  8
Layer_1
 62
7
100
AcDbLine
 10
581.138157
 20
54.587648
 30
0.0
 11
581.138157
 21
35.595955
 31
0.0
  0
LINE
  5
356
100
AcDbEntity
  8
Layer_1
 62
7
100
AcDbLine
 10
581.138157
 20
23.517352
 30
0.0
 11
581.138157
 21
1.050290
 31
0.0
  0
LINE
  5
357
100
AcDbEntity
  8
Layer_1
 62
7
100
AcDbLine
 10
584.138157
 20
39.347648
 30
0.0
 11
584.138157
 21
20.355955
 31
0.0
  0
LINE
  5
358
100
AcDbEntity
  8
Layer_1
 62
7
100
AcDbLine
 10
584.138157
 20
9.432092
 30
0.0
 11
584.138157
 21
1.157168
 31
0.0
  0
LINE
  5
359
100
AcDbEntity
  8
Layer_1
 62
7
100
AcDbLine
 10
584.138157
 20
57.461206
 30
0.0
 11
584.138157
 21
50.271511
 31
0.0
  0
LINE
  5
35a
100
AcDbEntity
  8
Layer_1
 62
7
100
AcDbLine
 10
587.138145
 20
56.845431
 30
0.0
 11
587.138145
 21
37.853727
 31
0.0
  0
LINE
  5
35b
100
AcDbEntity
  8
Layer_1
 62
7
100
AcDbLine
 10
587.138145
 20
54.587648
 30
0.0
 11
587.138145
 21
35.595955
 31
0.0
  0
LINE
  5
35c
100
AcDbEntity
  8
Layer_1
 62
7
100
AcDbLine
 10
587.138145
 20
23.517352
 30
0.0
 11
587.138145
 21
1.050290
 31
0.0
  0
LINE
  5
35d
100
AcDbEntity
  8
Layer_1
 62
7
100
AcDbLine
 10
590.138145
 20
39.347648
 30
0.0
 11
590.138145
 21
20.355955
 31
0.0
  0
LINE
  5
35e
100
AcDbEntity
  8
Layer_1
 62
7
100
AcDbLine
 10
590.138145
 20
9.432092
 30
0.0
 11
590.138145
 21
1.157168
 31
0.0
  0
LINE
  5
35f
100
AcDbEntity
  8
Layer_1
 62
7
100
AcDbLine
 10
590.138145
 20
57.461206
 30
0.0
 11
590.138145
 21
50.271511
 31
0.0
  0
LINE
  5
360
100
AcDbEntity
  8
Layer_1
 62
7
100
AcDbLine
 10
593.138133
 20
56.845431
 30
0.0
 11
593.138133
 21
37.853727
 31
0.0
  0
LINE
  5
361
100
AcDbEntity
  8
Layer_1
 62
7
100
AcDbLine
 10
593.138133
 20
54.587648
 30
0.0
 11
593.138133
 21
35.595955
 31
0.0
  0
LINE
  5
362
100
AcDbEntity
  8
Layer_1
 62
7
100
AcDbLine
 10
593.138133
 20
23.517352
 30
0.0
 11
593.138133
 21
1.050290
 31
0.0
  0
LINE
  5
363
100
AcDbEntity
  8
Layer_1
 62
7
100
AcDbLine
 10
596.138133
 20
39.347648
 30
0.0
 11
596.138133
 21
20.355955
 31
0.0
  0
LINE
  5
364
100
AcDbEntity
  8
Layer_1
 62
7
100
AcDbLine
 10
596.138133
 20
9.432092
 30
0.0
 11
596.138133
 21
1.157168
 31
0.0
  0
LINE
  5
365
100
AcDbEntity
  8
Layer_1
 62
7
100
AcDbLine
 10
596.138133
 20
57.461206
 30
0.0
 11
596.138133
 21
50.271511
 31
0.0
  0
LINE
  5
366
100
AcDbEntity
  8
Layer_1
 62
7
100
AcDbLine
 10
599.138121
 20
56.845431
 30
0.0
 11
599.138121
 21
37.853727
 31
0.0
  0
LINE
  5
367
100
AcDbEntity
  8
Layer_1
 62
7
100
AcDbLine
 10
599.138121
 20
54.587648
 30
0.0
 11
599.138121
 21
35.595955
 31
0.0
  0
LINE
  5
368
100
AcDbEntity
  8
Layer_1
 62
7
100
AcDbLine
 10
599.138121
 20
23.517352
 30
0.0
 11
599.138121
 21
1.050290
 31
0.0
  0
LINE
  5
369
100
AcDbEntity
  8
Layer_1
 62
7
100
AcDbLine
 10
602.138121
 20
39.347648
 30
0.0
 11
602.138121
 21
20.355955
 31
0.0
  0
LINE
  5
36a
100
AcDbEntity
  8
Layer_1
 62
7
100
AcDbLine
 10
602.138121
 20
9.432092
 30
0.0
 11
602.138121
 21
1.157168
 31
0.0
  0
LINE
  5
36b
100
AcDbEntity
  8
Layer_1
 62
7
100
AcDbLine
 10
602.138121
 20
57.461206
 30
0.0
 11
602.138121
 21
50.271511
 31
0.0
  0
LINE
  5
36c
100
AcDbEntity
  8
Layer_1
 62
7
100
AcDbLine
 10
599.138121
 20
56.845431
 30
0.0
 11
599.138121
 21
37.853727
 31
0.0
  0
LINE
  5
36d
100
AcDbEntity
  8
Layer_1
 62
7
100
AcDbLine
 10
599.138121
 20
54.587648
 30
0.0
 11
599.138121
 21
35.595955
 31
0.0
  0
LINE
  5
36e
100
AcDbEntity
  8
Layer_1
 62
7
100
AcDbLine
 10
599.138121
 20
23.517352
 30
0.0
 11
599.138121
 21
1.050290
 31
0.0
  0
LINE
  5
36f
100
AcDbEntity
  8
Layer_1
 62
7
100
AcDbLine
 10
602.138121
 20
39.347648
 30
0.0
 11
602.138121
 21
20.355955
 31
0.0
  0
LINE
  5
370
100
AcDbEntity
  8
Layer_1
 62
7
100
AcDbLine
 10
602.138121
 20
9.432092
 30
0.0
 11
602.138121
 21
1.157168
 31
0.0
  0
LINE
  5
371
100
AcDbEntity
  8
Layer_1
 62
7
100
AcDbLine
 10
602.138121
 20
57.461206
 30
0.0
 11
602.138121
 21
50.271511
 31
0.0
  0
LINE
  5
372
100
AcDbEntity
  8
Layer_1
 62
7
100
AcDbLine
 10
605.138109
 20
56.845431
 30
0.0
 11
605.138109
 21
37.853727
 31
0.0
  0
LINE
  5
373
100
AcDbEntity
  8
Layer_1
 62
7
100
AcDbLine
 10
605.138109
 20
54.587648
 30
0.0
 11
605.138109
 21
35.595955
 31
0.0
  0
LINE
  5
374
100
AcDbEntity
  8
Layer_1
 62
7
100
AcDbLine
 10
605.138109
 20
23.517352
 30
0.0
 11
605.138109
 21
1.050290
 31
0.0
  0
LINE
  5
375
100
AcDbEntity
  8
Layer_1
 62
7
100
AcDbLine
 10
608.138109
 20
39.347648
 30
0.0
 11
608.138109
 21
20.355955
 31
0.0
  0
LINE
  5
376
100
AcDbEntity
  8
Layer_1
 62
7
100
AcDbLine
 10
608.138109
 20
9.432092
 30
0.0
 11
608.138109
 21
1.157168
 31
0.0
  0
LINE
  5
377
100
AcDbEntity
  8
Layer_1
 62
7
100
AcDbLine
 10
608.138109
 20
57.461206
 30
0.0
 11
608.138109
 21
50.271511
 31
0.0
  0
LINE
  5
378
100
AcDbEntity
  8
Layer_1
 62
7
100
AcDbLine
 10
611.138097
 20
56.845431
 30
0.0
 11
611.138097
 21
37.853727
 31
0.0
  0
LINE
  5
379
100
AcDbEntity
  8
Layer_1
 62
7
100
AcDbLine
 10
611.138097
 20
54.587648
 30
0.0
 11
611.138097
 21
35.595955
 31
0.0
  0
LINE
  5
37a
100
AcDbEntity
  8
Layer_1
 62
7
100
AcDbLine
 10
611.138097
 20
23.517352
 30
0.0
 11
611.138097
 21
1.050290
 31
0.0
  0
LINE
  5
37b
100
AcDbEntity
  8
Layer_1
 62
7
100
AcDbLine
 10
614.138097
 20
39.347648
 30
0.0
 11
614.138097
 21
20.355955
 31
0.0
  0
LINE
  5
37c
100
AcDbEntity
  8
Layer_1
 62
7
100
AcDbLine
 10
614.138097
 20
9.432092
 30
0.0
 11
614.138097
 21
1.157168
 31
0.0
  0
LINE
  5
37d
100
AcDbEntity
  8
Layer_1
 62
7
100
AcDbLine
 10
614.138097
 20
57.461206
 30
0.0
 11
614.138097
 21
50.271511
 31
0.0
  0
LINE
  5
37e
100
AcDbEntity
  8
Layer_1
 62
7
100
AcDbLine
 10
617.138085
 20
56.845431
 30
0.0
 11
617.138085
 21
37.853727
 31
0.0
  0
LINE
  5
37f
100
AcDbEntity
  8
Layer_1
 62
7
100
AcDbLine
 10
617.138085
 20
54.587648
 30
0.0
 11
617.138085
 21
35.595955
 31
0.0
  0
LINE
  5
380
100
AcDbEntity
  8
Layer_1
 62
7
100
AcDbLine
 10
617.138085
 20
23.517352
 30
0.0
 11
617.138085
 21
1.050290
 31
0.0
  0
LINE
  5
381
100
AcDbEntity
  8
Layer_1
 62
7
100
AcDbLine
 10
620.138085
 20
39.347648
 30
0.0
 11
620.138085
 21
20.355955
 31
0.0
  0
LINE
  5
382
100
AcDbEntity
  8
Layer_1
 62
7
100
AcDbLine
 10
620.138085
 20
9.432092
 30
0.0
 11
620.138085
 21
1.157168
 31
0.0
  0
LINE
  5
383
100
AcDbEntity
  8
Layer_1
 62
7
100
AcDbLine
 10
620.138085
 20
57.461206
 30
0.0
 11
620.138085
 21
50.271511
 31
0.0
  0
LINE
  5
384
100
AcDbEntity
  8
Layer_1
 62
7
100
AcDbLine
 10
623.138073
 20
56.845431
 30
0.0
 11
623.138073
 21
37.853727
 31
0.0
  0
LINE
  5
385
100
AcDbEntity
  8
Layer_1
 62
7
100
AcDbLine
 10
623.138073
 20
54.587648
 30
0.0
 11
623.138073
 21
35.595955
 31
0.0
  0
LINE
  5
386
100
AcDbEntity
  8
Layer_1
 62
7
100
AcDbLine
 10
623.138073
 20
23.517352
 30
0.0
 11
623.138073
 21
1.050290
 31
0.0
  0
LINE
  5
387
100
AcDbEntity
  8
Layer_1
 62
7
100
AcDbLine
 10
626.138073
 20
39.347648
 30
0.0
 11
626.138073
 21
20.355955
 31
0.0
  0
LINE
  5
388
100
AcDbEntity
  8
Layer_1
 62
7
100
AcDbLine
 10
626.138073
 20
9.432092
 30
0.0
 11
626.138073
 21
1.157168
 31
0.0
  0
LINE
  5
389
100
AcDbEntity
  8
Layer_1
 62
7
100
AcDbLine
 10
626.138073
 20
57.461206
 30
0.0
 11
626.138073
 21
50.271511
 31
0.0
  0
LINE
  5
38a
100
AcDbEntity
  8
Layer_1
 62
7
100
AcDbLine
 10
629.138061
 20
56.845431
 30
0.0
 11
629.138061
 21
37.853727
 31
0.0
  0
LINE
  5
38b
100
AcDbEntity
  8
Layer_1
 62
7
100
AcDbLine
 10
629.138061
 20
54.587648
 30
0.0
 11
629.138061
 21
35.595955
 31
0.0
  0
LINE
  5
38c
100
AcDbEntity
  8
Layer_1
 62
7
100
AcDbLine
 10
629.138061
 20
23.517352
 30
0.0
 11
629.138061
 21
1.050290
 31
0.0
  0
LINE
  5
38d
100
AcDbEntity
  8
Layer_1
 62
7
100
AcDbLine
 10
632.138061
 20
39.347648
 30
0.0
 11
632.138061
 21
20.355955
 31
0.0
  0
LINE
  5
38e
100
AcDbEntity
  8
Layer_1
 62
7
100
AcDbLine
 10
632.138061
 20
9.432092
 30
0.0
 11
632.138061
 21
1.157168
 31
0.0
  0
LINE
  5
38f
100
AcDbEntity
  8
Layer_1
 62
7
100
AcDbLine
 10
632.138061
 20
57.461206
 30
0.0
 11
632.138061
 21
50.271511
 31
0.0
  0
LINE
  5
390
100
AcDbEntity
  8
Layer_1
 62
7
100
AcDbLine
 10
635.138049
 20
56.845431
 30
0.0
 11
635.138049
 21
37.853727
 31
0.0
  0
LINE
  5
391
100
AcDbEntity
  8
Layer_1
 62
7
100
AcDbLine
 10
635.138049
 20
54.587648
 30
0.0
 11
635.138049
 21
35.595955
 31
0.0
  0
LINE
  5
392
100
AcDbEntity
  8
Layer_1
 62
7
100
AcDbLine
 10
635.138049
 20
23.517352
 30
0.0
 11
635.138049
 21
1.050290
 31
0.0
  0
LINE
  5
393
100
AcDbEntity
  8
Layer_1
 62
7
100
AcDbLine
 10
638.138049
 20
39.347648
 30
0.0
 11
638.138049
 21
20.355955
 31
0.0
  0
LINE
  5
394
100
AcDbEntity
  8
Layer_1
 62
7
100
AcDbLine
 10
638.138049
 20
9.432092
 30
0.0
 11
638.138049
 21
1.157168
 31
0.0
  0
LINE
  5
395
100
AcDbEntity
  8
Layer_1
 62
7
100
AcDbLine
 10
638.138049
 20
57.461206
 30
0.0
 11
638.138049
 21
50.271511
 31
0.0
  0
LINE
  5
396
100
AcDbEntity
  8
Layer_1
 62
7
100
AcDbLine
 10
641.138037
 20
56.845431
 30
0.0
 11
641.138037
 21
37.853727
 31
0.0
  0
LINE
  5
397
100
AcDbEntity
  8
Layer_1
 62
7
100
AcDbLine
 10
641.138037
 20
54.587648
 30
0.0
 11
641.138037
 21
35.595955
 31
0.0
  0
LINE
  5
398
100
AcDbEntity
  8
Layer_1
 62
7
100
AcDbLine
 10
641.138037
 20
23.517352
 30
0.0
 11
641.138037
 21
1.050290
 31
0.0
  0
LINE
  5
399
100
AcDbEntity
  8
Layer_1
 62
7
100
AcDbLine
 10
644.138037
 20
39.347648
 30
0.0
 11
644.138037
 21
20.355955
 31
0.0
  0
LINE
  5
39a
100
AcDbEntity
  8
Layer_1
 62
7
100
AcDbLine
 10
644.138037
 20
9.432092
 30
0.0
 11
644.138037
 21
1.157168
 31
0.0
  0
LINE
  5
39b
100
AcDbEntity
  8
Layer_1
 62
7
100
AcDbLine
 10
644.138037
 20
57.461206
 30
0.0
 11
644.138037
 21
50.271511
 31
0.0
  0
LINE
  5
39c
100
AcDbEntity
  8
Layer_1
 62
7
100
AcDbLine
 10
647.138025
 20
56.845431
 30
0.0
 11
647.138025
 21
37.853727
 31
0.0
  0
LINE
  5
39d
100
AcDbEntity
  8
Layer_1
 62
7
100
AcDbLine
 10
647.138025
 20
54.587648
 30
0.0
 11
647.138025
 21
35.595955
 31
0.0
  0
LINE
  5
39e
100
AcDbEntity
  8
Layer_1
 62
7
100
AcDbLine
 10
647.138025
 20
23.517352
 30
0.0
 11
647.138025
 21
1.050290
 31
0.0
  0
LINE
  5
39f
100
AcDbEntity
  8
Layer_1
 62
7
100
AcDbLine
 10
650.138025
 20
39.347648
 30
0.0
 11
650.138025
 21
20.355955
 31
0.0
  0
LINE
  5
3a0
100
AcDbEntity
  8
Layer_1
 62
7
100
AcDbLine
 10
650.138025
 20
9.432092
 30
0.0
 11
650.138025
 21
1.157168
 31
0.0
  0
LINE
  5
3a1
100
AcDbEntity
  8
Layer_1
 62
7
100
AcDbLine
 10
650.138025
 20
57.461206
 30
0.0
 11
650.138025
 21
50.271511
 31
0.0
  0
LINE
  5
3a2
100
AcDbEntity
  8
Layer_1
 62
7
100
AcDbLine
 10
653.138013
 20
56.845431
 30
0.0
 11
653.138013
 21
37.853727
 31
0.0
  0
LINE
  5
3a3
100
AcDbEntity
  8
Layer_1
 62
7
100
AcDbLine
 10
653.138013
 20
54.587648
 30
0.0
 11
653.138013
 21
35.595955
 31
0.0
  0
LINE
  5
3a4
100
AcDbEntity
  8
Layer_1
 62
7
100
AcDbLine
 10
653.138013
 20
23.517352
 30
0.0
 11
653.138013
 21
1.050290
 31
0.0
  0
LINE
  5
3a5
100
AcDbEntity
  8
Layer_1
 62
7
100
AcDbLine
 10
656.138013
 20
39.347648
 30
0.0
 11
656.138013
 21
20.355955
 31
0.0
  0
LINE
  5
3a6
100
AcDbEntity
  8
Layer_1
 62
7
100
AcDbLine
 10
656.138013
 20
9.432092
 30
0.0
 11
656.138013
 21
1.157168
 31
0.0
  0
LINE
  5
3a7
100
AcDbEntity
  8
Layer_1
 62
7
100
AcDbLine
 10
656.138013
 20
57.461206
 30
0.0
 11
656.138013
 21
50.271511
 31
0.0
  0
LINE
  5
3a8
100
AcDbEntity
  8
Layer_1
 62
7
100
AcDbLine
 10
659.138001
 20
56.845431
 30
0.0
 11
659.138001
 21
37.853727
 31
0.0
  0
LINE
  5
3a9
100
AcDbEntity
  8
Layer_1
 62
7
100
AcDbLine
 10
659.138001
 20
54.587648
 30
0.0
 11
659.138001
 21
35.595955
 31
0.0
  0
LINE
  5
3aa
100
AcDbEntity
  8
Layer_1
 62
7
100
AcDbLine
 10
659.138001
 20
23.517352
 30
0.0
 11
659.138001
 21
1.050290
 31
0.0
  0
LINE
  5
3ab
100
AcDbEntity
  8
Layer_1
 62
7
100
AcDbLine
 10
662.138001
 20
39.347648
 30
0.0
 11
662.138001
 21
20.355955
 31
0.0
  0
LINE
  5
3ac
100
AcDbEntity
  8
Layer_1
 62
7
100
AcDbLine
 10
662.138001
 20
9.432092
 30
0.0
 11
662.138001
 21
1.157168
 31
0.0
  0
LINE
  5
3ad
100
AcDbEntity
  8
Layer_1
 62
7
100
AcDbLine
 10
662.138001
 20
57.461206
 30
0.0
 11
662.138001
 21
50.271511
 31
0.0
  0
LINE
  5
3ae
100
AcDbEntity
  8
Layer_1
 62
7
100
AcDbLine
 10
665.137975
 20
56.845426
 30
0.0
 11
665.137975
 21
37.853733
 31
0.0
  0
LINE
  5
3af
100
AcDbEntity
  8
Layer_1
 62
7
100
AcDbLine
 10
665.137975
 20
54.587648
 30
0.0
 11
665.137975
 21
35.595955
 31
0.0
  0
LINE
  5
3b0
100
AcDbEntity
  8
Layer_1
 62
7
100
AcDbLine
 10
665.137975
 20
23.517352
 30
0.0
 11
665.137975
 21
1.050290
 31
0.0
  0
LINE
  5
3b1
100
AcDbEntity
  8
Layer_1
 62
7
100
AcDbLine
 10
677.137965
 20
56.845431
 30
0.0
 11
677.137965
 21
37.853727
 31
0.0
  0
LINE
  5
3b2
100
AcDbEntity
  8
Layer_1
 62
7
100
AcDbLine
 10
677.137965
 20
54.587648
 30
0.0
 11
677.137965
 21
35.595955
 31
0.0
  0
LINE
  5
3b3
100
AcDbEntity
  8
Layer_1
 62
7
100
AcDbLine
 10
677.137965
 20
23.517352
 30
0.0
 11
677.137965
 21
1.050290
 31
0.0
  0
LINE
  5
3b4
100
AcDbEntity
  8
Layer_1
 62
7
100
AcDbLine
 10
680.137965
 20
39.347648
 30
0.0
 11
680.137965
 21
20.355955
 31
0.0
  0
LINE
  5
3b5
100
AcDbEntity
  8
Layer_1
 62
7
100
AcDbLine
 10
680.137965
 20
9.432092
 30
0.0
 11
680.137965
 21
1.157168
 31
0.0
  0
LINE
  5
3b6
100
AcDbEntity
  8
Layer_1
 62
7
100
AcDbLine
 10
680.137965
 20
57.461206
 30
0.0
 11
680.137965
 21
50.271511
 31
0.0
  0
LINE
  5
3b7
100
AcDbEntity
  8
Layer_1
 62
7
100
AcDbLine
 10
683.137953
 20
56.845431
 30
0.0
 11
683.137953
 21
37.853727
 31
0.0
  0
LINE
  5
3b8
100
AcDbEntity
  8
Layer_1
 62
7
100
AcDbLine
 10
683.137953
 20
54.587648
 30
0.0
 11
683.137953
 21
35.595955
 31
0.0
  0
LINE
  5
3b9
100
AcDbEntity
  8
Layer_1
 62
7
100
AcDbLine
 10
683.137953
 20
23.517352
 30
0.0
 11
683.137953
 21
1.050290
 31
0.0
  0
LINE
  5
3ba
100
AcDbEntity
  8
Layer_1
 62
7
100
AcDbLine
 10
686.137953
 20
39.347648
 30
0.0
 11
686.137953
 21
20.355955
 31
0.0
  0
LINE
  5
3bb
100
AcDbEntity
  8
Layer_1
 62
7
100
AcDbLine
 10
686.137953
 20
9.432092
 30
0.0
 11
686.137953
 21
1.157168
 31
0.0
  0
LINE
  5
3bc
100
AcDbEntity
  8
Layer_1
 62
7
100
AcDbLine
 10
686.137953
 20
57.461206
 30
0.0
 11
686.137953
 21
50.271511
 31
0.0
  0
LINE
  5
3bd
100
AcDbEntity
  8
Layer_1
 62
7
100
AcDbLine
 10
689.137941
 20
56.845431
 30
0.0
 11
689.137941
 21
37.853727
 31
0.0
  0
LINE
  5
3be
100
AcDbEntity
  8
Layer_1
 62
7
100
AcDbLine
 10
689.137941
 20
54.587648
 30
0.0
 11
689.137941
 21
35.595955
 31
0.0
  0
LINE
  5
3bf
100
AcDbEntity
  8
Layer_1
 62
7
100
AcDbLine
 10
689.137941
 20
23.517352
 30
0.0
 11
689.137941
 21
1.050290
 31
0.0
  0
LINE
  5
3c0
100
AcDbEntity
  8
Layer_1
 62
7
100
AcDbLine
 10
692.137941
 20
39.347648
 30
0.0
 11
692.137941
 21
20.355955
 31
0.0
  0
LINE
  5
3c1
100
AcDbEntity
  8
Layer_1
 62
7
100
AcDbLine
 10
692.137941
 20
9.432092
 30
0.0
 11
692.137941
 21
1.157168
 31
0.0
  0
LINE
  5
3c2
100
AcDbEntity
  8
Layer_1
 62
7
100
AcDbLine
 10
692.137941
 20
57.461206
 30
0.0
 11
692.137941
 21
50.271511
 31
0.0
  0
LINE
  5
3c3
100
AcDbEntity
  8
Layer_1
 62
7
100
AcDbLine
 10
695.137929
 20
56.845431
 30
0.0
 11
695.137929
 21
37.853727
 31
0.0
  0
LINE
  5
3c4
100
AcDbEntity
  8
Layer_1
 62
7
100
AcDbLine
 10
695.137929
 20
54.587648
 30
0.0
 11
695.137929
 21
35.595955
 31
0.0
  0
LINE
  5
3c5
100
AcDbEntity
  8
Layer_1
 62
7
100
AcDbLine
 10
695.137929
 20
23.517352
 30
0.0
 11
695.137929
 21
1.050290
 31
0.0
  0
LINE
  5
3c6
100
AcDbEntity
  8
Layer_1
 62
7
100
AcDbLine
 10
698.137929
 20
39.347648
 30
0.0
 11
698.137929
 21
20.355955
 31
0.0
  0
LINE
  5
3c7
100
AcDbEntity
  8
Layer_1
 62
7
100
AcDbLine
 10
698.137929
 20
9.432092
 30
0.0
 11
698.137929
 21
1.157168
 31
0.0
  0
LINE
  5
3c8
100
AcDbEntity
  8
Layer_1
 62
7
100
AcDbLine
 10
698.137929
 20
57.461206
 30
0.0
 11
698.137929
 21
50.271511
 31
0.0
  0
LINE
  5
3c9
100
AcDbEntity
  8
Layer_1
 62
7
100
AcDbLine
 10
695.137929
 20
56.845431
 30
0.0
 11
695.137929
 21
37.853727
 31
0.0
  0
LINE
  5
3ca
100
AcDbEntity
  8
Layer_1
 62
7
100
AcDbLine
 10
695.137929
 20
54.587648
 30
0.0
 11
695.137929
 21
35.595955
 31
0.0
  0
LINE
  5
3cb
100
AcDbEntity
  8
Layer_1
 62
7
100
AcDbLine
 10
695.137929
 20
23.517352
 30
0.0
 11
695.137929
 21
1.050290
 31
0.0
  0
LINE
  5
3cc
100
AcDbEntity
  8
Layer_1
 62
7
100
AcDbLine
 10
698.137929
 20
39.347648
 30
0.0
 11
698.137929
 21
20.355955
 31
0.0
  0
LINE
  5
3cd
100
AcDbEntity
  8
Layer_1
 62
7
100
AcDbLine
 10
698.137929
 20
9.432092
 30
0.0
 11
698.137929
 21
1.157168
 31
0.0
  0
LINE
  5
3ce
100
AcDbEntity
  8
Layer_1
 62
7
100
AcDbLine
 10
698.137929
 20
57.461206
 30
0.0
 11
698.137929
 21
50.271511
 31
0.0
  0
LINE
  5
3cf
100
AcDbEntity
  8
Layer_1
 62
7
100
AcDbLine
 10
701.137917
 20
56.845431
 30
0.0
 11
701.137917
 21
37.853727
 31
0.0
  0
LINE
  5
3d0
100
AcDbEntity
  8
Layer_1
 62
7
100
AcDbLine
 10
701.137917
 20
54.587648
 30
0.0
 11
701.137917
 21
35.595955
 31
0.0
  0
LINE
  5
3d1
100
AcDbEntity
  8
Layer_1
 62
7
100
AcDbLine
 10
701.137917
 20
23.517352
 30
0.0
 11
701.137917
 21
1.050290
 31
0.0
  0
LINE
  5
3d2
100
AcDbEntity
  8
Layer_1
 62
7
100
AcDbLine
 10
704.137917
 20
39.347648
 30
0.0
 11
704.137917
 21
20.355955
 31
0.0
  0
LINE
  5
3d3
100
AcDbEntity
  8
Layer_1
 62
7
100
AcDbLine
 10
704.137917
 20
9.432092
 30
0.0
 11
704.137917
 21
1.157168
 31
0.0
  0
LINE
  5
3d4
100
AcDbEntity
  8
Layer_1
 62
7
100
AcDbLine
 10
704.137917
 20
57.461206
 30
0.0
 11
704.137917
 21
50.271511
 31
0.0
  0
LINE
  5
3d5
100
AcDbEntity
  8
Layer_1
 62
7
100
AcDbLine
 10
707.137905
 20
56.845431
 30
0.0
 11
707.137905
 21
37.853727
 31
0.0
  0
LINE
  5
3d6
100
AcDbEntity
  8
Layer_1
 62
7
100
AcDbLine
 10
707.137905
 20
54.587648
 30
0.0
 11
707.137905
 21
35.595955
 31
0.0
  0
LINE
  5
3d7
100
AcDbEntity
  8
Layer_1
 62
7
100
AcDbLine
 10
707.137905
 20
23.517352
 30
0.0
 11
707.137905
 21
1.050290
 31
0.0
  0
LINE
  5
3d8
100
AcDbEntity
  8
Layer_1
 62
7
100
AcDbLine
 10
710.137905
 20
39.347648
 30
0.0
 11
710.137905
 21
20.355955
 31
0.0
  0
LINE
  5
3d9
100
AcDbEntity
  8
Layer_1
 62
7
100
AcDbLine
 10
710.137905
 20
9.432092
 30
0.0
 11
710.137905
 21
1.157168
 31
0.0
  0
LINE
  5
3da
100
AcDbEntity
  8
Layer_1
 62
7
100
AcDbLine
 10
710.137905
 20
57.461206
 30
0.0
 11
710.137905
 21
50.271511
 31
0.0
  0
LINE
  5
3db
100
AcDbEntity
  8
Layer_1
 62
7
100
AcDbLine
 10
719.137881
 20
56.845431
 30
0.0
 11
719.137881
 21
37.853727
 31
0.0
  0
LINE
  5
3dc
100
AcDbEntity
  8
Layer_1
 62
7
100
AcDbLine
 10
719.137881
 20
54.587648
 30
0.0
 11
719.137881
 21
35.595955
 31
0.0
  0
LINE
  5
3dd
100
AcDbEntity
  8
Layer_1
 62
7
100
AcDbLine
 10
719.137881
 20
23.517352
 30
0.0
 11
719.137881
 21
1.050290
 31
0.0
  0
LINE
  5
3de
100
AcDbEntity
  8
Layer_1
 62
7
100
AcDbLine
 10
722.137881
 20
39.347648
 30
0.0
 11
722.137881
 21
20.355955
 31
0.0
  0
LINE
  5
3df
100
AcDbEntity
  8
Layer_1
 62
7
100
AcDbLine
 10
722.137881
 20
9.432092
 30
0.0
 11
722.137881
 21
1.157168
 31
0.0
  0
LINE
  5
3e0
100
AcDbEntity
  8
Layer_1
 62
7
100
AcDbLine
 10
722.137881
 20
57.461206
 30
0.0
 11
722.137881
 21
50.271511
 31
0.0
  0
LINE
  5
3e1
100
AcDbEntity
  8
Layer_1
 62
7
100
AcDbLine
 10
725.137869
 20
56.845431
 30
0.0
 11
725.137869
 21
37.853727
 31
0.0
  0
LINE
  5
3e2
100
AcDbEntity
  8
Layer_1
 62
7
100
AcDbLine
 10
725.137869
 20
54.587648
 30
0.0
 11
725.137869
 21
35.595955
 31
0.0
  0
LINE
  5
3e3
100
AcDbEntity
  8
Layer_1
 62
7
100
AcDbLine
 10
725.137869
 20
23.517352
 30
0.0
 11
725.137869
 21
1.050290
 31
0.0
  0
LINE
  5
3e4
100
AcDbEntity
  8
Layer_1
 62
7
100
AcDbLine
 10
728.137869
 20
39.347648
 30
0.0
 11
728.137869
 21
20.355955
 31
0.0
  0
LINE
  5
3e5
100
AcDbEntity
  8
Layer_1
 62
7
100
AcDbLine
 10
728.137869
 20
9.432092
 30
0.0
 11
728.137869
 21
1.157168
 31
0.0
  0
LINE
  5
3e6
100
AcDbEntity
  8
Layer_1
 62
7
100
AcDbLine
 10
728.137869
 20
57.461206
 30
0.0
 11
728.137869
 21
50.271511
 31
0.0
  0
LINE
  5
3e7
100
AcDbEntity
  8
Layer_1
 62
7
100
AcDbLine
 10
731.137857
 20
56.845431
 30
0.0
 11
731.137857
 21
37.853727
 31
0.0
  0
LINE
  5
3e8
100
AcDbEntity
  8
Layer_1
 62
7
100
AcDbLine
 10
731.137857
 20
54.587648
 30
0.0
 11
731.137857
 21
35.595955
 31
0.0
  0
LINE
  5
3e9
100
AcDbEntity
  8
Layer_1
 62
7
100
AcDbLine
 10
731.137857
 20
23.517352
 30
0.0
 11
731.137857
 21
1.050290
 31
0.0
  0
LINE
  5
3ea
100
AcDbEntity
  8
Layer_1
 62
7
100
AcDbLine
 10
734.137857
 20
39.347648
 30
0.0
 11
734.137857
 21
20.355955
 31
0.0
  0
LINE
  5
3eb
100
AcDbEntity
  8
Layer_1
 62
7
100
AcDbLine
 10
734.137857
 20
9.432092
 30
0.0
 11
734.137857
 21
1.157168
 31
0.0
  0
LINE
  5
3ec
100
AcDbEntity
  8
Layer_1
 62
7
100
AcDbLine
 10
734.137857
 20
57.461206
 30
0.0
 11
734.137857
 21
50.271511
 31
0.0
  0
LINE
  5
3ed
100
AcDbEntity
  8
Layer_1
 62
7
100
AcDbLine
 10
737.137845
 20
56.845431
 30
0.0
 11
737.137845
 21
37.853727
 31
0.0
  0
LINE
  5
3ee
100
AcDbEntity
  8
Layer_1
 62
7
100
AcDbLine
 10
737.137845
 20
54.587648
 30
0.0
 11
737.137845
 21
35.595955
 31
0.0
  0
LINE
  5
3ef
100
AcDbEntity
  8
Layer_1
 62
7
100
AcDbLine
 10
737.137845
 20
23.517352
 30
0.0
 11
737.137845
 21
1.050290
 31
0.0
  0
LINE
  5
3f0
100
AcDbEntity
  8
Layer_1
 62
7
100
AcDbLine
 10
740.137845
 20
39.347648
 30
0.0
 11
740.137845
 21
20.355955
 31
0.0
  0
LINE
  5
3f1
100
AcDbEntity
  8
Layer_1
 62
7
100
AcDbLine
 10
740.137845
 20
9.432092
 30
0.0
 11
740.137845
 21
1.157168
 31
0.0
  0
LINE
  5
3f2
100
AcDbEntity
  8
Layer_1
 62
7
100
AcDbLine
 10
740.137845
 20
57.461206
 30
0.0
 11
740.137845
 21
50.271511
 31
0.0
  0
LINE
  5
3f3
100
AcDbEntity
  8
Layer_1
 62
7
100
AcDbLine
 10
743.137833
 20
56.845431
 30
0.0
 11
743.137833
 21
37.853727
 31
0.0
  0
LINE
  5
3f4
100
AcDbEntity
  8
Layer_1
 62
7
100
AcDbLine
 10
743.137833
 20
54.587648
 30
0.0
 11
743.137833
 21
35.595955
 31
0.0
  0
LINE
  5
3f5
100
AcDbEntity
  8
Layer_1
 62
7
100
AcDbLine
 10
743.137833
 20
23.517352
 30
0.0
 11
743.137833
 21
1.050290
 31
0.0
  0
LINE
  5
3f6
100
AcDbEntity
  8
Layer_1
 62
7
100
AcDbLine
 10
746.137833
 20
39.347648
 30
0.0
 11
746.137833
 21
20.355955
 31
0.0
  0
LINE
  5
3f7
100
AcDbEntity
  8
Layer_1
 62
7
100
AcDbLine
 10
746.137833
 20
9.432092
 30
0.0
 11
746.137833
 21
1.157168
 31
0.0
  0
LINE
  5
3f8
100
AcDbEntity
  8
Layer_1
 62
7
100
AcDbLine
 10
746.137833
 20
57.461206
 30
0.0
 11
746.137833
 21
50.271511
 31
0.0
  0
LINE
  5
3f9
100
AcDbEntity
  8
Layer_1
 62
7
100
AcDbLine
 10
749.137821
 20
56.845431
 30
0.0
 11
749.137821
 21
37.853727
 31
0.0
  0
LINE
  5
3fa
100
AcDbEntity
  8
Layer_1
 62
7
100
AcDbLine
 10
749.137821
 20
54.587648
 30
0.0
 11
749.137821
 21
35.595955
 31
0.0
  0
LINE
  5
3fb
100
AcDbEntity
  8
Layer_1
 62
7
100
AcDbLine
 10
749.137821
 20
23.517352
 30
0.0
 11
749.137821
 21
1.050290
 31
0.0
  0
LINE
  5
3fc
100
AcDbEntity
  8
Layer_1
 62
7
100
AcDbLine
 10
752.137821
 20
39.347648
 30
0.0
 11
752.137821
 21
20.355955
 31
0.0
  0
LINE
  5
3fd
100
AcDbEntity
  8
Layer_1
 62
7
100
AcDbLine
 10
752.137821
 20
9.432092
 30
0.0
 11
752.137821
 21
1.157168
 31
0.0
  0
LINE
  5
3fe
100
AcDbEntity
  8
Layer_1
 62
7
100
AcDbLine
 10
752.137821
 20
57.461206
 30
0.0
 11
752.137821
 21
50.271511
 31
0.0
  0
LINE
  5
3ff
100
AcDbEntity
  8
Layer_1
 62
7
100
AcDbLine
 10
755.137809
 20
56.845431
 30
0.0
 11
755.137809
 21
37.853727
 31
0.0
  0
LINE
  5
400
100
AcDbEntity
  8
Layer_1
 62
7
100
AcDbLine
 10
755.137809
 20
54.587648
 30
0.0
 11
755.137809
 21
35.595955
 31
0.0
  0
LINE
  5
401
100
AcDbEntity
  8
Layer_1
 62
7
100
AcDbLine
 10
755.137809
 20
23.517352
 30
0.0
 11
755.137809
 21
1.050290
 31
0.0
  0
LINE
  5
402
100
AcDbEntity
  8
Layer_1
 62
7
100
AcDbLine
 10
758.137809
 20
39.347648
 30
0.0
 11
758.137809
 21
20.355955
 31
0.0
  0
LINE
  5
403
100
AcDbEntity
  8
Layer_1
 62
7
100
AcDbLine
 10
758.137809
 20
9.432092
 30
0.0
 11
758.137809
 21
1.157168
 31
0.0
  0
LINE
  5
404
100
AcDbEntity
  8
Layer_1
 62
7
100
AcDbLine
 10
758.137809
 20
57.461206
 30
0.0
 11
758.137809
 21
50.271511
 31
0.0
  0
LINE
  5
405
100
AcDbEntity
  8
Layer_1
 62
7
100
AcDbLine
 10
761.137797
 20
56.845431
 30
0.0
 11
761.137797
 21
37.853727
 31
0.0
  0
LINE
  5
406
100
AcDbEntity
  8
Layer_1
 62
7
100
AcDbLine
 10
761.137797
 20
54.587648
 30
0.0
 11
761.137797
 21
35.595955
 31
0.0
  0
LINE
  5
407
100
AcDbEntity
  8
Layer_1
 62
7
100
AcDbLine
 10
761.137797
 20
23.517352
 30
0.0
 11
761.137797
 21
1.050290
 31
0.0
  0
LINE
  5
408
100
AcDbEntity
  8
Layer_1
 62
7
100
AcDbLine
 10
764.137797
 20
39.347648
 30
0.0
 11
764.137797
 21
20.355955
 31
0.0
  0
LINE
  5
409
100
AcDbEntity
  8
Layer_1
 62
7
100
AcDbLine
 10
764.137797
 20
9.432092
 30
0.0
 11
764.137797
 21
1.157168
 31
0.0
  0
LINE
  5
40a
100
AcDbEntity
  8
Layer_1
 62
7
100
AcDbLine
 10
764.137797
 20
57.461206
 30
0.0
 11
764.137797
 21
50.271511
 31
0.0
  0
LINE
  5
40b
100
AcDbEntity
  8
Layer_1
 62
7
100
AcDbLine
 10
767.137785
 20
56.845431
 30
0.0
 11
767.137785
 21
37.853727
 31
0.0
  0
LINE
  5
40c
100
AcDbEntity
  8
Layer_1
 62
7
100
AcDbLine
 10
767.137785
 20
54.587648
 30
0.0
 11
767.137785
 21
35.595955
 31
0.0
  0
LINE
  5
40d
100
AcDbEntity
  8
Layer_1
 62
7
100
AcDbLine
 10
767.137785
 20
23.517352
 30
0.0
 11
767.137785
 21
1.050290
 31
0.0
  0
LINE
  5
40e
100
AcDbEntity
  8
Layer_1
 62
7
100
AcDbLine
 10
770.137785
 20
39.347648
 30
0.0
 11
770.137785
 21
20.355955
 31
0.0
  0
LINE
  5
40f
100
AcDbEntity
  8
Layer_1
 62
7
100
AcDbLine
 10
770.137785
 20
9.432092
 30
0.0
 11
770.137785
 21
1.157168
 31
0.0
  0
LINE
  5
410
100
AcDbEntity
  8
Layer_1
 62
7
100
AcDbLine
 10
770.137785
 20
57.461206
 30
0.0
 11
770.137785
 21
50.271511
 31
0.0
  0
LINE
  5
411
100
AcDbEntity
  8
Layer_1
 62
7
100
AcDbLine
 10
773.137773
 20
56.845431
 30
0.0
 11
773.137773
 21
37.853727
 31
0.0
  0
LINE
  5
412
100
AcDbEntity
  8
Layer_1
 62
7
100
AcDbLine
 10
773.137773
 20
54.587648
 30
0.0
 11
773.137773
 21
35.595955
 31
0.0
  0
LINE
  5
413
100
AcDbEntity
  8
Layer_1
 62
7
100
AcDbLine
 10
773.137773
 20
23.517352
 30
0.0
 11
773.137773
 21
1.050290
 31
0.0
  0
LINE
  5
414
100
AcDbEntity
  8
Layer_1
 62
7
100
AcDbLine
 10
776.137773
 20
39.347648
 30
0.0
 11
776.137773
 21
20.355955
 31
0.0
  0
LINE
  5
415
100
AcDbEntity
  8
Layer_1
 62
7
100
AcDbLine
 10
776.137773
 20
9.432092
 30
0.0
 11
776.137773
 21
1.157168
 31
0.0
  0
LINE
  5
416
100
AcDbEntity
  8
Layer_1
 62
7
100
AcDbLine
 10
776.137773
 20
57.461206
 30
0.0
 11
776.137773
 21
50.271511
 31
0.0
  0
LINE
  5
417
100
AcDbEntity
  8
Layer_1
 62
7
100
AcDbLine
 10
779.137761
 20
56.845431
 30
0.0
 11
779.137761
 21
37.853727
 31
0.0
  0
LINE
  5
418
100
AcDbEntity
  8
Layer_1
 62
7
100
AcDbLine
 10
779.137761
 20
54.587648
 30
0.0
 11
779.137761
 21
35.595955
 31
0.0
  0
LINE
  5
419
100
AcDbEntity
  8
Layer_1
 62
7
100
AcDbLine
 10
779.137761
 20
23.517352
 30
0.0
 11
779.137761
 21
1.050290
 31
0.0
  0
LINE
  5
41a
100
AcDbEntity
  8
Layer_1
 62
7
100
AcDbLine
 10
782.137761
 20
39.347648
 30
0.0
 11
782.137761
 21
20.355955
 31
0.0
  0
LINE
  5
41b
100
AcDbEntity
  8
Layer_1
 62
7
100
AcDbLine
 10
782.137761
 20
9.432092
 30
0.0
 11
782.137761
 21
1.157168
 31
0.0
  0
LINE
  5
41c
100
AcDbEntity
  8
Layer_1
 62
7
100
AcDbLine
 10
782.137761
 20
57.461206
 30
0.0
 11
782.137761
 21
50.271511
 31
0.0
  0
LINE
  5
41d
100
AcDbEntity
  8
Layer_1
 62
7
100
AcDbLine
 10
785.137749
 20
56.845431
 30
0.0
 11
785.137749
 21
37.853727
 31
0.0
  0
LINE
  5
41e
100
AcDbEntity
  8
Layer_1
 62
7
100
AcDbLine
 10
785.137749
 20
54.587648
 30
0.0
 11
785.137749
 21
35.595955
 31
0.0
  0
LINE
  5
41f
100
AcDbEntity
  8
Layer_1
 62
7
100
AcDbLine
 10
785.137749
 20
23.517352
 30
0.0
 11
785.137749
 21
1.050290
 31
0.0
  0
LINE
  5
420
100
AcDbEntity
  8
Layer_1
 62
7
100
AcDbLine
 10
788.137749
 20
39.347648
 30
0.0
 11
788.137749
 21
20.355955
 31
0.0
  0
LINE
  5
421
100
AcDbEntity
  8
Layer_1
 62
7
100
AcDbLine
 10
788.137749
 20
9.432092
 30
0.0
 11
788.137749
 21
1.157168
 31
0.0
  0
LINE
  5
422
100
AcDbEntity
  8
Layer_1
 62
7
100
AcDbLine
 10
788.137749
 20
57.461206
 30
0.0
 11
788.137749
 21
50.271511
 31
0.0
  0
LINE
  5
423
100
AcDbEntity
  8
Layer_1
 62
7
100
AcDbLine
 10
791.137737
 20
56.845431
 30
0.0
 11
791.137737
 21
37.853727
 31
0.0
  0
LINE
  5
424
100
AcDbEntity
  8
Layer_1
 62
7
100
AcDbLine
 10
791.137737
 20
54.587648
 30
0.0
 11
791.137737
 21
35.595955
 31
0.0
  0
LINE
  5
425
100
AcDbEntity
  8
Layer_1
 62
7
100
AcDbLine
 10
791.137737
 20
23.517352
 30
0.0
 11
791.137737
 21
1.050290
 31
0.0
  0
LINE
  5
426
100
AcDbEntity
  8
Layer_1
 62
7
100
AcDbLine
 10
794.137737
 20
39.347648
 30
0.0
 11
794.137737
 21
20.355955
 31
0.0
  0
LINE
  5
427
100
AcDbEntity
  8
Layer_1
 62
7
100
AcDbLine
 10
794.137737
 20
9.432092
 30
0.0
 11
794.137737
 21
1.157168
 31
0.0
  0
LINE
  5
428
100
AcDbEntity
  8
Layer_1
 62
7
100
AcDbLine
 10
794.137737
 20
57.461206
 30
0.0
 11
794.137737
 21
50.271511
 31
0.0
  0
LINE
  5
429
100
AcDbEntity
  8
Layer_1
 62
7
100
AcDbLine
 10
797.137725
 20
56.845431
 30
0.0
 11
797.137725
 21
37.853727
 31
0.0
  0
LINE
  5
42a
100
AcDbEntity
  8
Layer_1
 62
7
100
AcDbLine
 10
797.137725
 20
54.587648
 30
0.0
 11
797.137725
 21
35.595955
 31
0.0
  0
LINE
  5
42b
100
AcDbEntity
  8
Layer_1
 62
7
100
AcDbLine
 10
797.137725
 20
23.517352
 30
0.0
 11
797.137725
 21
1.050290
 31
0.0
  0
LINE
  5
42c
100
AcDbEntity
  8
Layer_1
 62
7
100
AcDbLine
 10
800.137725
 20
39.347648
 30
0.0
 11
800.137725
 21
20.355955
 31
0.0
  0
LINE
  5
42d
100
AcDbEntity
  8
Layer_1
 62
7
100
AcDbLine
 10
800.137725
 20
9.432092
 30
0.0
 11
800.137725
 21
1.157168
 31
0.0
  0
LINE
  5
42e
100
AcDbEntity
  8
Layer_1
 62
7
100
AcDbLine
 10
800.137725
 20
57.461206
 30
0.0
 11
800.137725
 21
50.271511
 31
0.0
  0
LINE
  5
42f
100
AcDbEntity
  8
Layer_1
 62
7
100
AcDbLine
 10
803.137713
 20
56.845431
 30
0.0
 11
803.137713
 21
37.853727
 31
0.0
  0
LINE
  5
430
100
AcDbEntity
  8
Layer_1
 62
7
100
AcDbLine
 10
803.137713
 20
54.587648
 30
0.0
 11
803.137713
 21
35.595955
 31
0.0
  0
LINE
  5
431
100
AcDbEntity
  8
Layer_1
 62
7
100
AcDbLine
 10
803.137713
 20
23.517352
 30
0.0
 11
803.137713
 21
1.050290
 31
0.0
  0
LINE
  5
432
100
AcDbEntity
  8
Layer_1
 62
7
100
AcDbLine
 10
806.137713
 20
39.347648
 30
0.0
 11
806.137713
 21
20.355955
 31
0.0
  0
LINE
  5
433
100
AcDbEntity
  8
Layer_1
 62
7
100
AcDbLine
 10
806.137713
 20
9.432092
 30
0.0
 11
806.137713
 21
1.157168
 31
0.0
  0
LINE
  5
434
100
AcDbEntity
  8
Layer_1
 62
7
100
AcDbLine
 10
806.137713
 20
57.461206
 30
0.0
 11
806.137713
 21
50.271511
 31
0.0
  0
LINE
  5
435
100
AcDbEntity
  8
Layer_1
 62
7
100
AcDbLine
 10
809.137701
 20
56.845431
 30
0.0
 11
809.137701
 21
37.853727
 31
0.0
  0
LINE
  5
436
100
AcDbEntity
  8
Layer_1
 62
7
100
AcDbLine
 10
809.137701
 20
54.587648
 30
0.0
 11
809.137701
 21
35.595955
 31
0.0
  0
LINE
  5
437
100
AcDbEntity
  8
Layer_1
 62
7
100
AcDbLine
 10
809.137701
 20
23.517352
 30
0.0
 11
809.137701
 21
1.050290
 31
0.0
  0
LINE
  5
438
100
AcDbEntity
  8
Layer_1
 62
7
100
AcDbLine
 10
812.137701
 20
39.347648
 30
0.0
 11
812.137701
 21
20.355955
 31
0.0
  0
LINE
  5
439
100
AcDbEntity
  8
Layer_1
 62
7
100
AcDbLine
 10
812.137701
 20
9.432092
 30
0.0
 11
812.137701
 21
1.157168
 31
0.0
  0
LINE
  5
43a
100
AcDbEntity
  8
Layer_1
 62
7
100
AcDbLine
 10
812.137701
 20
57.461206
 30
0.0
 11
812.137701
 21
50.271511
 31
0.0
  0
LINE
  5
43b
100
AcDbEntity
  8
Layer_1
 62
7
100
AcDbLine
 10
815.137689
 20
56.845431
 30
0.0
 11
815.137689
 21
37.853727
 31
0.0
  0
LINE
  5
43c
100
AcDbEntity
  8
Layer_1
 62
7
100
AcDbLine
 10
815.137689
 20
54.587648
 30
0.0
 11
815.137689
 21
35.595955
 31
0.0
  0
LINE
  5
43d
100
AcDbEntity
  8
Layer_1
 62
7
100
AcDbLine
 10
815.137689
 20
23.517352
 30
0.0
 11
815.137689
 21
1.050290
 31
0.0
  0
LINE
  5
43e
100
AcDbEntity
  8
Layer_1
 62
7
100
AcDbLine
 10
818.137689
 20
39.347648
 30
0.0
 11
818.137689
 21
20.355955
 31
0.0
  0
LINE
  5
43f
100
AcDbEntity
  8
Layer_1
 62
7
100
AcDbLine
 10
818.137689
 20
9.432092
 30
0.0
 11
818.137689
 21
1.157168
 31
0.0
  0
LINE
  5
440
100
AcDbEntity
  8
Layer_1
 62
7
100
AcDbLine
 10
818.137689
 20
57.461206
 30
0.0
 11
818.137689
 21
50.271511
 31
0.0
  0
LINE
  5
441
100
AcDbEntity
  8
Layer_1
 62
7
100
AcDbLine
 10
821.137677
 20
56.845431
 30
0.0
 11
821.137677
 21
37.853727
 31
0.0
  0
LINE
  5
442
100
AcDbEntity
  8
Layer_1
 62
7
100
AcDbLine
 10
821.137677
 20
54.587648
 30
0.0
 11
821.137677
 21
35.595955
 31
0.0
  0
LINE
  5
443
100
AcDbEntity
  8
Layer_1
 62
7
100
AcDbLine
 10
821.137677
 20
23.517352
 30
0.0
 11
821.137677
 21
1.050290
 31
0.0
  0
LINE
  5
444
100
AcDbEntity
  8
Layer_1
 62
7
100
AcDbLine
 10
824.137677
 20
39.347648
 30
0.0
 11
824.137677
 21
20.355955
 31
0.0
  0
LINE
  5
445
100
AcDbEntity
  8
Layer_1
 62
7
100
AcDbLine
 10
824.137677
 20
9.432092
 30
0.0
 11
824.137677
 21
1.157168
 31
0.0
  0
LINE
  5
446
100
AcDbEntity
  8
Layer_1
 62
7
100
AcDbLine
 10
824.137677
 20
57.461206
 30
0.0
 11
824.137677
 21
50.271511
 31
0.0
  0
LINE
  5
447
100
AcDbEntity
  8
Layer_1
 62
7
100
AcDbLine
 10
827.137665
 20
56.845431
 30
0.0
 11
827.137665
 21
37.853727
 31
0.0
  0
LINE
  5
448
100
AcDbEntity
  8
Layer_1
 62
7
100
AcDbLine
 10
827.137665
 20
54.587648
 30
0.0
 11
827.137665
 21
35.595955
 31
0.0
  0
LINE
  5
449
100
AcDbEntity
  8
Layer_1
 62
7
100
AcDbLine
 10
827.137665
 20
23.517352
 30
0.0
 11
827.137665
 21
1.050290
 31
0.0
  0
LINE
  5
44a
100
AcDbEntity
  8
Layer_1
 62
7
100
AcDbLine
 10
830.137665
 20
39.347648
 30
0.0
 11
830.137665
 21
20.355955
 31
0.0
  0
LINE
  5
44b
100
AcDbEntity
  8
Layer_1
 62
7
100
AcDbLine
 10
830.137665
 20
9.432092
 30
0.0
 11
830.137665
 21
1.157168
 31
0.0
  0
LINE
  5
44c
100
AcDbEntity
  8
Layer_1
 62
7
100
AcDbLine
 10
830.137665
 20
57.461206
 30
0.0
 11
830.137665
 21
50.271511
 31
0.0
  0
LINE
  5
44d
100
AcDbEntity
  8
Layer_1
 62
7
100
AcDbLine
 10
833.137653
 20
56.845431
 30
0.0
 11
833.137653
 21
37.853727
 31
0.0
  0
LINE
  5
44e
100
AcDbEntity
  8
Layer_1
 62
7
100
AcDbLine
 10
833.137653
 20
54.587648
 30
0.0
 11
833.137653
 21
35.595955
 31
0.0
  0
LINE
  5
44f
100
AcDbEntity
  8
Layer_1
 62
7
100
AcDbLine
 10
833.137653
 20
23.517352
 30
0.0
 11
833.137653
 21
1.050290
 31
0.0
  0
LINE
  5
450
100
AcDbEntity
  8
Layer_1
 62
7
100
AcDbLine
 10
836.137653
 20
39.347648
 30
0.0
 11
836.137653
 21
20.355955
 31
0.0
  0
LINE
  5
451
100
AcDbEntity
  8
Layer_1
 62
7
100
AcDbLine
 10
836.137653
 20
9.432092
 30
0.0
 11
836.137653
 21
1.157168
 31
0.0
  0
LINE
  5
452
100
AcDbEntity
  8
Layer_1
 62
7
100
AcDbLine
 10
836.137653
 20
57.461206
 30
0.0
 11
836.137653
 21
50.271511
 31
0.0
  0
LINE
  5
453
100
AcDbEntity
  8
Layer_1
 62
7
100
AcDbLine
 10
839.137641
 20
56.845431
 30
0.0
 11
839.137641
 21
37.853727
 31
0.0
  0
LINE
  5
454
100
AcDbEntity
  8
Layer_1
 62
7
100
AcDbLine
 10
839.137641
 20
54.587648
 30
0.0
 11
839.137641
 21
35.595955
 31
0.0
  0
LINE
  5
455
100
AcDbEntity
  8
Layer_1
 62
7
100
AcDbLine
 10
839.137641
 20
23.517352
 30
0.0
 11
839.137641
 21
1.050290
 31
0.0
  0
LINE
  5
456
100
AcDbEntity
  8
Layer_1
 62
7
100
AcDbLine
 10
842.137641
 20
39.347648
 30
0.0
 11
842.137641
 21
20.355955
 31
0.0
  0
LINE
  5
457
100
AcDbEntity
  8
Layer_1
 62
7
100
AcDbLine
 10
842.137641
 20
9.432092
 30
0.0
 11
842.137641
 21
1.157168
 31
0.0
  0
LINE
  5
458
100
AcDbEntity
  8
Layer_1
 62
7
100
AcDbLine
 10
842.137641
 20
57.461206
 30
0.0
 11
842.137641
 21
50.271511
 31
0.0
  0
LINE
  5
459
100
AcDbEntity
  8
Layer_1
 62
7
100
AcDbLine
 10
845.137629
 20
56.845431
 30
0.0
 11
845.137629
 21
37.853727
 31
0.0
  0
LINE
  5
45a
100
AcDbEntity
  8
Layer_1
 62
7
100
AcDbLine
 10
845.137629
 20
54.587648
 30
0.0
 11
845.137629
 21
35.595955
 31
0.0
  0
LINE
  5
45b
100
AcDbEntity
  8
Layer_1
 62
7
100
AcDbLine
 10
845.137629
 20
23.517352
 30
0.0
 11
845.137629
 21
1.050290
 31
0.0
  0
LINE
  5
45c
100
AcDbEntity
  8
Layer_1
 62
7
100
AcDbLine
 10
848.137629
 20
39.347648
 30
0.0
 11
848.137629
 21
20.355955
 31
0.0
  0
LINE
  5
45d
100
AcDbEntity
  8
Layer_1
 62
7
100
AcDbLine
 10
848.137629
 20
9.432092
 30
0.0
 11
848.137629
 21
1.157168
 31
0.0
  0
LINE
  5
45e
100
AcDbEntity
  8
Layer_1
 62
7
100
AcDbLine
 10
848.137629
 20
57.461206
 30
0.0
 11
848.137629
 21
50.271511
 31
0.0
  0
LINE
  5
45f
100
AcDbEntity
  8
Layer_1
 62
7
100
AcDbLine
 10
851.137617
 20
56.845431
 30
0.0
 11
851.137617
 21
37.853727
 31
0.0
  0
LINE
  5
460
100
AcDbEntity
  8
Layer_1
 62
7
100
AcDbLine
 10
851.137617
 20
54.587648
 30
0.0
 11
851.137617
 21
35.595955
 31
0.0
  0
LINE
  5
461
100
AcDbEntity
  8
Layer_1
 62
7
100
AcDbLine
 10
851.137617
 20
23.517352
 30
0.0
 11
851.137617
 21
1.050290
 31
0.0
  0
LINE
  5
462
100
AcDbEntity
  8
Layer_1
 62
7
100
AcDbLine
 10
854.137617
 20
39.347648
 30
0.0
 11
854.137617
 21
20.355955
 31
0.0
  0
LINE
  5
463
100
AcDbEntity
  8
Layer_1
 62
7
100
AcDbLine
 10
854.137617
 20
9.432092
 30
0.0
 11
854.137617
 21
1.157168
 31
0.0
  0
LINE
  5
464
100
AcDbEntity
  8
Layer_1
 62
7
100
AcDbLine
 10
854.137617
 20
57.461206
 30
0.0
 11
854.137617
 21
50.271511
 31
0.0
  0
LINE
  5
465
100
AcDbEntity
  8
Layer_1
 62
7
100
AcDbLine
 10
857.137605
 20
56.845431
 30
0.0
 11
857.137605
 21
37.853727
 31
0.0
  0
LINE
  5
466
100
AcDbEntity
  8
Layer_1
 62
7
100
AcDbLine
 10
857.137605
 20
54.587648
 30
0.0
 11
857.137605
 21
35.595955
 31
0.0
  0
LINE
  5
467
100
AcDbEntity
  8
Layer_1
 62
7
100
AcDbLine
 10
857.137605
 20
23.517352
 30
0.0
 11
857.137605
 21
1.050290
 31
0.0
  0
LINE
  5
468
100
AcDbEntity
  8
Layer_1
 62
7
100
AcDbLine
 10
860.137605
 20
39.347648
 30
0.0
 11
860.137605
 21
20.355955
 31
0.0
  0
LINE
  5
469
100
AcDbEntity
  8
Layer_1
 62
7
100
AcDbLine
 10
860.137605
 20
9.432092
 30
0.0
 11
860.137605
 21
1.157168
 31
0.0
  0
LINE
  5
46a
100
AcDbEntity
  8
Layer_1
 62
7
100
AcDbLine
 10
860.137605
 20
57.461206
 30
0.0
 11
860.137605
 21
50.271511
 31
0.0
  0
LINE
  5
46b
100
AcDbEntity
  8
Layer_1
 62
7
100
AcDbLine
 10
869.137581
 20
56.845431
 30
0.0
 11
869.137581
 21
37.853727
 31
0.0
  0
LINE
  5
46c
100
AcDbEntity
  8
Layer_1
 62
7
100
AcDbLine
 10
869.137581
 20
54.587648
 30
0.0
 11
869.137581
 21
35.595955
 31
0.0
  0
LINE
  5
46d
100
AcDbEntity
  8
Layer_1
 62
7
100
AcDbLine
 10
869.137581
 20
23.517352
 30
0.0
 11
869.137581
 21
1.050290
 31
0.0
  0
LINE
  5
46e
100
AcDbEntity
  8
Layer_1
 62
7
100
AcDbLine
 10
872.137581
 20
39.347648
 30
0.0
 11
872.137581
 21
20.355955
 31
0.0
  0
LINE
  5
46f
100
AcDbEntity
  8
Layer_1
 62
7
100
AcDbLine
 10
872.137581
 20
9.432092
 30
0.0
 11
872.137581
 21
1.157168
 31
0.0
  0
LINE
  5
470
100
AcDbEntity
  8
Layer_1
 62
7
100
AcDbLine
 10
872.137581
 20
57.461206
 30
0.0
 11
872.137581
 21
50.271511
 31
0.0
  0
LINE
  5
471
100
AcDbEntity
  8
Layer_1
 62
7
100
AcDbLine
 10
875.137569
 20
56.845431
 30
0.0
 11
875.137569
 21
37.853727
 31
0.0
  0
LINE
  5
472
100
AcDbEntity
  8
Layer_1
 62
7
100
AcDbLine
 10
875.137569
 20
54.587648
 30
0.0
 11
875.137569
 21
35.595955
 31
0.0
  0
LINE
  5
473
100
AcDbEntity
  8
Layer_1
 62
7
100
AcDbLine
 10
875.137569
 20
23.517352
 30
0.0
 11
875.137569
 21
1.050290
 31
0.0
  0
LINE
  5
474
100
AcDbEntity
  8
Layer_1
 62
7
100
AcDbLine
 10
878.137569
 20
39.347648
 30
0.0
 11
878.137569
 21
20.355955
 31
0.0
  0
LINE
  5
475
100
AcDbEntity
  8
Layer_1
 62
7
100
AcDbLine
 10
878.137569
 20
9.432092
 30
0.0
 11
878.137569
 21
1.157168
 31
0.0
  0
LINE
  5
476
100
AcDbEntity
  8
Layer_1
 62
7
100
AcDbLine
 10
878.137569
 20
57.461206
 30
0.0
 11
878.137569
 21
50.271511
 31
0.0
  0
LINE
  5
477
100
AcDbEntity
  8
Layer_1
 62
7
100
AcDbLine
 10
875.137569
 20
56.845431
 30
0.0
 11
875.137569
 21
37.853727
 31
0.0
  0
LINE
  5
478
100
AcDbEntity
  8
Layer_1
 62
7
100
AcDbLine
 10
875.137569
 20
54.587648
 30
0.0
 11
875.137569
 21
35.595955
 31
0.0
  0
LINE
  5
479
100
AcDbEntity
  8
Layer_1
 62
7
100
AcDbLine
 10
875.137569
 20
23.517352
 30
0.0
 11
875.137569
 21
1.050290
 31
0.0
  0
LINE
  5
47a
100
AcDbEntity
  8
Layer_1
 62
7
100
AcDbLine
 10
878.137569
 20
39.347648
 30
0.0
 11
878.137569
 21
20.355955
 31
0.0
  0
LINE
  5
47b
100
AcDbEntity
  8
Layer_1
 62
7
100
AcDbLine
 10
878.137569
 20
9.432092
 30
0.0
 11
878.137569
 21
1.157168
 31
0.0
  0
LINE
  5
47c
100
AcDbEntity
  8
Layer_1
 62
7
100
AcDbLine
 10
878.137569
 20
57.461206
 30
0.0
 11
878.137569
 21
50.271511
 31
0.0
  0
LINE
  5
47d
100
AcDbEntity
  8
Layer_1
 62
7
100
AcDbLine
 10
881.137557
 20
56.845431
 30
0.0
 11
881.137557
 21
37.853727
 31
0.0
  0
LINE
  5
47e
100
AcDbEntity
  8
Layer_1
 62
7
100
AcDbLine
 10
881.137557
 20
54.587648
 30
0.0
 11
881.137557
 21
35.595955
 31
0.0
  0
LINE
  5
47f
100
AcDbEntity
  8
Layer_1
 62
7
100
AcDbLine
 10
881.137557
 20
23.517352
 30
0.0
 11
881.137557
 21
1.050290
 31
0.0
  0
LINE
  5
480
100
AcDbEntity
  8
Layer_1
 62
7
100
AcDbLine
 10
884.137557
 20
39.347648
 30
0.0
 11
884.137557
 21
20.355955
 31
0.0
  0
LINE
  5
481
100
AcDbEntity
  8
Layer_1
 62
7
100
AcDbLine
 10
884.137557
 20
9.432092
 30
0.0
 11
884.137557
 21
1.157168
 31
0.0
  0
LINE
  5
482
100
AcDbEntity
  8
Layer_1
 62
7
100
AcDbLine
 10
884.137557
 20
57.461206
 30
0.0
 11
884.137557
 21
50.271511
 31
0.0
  0
LINE
  5
483
100
AcDbEntity
  8
Layer_1
 62
7
100
AcDbLine
 10
887.137545
 20
56.845431
 30
0.0
 11
887.137545
 21
37.853727
 31
0.0
  0
LINE
  5
484
100
AcDbEntity
  8
Layer_1
 62
7
100
AcDbLine
 10
887.137545
 20
54.587648
 30
0.0
 11
887.137545
 21
35.595955
 31
0.0
  0
LINE
  5
485
100
AcDbEntity
  8
Layer_1
 62
7
100
AcDbLine
 10
887.137545
 20
23.517352
 30
0.0
 11
887.137545
 21
1.050290
 31
0.0
  0
LINE
  5
486
100
AcDbEntity
  8
Layer_1
 62
7
100
AcDbLine
 10
890.137545
 20
39.347648
 30
0.0
 11
890.137545
 21
20.355955
 31
0.0
  0
LINE
  5
487
100
AcDbEntity
  8
Layer_1
 62
7
100
AcDbLine
 10
890.137545
 20
9.432092
 30
0.0
 11
890.137545
 21
1.157168
 31
0.0
  0
LINE
  5
488
100
AcDbEntity
  8
Layer_1
 62
7
100
AcDbLine
 10
890.137545
 20
57.461206
 30
0.0
 11
890.137545
 21
50.271511
 31
0.0
  0
LINE
  5
489
100
AcDbEntity
  8
Layer_1
 62
7
100
AcDbLine
 10
893.137533
 20
56.845431
 30
0.0
 11
893.137533
 21
37.853727
 31
0.0
  0
LINE
  5
48a
100
AcDbEntity
  8
Layer_1
 62
7
100
AcDbLine
 10
893.137533
 20
54.587648
 30
0.0
 11
893.137533
 21
35.595955
 31
0.0
  0
LINE
  5
48b
100
AcDbEntity
  8
Layer_1
 62
7
100
AcDbLine
 10
893.137533
 20
23.517352
 30
0.0
 11
893.137533
 21
1.050290
 31
0.0
  0
LINE
  5
48c
100
AcDbEntity
  8
Layer_1
 62
7
100
AcDbLine
 10
896.137533
 20
39.347648
 30
0.0
 11
896.137533
 21
20.355955
 31
0.0
  0
LINE
  5
48d
100
AcDbEntity
  8
Layer_1
 62
7
100
AcDbLine
 10
896.137533
 20
9.432092
 30
0.0
 11
896.137533
 21
1.157168
 31
0.0
  0
LINE
  5
48e
100
AcDbEntity
  8
Layer_1
 62
7
100
AcDbLine
 10
896.137533
 20
57.461206
 30
0.0
 11
896.137533
 21
50.271511
 31
0.0
  0
LINE
  5
48f
100
AcDbEntity
  8
Layer_1
 62
7
100
AcDbLine
 10
905.137509
 20
56.845431
 30
0.0
 11
905.137509
 21
37.853727
 31
0.0
  0
LINE
  5
490
100
AcDbEntity
  8
Layer_1
 62
7
100
AcDbLine
 10
905.137509
 20
54.587648
 30
0.0
 11
905.137509
 21
35.595955
 31
0.0
  0
LINE
  5
491
100
AcDbEntity
  8
Layer_1
 62
7
100
AcDbLine
 10
905.137509
 20
23.517352
 30
0.0
 11
905.137509
 21
1.050290
 31
0.0
  0
LINE
  5
492
100
AcDbEntity
  8
Layer_1
 62
7
100
AcDbLine
 10
908.137509
 20
39.347648
 30
0.0
 11
908.137509
 21
20.355955
 31
0.0
  0
LINE
  5
493
100
AcDbEntity
  8
Layer_1
 62
7
100
AcDbLine
 10
908.137509
 20
9.432092
 30
0.0
 11
908.137509
 21
1.157168
 31
0.0
  0
LINE
  5
494
100
AcDbEntity
  8
Layer_1
 62
7
100
AcDbLine
 10
908.137509
 20
57.461206
 30
0.0
 11
908.137509
 21
50.271511
 31
0.0
  0
LINE
  5
495
100
AcDbEntity
  8
Layer_1
 62
7
100
AcDbLine
 10
911.137497
 20
56.845431
 30
0.0
 11
911.137497
 21
37.853727
 31
0.0
  0
LINE
  5
496
100
AcDbEntity
  8
Layer_1
 62
7
100
AcDbLine
 10
911.137497
 20
54.587648
 30
0.0
 11
911.137497
 21
35.595955
 31
0.0
  0
LINE
  5
497
100
AcDbEntity
  8
Layer_1
 62
7
100
AcDbLine
 10
911.137497
 20
23.517352
 30
0.0
 11
911.137497
 21
1.050290
 31
0.0
  0
LINE
  5
498
100
AcDbEntity
  8
Layer_1
 62
7
100
AcDbLine
 10
914.137497
 20
39.347648
 30
0.0
 11
914.137497
 21
20.355955
 31
0.0
  0
LINE
  5
499
100
AcDbEntity
  8
Layer_1
 62
7
100
AcDbLine
 10
914.137497
 20
9.432092
 30
0.0
 11
914.137497
 21
1.157168
 31
0.0
  0
LINE
  5
49a
100
AcDbEntity
  8
Layer_1
 62
7
100
AcDbLine
 10
914.137497
 20
57.461206
 30
0.0
 11
914.137497
 21
50.271511
 31
0.0
  0
LINE
  5
49b
100
AcDbEntity
  8
Layer_1
 62
7
100
AcDbLine
 10
911.137497
 20
56.845431
 30
0.0
 11
911.137497
 21
37.853727
 31
0.0
  0
LINE
  5
49c
100
AcDbEntity
  8
Layer_1
 62
7
100
AcDbLine
 10
911.137497
 20
54.587648
 30
0.0
 11
911.137497
 21
35.595955
 31
0.0
  0
LINE
  5
49d
100
AcDbEntity
  8
Layer_1
 62
7
100
AcDbLine
 10
911.137497
 20
23.517352
 30
0.0
 11
911.137497
 21
1.050290
 31
0.0
  0
LINE
  5
49e
100
AcDbEntity
  8
Layer_1
 62
7
100
AcDbLine
 10
914.137497
 20
39.347648
 30
0.0
 11
914.137497
 21
20.355955
 31
0.0
  0
LINE
  5
49f
100
AcDbEntity
  8
Layer_1
 62
7
100
AcDbLine
 10
914.137497
 20
9.432092
 30
0.0
 11
914.137497
 21
1.157168
 31
0.0
  0
LINE
  5
4a0
100
AcDbEntity
  8
Layer_1
 62
7
100
AcDbLine
 10
914.137497
 20
57.461206
 30
0.0
 11
914.137497
 21
50.271511
 31
0.0
  0
LINE
  5
4a1
100
AcDbEntity
  8
Layer_1
 62
7
100
AcDbLine
 10
917.137485
 20
56.845431
 30
0.0
 11
917.137485
 21
37.853727
 31
0.0
  0
LINE
  5
4a2
100
AcDbEntity
  8
Layer_1
 62
7
100
AcDbLine
 10
917.137485
 20
54.587648
 30
0.0
 11
917.137485
 21
35.595955
 31
0.0
  0
LINE
  5
4a3
100
AcDbEntity
  8
Layer_1
 62
7
100
AcDbLine
 10
917.137485
 20
23.517352
 30
0.0
 11
917.137485
 21
1.050290
 31
0.0
  0
LINE
  5
4a4
100
AcDbEntity
  8
Layer_1
 62
7
100
AcDbLine
 10
920.137485
 20
39.347648
 30
0.0
 11
920.137485
 21
20.355955
 31
0.0
  0
LINE
  5
4a5
100
AcDbEntity
  8
Layer_1
 62
7
100
AcDbLine
 10
920.137485
 20
9.432092
 30
0.0
 11
920.137485
 21
1.157168
 31
0.0
  0
LINE
  5
4a6
100
AcDbEntity
  8
Layer_1
 62
7
100
AcDbLine
 10
920.137485
 20
57.461206
 30
0.0
 11
920.137485
 21
50.271511
 31
0.0
  0
LINE
  5
4a7
100
AcDbEntity
  8
Layer_1
 62
7
100
AcDbLine
 10
923.137473
 20
56.845431
 30
0.0
 11
923.137473
 21
37.853727
 31
0.0
  0
LINE
  5
4a8
100
AcDbEntity
  8
Layer_1
 62
7
100
AcDbLine
 10
923.137473
 20
54.587648
 30
0.0
 11
923.137473
 21
35.595955
 31
0.0
  0
LINE
  5
4a9
100
AcDbEntity
  8
Layer_1
 62
7
100
AcDbLine
 10
923.137473
 20
23.517352
 30
0.0
 11
923.137473
 21
1.050290
 31
0.0
  0
LINE
  5
4aa
100
AcDbEntity
  8
Layer_1
 62
7
100
AcDbLine
 10
926.137473
 20
39.347648
 30
0.0
 11
926.137473
 21
20.355955
 31
0.0
  0
LINE
  5
4ab
100
AcDbEntity
  8
Layer_1
 62
7
100
AcDbLine
 10
926.137473
 20
9.432092
 30
0.0
 11
926.137473
 21
1.157168
 31
0.0
  0
LINE
  5
4ac
100
AcDbEntity
  8
Layer_1
 62
7
100
AcDbLine
 10
926.137473
 20
57.461206
 30
0.0
 11
926.137473
 21
50.271511
 31
0.0
  0
LINE
  5
4ad
100
AcDbEntity
  8
Layer_1
 62
7
100
AcDbLine
 10
899.137521
 20
56.845431
 30
0.0
 11
899.137521
 21
37.853727
 31
0.0
  0
LINE
  5
4ae
100
AcDbEntity
  8
Layer_1
 62
7
100
AcDbLine
 10
899.137521
 20
54.587648
 30
0.0
 11
899.137521
 21
35.595955
 31
0.0
  0
LINE
  5
4af
100
AcDbEntity
  8
Layer_1
 62
7
100
AcDbLine
 10
899.137521
 20
23.517352
 30
0.0
 11
899.137521
 21
1.050290
 31
0.0
  0
LINE
  5
4b0
100
AcDbEntity
  8
Layer_1
 62
7
100
AcDbLine
 10
902.137521
 20
39.347648
 30
0.0
 11
902.137521
 21
20.355955
 31
0.0
  0
LINE
  5
4b1
100
AcDbEntity
  8
Layer_1
 62
7
100
AcDbLine
 10
902.137521
 20
9.432092
 30
0.0
 11
902.137521
 21
1.157168
 31
0.0
  0
LINE
  5
4b2
100
AcDbEntity
  8
Layer_1
 62
7
100
AcDbLine
 10
902.137521
 20
57.461206
 30
0.0
 11
902.137521
 21
50.271511
 31
0.0
  0
LINE
  5
4b3
100
AcDbEntity
  8
Layer_1
 62
7
100
AcDbLine
 10
863.137593
 20
56.845431
 30
0.0
 11
863.137593
 21
37.853727
 31
0.0
  0
LINE
  5
4b4
100
AcDbEntity
  8
Layer_1
 62
7
100
AcDbLine
 10
863.137593
 20
54.587648
 30
0.0
 11
863.137593
 21
35.595955
 31
0.0
  0
LINE
  5
4b5
100
AcDbEntity
  8
Layer_1
 62
7
100
AcDbLine
 10
863.137593
 20
23.517352
 30
0.0
 11
863.137593
 21
1.050290
 31
0.0
  0
LINE
  5
4b6
100
AcDbEntity
  8
Layer_1
 62
7
100
AcDbLine
 10
866.137593
 20
39.347648
 30
0.0
 11
866.137593
 21
20.355955
 31
0.0
  0
LINE
  5
4b7
100
AcDbEntity
  8
Layer_1
 62
7
100
AcDbLine
 10
866.137593
 20
9.432092
 30
0.0
 11
866.137593
 21
1.157168
 31
0.0
  0
LINE
  5
4b8
100
AcDbEntity
  8
Layer_1
 62
7
100
AcDbLine
 10
866.137593
 20
57.461206
 30
0.0
 11
866.137593
 21
50.271511
 31
0.0
  0
LINE
  5
4b9
100
AcDbEntity
  8
Layer_1
 62
7
100
AcDbLine
 10
713.137893
 20
56.845431
 30
0.0
 11
713.137893
 21
37.853727
 31
0.0
  0
LINE
  5
4ba
100
AcDbEntity
  8
Layer_1
 62
7
100
AcDbLine
 10
713.137893
 20
54.587648
 30
0.0
 11
713.137893
 21
35.595955
 31
0.0
  0
LINE
  5
4bb
100
AcDbEntity
  8
Layer_1
 62
7
100
AcDbLine
 10
713.137893
 20
23.517352
 30
0.0
 11
713.137893
 21
1.050290
 31
0.0
  0
LINE
  5
4bc
100
AcDbEntity
  8
Layer_1
 62
7
100
AcDbLine
 10
716.137893
 20
39.347648
 30
0.0
 11
716.137893
 21
20.355955
 31
0.0
  0
LINE
  5
4bd
100
AcDbEntity
  8
Layer_1
 62
7
100
AcDbLine
 10
716.137893
 20
9.432092
 30
0.0
 11
716.137893
 21
1.157168
 31
0.0
  0
LINE
  5
4be
100
AcDbEntity
  8
Layer_1
 62
7
100
AcDbLine
 10
716.137893
 20
57.461206
 30
0.0
 11
716.137893
 21
50.271511
 31
0.0
  0
SPLINE
  5
4bf
100
AcDbEntity
  8
Layer_1
 62
7
100
AcDbSpline
 70
8
 71
3
 72
8
 73
4
 74
0
 40
0
 40
0
 40
0
 40
0
 40
1
 40
1
 40
1
 40
1
 10
174.874005
 20
424.668211
 30
0.0
 10
131.396373
 20
424.668211
 30
0.0
 10
91.632476
 20
408.774019
 30
0.0
 10
61.067894
 20
382.484822
 30
0.0
  0
LINE
  5
4c0
100
AcDbEntity
  8
Layer_1
 62
7
100
AcDbLine
 10
61.067894
 20
382.484822
 30
0.0
 11
61.067894
 21
420.205572
 31
0.0
  0
LINE
  5
4c1
100
AcDbEntity
  8
Layer_1
 62
7
100
AcDbLine
 10
61.067894
 20
420.205572
 30
0.0
 11
1.377894
 21
420.205572
 31
0.0
  0
LINE
  5
4c2
100
AcDbEntity
  8
Layer_1
 62
7
100
AcDbLine
 10
1.377894
 20
420.205572
 30
0.0
 11
1.377894
 21
269.939877
 31
0.0
  0
SPLINE
  5
4c3
100
AcDbEntity
  8
Layer_1
 62
7
100
AcDbSpline
 70
8
 71
3
 72
8
 73
4
 74
0
 40
0
 40
0
 40
0
 40
0
 40
1
 40
1
 40
1
 40
1
 10
1.377894
 20
269.939877
 30
0.0
 10
0.637596
 20
263.411513
 30
0.0
 10
0.249005
 20
256.778416
 30
0.0
 10
0.249005
 20
250.052044
 30
0.0
  0
SPLINE
  5
4c4
100
AcDbEntity
  8
Layer_1
 62
7
100
AcDbSpline
 70
8
 71
3
 72
8
 73
4
 74
0
 40
0
 40
0
 40
0
 40
0
 40
1
 40
1
 40
1
 40
1
 10
0.249005
 20
250.052044
 30
0.0
 10
0.249005
 20
153.613409
 30
0.0
 10
78.435369
 20
75.435849
 30
0.0
 10
174.874005
 20
75.435849
 30
0.0
  0
SPLINE
  5
4c5
100
AcDbEntity
  8
Layer_1
 62
7
100
AcDbSpline
 70
8
 71
3
 72
8
 73
4
 74
0
 40
0
 40
0
 40
0
 40
0
 40
1
 40
1
 40
1
 40
1
 10
174.874005
 20
75.435849
 30
0.0
 10
271.312640
 20
75.435849
 30
0.0
 10
349.490171
 20
153.613409
 30
0.0
 10
349.490171
 20
250.052044
 30
0.0
  0
SPLINE
  5
4c6
100
AcDbEntity
  8
Layer_1
 62
7
100
AcDbSpline
 70
8
 71
3
 72
8
 73
4
 74
0
 40
0
 40
0
 40
0
 40
0
 40
1
 40
1
 40
1
 40
1
 10
349.490171
 20
250.052044
 30
0.0
 10
349.490171
 20
346.490679
 30
0.0
 10
271.312640
 20
424.668211
 30
0.0
 10
174.874005
 20
424.668211
 30
0.0
  0
LINE
  5
4c7
100
AcDbEntity
  8
Layer_1
 62
7
100
AcDbLine
 10
174.874005
 20
424.668211
 30
0.0
 11
174.874005
 21
424.668211
 31
0.0
  0
LINE
  5
4c8
100
AcDbEntity
  8
Layer_1
 62
7
100
AcDbLine
 10
11.319623
 20
253.002028
 30
0.0
 11
11.319623
 21
247.102028
 31
0.0
  0
LINE
  5
4c9
100
AcDbEntity
  8
Layer_1
 62
7
100
AcDbLine
 10
11.319623
 20
247.102028
 30
0.0
 11
8.419623
 21
247.102028
 31
0.0
  0
LINE
  5
4ca
100
AcDbEntity
  8
Layer_1
 62
7
100
AcDbLine
 10
8.419623
 20
247.102028
 30
0.0
 11
8.419623
 21
253.002028
 31
0.0
  0
LINE
  5
4cb
100
AcDbEntity
  8
Layer_1
 62
7
100
AcDbLine
 10
8.419623
 20
253.002028
 30
0.0
 11
11.319623
 21
253.002028
 31
0.0
  0
LINE
  5
4cc
100
AcDbEntity
  8
Layer_1
 62
7
100
AcDbLine
 10
341.319527
 20
253.002028
 30
0.0
 11
341.319527
 21
247.102028
 31
0.0
  0
LINE
  5
4cd
100
AcDbEntity
  8
Layer_1
 62
7
100
AcDbLine
 10
341.319527
 20
247.102028
 30
0.0
 11
338.419527
 21
247.102028
 31
0.0
  0
LINE
  5
4ce
100
AcDbEntity
  8
Layer_1
 62
7
100
AcDbLine
 10
338.419527
 20
247.102028
 30
0.0
 11
338.419527
 21
253.002028
 31
0.0
  0
LINE
  5
4cf
100
AcDbEntity
  8
Layer_1
 62
7
100
AcDbLine
 10
338.419527
 20
253.002028
 30
0.0
 11
341.319527
 21
253.002028
 31
0.0
  0
LINE
  5
4d0
100
AcDbEntity
  8
Layer_1
 62
7
100
AcDbLine
 10
57.136301
 20
136.490643
 30
0.0
 11
61.308231
 21
132.318713
 31
0.0
  0
LINE
  5
4d1
100
AcDbEntity
  8
Layer_1
 62
7
100
AcDbLine
 10
61.308231
 20
132.318713
 30
0.0
 11
59.257621
 21
130.268103
 31
0.0
  0
LINE
  5
4d2
100
AcDbEntity
  8
Layer_1
 62
7
100
AcDbLine
 10
59.257621
 20
130.268103
 30
0.0
 11
55.085691
 21
134.440033
 31
0.0
  0
LINE
  5
4d3
100
AcDbEntity
  8
Layer_1
 62
7
100
AcDbLine
 10
55.085691
 20
134.440033
 30
0.0
 11
57.136301
 21
136.490643
 31
0.0
  0
LINE
  5
4d4
100
AcDbEntity
  8
Layer_1
 62
7
100
AcDbLine
 10
290.481471
 20
369.835813
 30
0.0
 11
294.653401
 21
365.663883
 31
0.0
  0
LINE
  5
4d5
100
AcDbEntity
  8
Layer_1
 62
7
100
AcDbLine
 10
294.653401
 20
365.663883
 30
0.0
 11
292.602791
 21
363.613273
 31
0.0
  0
LINE
  5
4d6
100
AcDbEntity
  8
Layer_1
 62
7
100
AcDbLine
 10
292.602791
 20
363.613273
 30
0.0
 11
288.430861
 21
367.785203
 31
0.0
  0
LINE
  5
4d7
100
AcDbEntity
  8
Layer_1
 62
7
100
AcDbLine
 10
288.430861
 20
367.785203
 30
0.0
 11
290.481471
 21
369.835813
 31
0.0
  0
LINE
  5
4d8
100
AcDbEntity
  8
Layer_1
 62
7
100
AcDbLine
 10
171.919646
 20
86.502009
 30
0.0
 11
177.819646
 21
86.502009
 31
0.0
  0
LINE
  5
4d9
100
AcDbEntity
  8
Layer_1
 62
7
100
AcDbLine
 10
177.819646
 20
86.502009
 30
0.0
 11
177.819646
 21
83.602008
 31
0.0
  0
LINE
  5
4da
100
AcDbEntity
  8
Layer_1
 62
7
100
AcDbLine
 10
177.819646
 20
83.602008
 30
0.0
 11
171.919646
 21
83.602008
 31
0.0
  0
LINE
  5
4db
100
AcDbEntity
  8
Layer_1
 62
7
100
AcDbLine
 10
171.919646
 20
83.602008
 30
0.0
 11
171.919646
 21
86.502009
 31
0.0
  0
LINE
  5
4dc
100
AcDbEntity
  8
Layer_1
 62
7
100
AcDbLine
 10
171.919646
 20
416.501998
 30
0.0
 11
177.819646
 21
416.501998
 31
0.0
  0
LINE
  5
4dd
100
AcDbEntity
  8
Layer_1
 62
7
100
AcDbLine
 10
177.819646
 20
416.501998
 30
0.0
 11
177.819646
 21
413.601998
 31
0.0
  0
LINE
  5
4de
100
AcDbEntity
  8
Layer_1
 62
7
100
AcDbLine
 10
177.819646
 20
413.601998
 30
0.0
 11
171.919646
 21
413.601998
 31
0.0
  0
LINE
  5
4df
100
AcDbEntity
  8
Layer_1
 62
7
100
AcDbLine
 10
171.919646
 20
413.601998
 30
0.0
 11
171.919646
 21
416.501998
 31
0.0
  0
LINE
  5
4e0
100
AcDbEntity
  8
Layer_1
 62
7
100
AcDbLine
 10
288.430917
 20
132.318757
 30
0.0
 11
292.602847
 21
136.490687
 31
0.0
  0
LINE
  5
4e1
100
AcDbEntity
  8
Layer_1
 62
7
100
AcDbLine
 10
292.602847
 20
136.490687
 30
0.0
 11
294.653457
 21
134.440078
 31
0.0
  0
LINE
  5
4e2
100
AcDbEntity
  8
Layer_1
 62
7
100
AcDbLine
 10
294.653457
 20
134.440078
 30
0.0
 11
290.481527
 21
130.268148
 31
0.0
  0
LINE
  5
4e3
100
AcDbEntity
  8
Layer_1
 62
7
100
AcDbLine
 10
290.481527
 20
130.268148
 30
0.0
 11
288.430917
 21
132.318757
 31
0.0
  0
LINE
  5
4e4
100
AcDbEntity
  8
Layer_1
 62
7
100
AcDbLine
 10
55.085711
 20
365.663963
 30
0.0
 11
59.257641
 21
369.835893
 31
0.0
  0
LINE
  5
4e5
100
AcDbEntity
  8
Layer_1
 62
7
100
AcDbLine
 10
59.257641
 20
369.835893
 30
0.0
 11
61.308251
 21
367.785283
 31
0.0
  0
LINE
  5
4e6
100
AcDbEntity
  8
Layer_1
 62
7
100
AcDbLine
 10
61.308251
 20
367.785283
 30
0.0
 11
57.136321
 21
363.613353
 31
0.0
  0
LINE
  5
4e7
100
AcDbEntity
  8
Layer_1
 62
7
100
AcDbLine
 10
57.136321
 20
363.613353
 30
0.0
 11
55.085711
 21
365.663963
 31
0.0
  0
SPLINE
  5
4e8
100
AcDbEntity
  8
Layer_1
 62
7
100
AcDbSpline
 70
8
 71
3
 72
8
 73
4
 74
0
 40
0
 40
0
 40
0
 40
0
 40
1
 40
1
 40
1
 40
1
 10
194.619589
 20
250.052041
 30
0.0
 10
194.619589
 20
239.144416
 30
0.0
 10
185.777211
 20
230.302039
 30
0.0
 10
174.869587
 20
230.302039
 30
0.0
  0
SPLINE
  5
4e9
100
AcDbEntity
  8
Layer_1
 62
7
100
AcDbSpline
 70
8
 71
3
 72
8
 73
4
 74
0
 40
0
 40
0
 40
0
 40
0
 40
1
 40
1
 40
1
 40
1
 10
174.869587
 20
230.302039
 30
0.0
 10
163.961964
 20
230.302039
 30
0.0
 10
155.119588
 20
239.144416
 30
0.0
 10
155.119588
 20
250.052041
 30
0.0
  0
SPLINE
  5
4ea
100
AcDbEntity
  8
Layer_1
 62
7
100
AcDbSpline
 70
8
 71
3
 72
8
 73
4
 74
0
 40
0
 40
0
 40
0
 40
0
 40
1
 40
1
 40
1
 40
1
 10
155.119588
 20
250.052041
 30
0.0
 10
155.119588
 20
260.959665
 30
0.0
 10
163.961964
 20
269.802039
 30
0.0
 10
174.869587
 20
269.802039
 30
0.0
  0
SPLINE
  5
4eb
100
AcDbEntity
  8
Layer_1
 62
7
100
AcDbSpline
 70
8
 71
3
 72
8
 73
4
 74
0
 40
0
 40
0
 40
0
 40
0
 40
1
 40
1
 40
1
 40
1
 10
174.869587
 20
269.802039
 30
0.0
 10
185.777211
 20
269.802039
 30
0.0
 10
194.619589
 20
260.959665
 30
0.0
 10
194.619589
 20
250.052041
 30
0.0
  0
LINE
  5
4ec
100
AcDbEntity
  8
Layer_1
 62
7
100
AcDbLine
 10
194.619589
 20
250.052041
 30
0.0
 11
194.619589
 21
250.052041
 31
0.0
  0
SPLINE
  5
4ed
100
AcDbEntity
  8
Layer_1
 62
7
100
AcDbSpline
 70
8
 71
3
 72
8
 73
4
 74
0
 40
0
 40
0
 40
0
 40
0
 40
1
 40
1
 40
1
 40
1
 10
528.662279
 20
420.327249
 30
0.0
 10
485.184648
 20
420.327249
 30
0.0
 10
445.420750
 20
404.433058
 30
0.0
 10
414.856168
 20
378.143860
 30
0.0
  0
LINE
  5
4ee
100
AcDbEntity
  8
Layer_1
 62
7
100
AcDbLine
 10
414.856168
 20
378.143860
 30
0.0
 11
414.856168
 21
415.864610
 31
0.0
  0
LINE
  5
4ef
100
AcDbEntity
  8
Layer_1
 62
7
100
AcDbLine
 10
414.856168
 20
415.864610
 30
0.0
 11
355.166168
 21
415.864610
 31
0.0
  0
LINE
  5
4f0
100
AcDbEntity
  8
Layer_1
 62
7
100
AcDbLine
 10
355.166168
 20
415.864610
 30
0.0
 11
355.166168
 21
265.598916
 31
0.0
  0
SPLINE
  5
4f1
100
AcDbEntity
  8
Layer_1
 62
7
100
AcDbSpline
 70
8
 71
3
 72
8
 73
4
 74
0
 40
0
 40
0
 40
0
 40
0
 40
1
 40
1
 40
1
 40
1
 10
355.166168
 20
265.598916
 30
0.0
 10
354.425871
 20
259.070551
 30
0.0
 10
354.037279
 20
252.437454
 30
0.0
 10
354.037279
 20
245.711083
 30
0.0
  0
SPLINE
  5
4f2
100
AcDbEntity
  8
Layer_1
 62
7
100
AcDbSpline
 70
8
 71
3
 72
8
 73
4
 74
0
 40
0
 40
0
 40
0
 40
0
 40
1
 40
1
 40
1
 40
1
 10
354.037279
 20
245.711083
 30
0.0
 10
354.037279
 20
149.272447
 30
0.0
 10
432.223644
 20
71.094888
 30
0.0
 10
528.662279
 20
71.094888
 30
0.0
  0
SPLINE
  5
4f3
100
AcDbEntity
  8
Layer_1
 62
7
100
AcDbSpline
 70
8
 71
3
 72
8
 73
4
 74
0
 40
0
 40
0
 40
0
 40
0
 40
1
 40
1
 40
1
 40
1
 10
528.662279
 20
71.094888
 30
0.0
 10
625.100914
 20
71.094888
 30
0.0
 10
703.278446
 20
149.272447
 30
0.0
 10
703.278446
 20
245.711083
 30
0.0
  0
SPLINE
  5
4f4
100
AcDbEntity
  8
Layer_1
 62
7
100
AcDbSpline
 70
8
 71
3
 72
8
 73
4
 74
0
 40
0
 40
0
 40
0
 40
0
 40
1
 40
1
 40
1
 40
1
 10
703.278446
 20
245.711083
 30
0.0
 10
703.278446
 20
342.149718
 30
0.0
 10
625.100914
 20
420.327249
 30
0.0
 10
528.662279
 20
420.327249
 30
0.0
  0
LINE
  5
4f5
100
AcDbEntity
  8
Layer_1
 62
7
100
AcDbLine
 10
528.662279
 20
420.327249
 30
0.0
 11
528.662279
 21
420.327249
 31
0.0
  0
LINE
  5
4f6
100
AcDbEntity
  8
Layer_1
 62
7
100
AcDbLine
 10
365.107897
 20
248.661067
 30
0.0
 11
365.107897
 21
242.761067
 31
0.0
  0
LINE
  5
4f7
100
AcDbEntity
  8
Layer_1
 62
7
100
AcDbLine
 10
365.107897
 20
242.761067
 30
0.0
 11
362.207897
 21
242.761067
 31
0.0
  0
LINE
  5
4f8
100
AcDbEntity
  8
Layer_1
 62
7
100
AcDbLine
 10
362.207897
 20
242.761067
 30
0.0
 11
362.207897
 21
248.661067
 31
0.0
  0
LINE
  5
4f9
100
AcDbEntity
  8
Layer_1
 62
7
100
AcDbLine
 10
362.207897
 20
248.661067
 30
0.0
 11
365.107897
 21
248.661067
 31
0.0
  0
LINE
  5
4fa
100
AcDbEntity
  8
Layer_1
 62
7
100
AcDbLine
 10
695.107802
 20
248.661067
 30
0.0
 11
695.107802
 21
242.761067
 31
0.0
  0
LINE
  5
4fb
100
AcDbEntity
  8
Layer_1
 62
7
100
AcDbLine
 10
695.107802
 20
242.761067
 30
0.0
 11
692.207802
 21
242.761067
 31
0.0
  0
LINE
  5
4fc
100
AcDbEntity
  8
Layer_1
 62
7
100
AcDbLine
 10
692.207802
 20
242.761067
 30
0.0
 11
692.207802
 21
248.661067
 31
0.0
  0
LINE
  5
4fd
100
AcDbEntity
  8
Layer_1
 62
7
100
AcDbLine
 10
692.207802
 20
248.661067
 30
0.0
 11
695.107802
 21
248.661067
 31
0.0
  0
LINE
  5
4fe
100
AcDbEntity
  8
Layer_1
 62
7
100
AcDbLine
 10
410.924575
 20
132.149681
 30
0.0
 11
415.096505
 21
127.977751
 31
0.0
  0
LINE
  5
4ff
100
AcDbEntity
  8
Layer_1
 62
7
100
AcDbLine
 10
415.096505
 20
127.977751
 30
0.0
 11
413.045895
 21
125.927142
 31
0.0
  0
LINE
  5
500
100
AcDbEntity
  8
Layer_1
 62
7
100
AcDbLine
 10
413.045895
 20
125.927142
 30
0.0
 11
408.873965
 21
130.099072
 31
0.0
  0
LINE
  5
501
100
AcDbEntity
  8
Layer_1
 62
7
100
AcDbLine
 10
408.873965
 20
130.099072
 30
0.0
 11
410.924575
 21
132.149681
 31
0.0
  0
LINE
  5
502
100
AcDbEntity
  8
Layer_1
 62
7
100
AcDbLine
 10
644.269745
 20
365.494851
 30
0.0
 11
648.441675
 21
361.322921
 31
0.0
  0
LINE
  5
503
100
AcDbEntity
  8
Layer_1
 62
7
100
AcDbLine
 10
648.441675
 20
361.322921
 30
0.0
 11
646.391065
 21
359.272311
 31
0.0
  0
LINE
  5
504
100
AcDbEntity
  8
Layer_1
 62
7
100
AcDbLine
 10
646.391065
 20
359.272311
 30
0.0
 11
642.219135
 21
363.444242
 31
0.0
  0
LINE
  5
505
100
AcDbEntity
  8
Layer_1
 62
7
100
AcDbLine
 10
642.219135
 20
363.444242
 30
0.0
 11
644.269745
 21
365.494851
 31
0.0
  0
LINE
  5
506
100
AcDbEntity
  8
Layer_1
 62
7
100
AcDbLine
 10
525.707920
 20
82.161047
 30
0.0
 11
531.607920
 21
82.161047
 31
0.0
  0
LINE
  5
507
100
AcDbEntity
  8
Layer_1
 62
7
100
AcDbLine
 10
531.607920
 20
82.161047
 30
0.0
 11
531.607920
 21
79.261047
 31
0.0
  0
LINE
  5
508
100
AcDbEntity
  8
Layer_1
 62
7
100
AcDbLine
 10
531.607920
 20
79.261047
 30
0.0
 11
525.707920
 21
79.261047
 31
0.0
  0
LINE
  5
509
100
AcDbEntity
  8
Layer_1
 62
7
100
AcDbLine
 10
525.707920
 20
79.261047
 30
0.0
 11
525.707920
 21
82.161047
 31
0.0
  0
LINE
  5
50a
100
AcDbEntity
  8
Layer_1
 62
7
100
AcDbLine
 10
525.707920
 20
412.161036
 30
0.0
 11
531.607920
 21
412.161036
 31
0.0
  0
LINE
  5
50b
100
AcDbEntity
  8
Layer_1
 62
7
100
AcDbLine
 10
531.607920
 20
412.161036
 30
0.0
 11
531.607920
 21
409.261036
 31
0.0
  0
LINE
  5
50c
100
AcDbEntity
  8
Layer_1
 62
7
100
AcDbLine
 10
531.607920
 20
409.261036
 30
0.0
 11
525.707920
 21
409.261036
 31
0.0
  0
LINE
  5
50d
100
AcDbEntity
  8
Layer_1
 62
7
100
AcDbLine
 10
525.707920
 20
409.261036
 30
0.0
 11
525.707920
 21
412.161036
 31
0.0
  0
LINE
  5
50e
100
AcDbEntity
  8
Layer_1
 62
7
100
AcDbLine
 10
642.219191
 20
127.977796
 30
0.0
 11
646.391121
 21
132.149726
 31
0.0
  0
LINE
  5
50f
100
AcDbEntity
  8
Layer_1
 62
7
100
AcDbLine
 10
646.391121
 20
132.149726
 30
0.0
 11
648.441731
 21
130.099116
 31
0.0
  0
LINE
  5
510
100
AcDbEntity
  8
Layer_1
 62
7
100
AcDbLine
 10
648.441731
 20
130.099116
 30
0.0
 11
644.269801
 21
125.927186
 31
0.0
  0
LINE
  5
511
100
AcDbEntity
  8
Layer_1
 62
7
100
AcDbLine
 10
644.269801
 20
125.927186
 30
0.0
 11
642.219191
 21
127.977796
 31
0.0
  0
LINE
  5
512
100
AcDbEntity
  8
Layer_1
 62
7
100
AcDbLine
 10
408.873986
 20
361.323001
 30
0.0
 11
413.045916
 21
365.494931
 31
0.0
  0
LINE
  5
513
100
AcDbEntity
  8
Layer_1
 62
7
100
AcDbLine
 10
413.045916
 20
365.494931
 30
0.0
 11
415.096525
 21
363.444322
 31
0.0
  0
LINE
  5
514
100
AcDbEntity
  8
Layer_1
 62
7
100
AcDbLine
 10
415.096525
 20
363.444322
 30
0.0
 11
410.924595
 21
359.272392
 31
0.0
  0
LINE
  5
515
100
AcDbEntity
  8
Layer_1
 62
7
100
AcDbLine
 10
410.924595
 20
359.272392
 30
0.0
 11
408.873986
 21
361.323001
 31
0.0
  0
SPLINE
  5
516
100
AcDbEntity
  8
Layer_1
 62
7
100
AcDbSpline
 70
8
 71
3
 72
8
 73
4
 74
0
 40
0
 40
0
 40
0
 40
0
 40
1
 40
1
 40
1
 40
1
 10
568.157879
 20
245.711059
 30
0.0
 10
568.157879
 20
223.895810
 30
0.0
 10
550.473122
 20
206.211056
 30
0.0
 10
528.657875
 20
206.211056
 30
0.0
  0
SPLINE
  5
517
100
AcDbEntity
  8
Layer_1
 62
7
100
AcDbSpline
 70
8
 71
3
 72
8
 73
4
 74
0
 40
0
 40
0
 40
0
 40
0
 40
1
 40
1
 40
1
 40
1
 10
528.657875
 20
206.211056
 30
0.0
 10
506.842629
 20
206.211056
 30
0.0
 10
489.157876
 20
223.895810
 30
0.0
 10
489.157876
 20
245.711059
 30
0.0
  0
SPLINE
  5
518
100
AcDbEntity
  8
Layer_1
 62
7
100
AcDbSpline
 70
8
 71
3
 72
8
 73
4
 74
0
 40
0
 40
0
 40
0
 40
0
 40
1
 40
1
 40
1
 40
1
 10
489.157876
 20
245.711059
 30
0.0
 10
489.157876
 20
267.526307
 30
0.0
 10
506.842629
 20
285.211055
 30
0.0
 10
528.657875
 20
285.211055
 30
0.0
  0
SPLINE
  5
519
100
AcDbEntity
  8
Layer_1
 62
7
100
AcDbSpline
 70
8
 71
3
 72
8
 73
4
 74
0
 40
0
 40
0
 40
0
 40
0
 40
1
 40
1
 40
1
 40
1
 10
528.657875
 20
285.211055
 30
0.0
 10
550.473122
 20
285.211055
 30
0.0
 10
568.157879
 20
267.526307
 30
0.0
 10
568.157879
 20
245.711059
 30
0.0
  0
LINE
  5
51a
100
AcDbEntity
  8
Layer_1
 62
7
100
AcDbLine
 10
568.157879
 20
245.711059
 30
0.0
 11
568.157879
 21
245.711059
 31
0.0
  0
SPLINE
  5
51b
100
AcDbEntity
  8
Layer_1
 62
7
100
AcDbSpline
 70
8
 71
3
 72
8
 73
4
 74
0
 40
0
 40
0
 40
0
 40
0
 40
1
 40
1
 40
1
 40
1
 10
1028.088069
 20
242.455362
 30
0.0
 10
1028.088069
 20
154.227871
 30
0.0
 10
956.565570
 20
82.705360
 30
0.0
 10
868.338059
 20
82.705360
 30
0.0
  0
SPLINE
  5
51c
100
AcDbEntity
  8
Layer_1
 62
7
100
AcDbSpline
 70
8
 71
3
 72
8
 73
4
 74
0
 40
0
 40
0
 40
0
 40
0
 40
1
 40
1
 40
1
 40
1
 10
868.338059
 20
82.705360
 30
0.0
 10
780.110569
 20
82.705360
 30
0.0
 10
708.588057
 20
154.227871
 30
0.0
 10
708.588057
 20
242.455362
 30
0.0
  0
SPLINE
  5
51d
100
AcDbEntity
  8
Layer_1
 62
7
100
AcDbSpline
 70
8
 71
3
 72
8
 73
4
 74
0
 40
0
 40
0
 40
0
 40
0
 40
1
 40
1
 40
1
 40
1
 10
708.588057
 20
242.455362
 30
0.0
 10
708.588057
 20
330.682854
 30
0.0
 10
780.110569
 20
402.205365
 30
0.0
 10
868.338059
 20
402.205365
 30
0.0
  0
SPLINE
  5
51e
100
AcDbEntity
  8
Layer_1
 62
7
100
AcDbSpline
 70
8
 71
3
 72
8
 73
4
 74
0
 40
0
 40
0
 40
0
 40
0
 40
1
 40
1
 40
1
 40
1
 10
868.338059
 20
402.205365
 30
0.0
 10
956.565570
 20
402.205365
 30
0.0
 10
1028.088069
 20
330.682854
 30
0.0
 10
1028.088069
 20
242.455362
 30
0.0
  0
LINE
  5
51f
100
AcDbEntity
  8
Layer_1
 62
7
100
AcDbLine
 10
1028.088069
 20
242.455362
 30
0.0
 11
1028.088069
 21
242.455362
 31
0.0
  0
LINE
  5
520
100
AcDbEntity
  8
Layer_1
 62
7
100
AcDbLine
 10
738.388075
 20
243.905306
 30
0.0
 11
758.288075
 21
243.905306
 31
0.0
  0
LINE
  5
521
100
AcDbEntity
  8
Layer_1
 62
7
100
AcDbLine
 10
758.288075
 20
243.905306
 30
0.0
 11
758.288075
 21
241.005306
 31
0.0
  0
LINE
  5
522
100
AcDbEntity
  8
Layer_1
 62
7
100
AcDbLine
 10
758.288075
 20
241.005306
 30
0.0
 11
738.388075
 21
241.005306
 31
0.0
  0
LINE
  5
523
100
AcDbEntity
  8
Layer_1
 62
7
100
AcDbLine
 10
738.388075
 20
241.005306
 30
0.0
 11
738.388075
 21
243.905306
 31
0.0
  0
LINE
  5
524
100
AcDbEntity
  8
Layer_1
 62
7
100
AcDbLine
 10
798.388040
 20
243.905306
 30
0.0
 11
818.288040
 21
243.905306
 31
0.0
  0
LINE
  5
525
100
AcDbEntity
  8
Layer_1
 62
7
100
AcDbLine
 10
818.288040
 20
243.905306
 30
0.0
 11
818.288040
 21
241.005306
 31
0.0
  0
LINE
  5
526
100
AcDbEntity
  8
Layer_1
 62
7
100
AcDbLine
 10
818.288040
 20
241.005306
 30
0.0
 11
798.388040
 21
241.005306
 31
0.0
  0
LINE
  5
527
100
AcDbEntity
  8
Layer_1
 62
7
100
AcDbLine
 10
798.388040
 20
241.005306
 30
0.0
 11
798.388040
 21
243.905306
 31
0.0
  0
LINE
  5
528
100
AcDbEntity
  8
Layer_1
 62
7
100
AcDbLine
 10
918.388026
 20
243.905306
 30
0.0
 11
938.288025
 21
243.905306
 31
0.0
  0
LINE
  5
529
100
AcDbEntity
  8
Layer_1
 62
7
100
AcDbLine
 10
938.288025
 20
243.905306
 30
0.0
 11
938.288025
 21
241.005306
 31
0.0
  0
LINE
  5
52a
100
AcDbEntity
  8
Layer_1
 62
7
100
AcDbLine
 10
938.288025
 20
241.005306
 30
0.0
 11
918.388026
 21
241.005306
 31
0.0
  0
LINE
  5
52b
100
AcDbEntity
  8
Layer_1
 62
7
100
AcDbLine
 10
918.388026
 20
241.005306
 30
0.0
 11
918.388026
 21
243.905306
 31
0.0
  0
LINE
  5
52c
100
AcDbEntity
  8
Layer_1
 62
7
100
AcDbLine
 10
978.388019
 20
243.905306
 30
0.0
 11
998.288018
 21
243.905306
 31
0.0
  0
LINE
  5
52d
100
AcDbEntity
  8
Layer_1
 62
7
100
AcDbLine
 10
998.288018
 20
243.905306
 30
0.0
 11
998.288018
 21
241.005306
 31
0.0
  0
LINE
  5
52e
100
AcDbEntity
  8
Layer_1
 62
7
100
AcDbLine
 10
998.288018
 20
241.005306
 30
0.0
 11
978.388019
 21
241.005306
 31
0.0
  0
LINE
  5
52f
100
AcDbEntity
  8
Layer_1
 62
7
100
AcDbLine
 10
978.388019
 20
241.005306
 30
0.0
 11
978.388019
 21
243.905306
 31
0.0
  0
LINE
  5
530
100
AcDbEntity
  8
Layer_1
 62
7
100
AcDbLine
 10
775.424210
 20
151.592106
 30
0.0
 11
789.495635
 21
165.663531
 31
0.0
  0
LINE
  5
531
100
AcDbEntity
  8
Layer_1
 62
7
100
AcDbLine
 10
789.495635
 20
165.663531
 30
0.0
 11
791.546245
 21
163.612921
 31
0.0
  0
LINE
  5
532
100
AcDbEntity
  8
Layer_1
 62
7
100
AcDbLine
 10
791.546245
 20
163.612921
 30
0.0
 11
777.474820
 21
149.541496
 31
0.0
  0
LINE
  5
533
100
AcDbEntity
  8
Layer_1
 62
7
100
AcDbLine
 10
777.474820
 20
149.541496
 30
0.0
 11
775.424210
 21
151.592106
 31
0.0
  0
LINE
  5
534
100
AcDbEntity
  8
Layer_1
 62
7
100
AcDbLine
 10
817.850616
 20
194.018512
 30
0.0
 11
831.922041
 21
208.089936
 31
0.0
  0
LINE
  5
535
100
AcDbEntity
  8
Layer_1
 62
7
100
AcDbLine
 10
831.922041
 20
208.089936
 30
0.0
 11
833.972651
 21
206.039327
 31
0.0
  0
LINE
  5
536
100
AcDbEntity
  8
Layer_1
 62
7
100
AcDbLine
 10
833.972651
 20
206.039327
 30
0.0
 11
819.901226
 21
191.967902
 31
0.0
  0
LINE
  5
537
100
AcDbEntity
  8
Layer_1
 62
7
100
AcDbLine
 10
819.901226
 20
191.967902
 30
0.0
 11
817.850616
 21
194.018512
 31
0.0
  0
LINE
  5
538
100
AcDbEntity
  8
Layer_1
 62
7
100
AcDbLine
 10
902.703430
 20
278.871325
 30
0.0
 11
916.774854
 21
292.942750
 31
0.0
  0
LINE
  5
539
100
AcDbEntity
  8
Layer_1
 62
7
100
AcDbLine
 10
916.774854
 20
292.942750
 30
0.0
 11
918.825464
 21
290.892140
 31
0.0
  0
LINE
  5
53a
100
AcDbEntity
  8
Layer_1
 62
7
100
AcDbLine
 10
918.825464
 20
290.892140
 30
0.0
 11
904.754039
 21
276.820716
 31
0.0
  0
LINE
  5
53b
100
AcDbEntity
  8
Layer_1
 62
7
100
AcDbLine
 10
904.754039
 20
276.820716
 30
0.0
 11
902.703430
 21
278.871325
 31
0.0
  0
LINE
  5
53c
100
AcDbEntity
  8
Layer_1
 62
7
100
AcDbLine
 10
945.129831
 20
321.297727
 30
0.0
 11
959.201256
 21
335.369152
 31
0.0
  0
LINE
  5
53d
100
AcDbEntity
  8
Layer_1
 62
7
100
AcDbLine
 10
959.201256
 20
335.369152
 30
0.0
 11
961.251866
 21
333.318542
 31
0.0
  0
LINE
  5
53e
100
AcDbEntity
  8
Layer_1
 62
7
100
AcDbLine
 10
961.251866
 20
333.318542
 30
0.0
 11
947.180441
 21
319.247117
 31
0.0
  0
LINE
  5
53f
100
AcDbEntity
  8
Layer_1
 62
7
100
AcDbLine
 10
947.180441
 20
319.247117
 30
0.0
 11
945.129831
 21
321.297727
 31
0.0
  0
LINE
  5
540
100
AcDbEntity
  8
Layer_1
 62
7
100
AcDbLine
 10
866.888030
 20
112.505386
 30
0.0
 11
866.888030
 21
132.405385
 31
0.0
  0
LINE
  5
541
100
AcDbEntity
  8
Layer_1
 62
7
100
AcDbLine
 10
866.888030
 20
132.405385
 30
0.0
 11
869.788030
 21
132.405385
 31
0.0
  0
LINE
  5
542
100
AcDbEntity
  8
Layer_1
 62
7
100
AcDbLine
 10
869.788030
 20
132.405385
 30
0.0
 11
869.788030
 21
112.505386
 31
0.0
  0
LINE
  5
543
100
AcDbEntity
  8
Layer_1
 62
7
100
AcDbLine
 10
869.788030
 20
112.505386
 30
0.0
 11
866.888030
 21
112.505386
 31
0.0
  0
LINE
  5
544
100
AcDbEntity
  8
Layer_1
 62
7
100
AcDbLine
 10
866.888030
 20
172.505384
 30
0.0
 11
866.888030
 21
192.405384
 31
0.0
  0
LINE
  5
545
100
AcDbEntity
  8
Layer_1
 62
7
100
AcDbLine
 10
866.888030
 20
192.405384
 30
0.0
 11
869.788030
 21
192.405384
 31
0.0
  0
LINE
  5
546
100
AcDbEntity
  8
Layer_1
 62
7
100
AcDbLine
 10
869.788030
 20
192.405384
 30
0.0
 11
869.788030
 21
172.505384
 31
0.0
  0
LINE
  5
547
100
AcDbEntity
  8
Layer_1
 62
7
100
AcDbLine
 10
869.788030
 20
172.505384
 30
0.0
 11
866.888030
 21
172.505384
 31
0.0
  0
LINE
  5
548
100
AcDbEntity
  8
Layer_1
 62
7
100
AcDbLine
 10
866.888030
 20
292.505384
 30
0.0
 11
866.888030
 21
312.405384
 31
0.0
  0
LINE
  5
549
100
AcDbEntity
  8
Layer_1
 62
7
100
AcDbLine
 10
866.888030
 20
312.405384
 30
0.0
 11
869.788030
 21
312.405384
 31
0.0
  0
LINE
  5
54a
100
AcDbEntity
  8
Layer_1
 62
7
100
AcDbLine
 10
869.788030
 20
312.405384
 30
0.0
 11
869.788030
 21
292.505384
 31
0.0
  0
LINE
  5
54b
100
AcDbEntity
  8
Layer_1
 62
7
100
AcDbLine
 10
869.788030
 20
292.505384
 30
0.0
 11
866.888030
 21
292.505384
 31
0.0
  0
LINE
  5
54c
100
AcDbEntity
  8
Layer_1
 62
7
100
AcDbLine
 10
866.888030
 20
352.505377
 30
0.0
 11
866.888030
 21
372.405377
 31
0.0
  0
LINE
  5
54d
100
AcDbEntity
  8
Layer_1
 62
7
100
AcDbLine
 10
866.888030
 20
372.405377
 30
0.0
 11
869.788030
 21
372.405377
 31
0.0
  0
LINE
  5
54e
100
AcDbEntity
  8
Layer_1
 62
7
100
AcDbLine
 10
869.788030
 20
372.405377
 30
0.0
 11
869.788030
 21
352.505377
 31
0.0
  0
LINE
  5
54f
100
AcDbEntity
  8
Layer_1
 62
7
100
AcDbLine
 10
869.788030
 20
352.505377
 30
0.0
 11
866.888030
 21
352.505377
 31
0.0
  0
LINE
  5
550
100
AcDbEntity
  8
Layer_1
 62
7
100
AcDbLine
 10
959.201190
 20
149.541492
 30
0.0
 11
945.129765
 21
163.612917
 31
0.0
  0
LINE
  5
551
100
AcDbEntity
  8
Layer_1
 62
7
100
AcDbLine
 10
945.129765
 20
163.612917
 30
0.0
 11
947.180375
 21
165.663527
 31
0.0
  0
LINE
  5
552
100
AcDbEntity
  8
Layer_1
 62
7
100
AcDbLine
 10
947.180375
 20
165.663527
 30
0.0
 11
961.251800
 21
151.592102
 31
0.0
  0
LINE
  5
553
100
AcDbEntity
  8
Layer_1
 62
7
100
AcDbLine
 10
961.251800
 20
151.592102
 30
0.0
 11
959.201190
 21
149.541492
 31
0.0
  0
LINE
  5
554
100
AcDbEntity
  8
Layer_1
 62
7
100
AcDbLine
 10
916.774793
 20
191.967889
 30
0.0
 11
902.703368
 21
206.039314
 31
0.0
  0
LINE
  5
555
100
AcDbEntity
  8
Layer_1
 62
7
100
AcDbLine
 10
902.703368
 20
206.039314
 30
0.0
 11
904.753978
 21
208.089924
 31
0.0
  0
LINE
  5
556
100
AcDbEntity
  8
Layer_1
 62
7
100
AcDbLine
 10
904.753978
 20
208.089924
 30
0.0
 11
918.825403
 21
194.018499
 31
0.0
  0
LINE
  5
557
100
AcDbEntity
  8
Layer_1
 62
7
100
AcDbLine
 10
918.825403
 20
194.018499
 30
0.0
 11
916.774793
 21
191.967889
 31
0.0
  0
LINE
  5
558
100
AcDbEntity
  8
Layer_1
 62
7
100
AcDbLine
 10
831.921982
 20
276.820701
 30
0.0
 11
817.850557
 21
290.892125
 31
0.0
  0
LINE
  5
559
100
AcDbEntity
  8
Layer_1
 62
7
100
AcDbLine
 10
817.850557
 20
290.892125
 30
0.0
 11
819.901167
 21
292.942735
 31
0.0
  0
LINE
  5
55a
100
AcDbEntity
  8
Layer_1
 62
7
100
AcDbLine
 10
819.901167
 20
292.942735
 30
0.0
 11
833.972591
 21
278.871310
 31
0.0
  0
LINE
  5
55b
100
AcDbEntity
  8
Layer_1
 62
7
100
AcDbLine
 10
833.972591
 20
278.871310
 30
0.0
 11
831.921982
 21
276.820701
 31
0.0
  0
LINE
  5
55c
100
AcDbEntity
  8
Layer_1
 62
7
100
AcDbLine
 10
789.495582
 20
319.247100
 30
0.0
 11
775.424157
 21
333.318525
 31
0.0
  0
LINE
  5
55d
100
AcDbEntity
  8
Layer_1
 62
7
100
AcDbLine
 10
775.424157
 20
333.318525
 30
0.0
 11
777.474767
 21
335.369135
 31
0.0
  0
LINE
  5
55e
100
AcDbEntity
  8
Layer_1
 62
7
100
AcDbLine
 10
777.474767
 20
335.369135
 30
0.0
 11
791.546192
 21
321.297710
 31
0.0
  0
LINE
  5
55f
100
AcDbEntity
  8
Layer_1
 62
7
100
AcDbLine
 10
791.546192
 20
321.297710
 30
0.0
 11
789.495582
 21
319.247100
 31
0.0
  0
SPLINE
  5
560
100
AcDbEntity
  8
Layer_1
 62
7
100
AcDbSpline
 70
8
 71
3
 72
8
 73
4
 74
0
 40
0
 40
0
 40
0
 40
0
 40
1
 40
1
 40
1
 40
1
 10
671.424164
 20
107.443270
 30
0.0
 10
671.424164
 20
107.443270
 30
0.0
 10
635.204442
 20
101.366772
 30
0.0
 10
621.947109
 20
94.425770
 30
0.0
  0
SPLINE
  5
561
100
AcDbEntity
  8
Layer_1
 62
7
100
AcDbSpline
 70
8
 71
3
 72
8
 73
4
 74
0
 40
0
 40
0
 40
0
 40
0
 40
1
 40
1
 40
1
 40
1
 10
621.947109
 20
94.425770
 30
0.0
 10
608.002396
 20
87.124992
 30
0.0
 10
593.402448
 20
66.648725
 30
0.0
 10
591.863970
 20
64.457298
 30
0.0
  0
LINE
  5
562
100
AcDbEntity
  8
Layer_1
 62
7
100
AcDbLine
 10
591.863970
 20
64.457298
 30
0.0
 11
591.564109
 21
64.457298
 31
0.0
  0
LINE
  5
563
100
AcDbEntity
  8
Layer_1
 62
7
100
AcDbLine
 10
591.564109
 20
64.457298
 30
0.0
 11
591.564109
 21
64.033964
 31
0.0
  0
LINE
  5
564
100
AcDbEntity
  8
Layer_1
 62
7
100
AcDbLine
 10
591.564109
 20
64.033964
 30
0.0
 11
591.564109
 21
61.599798
 31
0.0
  0
LINE
  5
565
100
AcDbEntity
  8
Layer_1
 62
7
100
AcDbLine
 10
591.564109
 20
61.599798
 30
0.0
 11
611.425498
 21
61.599798
 31
0.0
  0
LINE
  5
566
100
AcDbEntity
  8
Layer_1
 62
7
100
AcDbLine
 10
611.425498
 20
61.599798
 30
0.0
 11
611.425498
 21
64.033964
 31
0.0
  0
LINE
  5
567
100
AcDbEntity
  8
Layer_1
 62
7
100
AcDbLine
 10
611.425498
 20
64.033964
 30
0.0
 11
651.562776
 21
64.033964
 31
0.0
  0
LINE
  5
568
100
AcDbEntity
  8
Layer_1
 62
7
100
AcDbLine
 10
651.562776
 20
64.033964
 30
0.0
 11
651.562776
 21
61.599798
 31
0.0
  0
LINE
  5
569
100
AcDbEntity
  8
Layer_1
 62
7
100
AcDbLine
 10
651.562776
 20
61.599798
 30
0.0
 11
671.424164
 21
61.599798
 31
0.0
  0
LINE
  5
56a
100
AcDbEntity
  8
Layer_1
 62
7
100
AcDbLine
 10
671.424164
 20
61.599798
 30
0.0
 11
671.424164
 21
64.033964
 31
0.0
  0
LINE
  5
56b
100
AcDbEntity
  8
Layer_1
 62
7
100
AcDbLine
 10
671.424164
 20
64.033964
 30
0.0
 11
671.424164
 21
64.457298
 31
0.0
  0
LINE
  5
56c
100
AcDbEntity
  8
Layer_1
 62
7
100
AcDbLine
 10
671.424164
 20
64.457298
 30
0.0
 11
671.424164
 21
107.443270
 31
0.0
  0
LINE
  5
56d
100
AcDbEntity
  8
Layer_1
 62
7
100
AcDbLine
 10
671.424164
 20
107.443270
 30
0.0
 11
671.424164
 21
107.443270
 31
0.0
  0
LINE
  5
56e
100
AcDbEntity
  8
Layer_1
 62
7
100
AcDbLine
 10
871.171579
 20
240.703800
 30
0.0
 11
868.242134
 21
239.118855
 31
0.0
  0
LINE
  5
56f
100
AcDbEntity
  8
Layer_1
 62
7
100
AcDbLine
 10
868.242134
 20
239.118855
 30
0.0
 11
865.408608
 21
240.870398
 31
0.0
  0
LINE
  5
570
100
AcDbEntity
  8
Layer_1
 62
7
100
AcDbLine
 10
865.408608
 20
240.870398
 30
0.0
 11
865.504526
 21
244.206886
 31
0.0
  0
LINE
  5
571
100
AcDbEntity
  8
Layer_1
 62
7
100
AcDbLine
 10
865.504526
 20
244.206886
 30
0.0
 11
868.433970
 21
245.791831
 31
0.0
  0
LINE
  5
572
100
AcDbEntity
  8
Layer_1
 62
7
100
AcDbLine
 10
868.433970
 20
245.791831
 30
0.0
 11
871.267497
 21
244.040288
 31
0.0
  0
LINE
  5
573
100
AcDbEntity
  8
Layer_1
 62
7
100
AcDbLine
 10
871.267497
 20
244.040288
 30
0.0
 11
871.171579
 21
240.703800
 31
0.0
  0
SPLINE
  5
574
100
AcDbEntity
  8
Layer_1
 62
7
100
AcDbSpline
 70
8
 71
3
 72
8
 73
4
 74
0
 40
0
 40
0
 40
0
 40
0
 40
1
 40
1
 40
1
 40
1
 10
746.753452
 20
108.528527
 30
0.0
 10
746.753452
 20
108.528527
 30
0.0
 10
782.973175
 20
102.452029
 30
0.0
 10
796.230508
 20
95.511027
 30
0.0
  0
SPLINE
  5
575
100
AcDbEntity
  8
Layer_1
 62
7
100
AcDbSpline
 70
8
 71
3
 72
8
 73
4
 74
0
 40
0
 40
0
 40
0
 40
0
 40
1
 40
1
 40
1
 40
1
 10
796.230508
 20
95.511027
 30
0.0
 10
810.175220
 20
88.210249
 30
0.0
 10
824.775169
 20
67.733982
 30
0.0
 10
826.313647
 20
65.542555
 30
0.0
  0
LINE
  5
576
100
AcDbEntity
  8
Layer_1
 62
7
100
AcDbLine
 10
826.313647
 20
65.542555
 30
0.0
 11
826.613508
 21
65.542555
 31
0.0
  0
LINE
  5
577
100
AcDbEntity
  8
Layer_1
 62
7
100
AcDbLine
 10
826.613508
 20
65.542555
 30
0.0
 11
826.613508
 21
65.119222
 31
0.0
  0
LINE
  5
578
100
AcDbEntity
  8
Layer_1
 62
7
100
AcDbLine
 10
826.613508
 20
65.119222
 30
0.0
 11
826.613508
 21
62.685055
 31
0.0
  0
LINE
  5
579
100
AcDbEntity
  8
Layer_1
 62
7
100
AcDbLine
 10
826.613508
 20
62.685055
 30
0.0
 11
806.752119
 21
62.685055
 31
0.0
  0
LINE
  5
57a
100
AcDbEntity
  8
Layer_1
 62
7
100
AcDbLine
 10
806.752119
 20
62.685055
 30
0.0
 11
806.752119
 21
65.119222
 31
0.0
  0
LINE
  5
57b
100
AcDbEntity
  8
Layer_1
 62
7
100
AcDbLine
 10
806.752119
 20
65.119222
 30
0.0
 11
766.614841
 21
65.119222
 31
0.0
  0
LINE
  5
57c
100
AcDbEntity
  8
Layer_1
 62
7
100
AcDbLine
 10
766.614841
 20
65.119222
 30
0.0
 11
766.614841
 21
62.685055
 31
0.0
  0
LINE
  5
57d
100
AcDbEntity
  8
Layer_1
 62
7
100
AcDbLine
 10
766.614841
 20
62.685055
 30
0.0
 11
746.753452
 21
62.685055
 31
0.0
  0
LINE
  5
57e
100
AcDbEntity
  8
Layer_1
 62
7
100
AcDbLine
 10
746.753452
 20
62.685055
 30
0.0
 11
746.753452
 21
65.119222
 31
0.0
  0
LINE
  5
57f
100
AcDbEntity
  8
Layer_1
 62
7
100
AcDbLine
 10
746.753452
 20
65.119222
 30
0.0
 11
746.753452
 21
65.542555
 31
0.0
  0
LINE
  5
580
100
AcDbEntity
  8
Layer_1
 62
7
100
AcDbLine
 10
746.753452
 20
65.542555
 30
0.0
 11
746.753452
 21
108.528527
 31
0.0
  0
LINE
  5
581
100
AcDbEntity
  8
Layer_1
 62
7
100
AcDbLine
 10
746.753452
 20
108.528527
 30
0.0
 11
746.753452
 21
108.528527
 31
0.0
  0
SPLINE
  5
582
100
AcDbEntity
  8
Layer_1
 62
7
100
AcDbSpline
 70
8
 71
3
 72
8
 73
4
 74
0
 40
0
 40
0
 40
0
 40
0
 40
1
 40
1
 40
1
 40
1
 10
316.550633
 20
108.528499
 30
0.0
 10
316.550633
 20
108.528499
 30
0.0
 10
280.330910
 20
102.452001
 30
0.0
 10
267.073589
 20
95.510999
 30
0.0
  0
SPLINE
  5
583
100
AcDbEntity
  8
Layer_1
 62
7
100
AcDbSpline
 70
8
 71
3
 72
8
 73
4
 74
0
 40
0
 40
0
 40
0
 40
0
 40
1
 40
1
 40
1
 40
1
 10
267.073589
 20
95.510999
 30
0.0
 10
253.128865
 20
88.210221
 30
0.0
 10
238.528916
 20
67.733954
 30
0.0
 10
236.990438
 20
65.542527
 30
0.0
  0
LINE
  5
584
100
AcDbEntity
  8
Layer_1
 62
7
100
AcDbLine
 10
236.990438
 20
65.542527
 30
0.0
 11
236.690577
 21
65.542527
 31
0.0
  0
LINE
  5
585
100
AcDbEntity
  8
Layer_1
 62
7
100
AcDbLine
 10
236.690577
 20
65.542527
 30
0.0
 11
236.690577
 21
65.119194
 31
0.0
  0
LINE
  5
586
100
AcDbEntity
  8
Layer_1
 62
7
100
AcDbLine
 10
236.690577
 20
65.119194
 30
0.0
 11
236.690577
 21
62.685027
 31
0.0
  0
LINE
  5
587
100
AcDbEntity
  8
Layer_1
 62
7
100
AcDbLine
 10
236.690577
 20
62.685027
 30
0.0
 11
256.551966
 21
62.685027
 31
0.0
  0
LINE
  5
588
100
AcDbEntity
  8
Layer_1
 62
7
100
AcDbLine
 10
256.551966
 20
62.685027
 30
0.0
 11
256.551966
 21
65.119194
 31
0.0
  0
LINE
  5
589
100
AcDbEntity
  8
Layer_1
 62
7
100
AcDbLine
 10
256.551966
 20
65.119194
 30
0.0
 11
296.689244
 21
65.119194
 31
0.0
  0
LINE
  5
58a
100
AcDbEntity
  8
Layer_1
 62
7
100
AcDbLine
 10
296.689244
 20
65.119194
 30
0.0
 11
296.689244
 21
62.685027
 31
0.0
  0
LINE
  5
58b
100
AcDbEntity
  8
Layer_1
 62
7
100
AcDbLine
 10
296.689244
 20
62.685027
 30
0.0
 11
316.550633
 21
62.685027
 31
0.0
  0
LINE
  5
58c
100
AcDbEntity
  8
Layer_1
 62
7
100
AcDbLine
 10
316.550633
 20
62.685027
 30
0.0
 11
316.550633
 21
65.119194
 31
0.0
  0
LINE
  5
58d
100
AcDbEntity
  8
Layer_1
 62
7
100
AcDbLine
 10
316.550633
 20
65.119194
 30
0.0
 11
316.550633
 21
65.542527
 31
0.0
  0
LINE
  5
58e
100
AcDbEntity
  8
Layer_1
 62
7
100
AcDbLine
 10
316.550633
 20
65.542527
 30
0.0
 11
316.550633
 21
108.528499
 31
0.0
  0
LINE
  5
58f
100
AcDbEntity
  8
Layer_1
 62
7
100
AcDbLine
 10
316.550633
 20
108.528499
 30
0.0
 11
316.550633
 21
108.528499
 31
0.0
  0
SPLINE
  5
590
100
AcDbEntity
  8
Layer_1
 62
7
100
AcDbSpline
 70
8
 71
3
 72
8
 73
4
 74
0
 40
0
 40
0
 40
0
 40
0
 40
1
 40
1
 40
1
 40
1
 10
372.345599
 20
112.869472
 30
0.0
 10
372.345599
 20
112.869472
 30
0.0
 10
408.565322
 20
106.792974
 30
0.0
 10
421.822654
 20
99.851972
 30
0.0
  0
SPLINE
  5
591
100
AcDbEntity
  8
Layer_1
 62
7
100
AcDbSpline
 70
8
 71
3
 72
8
 73
4
 74
0
 40
0
 40
0
 40
0
 40
0
 40
1
 40
1
 40
1
 40
1
 10
421.822654
 20
99.851972
 30
0.0
 10
435.767367
 20
92.551194
 30
0.0
 10
450.367315
 20
72.074927
 30
0.0
 10
451.905793
 20
69.883500
 30
0.0
  0
LINE
  5
592
100
AcDbEntity
  8
Layer_1
 62
7
100
AcDbLine
 10
451.905793
 20
69.883500
 30
0.0
 11
452.205654
 21
69.883500
 31
0.0
  0
LINE
  5
593
100
AcDbEntity
  8
Layer_1
 62
7
100
AcDbLine
 10
452.205654
 20
69.883500
 30
0.0
 11
452.205654
 21
69.460166
 31
0.0
  0
LINE
  5
594
100
AcDbEntity
  8
Layer_1
 62
7
100
AcDbLine
 10
452.205654
 20
69.460166
 30
0.0
 11
452.205654
 21
67.026000
 31
0.0
  0
LINE
  5
595
100
AcDbEntity
  8
Layer_1
 62
7
100
AcDbLine
 10
452.205654
 20
67.026000
 30
0.0
 11
432.344266
 21
67.026000
 31
0.0
  0
LINE
  5
596
100
AcDbEntity
  8
Layer_1
 62
7
100
AcDbLine
 10
432.344266
 20
67.026000
 30
0.0
 11
432.344266
 21
69.460166
 31
0.0
  0
LINE
  5
597
100
AcDbEntity
  8
Layer_1
 62
7
100
AcDbLine
 10
432.344266
 20
69.460166
 30
0.0
 11
392.206988
 21
69.460166
 31
0.0
  0
LINE
  5
598
100
AcDbEntity
  8
Layer_1
 62
7
100
AcDbLine
 10
392.206988
 20
69.460166
 30
0.0
 11
392.206988
 21
67.026000
 31
0.0
  0
LINE
  5
599
100
AcDbEntity
  8
Layer_1
 62
7
100
AcDbLine
 10
392.206988
 20
67.026000
 30
0.0
 11
372.345599
 21
67.026000
 31
0.0
  0
LINE
  5
59a
100
AcDbEntity
  8
Layer_1
 62
7
100
AcDbLine
 10
372.345599
 20
67.026000
 30
0.0
 11
372.345599
 21
69.460166
 31
0.0
  0
LINE
  5
59b
100
AcDbEntity
  8
Layer_1
 62
7
100
AcDbLine
 10
372.345599
 20
69.460166
 30
0.0
 11
372.345599
 21
69.883500
 31
0.0
  0
LINE
  5
59c
100
AcDbEntity
  8
Layer_1
 62
7
100
AcDbLine
 10
372.345599
 20
69.883500
 30
0.0
 11
372.345599
 21
112.869472
 31
0.0
  0
LINE
  5
59d
100
AcDbEntity
  8
Layer_1
 62
7
100
AcDbLine
 10
372.345599
 20
112.869472
 30
0.0
 11
372.345599
 21
112.869472
 31
0.0
  0
SPLINE
  5
59e
100
AcDbEntity
  8
Layer_1
 62
7
100
AcDbSpline
 70
8
 71
3
 72
8
 73
4
 74
0
 40
0
 40
0
 40
0
 40
0
 40
1
 40
1
 40
1
 40
1
 10
736.894104
 20
65.211057
 30
0.0
 10
736.894104
 20
65.211057
 30
0.0
 10
730.817605
 20
101.430780
 30
0.0
 10
723.876604
 20
114.688112
 30
0.0
  0
SPLINE
  5
59f
100
AcDbEntity
  8
Layer_1
 62
7
100
AcDbSpline
 70
8
 71
3
 72
8
 73
4
 74
0
 40
0
 40
0
 40
0
 40
0
 40
1
 40
1
 40
1
 40
1
 10
723.876604
 20
114.688112
 30
0.0
 10
716.575825
 20
128.632825
 30
0.0
 10
696.099559
 20
143.232773
 30
0.0
 10
693.908132
 20
144.771251
 30
0.0
  0
LINE
  5
5a0
100
AcDbEntity
  8
Layer_1
 62
7
100
AcDbLine
 10
693.908132
 20
144.771251
 30
0.0
 11
693.908132
 21
145.071112
 31
0.0
  0
LINE
  5
5a1
100
AcDbEntity
  8
Layer_1
 62
7
100
AcDbLine
 10
693.908132
 20
145.071112
 30
0.0
 11
693.484798
 21
145.071112
 31
0.0
  0
LINE
  5
5a2
100
AcDbEntity
  8
Layer_1
 62
7
100
AcDbLine
 10
693.484798
 20
145.071112
 30
0.0
 11
691.050632
 21
145.071112
 31
0.0
  0
LINE
  5
5a3
100
AcDbEntity
  8
Layer_1
 62
7
100
AcDbLine
 10
691.050632
 20
145.071112
 30
0.0
 11
691.050632
 21
125.209723
 31
0.0
  0
LINE
  5
5a4
100
AcDbEntity
  8
Layer_1
 62
7
100
AcDbLine
 10
691.050632
 20
125.209723
 30
0.0
 11
693.484798
 21
125.209723
 31
0.0
  0
LINE
  5
5a5
100
AcDbEntity
  8
Layer_1
 62
7
100
AcDbLine
 10
693.484798
 20
125.209723
 30
0.0
 11
693.484798
 21
85.072446
 31
0.0
  0
LINE
  5
5a6
100
AcDbEntity
  8
Layer_1
 62
7
100
AcDbLine
 10
693.484798
 20
85.072446
 30
0.0
 11
691.050632
 21
85.072446
 31
0.0
  0
LINE
  5
5a7
100
AcDbEntity
  8
Layer_1
 62
7
100
AcDbLine
 10
691.050632
 20
85.072446
 30
0.0
 11
691.050632
 21
65.211057
 31
0.0
  0
LINE
  5
5a8
100
AcDbEntity
  8
Layer_1
 62
7
100
AcDbLine
 10
691.050632
 20
65.211057
 30
0.0
 11
693.484798
 21
65.211057
 31
0.0
  0
LINE
  5
5a9
100
AcDbEntity
  8
Layer_1
 62
7
100
AcDbLine
 10
693.484798
 20
65.211057
 30
0.0
 11
693.908132
 21
65.211057
 31
0.0
  0
LINE
  5
5aa
100
AcDbEntity
  8
Layer_1
 62
7
100
AcDbLine
 10
693.908132
 20
65.211057
 30
0.0
 11
736.894104
 21
65.211057
 31
0.0
  0
LINE
  5
5ab
100
AcDbEntity
  8
Layer_1
 62
7
100
AcDbLine
 10
736.894104
 20
65.211057
 30
0.0
 11
736.894104
 21
65.211057
 31
0.0
  0
SPLINE
  5
5ac
100
AcDbEntity
  8
Layer_1
 62
7
100
AcDbSpline
 70
8
 71
3
 72
8
 73
4
 74
0
 40
0
 40
0
 40
0
 40
0
 40
1
 40
1
 40
1
 40
1
 10
366.827252
 20
64.125828
 30
0.0
 10
366.827252
 20
64.125828
 30
0.0
 10
360.750753
 20
100.345550
 30
0.0
 10
353.809752
 20
113.602883
 30
0.0
  0
SPLINE
  5
5ad
100
AcDbEntity
  8
Layer_1
 62
7
100
AcDbSpline
 70
8
 71
3
 72
8
 73
4
 74
0
 40
0
 40
0
 40
0
 40
0
 40
1
 40
1
 40
1
 40
1
 10
353.809752
 20
113.602883
 30
0.0
 10
346.508973
 20
127.547596
 30
0.0
 10
326.032707
 20
142.147544
 30
0.0
 10
323.841279
 20
143.686022
 30
0.0
  0
LINE
  5
5ae
100
AcDbEntity
  8
Layer_1
 62
7
100
AcDbLine
 10
323.841279
 20
143.686022
 30
0.0
 11
323.841279
 21
143.985883
 31
0.0
  0
LINE
  5
5af
100
AcDbEntity
  8
Layer_1
 62
7
100
AcDbLine
 10
323.841279
 20
143.985883
 30
0.0
 11
323.417946
 21
143.985883
 31
0.0
  0
LINE
  5
5b0
100
AcDbEntity
  8
Layer_1
 62
7
100
AcDbLine
 10
323.417946
 20
143.985883
 30
0.0
 11
320.983779
 21
143.985883
 31
0.0
  0
LINE
  5
5b1
100
AcDbEntity
  8
Layer_1
 62
7
100
AcDbLine
 10
320.983779
 20
143.985883
 30
0.0
 11
320.983779
 21
124.124494
 31
0.0
  0
LINE
  5
5b2
100
AcDbEntity
  8
Layer_1
 62
7
100
AcDbLine
 10
320.983779
 20
124.124494
 30
0.0
 11
323.417946
 21
124.124494
 31
0.0
  0
LINE
  5
5b3
100
AcDbEntity
  8
Layer_1
 62
7
100
AcDbLine
 10
323.417946
 20
124.124494
 30
0.0
 11
323.417946
 21
83.987217
 31
0.0
  0
LINE
  5
5b4
100
AcDbEntity
  8
Layer_1
 62
7
100
AcDbLine
 10
323.417946
 20
83.987217
 30
0.0
 11
320.983779
 21
83.987217
 31
0.0
  0
LINE
  5
5b5
100
AcDbEntity
  8
Layer_1
 62
7
100
AcDbLine
 10
320.983779
 20
83.987217
 30
0.0
 11
320.983779
 21
64.125828
 31
0.0
  0
LINE
  5
5b6
100
AcDbEntity
  8
Layer_1
 62
7
100
AcDbLine
 10
320.983779
 20
64.125828
 30
0.0
 11
323.417946
 21
64.125828
 31
0.0
  0
LINE
  5
5b7
100
AcDbEntity
  8
Layer_1
 62
7
100
AcDbLine
 10
323.417946
 20
64.125828
 30
0.0
 11
323.841279
 21
64.125828
 31
0.0
  0
LINE
  5
5b8
100
AcDbEntity
  8
Layer_1
 62
7
100
AcDbLine
 10
323.841279
 20
64.125828
 30
0.0
 11
366.827252
 21
64.125828
 31
0.0
  0
LINE
  5
5b9
100
AcDbEntity
  8
Layer_1
 62
7
100
AcDbLine
 10
366.827252
 20
64.125828
 30
0.0
 11
366.827252
 21
64.125828
 31
0.0
  0
SPLINE
  5
5ba
100
AcDbEntity
  8
Layer_1
 62
7
100
AcDbSpline
 70
8
 71
3
 72
8
 73
4
 74
0
 40
0
 40
0
 40
0
 40
0
 40
1
 40
1
 40
1
 40
1
 10
25.068733
 20
109.613756
 30
0.0
 10
25.068733
 20
109.613756
 30
0.0
 10
61.288459
 20
103.537258
 30
0.0
 10
74.545791
 20
96.596256
 30
0.0
  0
SPLINE
  5
5bb
100
AcDbEntity
  8
Layer_1
 62
7
100
AcDbSpline
 70
8
 71
3
 72
8
 73
4
 74
0
 40
0
 40
0
 40
0
 40
0
 40
1
 40
1
 40
1
 40
1
 10
74.545791
 20
96.596256
 30
0.0
 10
88.490504
 20
89.295478
 30
0.0
 10
103.090452
 20
68.819212
 30
0.0
 10
104.628930
 20
66.627784
 30
0.0
  0
LINE
  5
5bc
100
AcDbEntity
  8
Layer_1
 62
7
100
AcDbLine
 10
104.628930
 20
66.627784
 30
0.0
 11
104.928791
 21
66.627784
 31
0.0
  0
LINE
  5
5bd
100
AcDbEntity
  8
Layer_1
 62
7
100
AcDbLine
 10
104.928791
 20
66.627784
 30
0.0
 11
104.928791
 21
66.204451
 31
0.0
  0
LINE
  5
5be
100
AcDbEntity
  8
Layer_1
 62
7
100
AcDbLine
 10
104.928791
 20
66.204451
 30
0.0
 11
104.928791
 21
63.770284
 31
0.0
  0
LINE
  5
5bf
100
AcDbEntity
  8
Layer_1
 62
7
100
AcDbLine
 10
104.928791
 20
63.770284
 30
0.0
 11
85.067402
 21
63.770284
 31
0.0
  0
LINE
  5
5c0
100
AcDbEntity
  8
Layer_1
 62
7
100
AcDbLine
 10
85.067402
 20
63.770284
 30
0.0
 11
85.067402
 21
66.204451
 31
0.0
  0
LINE
  5
5c1
100
AcDbEntity
  8
Layer_1
 62
7
100
AcDbLine
 10
85.067402
 20
66.204451
 30
0.0
 11
44.930125
 21
66.204451
 31
0.0
  0
LINE
  5
5c2
100
AcDbEntity
  8
Layer_1
 62
7
100
AcDbLine
 10
44.930125
 20
66.204451
 30
0.0
 11
44.930125
 21
63.770284
 31
0.0
  0
LINE
  5
5c3
100
AcDbEntity
  8
Layer_1
 62
7
100
AcDbLine
 10
44.930125
 20
63.770284
 30
0.0
 11
25.068733
 21
63.770284
 31
0.0
  0
LINE
  5
5c4
100
AcDbEntity
  8
Layer_1
 62
7
100
AcDbLine
 10
25.068733
 20
63.770284
 30
0.0
 11
25.068733
 21
66.204451
 31
0.0
  0
LINE
  5
5c5
100
AcDbEntity
  8
Layer_1
 62
7
100
AcDbLine
 10
25.068733
 20
66.204451
 30
0.0
 11
25.068733
 21
66.627784
 31
0.0
  0
LINE
  5
5c6
100
AcDbEntity
  8
Layer_1
 62
7
100
AcDbLine
 10
25.068733
 20
66.627784
 30
0.0
 11
25.068733
 21
109.613756
 31
0.0
  0
LINE
  5
5c7
100
AcDbEntity
  8
Layer_1
 62
7
100
AcDbLine
 10
25.068733
 20
109.613756
 30
0.0
 11
25.068733
 21
109.613756
 31
0.0
  0
SPLINE
  5
5c8
100
AcDbEntity
  8
Layer_1
 62
7
100
AcDbSpline
 70
8
 71
3
 72
8
 73
4
 74
0
 40
0
 40
0
 40
0
 40
0
 40
1
 40
1
 40
1
 40
1
 10
987.229025
 20
107.443270
 30
0.0
 10
987.229025
 20
107.443270
 30
0.0
 10
951.009302
 20
101.366772
 30
0.0
 10
937.751970
 20
94.425770
 30
0.0
  0
SPLINE
  5
5c9
100
AcDbEntity
  8
Layer_1
 62
7
100
AcDbSpline
 70
8
 71
3
 72
8
 73
4
 74
0
 40
0
 40
0
 40
0
 40
0
 40
1
 40
1
 40
1
 40
1
 10
937.751970
 20
94.425770
 30
0.0
 10
923.807257
 20
87.124992
 30
0.0
 10
909.207309
 20
66.648725
 30
0.0
 10
907.668831
 20
64.457298
 30
0.0
  0
LINE
  5
5ca
100
AcDbEntity
  8
Layer_1
 62
7
100
AcDbLine
 10
907.668831
 20
64.457298
 30
0.0
 11
907.368970
 21
64.457298
 31
0.0
  0
LINE
  5
5cb
100
AcDbEntity
  8
Layer_1
 62
7
100
AcDbLine
 10
907.368970
 20
64.457298
 30
0.0
 11
907.368970
 21
64.033964
 31
0.0
  0
LINE
  5
5cc
100
AcDbEntity
  8
Layer_1
 62
7
100
AcDbLine
 10
907.368970
 20
64.033964
 30
0.0
 11
907.368970
 21
61.599798
 31
0.0
  0
LINE
  5
5cd
100
AcDbEntity
  8
Layer_1
 62
7
100
AcDbLine
 10
907.368970
 20
61.599798
 30
0.0
 11
927.230358
 21
61.599798
 31
0.0
  0
LINE
  5
5ce
100
AcDbEntity
  8
Layer_1
 62
7
100
AcDbLine
 10
927.230358
 20
61.599798
 30
0.0
 11
927.230358
 21
64.033964
 31
0.0
  0
LINE
  5
5cf
100
AcDbEntity
  8
Layer_1
 62
7
100
AcDbLine
 10
927.230358
 20
64.033964
 30
0.0
 11
967.367636
 21
64.033964
 31
0.0
  0
LINE
  5
5d0
100
AcDbEntity
  8
Layer_1
 62
7
100
AcDbLine
 10
967.367636
 20
64.033964
 30
0.0
 11
967.367636
 21
61.599798
 31
0.0
  0
LINE
  5
5d1
100
AcDbEntity
  8
Layer_1
 62
7
100
AcDbLine
 10
967.367636
 20
61.599798
 30
0.0
 11
987.229025
 21
61.599798
 31
0.0
  0
LINE
  5
5d2
100
AcDbEntity
  8
Layer_1
 62
7
100
AcDbLine
 10
987.229025
 20
61.599798
 30
0.0
 11
987.229025
 21
64.033964
 31
0.0
  0
LINE
  5
5d3
100
AcDbEntity
  8
Layer_1
 62
7
100
AcDbLine
 10
987.229025
 20
64.033964
 30
0.0
 11
987.229025
 21
64.457298
 31
0.0
  0
LINE
  5
5d4
100
AcDbEntity
  8
Layer_1
 62
7
100
AcDbLine
 10
987.229025
 20
64.457298
 30
0.0
 11
987.229025
 21
107.443270
 31
0.0
  0
LINE
  5
5d5
100
AcDbEntity
  8
Layer_1
 62
7
100
AcDbLine
 10
987.229025
 20
107.443270
 30
0.0
 11
987.229025
 21
107.443270
 31
0.0
  0
ENDSEC
  0
SECTION
  2
OBJECTS
  0
DICTIONARY
  5
C
330
0
100
AcDbDictionary
  3
ACAD_GROUP
350
D
  3
ACAD_MLINESTYLE
350
17
  0
DICTIONARY
  5
D
330
C
100
AcDbDictionary
  0
DICTIONARY
  5
1A
330
C
100
AcDbDictionary
  0
DICTIONARY
  5
17
330
C
100
AcDbDictionary
  3
STANDARD
350
18
  0
DICTIONARY
  5
19
330
C
100
AcDbDictionary
  0
ENDSEC
  0
EOF
