<?xml version="1.0" encoding="UTF-8"?>
<!DOCTYPE svg PUBLIC "-//W3C//DTD SVG 1.1//EN" "http://www.w3.org/Graphics/SVG/1.1/DTD/svg11.dtd">
<!-- Creator: CorelDRAW -->
<svg xmlns="http://www.w3.org/2000/svg" xml:space="preserve" width="210mm" height="297mm" style="shape-rendering:geometricPrecision; text-rendering:geometricPrecision; image-rendering:optimizeQuality; fill-rule:evenodd; clip-rule:evenodd"
viewBox="0 0 210 297"
 xmlns:xlink="http://www.w3.org/1999/xlink">
 <defs>
  <style type="text/css">
   <![CDATA[
    .str1 {stroke:black;stroke-width:0.5292;stroke-linecap:round;stroke-linejoin:round}
    .str2 {stroke:blue;stroke-width:0.5292;stroke-linecap:round;stroke-linejoin:round}
    .str0 {stroke:black;stroke-width:0.5644;stroke-linecap:round;stroke-linejoin:round}
    .str4 {stroke:blue;stroke-width:0.5644;stroke-linecap:round;stroke-linejoin:round}
    .str3 {stroke:black;stroke-width:0.5644}
    .fil1 {fill:none}
    .fil0 {fill:none;fill-rule:nonzero}
    .fnt0 {font-weight:normal;font-size:4.2333;font-family:'SWIsot1'}
   ]]>
  </style>
 </defs>
 <g id="Layer_x0020_1">
  <metadata id="CorelCorpID_0Corel-Layer"/>
  <g id="_123878264">
   <g>
    <polygon id="_123885464" class="fil0 str0" points="208.5,324 211.5,324 211.5,330 208.5,330 "/>
    <polygon id="_123885536" class="fil0 str0" points="208.5,304 211.5,304 211.5,310 208.5,310 "/>
    <polygon id="_123885608" class="fil0 str0" points="208.5,283.999 211.5,283.999 211.5,289.999 208.5,289.999 "/>
    <polygon id="_123885680" class="fil0 str0" points="208.5,264 211.5,264 211.5,270 208.5,270 "/>
    <polygon id="_123885752" class="fil0 str0" points="228.5,324 231.5,324 231.5,330 228.5,330 "/>
    <polygon id="_123885824" class="fil0 str0" points="228.5,304 231.5,304 231.5,310 228.5,310 "/>
    <polygon id="_123885896" class="fil0 str0" points="228.5,283.999 231.5,283.999 231.5,289.999 228.5,289.999 "/>
    <polygon id="_123885968" class="fil0 str0" points="228.5,264 231.5,264 231.5,270 228.5,270 "/>
    <polygon id="_123886040" class="fil0 str0" points="248.501,324 251.501,324 251.501,330 248.501,330 "/>
    <polygon id="_123886112" class="fil0 str0" points="248.501,304 251.501,304 251.501,310 248.501,310 "/>
    <polygon id="_123886184" class="fil0 str0" points="248.501,283.999 251.501,283.999 251.501,289.999 248.501,289.999 "/>
    <polygon id="_123886256" class="fil0 str0" points="248.501,264 251.501,264 251.501,270 248.501,270 "/>
    <polygon id="_123886328" class="fil0 str0" points="197,315.5 203,315.5 203,318.5 197,318.5 "/>
    <polygon id="_123886400" class="fil0 str0" points="197,295.499 203,295.499 203,298.499 197,298.499 "/>
    <polygon id="_123886472" class="fil0 str0" points="197,275.499 203,275.499 203,278.499 197,278.499 "/>
    <polygon id="_123886544" class="fil0 str0" points="217,315.5 223,315.5 223,318.5 217,318.5 "/>
    <polygon id="_123886616" class="fil0 str0" points="217,295.499 223,295.499 223,298.499 217,298.499 "/>
    <polygon id="_123886688" class="fil0 str0" points="217,275.499 223,275.499 223,278.499 217,278.499 "/>
    <polygon id="_123885848" class="fil0 str0" points="237.001,315.5 243.001,315.5 243.001,318.5 237.001,318.5 "/>
    <polygon id="_123886832" class="fil0 str0" points="237.001,295.499 243.001,295.499 243.001,298.499 237.001,298.499 "/>
    <polygon id="_123886904" class="fil0 str0" points="237.001,275.499 243.001,275.499 243.001,278.499 237.001,278.499 "/>
    <polygon id="_123886976" class="fil0 str0" points="257,315.5 263,315.5 263,318.5 257,318.5 "/>
    <polygon id="_123887048" class="fil0 str0" points="257,295.499 263,295.499 263,298.499 257,298.499 "/>
    <polygon id="_123887096" class="fil0 str0" points="257,275.499 263,275.499 263,278.499 257,278.499 "/>
    <circle id="_123887168" class="fil1 str0" cx="229.998" cy="296.998" r="256.498"/>
    <g>
     <path id="_123887264" class="fil1 str1" d="M222.045 287.984c-0.2928,-0.2928 -0.7679,-0.2928 -1.0607,0 -0.2928,0.2928 -0.2928,0.7678 0,1.0606l2.8285 2.8285c0.2928,0.2928 0.7678,0.2928 1.0606,0 0.2928,-0.2928 0.2928,-0.7679 0,-1.0607l-2.8284 -2.8284z"/>
     <path id="_123887336" class="fil1 str1" d="M219.217 308.844c-0.2928,0.2929 -0.7679,0.2929 -1.0607,0 -0.2928,-0.2928 -0.2928,-0.7678 0,-1.0606l6.0104 -6.0104c0.2928,-0.2928 0.7679,-0.2928 1.0607,0 0.2928,0.2928 0.2928,0.7678 0,1.0606l-6.0104 6.0104z"/>
     <path id="_123887408" class="fil1 str2" d="M229.204 300.447l-2.6516 -2.6516 -9.2808 -10.5182c-0.8276,-0.8276 -0.8276,-2.1776 0,-3.0052 0.8276,-0.8276 2.1776,-0.8276 3.0052,0l10.5182 9.2808 2.6516 2.6516 9.2808 10.5182c0.8276,0.8276 0.8276,2.1776 0,3.0052 -0.8276,0.8276 -2.1776,0.8276 -3.0052,0l-10.5182 -9.2808z"/>
     <polygon id="_123887360" class="fil1 str2" points="219.587,283.098 228.247,289.393 228.516,289.673 228.756,289.982 229.059,290.228 229.412,290.402 229.804,290.491 230.196,290.491 230.577,290.402 230.935,290.234 231.243,289.981 231.484,289.673 231.747,289.388 240.407,283.103 240.782,282.874 241.191,282.722 241.622,282.638 242.065,282.633 242.502,282.711 242.916,282.857 243.303,283.075 243.639,283.355 243.924,283.697 244.143,284.084 244.289,284.498 244.361,284.929 244.356,285.372 244.277,285.809 244.126,286.217 243.896,286.593 237.606,295.247 237.326,295.515 237.018,295.756 236.766,296.064 236.598,296.423 236.509,296.804 236.508,297.196 236.592,297.582 236.766,297.935 237.018,298.243 237.326,298.484 237.606,298.753 243.896,307.407 244.126,307.782 244.283,308.196 244.361,308.633 244.367,309.076 244.294,309.507 244.148,309.922 243.93,310.308 243.65,310.644 243.308,310.93 242.922,311.148 242.507,311.294 242.076,311.367 241.633,311.361 241.197,311.283 240.782,311.126 240.407,310.896 231.753,304.606 231.484,304.326 231.243,304.018 230.935,303.766 230.582,303.592 230.196,303.508 229.804,303.508 229.423,303.598 229.065,303.766 228.756,304.018 228.516,304.326 228.252,304.601 219.593,310.896 219.218,311.126 218.809,311.277 218.372,311.355 217.93,311.361 217.498,311.288 217.084,311.143 216.697,310.924 216.356,310.639 216.076,310.302 215.857,309.916 215.711,309.502 215.633,309.065 215.639,308.622 215.723,308.191 215.874,307.782 216.104,307.407 222.394,298.742 222.674,298.484 222.982,298.243 223.234,297.935 223.402,297.577 223.491,297.196 223.491,296.804 223.402,296.412 223.228,296.059 222.982,295.756 222.674,295.515 222.394,295.247 216.098,286.587 215.868,286.212 215.711,285.798 215.633,285.361 215.633,284.924 215.7,284.487 215.851,284.078 216.07,283.691 216.356,283.35 216.692,283.07 217.078,282.851 217.487,282.7 217.924,282.633 218.361,282.633 218.798,282.711 219.212,282.868 "/>
     <circle id="_123887528" class="fil1 str1" transform="matrix(1.54897 -1.54897 1.54897 1.54897 230 297)" r="1.826"/>
     <path id="_123887600" class="fil1 str1" d="M235.834 292.227c-0.2928,0.2928 -0.7678,0.2928 -1.0606,0 -0.2928,-0.2929 -0.2928,-0.7679 0,-1.0607l6.0104 -6.0104c0.2928,-0.2928 0.7678,-0.2928 1.0607,0 0.2928,0.2928 0.2928,0.7678 0,1.0607l-6.0105 6.0104z"/>
     <path id="_123887672" class="fil1 str1" d="M236.187 302.126c-0.2929,-0.2929 -0.7679,-0.2929 -1.0607,0 -0.2928,0.2928 -0.2928,0.7678 0,1.0606l2.8284 2.8284c0.2928,0.2929 0.7679,0.2929 1.0607,0 0.2928,-0.2928 0.2928,-0.7678 0,-1.0606l-2.8284 -2.8284z"/>
    </g>
    <path id="_123887792" class="fil0 str3" d="M227 255.499l0.402 0c0.2633,-0.4552 0.6429,-0.8345 1.098,-1.0978l0 -0.4022 3 0 0 0.4019c0.4553,0.2633 0.8352,0.6428 1.0988,1.0981l0.4012 0 0 1.4542 0.0006 0.0465 -0.0006 0.0464 0 1.4529 -0.4007 0c-0.2635,0.4557 -0.6435,0.8358 -1.0993,1.0994l0 0.4006 -1.4328 0 -0.0667 0.0008 -0.0668 -0.0008 -1.4337 0 0 -0.401c-0.4554,-0.2636 -0.8352,-0.6435 -1.0985,-1.099l-0.4015 0 0 -3z"/>
    <path id="_123887864" class="fil0 str3" d="M227 275.499l0.402 0c0.2633,-0.4552 0.6429,-0.8345 1.098,-1.0978l0 -0.4022 3 0 0 0.4019c0.4553,0.2633 0.8352,0.6428 1.0988,1.0981l0.4012 0 0 1.4542 0.0006 0.0465 -0.0006 0.0464 0 1.4529 -0.4007 0c-0.2635,0.4557 -0.6435,0.8358 -1.0993,1.0994l0 0.4006 -1.4328 0 -0.0667 0.0008 -0.0668 -0.0008 -1.4337 0 0 -0.401c-0.4554,-0.2636 -0.8352,-0.6435 -1.0985,-1.099l-0.4015 0 0 -3z"/>
    <path id="_123887912" class="fil0 str3" d="M247 275.499l0.402 0c0.2633,-0.4552 0.6429,-0.8345 1.098,-1.0978l0 -0.4022 3 0 0 0.4019c0.4553,0.2633 0.8352,0.6428 1.0988,1.0981l0.4012 0 0 1.4542 0.0006 0.0465 -0.0006 0.0464 0 1.4529 -0.4007 0c-0.2635,0.4557 -0.6435,0.8358 -1.0993,1.0994l0 0.4006 -1.4328 0 -0.0667 0.0008 -0.0668 -0.0008 -1.4337 0 0 -0.401c-0.4554,-0.2636 -0.8352,-0.6435 -1.0985,-1.099l-0.4015 0 0 -3z"/>
    <path id="_123887984" class="fil0 str3" d="M207 275.499l0.402 0c0.2633,-0.4552 0.6429,-0.8345 1.098,-1.0978l0 -0.4022 3 0 0 0.4019c0.4553,0.2633 0.8352,0.6428 1.0988,1.0981l0.4012 0 0 1.4542 0.0006 0.0465 -0.0006 0.0464 0 1.4529 -0.4007 0c-0.2635,0.4557 -0.6435,0.8358 -1.0993,1.0994l0 0.4006 -1.4328 0 -0.0667 0.0008 -0.0668 -0.0008 -1.4337 0 0 -0.401c-0.4554,-0.2636 -0.8352,-0.6435 -1.0985,-1.099l-0.4015 0 0 -3z"/>
    <path id="_123888056" class="fil0 str3" d="M207 295.499l0.402 0c0.2633,-0.4552 0.6429,-0.8345 1.098,-1.0978l0 -0.4022 3 0 0 0.4019c0.4553,0.2633 0.8352,0.6428 1.0988,1.0981l0.4012 0 0 1.4542 0.0006 0.0465 -0.0006 0.0464 0 1.4529 -0.4007 0c-0.2635,0.4557 -0.6435,0.8358 -1.0993,1.0994l0 0.4006 -1.4328 0 -0.0667 0.0008 -0.0668 -0.0008 -1.4337 0 0 -0.401c-0.4554,-0.2636 -0.8352,-0.6435 -1.0985,-1.099l-0.4015 0 0 -3z"/>
    <path id="_123888128" class="fil0 str3" d="M187 295.499l0.402 0c0.2633,-0.4552 0.6429,-0.8345 1.098,-1.0978l0 -0.4022 3 0 0 0.4019c0.4553,0.2633 0.8352,0.6428 1.0988,1.0981l0.4012 0 0 1.4542 0.0006 0.0465 -0.0006 0.0464 0 1.4529 -0.4007 0c-0.2635,0.4557 -0.6435,0.8358 -1.0993,1.0994l0 0.4006 -1.4328 0 -0.0667 0.0008 -0.0668 -0.0008 -1.4337 0 0 -0.401c-0.4554,-0.2636 -0.8352,-0.6435 -1.0985,-1.099l-0.4015 0 0 -3z"/>
    <path id="_123888200" class="fil0 str3" d="M207 315.499l0.402 0c0.2633,-0.4552 0.6429,-0.8345 1.098,-1.0978l0 -0.4022 3 0 0 0.4019c0.4553,0.2633 0.8352,0.6428 1.0988,1.0981l0.4012 0 0 1.4542 0.0006 0.0465 -0.0006 0.0464 0 1.4529 -0.4007 0c-0.2635,0.4557 -0.6435,0.8358 -1.0993,1.0994l0 0.4006 -1.4328 0 -0.0667 0.0008 -0.0668 -0.0008 -1.4337 0 0 -0.401c-0.4554,-0.2636 -0.8352,-0.6435 -1.0985,-1.099l-0.4015 0 0 -3z"/>
    <path id="_123888272" class="fil0 str3" d="M247 295.499l0.402 0c0.2633,-0.4552 0.6429,-0.8345 1.098,-1.0978l0 -0.4022 3 0 0 0.4019c0.4553,0.2633 0.8352,0.6428 1.0988,1.0981l0.4012 0 0 1.4542 0.0006 0.0465 -0.0006 0.0464 0 1.4529 -0.4007 0c-0.2635,0.4557 -0.6435,0.8358 -1.0993,1.0994l0 0.4006 -1.4328 0 -0.0667 0.0008 -0.0668 -0.0008 -1.4337 0 0 -0.401c-0.4554,-0.2636 -0.8352,-0.6435 -1.0985,-1.099l-0.4015 0 0 -3z"/>
    <path id="_123888344" class="fil0 str3" d="M227 315.499l0.402 0c0.2633,-0.4552 0.6429,-0.8345 1.098,-1.0978l0 -0.4022 3 0 0 0.4019c0.4553,0.2633 0.8352,0.6428 1.0988,1.0981l0.4012 0 0 1.4542 0.0006 0.0465 -0.0006 0.0464 0 1.4529 -0.4007 0c-0.2635,0.4557 -0.6435,0.8358 -1.0993,1.0994l0 0.4006 -1.4328 0 -0.0667 0.0008 -0.0668 -0.0008 -1.4337 0 0 -0.401c-0.4554,-0.2636 -0.8352,-0.6435 -1.0985,-1.099l-0.4015 0 0 -3z"/>
    <path id="_123888416" class="fil0 str3" d="M227 335.499l0.402 0c0.2633,-0.4552 0.6429,-0.8345 1.098,-1.0978l0 -0.4022 3 0 0 0.4019c0.4553,0.2633 0.8352,0.6428 1.0988,1.0981l0.4012 0 0 1.4542 0.0006 0.0465 -0.0006 0.0464 0 1.4529 -0.4007 0c-0.2635,0.4557 -0.6435,0.8358 -1.0993,1.0994l0 0.4006 -1.4328 0 -0.0667 0.0008 -0.0668 -0.0008 -1.4337 0 0 -0.401c-0.4554,-0.2636 -0.8352,-0.6435 -1.0985,-1.099l-0.4015 0 0 -3z"/>
    <path id="_123888488" class="fil0 str3" d="M247 315.499l0.402 0c0.2633,-0.4552 0.6429,-0.8345 1.098,-1.0978l0 -0.4022 3 0 0 0.4019c0.4553,0.2633 0.8352,0.6428 1.0988,1.0981l0.4012 0 0 1.4542 0.0006 0.0465 -0.0006 0.0464 0 1.4529 -0.4007 0c-0.2635,0.4557 -0.6435,0.8358 -1.0993,1.0994l0 0.4006 -1.4328 0 -0.0667 0.0008 -0.0668 -0.0008 -1.4337 0 0 -0.401c-0.4554,-0.2636 -0.8352,-0.6435 -1.0985,-1.099l-0.4015 0 0 -3z"/>
    <path id="_123888560" class="fil0 str3" d="M267 295.499l0.402 0c0.2633,-0.4552 0.6429,-0.8345 1.098,-1.0978l0 -0.4022 3 0 0 0.4019c0.4553,0.2633 0.8352,0.6428 1.0988,1.0981l0.4012 0 0 1.4542 0.0006 0.0465 -0.0006 0.0464 0 1.4529 -0.4007 0c-0.2635,0.4557 -0.6435,0.8358 -1.0993,1.0994l0 0.4006 -1.4328 0 -0.0667 0.0008 -0.0668 -0.0008 -1.4337 0 0 -0.401c-0.4554,-0.2636 -0.8352,-0.6435 -1.0985,-1.099l-0.4015 0 0 -3z"/>
   </g>
   <path id="_123888656" class="fil0 str2" d="M81.4781 122.289l7.5744 10.9315 4.5903 -5.2805 -7.6053 -10.896 5.0686 -5.8308 7.5358 10.9759 4.3589 -5.0143 5.5911 4.8603 -5.5623 6.3987 5.9405 8.5452 4.6366 -5.3338 5.5911 4.8603 -5.8324 6.7094 7.5787 10.8728 -4.9992 5.7509 -7.5709 -10.8817 -4.6366 5.3337 7.5787 10.8729 -4.9992 5.7509 -7.5786 -10.8729 -4.6752 5.3782 -5.5911 -4.8603 5.8786 -6.7626 -5.9405 -8.5452 -4.9529 5.6977 -5.5911 -4.8603 6.1949 -7.1265 -7.6052 -10.896 5.0223 -5.7775zm16.56 11.8869l-4.6366 5.3337 5.9406 8.5451 4.6366 -5.3337 -5.9406 -8.5451zm8.5933 -37.9159l10.2816 -6.4246 17.1638 15.8842 -6.7924 -22.365 10.3413 -6.4619 27.2564 43.6193 -7.4195 4.6362 -21.835 -34.9434 7.3036 21.9624 -6.8611 4.2873 -16.5978 -16.1547 21.835 34.9434 -7.4195 4.6362 -27.2564 -43.6194zm86.881 -29.0367l-21.1384 5.664 2.8701 10.7111 19.2414 -5.1557 2.3192 8.6553 -19.2415 5.1557 5.804 21.6608 -9.8138 2.6296 -13.3123 -49.6824 30.9521 -8.2936 2.3192 8.6552zm18.3756 21.3193l-0.5664 -32.4506 10.1584 -0.1773 0.611 35.002c0.0449,2.5749 0.7385,4.5739 2.069,6.0091 1.3305,1.4351 3.1657,2.1322 5.4819,2.0918 2.3163,-0.0404 4.1259,-0.8012 5.4055,-2.2819 1.2797,-1.4807 1.903,-3.5027 1.858,-6.0776l-0.6109 -35.002 10.1584 -0.1773 0.5665 32.4505c0.1219,6.984 -1.1771,12.0757 -3.8964,15.2987 -2.7313,3.2113 -7.1714,4.8766 -13.3206,4.9839 -6.1257,0.1069 -10.6212,-1.4023 -13.463,-4.5164 -2.8418,-3.1259 -4.3295,-8.169 -4.4514,-15.1529zm56.3575 -29.5981l9.8138 2.6296 -5.2592 19.6276 20.6388 -15.5066 11.1086 2.9765 -20.9187 15.3708 8.1743 34.4638 -10.9155 -2.9248 -5.7862 -25.5212 -5.8439 4.3629 -4.5105 16.8334 -9.8138 -2.6296 13.3123 -49.6824zm30.427 64.034l27.2564 -43.6194 8.6161 5.384 -22.508 36.0203 18.439 11.5219 -4.7484 7.5991 -27.0551 -16.9059zm55.8091 46.3112c-1.6781,-0.6758 -3.2517,-1.536 -4.7272,-2.6061 -1.4679,-1.0612 -2.8466,-2.3246 -4.1272,-3.7978 -4.5517,-5.2361 -6.3094,-10.7353 -5.2487,-16.4876 1.0531,-5.7611 4.836,-11.4647 11.3591,-17.135 6.5318,-5.6781 12.7153,-8.6382 18.5669,-8.8792 5.8439,-0.2498 11.0449,2.256 15.5967,7.4922 1.2806,1.4732 2.3474,3.0232 3.2095,4.6421 0.8698,1.6279 1.4949,3.297 1.8997,5.0174l-8.5287 7.4139c0.0741,-2.3704 -0.1571,-4.4287 -0.6614,-6.1561 -0.521,-1.7284 -1.3479,-3.2533 -2.4975,-4.5757 -2.4378,-2.8044 -5.3999,-3.9535 -8.8695,-3.4459 -3.4697,0.5076 -7.396,2.6586 -11.7801,6.4697 -4.3753,3.8034 -7.043,7.3845 -8.0285,10.7497 -0.9856,3.3652 -0.2599,6.4584 2.1779,9.2628 1.1496,1.3224 2.5444,2.3535 4.1836,3.1099 1.6404,0.7399 3.6465,1.2553 6.0041,1.5118l-8.5287 7.4139z"/>
   <path id="_123888752" class="fil0 str2" d="M378.518 471.707l-7.5744 -10.9315 -4.5903 5.2805 7.6053 10.896 -5.0686 5.8308 -7.5358 -10.9759 -4.3589 5.0143 -5.5911 -4.8603 5.5623 -6.3987 -5.9405 -8.5452 -4.6366 5.3338 -5.5911 -4.8603 5.8324 -6.7094 -7.5787 -10.8728 4.9992 -5.7509 7.5709 10.8817 4.6366 -5.3337 -7.5787 -10.8729 4.9992 -5.7509 7.5786 10.8729 4.6752 -5.3782 5.5911 4.8603 -5.8786 6.7626 5.9405 8.5452 4.9529 -5.6977 5.5911 4.8603 -6.1949 7.1265 7.6052 10.896 -5.0223 5.7775zm-16.56 -11.8869l4.6366 -5.3337 -5.9406 -8.5451 -4.6366 5.3337 5.9406 8.5451zm-8.5933 37.9159l-10.2816 6.4246 -17.1638 -15.8842 6.7924 22.365 -10.3413 6.4619 -27.2564 -43.6193 7.4195 -4.6362 21.835 34.9434 -7.3036 -21.9624 6.8611 -4.2873 16.5978 16.1547 -21.835 -34.9434 7.4195 -4.6362 27.2564 43.6194zm-86.881 29.0367l21.1384 -5.664 -2.8701 -10.7111 -19.2414 5.1557 -2.3192 -8.6553 19.2415 -5.1557 -5.804 -21.6608 9.8138 -2.6296 13.3123 49.6824 -30.9521 8.2936 -2.3192 -8.6552zm-18.3756 -21.3193l0.5664 32.4506 -10.1584 0.1773 -0.611 -35.002c-0.0449,-2.5749 -0.7385,-4.5739 -2.069,-6.0091 -1.3305,-1.4351 -3.1657,-2.1322 -5.4819,-2.0918 -2.3163,0.0404 -4.1259,0.8012 -5.4055,2.2819 -1.2797,1.4807 -1.903,3.5027 -1.858,6.0776l0.6109 35.002 -10.1584 0.1773 -0.5665 -32.4505c-0.1219,-6.984 1.1771,-12.0757 3.8964,-15.2987 2.7313,-3.2113 7.1714,-4.8766 13.3206,-4.9839 6.1257,-0.1069 10.6212,1.4023 13.463,4.5164 2.8418,3.1259 4.3295,8.169 4.4514,15.1529zm-56.3575 29.5981l-9.8138 -2.6296 5.2592 -19.6276 -20.6388 15.5066 -11.1086 -2.9765 20.9187 -15.3708 -8.1743 -34.4638 10.9155 2.9248 5.7862 25.5212 5.8439 -4.3629 4.5105 -16.8334 9.8138 2.6296 -13.3123 49.6824zm-30.427 -64.034l-27.2564 43.6194 -8.6161 -5.384 22.508 -36.0203 -18.439 -11.5219 4.7484 -7.5991 27.0551 16.9059zm-55.8091 -46.3112c1.6781,0.6758 3.2517,1.536 4.7272,2.6061 1.4679,1.0612 2.8466,2.3246 4.1272,3.7978 4.5517,5.2361 6.3094,10.7353 5.2487,16.4876 -1.0531,5.7611 -4.836,11.4647 -11.3591,17.135 -6.5318,5.6781 -12.7153,8.6382 -18.5669,8.8792 -5.8439,0.2498 -11.0449,-2.256 -15.5967,-7.4922 -1.2806,-1.4732 -2.3474,-3.0232 -3.2095,-4.6421 -0.8698,-1.6279 -1.4949,-3.297 -1.8997,-5.0174l8.5287 -7.4139c-0.0741,2.3704 0.1571,4.4287 0.6614,6.1561 0.521,1.7284 1.3479,3.2533 2.4975,4.5757 2.4378,2.8044 5.3999,3.9535 8.8695,3.4459 3.4697,-0.5076 7.396,-2.6586 11.7801,-6.4697 4.3753,-3.8034 7.043,-7.3845 8.0285,-10.7497 0.9856,-3.3652 0.2599,-6.4584 -2.1779,-9.2628 -1.1496,-1.3224 -2.5444,-2.3535 -4.1836,-3.1099 -1.6404,-0.7399 -3.6465,-1.2553 -6.0041,-1.5118l8.5287 -7.4139z"/>
   <g>
    <path id="_123888680" class="fil1 str0" d="M60.0796 323.585l30.4047 -30.4047c1.9596,-1.9597 5.1137,-1.9588 7.0724,-0.0001l2.1214 2.1214c1.9584,1.9584 1.9584,5.1115 -0.0013,7.0712l-30.4047 30.4047c-1.9587,1.9587 -5.1127,1.9596 -7.0711,0.0012l-2.1214 -2.1214c-1.9587,-1.9587 -1.9587,-5.1137 0,-7.0723z"/>
    <path id="_123888872" class="fil1 str0" d="M150.068 233.597c3.7087,2.349 7.1986,5.0123 10.4292,7.9559l-6.3722 6.3722c-1.9586,1.9587 -5.1127,1.9596 -7.0711,0.0012l-2.1214 -2.1214c-1.9587,-1.9587 -1.9587,-5.1137 0,-7.0724l5.1355 -5.1355z"/>
    <path id="_123888944" class="fil1 str0" d="M102.506 281.159l30.4047 -30.4047c1.9597,-1.9597 5.1137,-1.9588 7.0724,-0.0001l2.1214 2.1214c1.9584,1.9584 1.9584,5.1115 -0.0013,7.0712l-30.4047 30.4047c-1.9586,1.9587 -5.1127,1.9596 -7.0711,0.0012l-2.1214 -2.1214c-1.9587,-1.9587 -1.9587,-5.1137 0,-7.0723z"/>
    <path id="_123889016" class="fil1 str0" d="M95.4349 316.514l30.4047 -30.4047c1.9597,-1.9597 5.1137,-1.9587 7.0724,-0.0001l2.1214 2.1214c1.9584,1.9584 1.9584,5.1116 -0.0013,7.0712l-30.4046 30.4047c-1.9587,1.9587 -5.1128,1.9596 -7.0712,0.0012l-2.1214 -2.1214c-1.9586,-1.9587 -1.9586,-5.1136 0,-7.0723z"/>
    <path id="_123889088" class="fil1 str0" d="M69.9314 360.403c-3.7086,-2.3491 -7.1987,-5.0121 -10.4291,-7.956l23.9109 -23.9109c1.9597,-1.9596 5.1137,-1.9587 7.0724,0l2.1214 2.1213c1.9584,1.9584 1.9584,5.1116 -0.0013,7.0713l-22.6743 22.6743z"/>
    <path id="_123889160" class="fil1 str0" d="M165.447 246.502c2.9438,3.2304 5.6069,6.7203 7.9561,10.4289l-26.3488 26.3489c-1.9587,1.9587 -5.1128,1.9596 -7.0712,0.0012l-2.1214 -2.1214c-1.9586,-1.9587 -1.9586,-5.1136 0,-7.0723l27.5853 -27.5853z"/>
    <path id="_123889232" class="fil1 str0" d="M54.5527 347.497c-2.9436,-3.2306 -5.6069,-6.7204 -7.9559,-10.4291l1.4611 -1.4611c1.9596,-1.9597 5.1137,-1.9588 7.0724,-0.0001l2.1214 2.1214c1.9584,1.9584 1.9584,5.1115 -0.0013,7.0712l-2.6977 2.6977z"/>
    <path id="_123889304" class="fil1 str0" d="M35.4896 305.561c-0.3195,-2.81 -0.4895,-5.6652 -0.4895,-8.5605 0,-1.7076 0.0626,-3.4004 0.175,-5.0796l27.0249 -27.0249c1.9597,-1.9597 5.1137,-1.9587 7.0724,-0.0001l2.1214 2.1214c1.9584,1.9584 1.9584,5.1116 -0.0013,7.0712l-30.4046 30.4047c-1.4916,1.4916 -3.6763,1.8475 -5.4983,1.0678z"/>
    <path id="_123889376" class="fil1 str0" d="M110.001 222c0.3934,0 0.7847,0.0088 1.1767,0.0149 0.1813,0.1377 0.3558,0.289 0.5215,0.4547l2.1214 2.1214c1.9584,1.9584 1.9584,5.1116 -0.0013,7.0712l-30.4046 30.4047c-1.9587,1.9587 -5.1128,1.9596 -7.0712,0.0012l-2.1214 -2.1214c-1.9587,-1.9587 -1.9587,-5.1136 0,-7.0723l30.4047 -30.4047c0.1045,-0.1045 0.2127,-0.2032 0.3237,-0.2966 1.6697,-0.1112 3.3527,-0.1731 5.0505,-0.1731z"/>
    <path id="_123889448" class="fil1 str0" d="M67.1507 288.23l30.4046 -30.4047c1.9597,-1.9596 5.1138,-1.9587 7.0725,0l2.1213 2.1214c1.9584,1.9584 1.9584,5.1115 -0.0012,7.0712l-30.4047 30.4046c-1.9587,1.9587 -5.1127,1.9597 -7.0711,0.0013l-2.1214 -2.1214c-1.9587,-1.9587 -1.9587,-5.1137 0,-7.0724z"/>
    <path id="_123889520" class="fil1 str0" d="M43.0132 330.752c-2.119,-4.1961 -3.8586,-8.6164 -5.1663,-13.2188l17.282 -17.282c1.9597,-1.9597 5.1138,-1.9588 7.0724,-0.0001l2.1214 2.1214c1.9584,1.9584 1.9584,5.1115 -0.0012,7.0712l-21.3083 21.3083z"/>
    <path id="_123885104" class="fil1 str0" d="M130.534 224.847c4.6024,1.3077 9.0226,3.0475 13.2188,5.1664l-24.9828 24.9827c-1.9587,1.9587 -5.1127,1.9596 -7.0711,0.0012l-2.1214 -2.1213c-1.9587,-1.9587 -1.9587,-5.1137 0,-7.0724l20.9565 -20.9566z"/>
    <path id="_123873344" class="fil1 str0" d="M88.3639 351.869l30.4046 -30.4046c1.9597,-1.9597 5.1138,-1.9588 7.0725,-0.0001l2.1213 2.1214c1.9584,1.9584 1.9584,5.1115 -0.0012,7.0712l-30.4047 30.4047c-1.9587,1.9586 -5.1127,1.9596 -7.0711,0.0012l-2.1214 -2.1214c-1.9587,-1.9587 -1.9587,-5.1137 0,-7.0724z"/>
    <path id="_123873440" class="fil1 str0" d="M176.986 263.247c2.1168,4.1919 3.8543,8.6079 5.1623,13.2048 -1.9686,1.7122 -4.9368,1.6325 -6.8106,-0.2414l-2.1214 -2.1213c-1.9587,-1.9587 -1.9587,-5.1137 0,-7.0724l3.7697 -3.7697z"/>
    <path id="_123873560" class="fil1 str0" d="M130.79 309.443l30.4047 -30.4046c1.9596,-1.9597 5.1137,-1.9588 7.0724,-0.0001l2.1214 2.1214c1.9584,1.9584 1.9584,5.1115 -0.0013,7.0712l-30.4047 30.4047c-1.9587,1.9586 -5.1127,1.9596 -7.0711,0.0012l-2.1214 -2.1214c-1.9587,-1.9587 -1.9587,-5.1137 0,-7.0724z"/>
    <path id="_123873656" class="fil1 str0" d="M123.719 344.798l30.4047 -30.4047c1.9597,-1.9597 5.1137,-1.9588 7.0724,-0.0001l2.1214 2.1214c1.9584,1.9584 1.9584,5.1115 -0.0013,7.0712l-30.4047 30.4047c-1.9586,1.9587 -5.1127,1.9596 -7.0711,0.0012l-2.1214 -2.1214c-1.9587,-1.9587 -1.9587,-5.1137 0,-7.0723z"/>
    <path id="_123873776" class="fil1 str0" d="M115.077 371.825c-1.6783,0.1123 -3.3701,0.1748 -5.0767,0.1748 -4.2414,0 -8.3988,-0.3579 -12.4484,-1.0347l14.1453 -14.1453c1.9597,-1.9597 5.1137,-1.9588 7.0724,-0.0001l2.1214 2.1214c1.9584,1.9584 1.9584,5.1116 -0.0013,7.0712l-5.8127 5.8127z"/>
    <path id="_123873872" class="fil1 str0" d="M183.965 284.552c0.6768,4.0496 1.0347,8.207 1.0347,12.4485 0,1.7066 -0.0625,3.3984 -0.1748,5.0766l-9.4872 9.4872c-1.9586,1.9587 -5.1127,1.9596 -7.0711,0.0012l-2.1214 -2.1214c-1.9587,-1.9587 -1.9587,-5.1137 0,-7.0723l17.8198 -17.8198z"/>
    <path id="_123873992" class="fil1 str0" d="M86.8602 368.355c-3.6693,-1.1901 -7.2157,-2.6528 -10.6133,-4.3685l0.0952 -0.0952c1.9597,-1.9597 5.1138,-1.9588 7.0724,-0.0001l2.1214 2.1214c0.6722,0.6722 1.1136,1.4852 1.3243,2.3424z"/>
    <path id="_123874088" class="fil1 str0" d="M157.688 354.885c-8.8638,7.3106 -19.4352,12.6235 -31.0245,15.2539l20.3896 -20.3896c1.9597,-1.9596 5.1137,-1.9587 7.0724,0l2.1214 2.1213c0.846,0.846 1.3261,1.915 1.4411,3.0144z"/>
    <path id="_123874208" class="fil1 str0" d="M183.139 313.663c-3.0073,13.2499 -9.5245,25.1665 -18.5204,34.7248 -1.2402,-0.0279 -2.472,-0.5167 -3.4223,-1.467l-2.1214 -2.1214c-1.9586,-1.9587 -1.9586,-5.1136 0,-7.0723l24.0641 -24.0641z"/>
    <path id="_123874304" class="fil1 str0" d="M40.5362 268.688c6.9086,-16.9244 19.8202,-30.762 36.0912,-38.863l1.8375 1.8375c1.9584,1.9584 1.9584,5.1115 -0.0013,7.0712l-30.4047 30.4047c-1.9587,1.9587 -5.1127,1.9596 -7.0711,0.0012l-0.4516 -0.4516z"/>
    <path id="_123874424" class="fil1 str0" d="M36.9651 279.884c0.1691,-0.7237 0.351,-1.4425 0.5408,-2.158 -0.0153,0.7414 -0.1958,1.4801 -0.5408,2.158z"/>
    <path id="_123874520" class="fil1 str0" d="M83.5207 226.816c3.1748,-1.1987 6.4509,-2.1904 9.8141,-2.9539l-2.8495 2.8495c-1.9236,1.9236 -5,1.9587 -6.9646,0.1044z"/>
   </g>
   <g>
    <path id="_123874664" class="fil1 str0" d="M300.08 323.585l30.4047 -30.4047c1.9596,-1.9597 5.1137,-1.9588 7.0724,-0.0001l2.1214 2.1214c1.9584,1.9584 1.9584,5.1115 -0.0013,7.0712l-30.4047 30.4047c-1.9587,1.9587 -5.1127,1.9596 -7.0711,0.0012l-2.1214 -2.1214c-1.9587,-1.9587 -1.9587,-5.1137 0,-7.0723z"/>
    <path id="_123874784" class="fil1 str0" d="M390.068 233.597c3.7087,2.349 7.1986,5.0123 10.4292,7.9559l-6.3722 6.3722c-1.9586,1.9587 -5.1127,1.9596 -7.0711,0.0012l-2.1214 -2.1214c-1.9587,-1.9587 -1.9587,-5.1137 0,-7.0724l5.1355 -5.1355z"/>
    <path id="_123874880" class="fil1 str0" d="M342.506 281.159l30.4047 -30.4047c1.9597,-1.9597 5.1137,-1.9588 7.0724,-0.0001l2.1214 2.1214c1.9584,1.9584 1.9584,5.1115 -0.0013,7.0712l-30.4047 30.4047c-1.9586,1.9587 -5.1127,1.9596 -7.0711,0.0012l-2.1214 -2.1214c-1.9587,-1.9587 -1.9587,-5.1137 0,-7.0723z"/>
    <path id="_123875000" class="fil1 str0" d="M335.435 316.514l30.4047 -30.4047c1.9597,-1.9597 5.1137,-1.9587 7.0724,-0.0001l2.1214 2.1214c1.9584,1.9584 1.9584,5.1116 -0.0013,7.0712l-30.4046 30.4047c-1.9587,1.9587 -5.1128,1.9596 -7.0712,0.0012l-2.1214 -2.1214c-1.9586,-1.9587 -1.9586,-5.1136 0,-7.0723z"/>
    <path id="_123875096" class="fil1 str0" d="M309.931 360.403c-3.7086,-2.3491 -7.1987,-5.0121 -10.4291,-7.956l23.9109 -23.9109c1.9597,-1.9596 5.1137,-1.9587 7.0724,0l2.1214 2.1213c1.9584,1.9584 1.9584,5.1116 -0.0013,7.0713l-22.6743 22.6743z"/>
    <path id="_123875216" class="fil1 str0" d="M405.447 246.502c2.9438,3.2304 5.6069,6.7203 7.9561,10.4289l-26.3488 26.3489c-1.9587,1.9587 -5.1128,1.9596 -7.0712,0.0012l-2.1214 -2.1214c-1.9586,-1.9587 -1.9586,-5.1136 0,-7.0723l27.5853 -27.5853z"/>
    <path id="_123875312" class="fil1 str0" d="M294.553 347.497c-2.9436,-3.2306 -5.6069,-6.7204 -7.9559,-10.4291l1.4611 -1.4611c1.9596,-1.9597 5.1137,-1.9588 7.0724,-0.0001l2.1214 2.1214c1.9584,1.9584 1.9584,5.1115 -0.0013,7.0712l-2.6977 2.6977z"/>
    <path id="_123875432" class="fil1 str0" d="M275.49 305.561c-0.3195,-2.81 -0.4895,-5.6652 -0.4895,-8.5605 0,-1.7076 0.0626,-3.4004 0.175,-5.0796l27.0249 -27.0249c1.9597,-1.9597 5.1137,-1.9587 7.0724,-0.0001l2.1214 2.1214c1.9584,1.9584 1.9584,5.1116 -0.0013,7.0712l-30.4046 30.4047c-1.4916,1.4916 -3.6763,1.8475 -5.4983,1.0678z"/>
    <path id="_123875528" class="fil1 str0" d="M350.001 222c0.3934,0 0.7847,0.0088 1.1767,0.0149 0.1813,0.1377 0.3558,0.289 0.5215,0.4547l2.1214 2.1214c1.9584,1.9584 1.9584,5.1116 -0.0013,7.0712l-30.4046 30.4047c-1.9587,1.9587 -5.1128,1.9596 -7.0712,0.0012l-2.1214 -2.1214c-1.9587,-1.9587 -1.9587,-5.1136 0,-7.0723l30.4047 -30.4047c0.1045,-0.1045 0.2127,-0.2032 0.3237,-0.2966 1.6697,-0.1112 3.3527,-0.1731 5.0505,-0.1731z"/>
    <path id="_123875648" class="fil1 str0" d="M307.151 288.23l30.4046 -30.4047c1.9597,-1.9596 5.1138,-1.9587 7.0725,0l2.1213 2.1214c1.9584,1.9584 1.9584,5.1115 -0.0012,7.0712l-30.4047 30.4046c-1.9587,1.9587 -5.1127,1.9597 -7.0711,0.0013l-2.1214 -2.1214c-1.9587,-1.9587 -1.9587,-5.1137 0,-7.0724z"/>
    <path id="_123875744" class="fil1 str0" d="M283.013 330.752c-2.119,-4.1961 -3.8586,-8.6164 -5.1663,-13.2188l17.282 -17.282c1.9597,-1.9597 5.1138,-1.9588 7.0724,-0.0001l2.1214 2.1214c1.9584,1.9584 1.9584,5.1115 -0.0012,7.0712l-21.3083 21.3083z"/>
    <path id="_123875864" class="fil1 str0" d="M370.534 224.847c4.6024,1.3077 9.0226,3.0475 13.2188,5.1664l-24.9828 24.9827c-1.9587,1.9587 -5.1127,1.9596 -7.0711,0.0012l-2.1214 -2.1213c-1.9587,-1.9587 -1.9587,-5.1137 0,-7.0724l20.9565 -20.9566z"/>
    <path id="_123875960" class="fil1 str0" d="M328.364 351.869l30.4046 -30.4046c1.9597,-1.9597 5.1138,-1.9588 7.0725,-0.0001l2.1213 2.1214c1.9584,1.9584 1.9584,5.1115 -0.0012,7.0712l-30.4047 30.4047c-1.9587,1.9586 -5.1127,1.9596 -7.0711,0.0012l-2.1214 -2.1214c-1.9587,-1.9587 -1.9587,-5.1137 0,-7.0724z"/>
    <path id="_123876080" class="fil1 str0" d="M416.986 263.247c2.1168,4.1919 3.8543,8.6079 5.1623,13.2048 -1.9686,1.7122 -4.9368,1.6325 -6.8106,-0.2414l-2.1214 -2.1213c-1.9587,-1.9587 -1.9587,-5.1137 0,-7.0724l3.7697 -3.7697z"/>
    <path id="_123876176" class="fil1 str0" d="M370.79 309.443l30.4047 -30.4046c1.9596,-1.9597 5.1137,-1.9588 7.0724,-0.0001l2.1214 2.1214c1.9584,1.9584 1.9584,5.1115 -0.0013,7.0712l-30.4047 30.4047c-1.9587,1.9586 -5.1127,1.9596 -7.0711,0.0012l-2.1214 -2.1214c-1.9587,-1.9587 -1.9587,-5.1137 0,-7.0724z"/>
    <path id="_123876296" class="fil1 str0" d="M363.719 344.798l30.4047 -30.4047c1.9597,-1.9597 5.1137,-1.9588 7.0724,-0.0001l2.1214 2.1214c1.9584,1.9584 1.9584,5.1115 -0.0013,7.0712l-30.4047 30.4047c-1.9586,1.9587 -5.1127,1.9596 -7.0711,0.0012l-2.1214 -2.1214c-1.9587,-1.9587 -1.9587,-5.1137 0,-7.0723z"/>
    <path id="_123876392" class="fil1 str0" d="M355.077 371.825c-1.6783,0.1123 -3.3701,0.1748 -5.0767,0.1748 -4.2414,0 -8.3988,-0.3579 -12.4484,-1.0347l14.1453 -14.1453c1.9597,-1.9597 5.1137,-1.9588 7.0724,-0.0001l2.1214 2.1214c1.9584,1.9584 1.9584,5.1116 -0.0013,7.0712l-5.8127 5.8127z"/>
    <path id="_123876512" class="fil1 str0" d="M423.965 284.552c0.6768,4.0496 1.0347,8.207 1.0347,12.4485 0,1.7066 -0.0625,3.3984 -0.1748,5.0766l-9.4872 9.4872c-1.9586,1.9587 -5.1127,1.9596 -7.0711,0.0012l-2.1214 -2.1214c-1.9587,-1.9587 -1.9587,-5.1137 0,-7.0723l17.8198 -17.8198z"/>
    <path id="_123876608" class="fil1 str0" d="M326.86 368.355c-3.6693,-1.1901 -7.2157,-2.6528 -10.6133,-4.3685l0.0952 -0.0952c1.9597,-1.9597 5.1138,-1.9588 7.0724,-0.0001l2.1214 2.1214c0.6722,0.6722 1.1136,1.4852 1.3243,2.3424z"/>
    <path id="_123876800" class="fil1 str0" d="M397.688 354.885c-8.8638,7.3106 -19.4352,12.6235 -31.0245,15.2539l20.3896 -20.3896c1.9597,-1.9596 5.1137,-1.9587 7.0724,0l2.1214 2.1213c0.846,0.846 1.3261,1.915 1.4411,3.0144z"/>
    <path id="_123876872" class="fil1 str0" d="M423.139 313.663c-3.0073,13.2499 -9.5245,25.1665 -18.5204,34.7248 -1.2402,-0.0279 -2.472,-0.5167 -3.4223,-1.467l-2.1214 -2.1214c-1.9586,-1.9587 -1.9586,-5.1136 0,-7.0723l24.0641 -24.0641z"/>
    <path id="_123877112" class="fil1 str0" d="M280.536 268.688c6.9086,-16.9244 19.8202,-30.762 36.0912,-38.863l1.8375 1.8375c1.9584,1.9584 1.9584,5.1115 -0.0013,7.0712l-30.4047 30.4047c-1.9587,1.9587 -5.1127,1.9596 -7.0711,0.0012l-0.4516 -0.4516z"/>
    <path id="_123877208" class="fil1 str0" d="M276.965 279.884c0.1691,-0.7237 0.351,-1.4425 0.5408,-2.158 -0.0153,0.7414 -0.1958,1.4801 -0.5408,2.158z"/>
    <path id="_123877472" class="fil1 str0" d="M323.521 226.816c3.1748,-1.1987 6.4509,-2.1904 9.8141,-2.9539l-2.8495 2.8495c-1.9236,1.9236 -5,1.9587 -6.9646,0.1044z"/>
   </g>
   <path id="_123877664" class="fil0 str3" d="M354.097 405.339l0.2843 -0.2842c-0.1357,-0.5081 -0.1355,-1.0447 0.0001,-1.5527l-0.2844 -0.2844 2.1214 -2.1213 0.2842 0.2842c0.5081,-0.1358 1.0451,-0.1361 1.5534,-0.0005l0.2837 -0.2837 1.0283 1.0282 0.0333 0.0325 0.0324 0.0332 1.0273 1.0274 -0.2833 0.2833c0.1359,0.5086 0.1359,1.0461 0,1.5547l0.2833 0.2833 -1.0131 1.0132 -0.0466 0.0477 -0.0478 0.0467 -1.0138 1.0137 -0.2836 -0.2835c-0.5084,0.1356 -1.0456,0.1355 -1.5538,-0.0004l-0.2839 0.2839 -2.1214 -2.1213z"/>
   <path id="_123877760" class="fil0 str3" d="M99.5385 190.781l0.2843 -0.2843c-0.1357,-0.508 -0.1355,-1.0447 0.0001,-1.5527l-0.2844 -0.2844 2.1213 -2.1213 0.2842 0.2842c0.5081,-0.1358 1.0451,-0.136 1.5535,-0.0005l0.2836 -0.2837 1.0283 1.0283 0.0333 0.0325 0.0324 0.0332 1.0274 1.0273 -0.2834 0.2834c0.1359,0.5085 0.136,1.046 0.0001,1.5547l0.2833 0.2833 -1.0132 1.0131 -0.0466 0.0477 -0.0478 0.0467 -1.0138 1.0138 -0.2835 -0.2836c-0.5084,0.1357 -1.0456,0.1356 -1.5539,-0.0003l-0.2839 0.2839 -2.1213 -2.1213z"/>
   <path id="_123877904" class="fil0 str3" d="M358.34 192.903l-0.2842 -0.2843c-0.5081,0.1357 -1.0447,0.1355 -1.5527,-0.0001l-0.2844 0.2844 -2.1213 -2.1214 0.2842 -0.2842c-0.1358,-0.5081 -0.1361,-1.0451 -0.0005,-1.5534l-0.2837 -0.2837 1.0282 -1.0283 0.0325 -0.0333 0.0332 -0.0324 1.0274 -1.0273 0.2833 0.2833c0.5086,-0.1359 1.0461,-0.1359 1.5547,0l0.2833 -0.2833 1.0132 1.0131 0.0477 0.0466 0.0467 0.0478 1.0137 1.0138 -0.2835 0.2836c0.1356,0.5084 0.1355,1.0456 -0.0004,1.5538l0.2839 0.2839 -2.1213 2.1214z"/>
   <path id="_123878000" class="fil0 str3" d="M103.782 407.461l-0.2843 -0.2843c-0.508,0.1357 -1.0447,0.1355 -1.5527,-0.0001l-0.2844 0.2844 -2.1213 -2.1213 0.2842 -0.2842c-0.1358,-0.5081 -0.136,-1.0451 -0.0005,-1.5535l-0.2837 -0.2836 1.0283 -1.0283 0.0325 -0.0333 0.0332 -0.0324 1.0273 -1.0274 0.2834 0.2834c0.5085,-0.1359 1.046,-0.136 1.5547,-0.0001l0.2833 -0.2833 1.0131 1.0132 0.0477 0.0466 0.0467 0.0478 1.0138 1.0138 -0.2836 0.2835c0.1357,0.5084 0.1356,1.0456 -0.0003,1.5539l0.2839 0.2839 -2.1213 2.1213z"/>
   <path id="_123878120" class="fil0 str3" d="M227 135.499l0.402 0c0.2633,-0.4552 0.6429,-0.8345 1.098,-1.0978l0 -0.4022 3 0 0 0.4019c0.4553,0.2633 0.8352,0.6428 1.0988,1.0981l0.4012 0 0 1.4542 0.0006 0.0465 -0.0006 0.0464 0 1.4529 -0.4007 0c-0.2635,0.4557 -0.6435,0.8358 -1.0993,1.0994l0 0.4006 -1.4328 0 -0.0667 0.0008 -0.0668 -0.0008 -1.4337 0 0 -0.401c-0.4554,-0.2636 -0.8352,-0.6435 -1.0985,-1.099l-0.4015 0 0 -3z"/>
   <path id="_123878216" class="fil0 str3" d="M227 455.499l0.402 0c0.2633,-0.4552 0.6429,-0.8345 1.098,-1.0978l0 -0.4022 3 0 0 0.4019c0.4553,0.2633 0.8352,0.6428 1.0988,1.0981l0.4012 0 0 1.4542 0.0006 0.0465 -0.0006 0.0464 0 1.4529 -0.4007 0c-0.2635,0.4557 -0.6435,0.8358 -1.0993,1.0994l0 0.4006 -1.4328 0 -0.0667 0.0008 -0.0668 -0.0008 -1.4337 0 0 -0.401c-0.4554,-0.2636 -0.8352,-0.6435 -1.0985,-1.099l-0.4015 0 0 -3z"/>
  </g>
  <g id="_125080224">
   <g>
    <polygon id="_123878360" class="fil0 str0" points="-291.5,324 -288.5,324 -288.5,330 -291.5,330 "/>
    <polygon id="_123878480" class="fil0 str0" points="-291.5,304 -288.5,304 -288.5,310 -291.5,310 "/>
    <polygon id="_123878576" class="fil0 str0" points="-291.5,283.999 -288.5,283.999 -288.5,289.999 -291.5,289.999 "/>
    <polygon id="_123878696" class="fil0 str0" points="-291.5,264 -288.5,264 -288.5,270 -291.5,270 "/>
    <polygon id="_123878792" class="fil0 str0" points="-271.501,324 -268.501,324 -268.501,330 -271.501,330 "/>
    <polygon id="_123878912" class="fil0 str0" points="-271.501,304 -268.501,304 -268.501,310 -271.501,310 "/>
    <polygon id="_123879008" class="fil0 str0" points="-271.501,283.999 -268.501,283.999 -268.501,289.999 -271.501,289.999 "/>
    <polygon id="_123879128" class="fil0 str0" points="-271.501,264 -268.501,264 -268.501,270 -271.501,270 "/>
    <polygon id="_123879224" class="fil0 str0" points="-251.5,324 -248.499,324 -248.499,330 -251.5,330 "/>
    <polygon id="_123879344" class="fil0 str0" points="-251.5,304 -248.499,304 -248.499,310 -251.5,310 "/>
    <polygon id="_123879440" class="fil0 str0" points="-251.5,283.999 -248.499,283.999 -248.499,289.999 -251.5,289.999 "/>
    <polygon id="_123879560" class="fil0 str0" points="-251.5,264 -248.499,264 -248.499,270 -251.5,270 "/>
    <polygon id="_123879656" class="fil0 str0" points="-303,315.5 -297,315.5 -297,318.5 -303,318.5 "/>
    <polygon id="_123879776" class="fil0 str0" points="-303,295.499 -297,295.499 -297,298.499 -303,298.499 "/>
    <polygon id="_123879872" class="fil0 str0" points="-303,275.499 -297,275.499 -297,278.499 -303,278.499 "/>
    <polygon id="_123879992" class="fil0 str0" points="-283,315.5 -277,315.5 -277,318.5 -283,318.5 "/>
    <polygon id="_123881024" class="fil0 str0" points="-283,295.499 -277,295.499 -277,298.499 -283,298.499 "/>
    <polygon id="_123880952" class="fil0 str0" points="-283,275.499 -277,275.499 -277,278.499 -283,278.499 "/>
    <polygon id="_123880904" class="fil0 str0" points="-262.999,315.5 -256.999,315.5 -256.999,318.5 -262.999,318.5 "/>
    <polygon id="_123880784" class="fil0 str0" points="-262.999,295.499 -256.999,295.499 -256.999,298.499 -262.999,298.499 "/>
    <polygon id="_123880712" class="fil0 str0" points="-262.999,275.499 -256.999,275.499 -256.999,278.499 -262.999,278.499 "/>
    <polygon id="_123880640" class="fil0 str0" points="-243,315.5 -237,315.5 -237,318.5 -243,318.5 "/>
    <polygon id="_123880040" class="fil0 str0" points="-243,295.499 -237,295.499 -237,298.499 -243,298.499 "/>
    <polygon id="_123879896" class="fil0 str0" points="-243,275.499 -237,275.499 -237,278.499 -243,278.499 "/>
    <circle id="_123879680" class="fil1 str0" cx="-270.002" cy="296.998" r="216.498"/>
    <text x="-307.862" y="288.528" id="_123879320" class="fil1 str4 fnt0">CI-05</text>
    <g>
     <path id="_123879104" class="fil1 str1" d="M-277.955 287.984c-0.2928,-0.2928 -0.7679,-0.2928 -1.0607,0 -0.2928,0.2928 -0.2928,0.7678 0,1.0606l2.8285 2.8285c0.2928,0.2928 0.7678,0.2928 1.0606,0 0.2928,-0.2928 0.2928,-0.7679 0,-1.0607l-2.8284 -2.8284z"/>
     <path id="_123878888" class="fil1 str1" d="M-280.783 308.844c-0.2928,0.2929 -0.7679,0.2929 -1.0607,0 -0.2928,-0.2928 -0.2928,-0.7678 0,-1.0606l6.0104 -6.0104c0.2928,-0.2928 0.7679,-0.2928 1.0607,0 0.2928,0.2928 0.2928,0.7678 0,1.0606l-6.0104 6.0104z"/>
     <path id="_123878672" class="fil1 str2" d="M-270.796 300.447l-2.6516 -2.6516 -9.2808 -10.5182c-0.8276,-0.8276 -0.8276,-2.1776 0,-3.0052 0.8276,-0.8276 2.1776,-0.8276 3.0052,0l10.5182 9.2808 2.6516 2.6516 9.2808 10.5182c0.8276,0.8276 0.8276,2.1776 0,3.0052 -0.8276,0.8276 -2.1776,0.8276 -3.0052,0l-10.5182 -9.2808z"/>
     <polygon id="_123878456" class="fil1 str2" points="-280.413,283.098 -271.753,289.393 -271.484,289.673 -271.244,289.982 -270.941,290.228 -270.588,290.402 -270.196,290.491 -269.804,290.491 -269.423,290.402 -269.065,290.234 -268.757,289.981 -268.516,289.673 -268.253,289.388 -259.593,283.103 -259.218,282.874 -258.809,282.722 -258.378,282.638 -257.935,282.633 -257.498,282.711 -257.084,282.857 -256.697,283.075 -256.361,283.355 -256.076,283.697 -255.857,284.084 -255.712,284.498 -255.639,284.929 -255.644,285.372 -255.723,285.809 -255.874,286.217 -256.104,286.593 -262.394,295.247 -262.674,295.515 -262.982,295.756 -263.234,296.064 -263.402,296.423 -263.492,296.804 -263.492,297.196 -263.408,297.582 -263.234,297.935 -262.982,298.243 -262.674,298.484 -262.394,298.753 -256.104,307.407 -255.874,307.782 -255.717,308.196 -255.639,308.633 -255.633,309.076 -255.706,309.507 -255.852,309.922 -256.07,310.308 -256.35,310.644 -256.692,310.93 -257.078,311.148 -257.493,311.294 -257.924,311.367 -258.367,311.361 -258.804,311.283 -259.218,311.126 -259.593,310.896 -268.247,304.606 -268.516,304.326 -268.757,304.018 -269.065,303.766 -269.418,303.592 -269.804,303.508 -270.196,303.508 -270.577,303.598 -270.935,303.766 -271.244,304.018 -271.484,304.326 -271.748,304.601 -280.407,310.896 -280.782,311.126 -281.191,311.277 -281.628,311.355 -282.071,311.361 -282.502,311.288 -282.916,311.143 -283.303,310.924 -283.644,310.639 -283.925,310.302 -284.143,309.916 -284.289,309.502 -284.367,309.065 -284.361,308.622 -284.277,308.191 -284.126,307.782 -283.897,307.407 -277.607,298.742 -277.326,298.484 -277.018,298.243 -276.766,297.935 -276.598,297.577 -276.509,297.196 -276.509,296.804 -276.598,296.412 -276.772,296.059 -277.018,295.756 -277.326,295.515 -277.607,295.247 -283.902,286.587 -284.132,286.212 -284.289,285.798 -284.367,285.361 -284.367,284.924 -284.3,284.487 -284.149,284.078 -283.93,283.691 -283.644,283.35 -283.308,283.07 -282.922,282.851 -282.513,282.7 -282.076,282.633 -281.639,282.633 -281.202,282.711 -280.788,282.868 "/>
     <circle id="_123878240" class="fil1 str1" transform="matrix(1.54897 -1.54897 1.54897 1.54897 -270 297)" r="1.826"/>
     <path id="_123878024" class="fil1 str1" d="M-264.166 292.227c-0.2928,0.2928 -0.7678,0.2928 -1.0606,0 -0.2928,-0.2929 -0.2928,-0.7679 0,-1.0607l6.0104 -6.0104c0.2928,-0.2928 0.7678,-0.2928 1.0607,0 0.2928,0.2928 0.2928,0.7678 0,1.0607l-6.0105 6.0104z"/>
     <path id="_123877784" class="fil1 str1" d="M-263.813 302.126c-0.2929,-0.2929 -0.7679,-0.2929 -1.0607,0 -0.2928,0.2928 -0.2928,0.7678 0,1.0606l2.8284 2.8284c0.2928,0.2929 0.7679,0.2929 1.0607,0 0.2928,-0.2928 0.2928,-0.7678 0,-1.0606l-2.8284 -2.8284z"/>
    </g>
    <path id="_123877520" class="fil0 str3" d="M-273 255.499l0.402 0c0.2633,-0.4552 0.6429,-0.8345 1.098,-1.0978l0 -0.4022 3 0 0 0.4019c0.4553,0.2633 0.8352,0.6428 1.0988,1.0981l0.4012 0 0 1.4542 0.0006 0.0465 -0.0006 0.0464 0 1.4529 -0.4007 0c-0.2635,0.4557 -0.6435,0.8358 -1.0993,1.0994l0 0.4006 -1.4328 0 -0.0667 0.0008 -0.0668 -0.0008 -1.4337 0 0 -0.401c-0.4554,-0.2636 -0.8352,-0.6435 -1.0985,-1.099l-0.4015 0 0 -3z"/>
    <path id="_123877136" class="fil0 str3" d="M-273 275.499l0.402 0c0.2633,-0.4552 0.6429,-0.8345 1.098,-1.0978l0 -0.4022 3 0 0 0.4019c0.4553,0.2633 0.8352,0.6428 1.0988,1.0981l0.4012 0 0 1.4542 0.0006 0.0465 -0.0006 0.0464 0 1.4529 -0.4007 0c-0.2635,0.4557 -0.6435,0.8358 -1.0993,1.0994l0 0.4006 -1.4328 0 -0.0667 0.0008 -0.0668 -0.0008 -1.4337 0 0 -0.401c-0.4554,-0.2636 -0.8352,-0.6435 -1.0985,-1.099l-0.4015 0 0 -3z"/>
    <path id="_123876824" class="fil0 str3" d="M-253 275.499l0.402 0c0.2633,-0.4552 0.6429,-0.8345 1.098,-1.0978l0 -0.4022 3 0 0 0.4019c0.4553,0.2633 0.8352,0.6428 1.0988,1.0981l0.4012 0 0 1.4542 0.0006 0.0465 -0.0006 0.0464 0 1.4529 -0.4007 0c-0.2635,0.4557 -0.6435,0.8358 -1.0993,1.0994l0 0.4006 -1.4328 0 -0.0667 0.0008 -0.0668 -0.0008 -1.4337 0 0 -0.401c-0.4554,-0.2636 -0.8352,-0.6435 -1.0985,-1.099l-0.4015 0 0 -3z"/>
    <path id="_123876560" class="fil0 str3" d="M-293 275.499l0.402 0c0.2633,-0.4552 0.6429,-0.8345 1.098,-1.0978l0 -0.4022 3 0 0 0.4019c0.4553,0.2633 0.8352,0.6428 1.0988,1.0981l0.4012 0 0 1.4542 0.0006 0.0465 -0.0006 0.0464 0 1.4529 -0.4007 0c-0.2635,0.4557 -0.6435,0.8358 -1.0993,1.0994l0 0.4006 -1.4328 0 -0.0667 0.0008 -0.0668 -0.0008 -1.4337 0 0 -0.401c-0.4554,-0.2636 -0.8352,-0.6435 -1.0985,-1.099l-0.4015 0 0 -3z"/>
    <path id="_123876344" class="fil0 str3" d="M-293 295.499l0.402 0c0.2633,-0.4552 0.6429,-0.8345 1.098,-1.0978l0 -0.4022 3 0 0 0.4019c0.4553,0.2633 0.8352,0.6428 1.0988,1.0981l0.4012 0 0 1.4542 0.0006 0.0465 -0.0006 0.0464 0 1.4529 -0.4007 0c-0.2635,0.4557 -0.6435,0.8358 -1.0993,1.0994l0 0.4006 -1.4328 0 -0.0667 0.0008 -0.0668 -0.0008 -1.4337 0 0 -0.401c-0.4554,-0.2636 -0.8352,-0.6435 -1.0985,-1.099l-0.4015 0 0 -3z"/>
    <path id="_123876128" class="fil0 str3" d="M-313 295.499l0.402 0c0.2633,-0.4552 0.6429,-0.8345 1.098,-1.0978l0 -0.4022 3 0 0 0.4019c0.4553,0.2633 0.8352,0.6428 1.0988,1.0981l0.4012 0 0 1.4542 0.0006 0.0465 -0.0006 0.0464 0 1.4529 -0.4007 0c-0.2635,0.4557 -0.6435,0.8358 -1.0993,1.0994l0 0.4006 -1.4328 0 -0.0667 0.0008 -0.0668 -0.0008 -1.4337 0 0 -0.401c-0.4554,-0.2636 -0.8352,-0.6435 -1.0985,-1.099l-0.4015 0 0 -3z"/>
    <path id="_123875912" class="fil0 str3" d="M-293 315.499l0.402 0c0.2633,-0.4552 0.6429,-0.8345 1.098,-1.0978l0 -0.4022 3 0 0 0.4019c0.4553,0.2633 0.8352,0.6428 1.0988,1.0981l0.4012 0 0 1.4542 0.0006 0.0465 -0.0006 0.0464 0 1.4529 -0.4007 0c-0.2635,0.4557 -0.6435,0.8358 -1.0993,1.0994l0 0.4006 -1.4328 0 -0.0667 0.0008 -0.0668 -0.0008 -1.4337 0 0 -0.401c-0.4554,-0.2636 -0.8352,-0.6435 -1.0985,-1.099l-0.4015 0 0 -3z"/>
    <path id="_123875696" class="fil0 str3" d="M-253 295.499l0.402 0c0.2633,-0.4552 0.6429,-0.8345 1.098,-1.0978l0 -0.4022 3 0 0 0.4019c0.4553,0.2633 0.8352,0.6428 1.0988,1.0981l0.4012 0 0 1.4542 0.0006 0.0465 -0.0006 0.0464 0 1.4529 -0.4007 0c-0.2635,0.4557 -0.6435,0.8358 -1.0993,1.0994l0 0.4006 -1.4328 0 -0.0667 0.0008 -0.0668 -0.0008 -1.4337 0 0 -0.401c-0.4554,-0.2636 -0.8352,-0.6435 -1.0985,-1.099l-0.4015 0 0 -3z"/>
    <path id="_123875480" class="fil0 str3" d="M-273 315.499l0.402 0c0.2633,-0.4552 0.6429,-0.8345 1.098,-1.0978l0 -0.4022 3 0 0 0.4019c0.4553,0.2633 0.8352,0.6428 1.0988,1.0981l0.4012 0 0 1.4542 0.0006 0.0465 -0.0006 0.0464 0 1.4529 -0.4007 0c-0.2635,0.4557 -0.6435,0.8358 -1.0993,1.0994l0 0.4006 -1.4328 0 -0.0667 0.0008 -0.0668 -0.0008 -1.4337 0 0 -0.401c-0.4554,-0.2636 -0.8352,-0.6435 -1.0985,-1.099l-0.4015 0 0 -3z"/>
    <path id="_123875264" class="fil0 str3" d="M-273 335.499l0.402 0c0.2633,-0.4552 0.6429,-0.8345 1.098,-1.0978l0 -0.4022 3 0 0 0.4019c0.4553,0.2633 0.8352,0.6428 1.0988,1.0981l0.4012 0 0 1.4542 0.0006 0.0465 -0.0006 0.0464 0 1.4529 -0.4007 0c-0.2635,0.4557 -0.6435,0.8358 -1.0993,1.0994l0 0.4006 -1.4328 0 -0.0667 0.0008 -0.0668 -0.0008 -1.4337 0 0 -0.401c-0.4554,-0.2636 -0.8352,-0.6435 -1.0985,-1.099l-0.4015 0 0 -3z"/>
    <path id="_123875048" class="fil0 str3" d="M-253 315.499l0.402 0c0.2633,-0.4552 0.6429,-0.8345 1.098,-1.0978l0 -0.4022 3 0 0 0.4019c0.4553,0.2633 0.8352,0.6428 1.0988,1.0981l0.4012 0 0 1.4542 0.0006 0.0465 -0.0006 0.0464 0 1.4529 -0.4007 0c-0.2635,0.4557 -0.6435,0.8358 -1.0993,1.0994l0 0.4006 -1.4328 0 -0.0667 0.0008 -0.0668 -0.0008 -1.4337 0 0 -0.401c-0.4554,-0.2636 -0.8352,-0.6435 -1.0985,-1.099l-0.4015 0 0 -3z"/>
    <path id="_123874832" class="fil0 str3" d="M-233 295.499l0.402 0c0.2633,-0.4552 0.6429,-0.8345 1.098,-1.0978l0 -0.4022 3 0 0 0.4019c0.4553,0.2633 0.8352,0.6428 1.0988,1.0981l0.4012 0 0 1.4542 0.0006 0.0465 -0.0006 0.0464 0 1.4529 -0.4007 0c-0.2635,0.4557 -0.6435,0.8358 -1.0993,1.0994l0 0.4006 -1.4328 0 -0.0667 0.0008 -0.0668 -0.0008 -1.4337 0 0 -0.401c-0.4554,-0.2636 -0.8352,-0.6435 -1.0985,-1.099l-0.4015 0 0 -3z"/>
   </g>
   <g>
    <path id="_123874544" class="fil1 str0" d="M-439.92 323.585l30.4047 -30.4047c1.9596,-1.9597 5.1137,-1.9588 7.0724,-0.0001l2.1214 2.1214c1.9584,1.9584 1.9584,5.1115 -0.0013,7.0712l-30.4047 30.4047c-1.9587,1.9587 -5.1127,1.9596 -7.0711,0.0012l-2.1214 -2.1214c-1.9587,-1.9587 -1.9587,-5.1137 0,-7.0723z"/>
    <path id="_123874328" class="fil1 str0" d="M-349.932 233.597c3.7087,2.349 7.1986,5.0123 10.4292,7.9559l-6.3722 6.3722c-1.9586,1.9587 -5.1127,1.9596 -7.0711,0.0012l-2.1214 -2.1214c-1.9587,-1.9587 -1.9587,-5.1137 0,-7.0724l5.1355 -5.1355z"/>
    <path id="_123874112" class="fil1 str0" d="M-397.494 281.159l30.4047 -30.4047c1.9597,-1.9597 5.1137,-1.9588 7.0724,-0.0001l2.1214 2.1214c1.9584,1.9584 1.9584,5.1115 -0.0013,7.0712l-30.4047 30.4047c-1.9586,1.9587 -5.1127,1.9596 -7.0711,0.0012l-2.1214 -2.1214c-1.9587,-1.9587 -1.9587,-5.1137 0,-7.0723z"/>
    <path id="_123873896" class="fil1 str0" d="M-404.565 316.514l30.4047 -30.4047c1.9597,-1.9597 5.1137,-1.9587 7.0724,-0.0001l2.1214 2.1214c1.9584,1.9584 1.9584,5.1116 -0.0013,7.0712l-30.4046 30.4047c-1.9587,1.9587 -5.1128,1.9596 -7.0712,0.0012l-2.1214 -2.1214c-1.9586,-1.9587 -1.9586,-5.1136 0,-7.0723z"/>
    <path id="_123873680" class="fil1 str0" d="M-430.069 360.403c-3.7086,-2.3491 -7.1987,-5.0121 -10.4291,-7.956l23.9109 -23.9109c1.9597,-1.9596 5.1137,-1.9587 7.0724,0l2.1214 2.1213c1.9584,1.9584 1.9584,5.1116 -0.0013,7.0713l-22.6743 22.6743z"/>
    <path id="_123873464" class="fil1 str0" d="M-334.553 246.502c2.9438,3.2304 5.6069,6.7203 7.9561,10.4289l-26.3488 26.3489c-1.9587,1.9587 -5.1128,1.9596 -7.0712,0.0012l-2.1214 -2.1214c-1.9586,-1.9587 -1.9586,-5.1136 0,-7.0723l27.5853 -27.5853z"/>
    <path id="_123873248" class="fil1 str0" d="M-445.447 347.497c-2.9436,-3.2306 -5.6069,-6.7204 -7.9559,-10.4291l1.4611 -1.4611c1.9596,-1.9597 5.1137,-1.9588 7.0724,-0.0001l2.1214 2.1214c1.9584,1.9584 1.9584,5.1115 -0.0013,7.0712l-2.6977 2.6977z"/>
    <path id="_31357104" class="fil1 str0" d="M-464.51 305.561c-0.3195,-2.81 -0.4895,-5.6652 -0.4895,-8.5605 0,-1.7076 0.0626,-3.4004 0.175,-5.0796l27.0249 -27.0249c1.9597,-1.9597 5.1137,-1.9587 7.0724,-0.0001l2.1214 2.1214c1.9584,1.9584 1.9584,5.1116 -0.0013,7.0712l-30.4046 30.4047c-1.4916,1.4916 -3.6763,1.8475 -5.4983,1.0678z"/>
    <path id="_31356360" class="fil1 str0" d="M-389.999 222c0.3934,0 0.7847,0.0088 1.1767,0.0149 0.1813,0.1377 0.3558,0.289 0.5215,0.4547l2.1214 2.1214c1.9584,1.9584 1.9584,5.1116 -0.0013,7.0712l-30.4046 30.4047c-1.9587,1.9587 -5.1128,1.9596 -7.0712,0.0012l-2.1214 -2.1214c-1.9587,-1.9587 -1.9587,-5.1136 0,-7.0723l30.4047 -30.4047c0.1045,-0.1045 0.2127,-0.2032 0.3237,-0.2966 1.6697,-0.1112 3.3527,-0.1731 5.0505,-0.1731z"/>
    <path id="_31356888" class="fil1 str0" d="M-432.849 288.23l30.4046 -30.4047c1.9597,-1.9596 5.1138,-1.9587 7.0725,0l2.1213 2.1214c1.9584,1.9584 1.9584,5.1115 -0.0012,7.0712l-30.4047 30.4046c-1.9587,1.9587 -5.1127,1.9597 -7.0711,0.0013l-2.1214 -2.1214c-1.9587,-1.9587 -1.9587,-5.1137 0,-7.0724z"/>
    <path id="_31356384" class="fil1 str0" d="M-456.987 330.752c-2.119,-4.1961 -3.8586,-8.6164 -5.1663,-13.2188l17.282 -17.282c1.9597,-1.9597 5.1138,-1.9588 7.0724,-0.0001l2.1214 2.1214c1.9584,1.9584 1.9584,5.1115 -0.0012,7.0712l-21.3083 21.3083z"/>
    <path id="_31357296" class="fil1 str0" d="M-369.466 224.847c4.6024,1.3077 9.0226,3.0475 13.2188,5.1664l-24.9828 24.9827c-1.9587,1.9587 -5.1127,1.9596 -7.0711,0.0012l-2.1214 -2.1213c-1.9587,-1.9587 -1.9587,-5.1137 0,-7.0724l20.9565 -20.9566z"/>
    <path id="_31357224" class="fil1 str0" d="M-411.636 351.869l30.4046 -30.4046c1.9597,-1.9597 5.1138,-1.9588 7.0725,-0.0001l2.1213 2.1214c1.9584,1.9584 1.9584,5.1115 -0.0012,7.0712l-30.4047 30.4047c-1.9587,1.9586 -5.1127,1.9596 -7.0711,0.0012l-2.1214 -2.1214c-1.9587,-1.9587 -1.9587,-5.1137 0,-7.0724z"/>
    <path id="_31357248" class="fil1 str0" d="M-323.014 263.247c2.1168,4.1919 3.8543,8.6079 5.1623,13.2048 -1.9686,1.7122 -4.9368,1.6325 -6.8106,-0.2414l-2.1214 -2.1213c-1.9587,-1.9587 -1.9587,-5.1137 0,-7.0724l3.7697 -3.7697z"/>
    <path id="_31356792" class="fil1 str0" d="M-369.21 309.443l30.4047 -30.4046c1.9596,-1.9597 5.1137,-1.9588 7.0724,-0.0001l2.1214 2.1214c1.9584,1.9584 1.9584,5.1115 -0.0013,7.0712l-30.4047 30.4047c-1.9587,1.9586 -5.1127,1.9596 -7.0711,0.0012l-2.1214 -2.1214c-1.9587,-1.9587 -1.9587,-5.1137 0,-7.0724z"/>
    <path id="_31357272" class="fil1 str0" d="M-376.281 344.798l30.4047 -30.4047c1.9597,-1.9597 5.1137,-1.9588 7.0724,-0.0001l2.1214 2.1214c1.9584,1.9584 1.9584,5.1115 -0.0013,7.0712l-30.4047 30.4047c-1.9586,1.9587 -5.1127,1.9596 -7.0711,0.0012l-2.1214 -2.1214c-1.9587,-1.9587 -1.9587,-5.1137 0,-7.0723z"/>
    <path id="_125083440" class="fil1 str0" d="M-384.923 371.825c-1.6783,0.1123 -3.3701,0.1748 -5.0767,0.1748 -4.2414,0 -8.3988,-0.3579 -12.4484,-1.0347l14.1453 -14.1453c1.9597,-1.9597 5.1137,-1.9588 7.0724,-0.0001l2.1214 2.1214c1.9584,1.9584 1.9584,5.1116 -0.0013,7.0712l-5.8127 5.8127z"/>
    <path id="_125086416" class="fil1 str0" d="M-316.035 284.552c0.6768,4.0496 1.0347,8.207 1.0347,12.4485 0,1.7066 -0.0625,3.3984 -0.1748,5.0766l-9.4872 9.4872c-1.9586,1.9587 -5.1127,1.9596 -7.0711,0.0012l-2.1214 -2.1214c-1.9587,-1.9587 -1.9587,-5.1137 0,-7.0723l17.8198 -17.8198z"/>
    <path id="_125086344" class="fil1 str0" d="M-413.14 368.355c-3.6693,-1.1901 -7.2157,-2.6528 -10.6133,-4.3685l0.0952 -0.0952c1.9597,-1.9597 5.1138,-1.9588 7.0724,-0.0001l2.1214 2.1214c0.6722,0.6722 1.1136,1.4852 1.3243,2.3424z"/>
    <path id="_125084400" class="fil1 str0" d="M-342.312 354.885c-8.8638,7.3106 -19.4352,12.6235 -31.0245,15.2539l20.3896 -20.3896c1.9597,-1.9596 5.1137,-1.9587 7.0724,0l2.1214 2.1213c0.846,0.846 1.3261,1.915 1.4411,3.0144z"/>
    <path id="_125085384" class="fil1 str0" d="M-316.861 313.663c-3.0073,13.2499 -9.5245,25.1665 -18.5204,34.7248 -1.2402,-0.0279 -2.472,-0.5167 -3.4223,-1.467l-2.1214 -2.1214c-1.9586,-1.9587 -1.9586,-5.1136 0,-7.0723l24.0641 -24.0641z"/>
    <path id="_125084424" class="fil1 str0" d="M-459.464 268.688c6.9086,-16.9244 19.8202,-30.762 36.0912,-38.863l1.8375 1.8375c1.9584,1.9584 1.9584,5.1115 -0.0013,7.0712l-30.4047 30.4047c-1.9587,1.9587 -5.1127,1.9596 -7.0711,0.0012l-0.4516 -0.4516z"/>
    <path id="_125086440" class="fil1 str0" d="M-463.035 279.884c0.1691,-0.7237 0.351,-1.4425 0.5408,-2.158 -0.0153,0.7414 -0.1958,1.4801 -0.5408,2.158z"/>
    <path id="_125083392" class="fil1 str0" d="M-416.479 226.816c3.1748,-1.1987 6.4509,-2.1904 9.8141,-2.9539l-2.8495 2.8495c-1.9236,1.9236 -5,1.9587 -6.9646,0.1044z"/>
   </g>
   <g>
    <path id="_125078520" class="fil1 str0" d="M-199.92 323.585l30.4047 -30.4047c1.9596,-1.9597 5.1137,-1.9588 7.0724,-0.0001l2.1214 2.1214c1.9584,1.9584 1.9584,5.1115 -0.0013,7.0712l-30.4047 30.4047c-1.9587,1.9587 -5.1127,1.9596 -7.0711,0.0012l-2.1214 -2.1214c-1.9587,-1.9587 -1.9587,-5.1137 0,-7.0723z"/>
    <path id="_125078592" class="fil1 str0" d="M-109.932 233.597c3.7087,2.349 7.1986,5.0123 10.4292,7.9559l-6.3722 6.3722c-1.9586,1.9587 -5.1127,1.9596 -7.0711,0.0012l-2.1214 -2.1214c-1.9587,-1.9587 -1.9587,-5.1137 0,-7.0724l5.1355 -5.1355z"/>
    <path id="_125078664" class="fil1 str0" d="M-157.494 281.159l30.4047 -30.4047c1.9597,-1.9597 5.1137,-1.9588 7.0724,-0.0001l2.1214 2.1214c1.9584,1.9584 1.9584,5.1115 -0.0013,7.0712l-30.4047 30.4047c-1.9586,1.9587 -5.1127,1.9596 -7.0711,0.0012l-2.1214 -2.1214c-1.9587,-1.9587 -1.9587,-5.1137 0,-7.0723z"/>
    <path id="_125078736" class="fil1 str0" d="M-164.565 316.514l30.4047 -30.4047c1.9597,-1.9597 5.1137,-1.9587 7.0724,-0.0001l2.1214 2.1214c1.9584,1.9584 1.9584,5.1116 -0.0013,7.0712l-30.4046 30.4047c-1.9587,1.9587 -5.1128,1.9596 -7.0712,0.0012l-2.1214 -2.1214c-1.9586,-1.9587 -1.9586,-5.1136 0,-7.0723z"/>
    <path id="_125078808" class="fil1 str0" d="M-190.069 360.403c-3.7086,-2.3491 -7.1987,-5.0121 -10.4291,-7.956l23.9109 -23.9109c1.9597,-1.9596 5.1137,-1.9587 7.0724,0l2.1214 2.1213c1.9584,1.9584 1.9584,5.1116 -0.0013,7.0713l-22.6743 22.6743z"/>
    <path id="_125078880" class="fil1 str0" d="M-94.5534 246.502c2.9438,3.2304 5.6069,6.7203 7.9561,10.4289l-26.3488 26.3489c-1.9587,1.9587 -5.1128,1.9596 -7.0712,0.0012l-2.1214 -2.1214c-1.9586,-1.9587 -1.9586,-5.1136 0,-7.0723l27.5853 -27.5853z"/>
    <path id="_125078952" class="fil1 str0" d="M-205.447 347.497c-2.9436,-3.2306 -5.6069,-6.7204 -7.9559,-10.4291l1.4611 -1.4611c1.9596,-1.9597 5.1137,-1.9588 7.0724,-0.0001l2.1214 2.1214c1.9584,1.9584 1.9584,5.1115 -0.0013,7.0712l-2.6977 2.6977z"/>
    <path id="_125079024" class="fil1 str0" d="M-224.51 305.561c-0.3195,-2.81 -0.4895,-5.6652 -0.4895,-8.5605 0,-1.7076 0.0626,-3.4004 0.175,-5.0796l27.0249 -27.0249c1.9597,-1.9597 5.1137,-1.9587 7.0724,-0.0001l2.1214 2.1214c1.9584,1.9584 1.9584,5.1116 -0.0013,7.0712l-30.4046 30.4047c-1.4916,1.4916 -3.6763,1.8475 -5.4983,1.0678z"/>
    <path id="_125079096" class="fil1 str0" d="M-149.999 222c0.3934,0 0.7847,0.0088 1.1767,0.0149 0.1813,0.1377 0.3558,0.289 0.5215,0.4547l2.1214 2.1214c1.9584,1.9584 1.9584,5.1116 -0.0013,7.0712l-30.4046 30.4047c-1.9587,1.9587 -5.1128,1.9596 -7.0712,0.0012l-2.1214 -2.1214c-1.9587,-1.9587 -1.9587,-5.1136 0,-7.0723l30.4047 -30.4047c0.1045,-0.1045 0.2127,-0.2032 0.3237,-0.2966 1.6697,-0.1112 3.3527,-0.1731 5.0505,-0.1731z"/>
    <path id="_125079168" class="fil1 str0" d="M-192.849 288.23l30.4046 -30.4047c1.9597,-1.9596 5.1138,-1.9587 7.0725,0l2.1213 2.1214c1.9584,1.9584 1.9584,5.1115 -0.0012,7.0712l-30.4047 30.4046c-1.9587,1.9587 -5.1127,1.9597 -7.0711,0.0013l-2.1214 -2.1214c-1.9587,-1.9587 -1.9587,-5.1137 0,-7.0724z"/>
    <path id="_125079240" class="fil1 str0" d="M-216.987 330.752c-2.119,-4.1961 -3.8586,-8.6164 -5.1663,-13.2188l17.282 -17.282c1.9597,-1.9597 5.1138,-1.9588 7.0724,-0.0001l2.1214 2.1214c1.9584,1.9584 1.9584,5.1115 -0.0012,7.0712l-21.3083 21.3083z"/>
    <path id="_125079312" class="fil1 str0" d="M-129.466 224.847c4.6024,1.3077 9.0226,3.0475 13.2188,5.1664l-24.9828 24.9827c-1.9587,1.9587 -5.1127,1.9596 -7.0711,0.0012l-2.1214 -2.1213c-1.9587,-1.9587 -1.9587,-5.1137 0,-7.0724l20.9565 -20.9566z"/>
    <path id="_125079384" class="fil1 str0" d="M-171.636 351.869l30.4046 -30.4046c1.9597,-1.9597 5.1138,-1.9588 7.0725,-0.0001l2.1213 2.1214c1.9584,1.9584 1.9584,5.1115 -0.0012,7.0712l-30.4047 30.4047c-1.9587,1.9586 -5.1127,1.9596 -7.0711,0.0012l-2.1214 -2.1214c-1.9587,-1.9587 -1.9587,-5.1137 0,-7.0724z"/>
    <path id="_125079456" class="fil1 str0" d="M-83.0136 263.247c2.1168,4.1919 3.8543,8.6079 5.1623,13.2048 -1.9686,1.7122 -4.9368,1.6325 -6.8106,-0.2414l-2.1214 -2.1213c-1.9587,-1.9587 -1.9587,-5.1137 0,-7.0724l3.7697 -3.7697z"/>
    <path id="_125079528" class="fil1 str0" d="M-129.21 309.443l30.4047 -30.4046c1.9596,-1.9597 5.1137,-1.9588 7.0724,-0.0001l2.1214 2.1214c1.9584,1.9584 1.9584,5.1115 -0.0013,7.0712l-30.4047 30.4047c-1.9587,1.9586 -5.1127,1.9596 -7.0711,0.0012l-2.1214 -2.1214c-1.9587,-1.9587 -1.9587,-5.1137 0,-7.0724z"/>
    <path id="_125079600" class="fil1 str0" d="M-136.281 344.798l30.4047 -30.4047c1.9597,-1.9597 5.1137,-1.9588 7.0724,-0.0001l2.1214 2.1214c1.9584,1.9584 1.9584,5.1115 -0.0013,7.0712l-30.4047 30.4047c-1.9586,1.9587 -5.1127,1.9596 -7.0711,0.0012l-2.1214 -2.1214c-1.9587,-1.9587 -1.9587,-5.1137 0,-7.0723z"/>
    <path id="_125079672" class="fil1 str0" d="M-144.923 371.825c-1.6783,0.1123 -3.3701,0.1748 -5.0767,0.1748 -4.2414,0 -8.3988,-0.3579 -12.4484,-1.0347l14.1453 -14.1453c1.9597,-1.9597 5.1137,-1.9588 7.0724,-0.0001l2.1214 2.1214c1.9584,1.9584 1.9584,5.1116 -0.0013,7.0712l-5.8127 5.8127z"/>
    <path id="_125079744" class="fil1 str0" d="M-76.0346 284.552c0.6768,4.0496 1.0347,8.207 1.0347,12.4485 0,1.7066 -0.0625,3.3984 -0.1748,5.0766l-9.4872 9.4872c-1.9586,1.9587 -5.1127,1.9596 -7.0711,0.0012l-2.1214 -2.1214c-1.9587,-1.9587 -1.9587,-5.1137 0,-7.0723l17.8198 -17.8198z"/>
    <path id="_125079816" class="fil1 str0" d="M-173.14 368.355c-3.6693,-1.1901 -7.2157,-2.6528 -10.6133,-4.3685l0.0952 -0.0952c1.9597,-1.9597 5.1138,-1.9588 7.0724,-0.0001l2.1214 2.1214c0.6722,0.6722 1.1136,1.4852 1.3243,2.3424z"/>
    <path id="_125079888" class="fil1 str0" d="M-102.312 354.885c-8.8638,7.3106 -19.4352,12.6235 -31.0245,15.2539l20.3896 -20.3896c1.9597,-1.9596 5.1137,-1.9587 7.0724,0l2.1214 2.1213c0.846,0.846 1.3261,1.915 1.4411,3.0144z"/>
    <path id="_125079960" class="fil1 str0" d="M-76.8614 313.663c-3.0073,13.2499 -9.5245,25.1665 -18.5204,34.7248 -1.2402,-0.0279 -2.472,-0.5167 -3.4223,-1.467l-2.1214 -2.1214c-1.9586,-1.9587 -1.9586,-5.1136 0,-7.0723l24.0641 -24.0641z"/>
    <path id="_125080032" class="fil1 str0" d="M-219.464 268.688c6.9086,-16.9244 19.8202,-30.762 36.0912,-38.863l1.8375 1.8375c1.9584,1.9584 1.9584,5.1115 -0.0013,7.0712l-30.4047 30.4047c-1.9587,1.9587 -5.1127,1.9596 -7.0711,0.0012l-0.4516 -0.4516z"/>
    <path id="_125080104" class="fil1 str0" d="M-223.035 279.884c0.1691,-0.7237 0.351,-1.4425 0.5408,-2.158 -0.0153,0.7414 -0.1958,1.4801 -0.5408,2.158z"/>
    <path id="_125080176" class="fil1 str0" d="M-176.479 226.816c3.1748,-1.1987 6.4509,-2.1904 9.8141,-2.9539l-2.8495 2.8495c-1.9236,1.9236 -5,1.9587 -6.9646,0.1044z"/>
   </g>
  </g>
  <path class="fil0 str3" d="M-145.903 405.339l0.2843 -0.2842c-0.1357,-0.5081 -0.1355,-1.0447 0.0001,-1.5527l-0.2844 -0.2844 2.1214 -2.1213 0.2842 0.2842c0.5081,-0.1358 1.0451,-0.1361 1.5534,-0.0005l0.2837 -0.2837 1.0283 1.0282 0.0333 0.0325 0.0324 0.0332 1.0273 1.0274 -0.2833 0.2833c0.1359,0.5086 0.1359,1.0461 0,1.5547l0.2833 0.2833 -1.0131 1.0132 -0.0466 0.0477 -0.0478 0.0467 -1.0138 1.0137 -0.2836 -0.2835c-0.5084,0.1356 -1.0456,0.1355 -1.5538,-0.0004l-0.2839 0.2839 -2.1214 -2.1213z"/>
  <path class="fil0 str3" d="M-400.462 190.781l0.2843 -0.2843c-0.1357,-0.508 -0.1355,-1.0447 0.0001,-1.5527l-0.2844 -0.2844 2.1213 -2.1213 0.2842 0.2842c0.5081,-0.1358 1.0451,-0.136 1.5535,-0.0005l0.2836 -0.2837 1.0283 1.0283 0.0333 0.0325 0.0324 0.0332 1.0274 1.0273 -0.2834 0.2834c0.1359,0.5085 0.136,1.046 0.0001,1.5547l0.2833 0.2833 -1.0132 1.0131 -0.0466 0.0477 -0.0478 0.0467 -1.0138 1.0138 -0.2835 -0.2836c-0.5084,0.1357 -1.0456,0.1356 -1.5539,-0.0003l-0.2839 0.2839 -2.1213 -2.1213z"/>
  <path class="fil0 str3" d="M-141.66 192.903l-0.2842 -0.2843c-0.5081,0.1357 -1.0447,0.1355 -1.5527,-0.0001l-0.2844 0.2844 -2.1213 -2.1214 0.2842 -0.2842c-0.1358,-0.5081 -0.1361,-1.0451 -0.0005,-1.5534l-0.2837 -0.2837 1.0282 -1.0283 0.0325 -0.0333 0.0332 -0.0324 1.0274 -1.0273 0.2833 0.2833c0.5086,-0.1359 1.0461,-0.1359 1.5547,0l0.2833 -0.2833 1.0132 1.0131 0.0477 0.0466 0.0467 0.0478 1.0137 1.0138 -0.2835 0.2836c0.1356,0.5084 0.1355,1.0456 -0.0004,1.5538l0.2839 0.2839 -2.1213 2.1214z"/>
  <path class="fil0 str3" d="M-396.218 407.461l-0.2843 -0.2843c-0.508,0.1357 -1.0447,0.1355 -1.5527,-0.0001l-0.2844 0.2844 -2.1213 -2.1213 0.2842 -0.2842c-0.1358,-0.5081 -0.136,-1.0451 -0.0005,-1.5535l-0.2837 -0.2836 1.0283 -1.0283 0.0325 -0.0333 0.0332 -0.0324 1.0273 -1.0274 0.2834 0.2834c0.5085,-0.1359 1.046,-0.136 1.5547,-0.0001l0.2833 -0.2833 1.0131 1.0132 0.0477 0.0466 0.0467 0.0478 1.0138 1.0138 -0.2836 0.2835c0.1357,0.5084 0.1356,1.0456 -0.0003,1.5539l0.2839 0.2839 -2.1213 2.1213z"/>
  <path class="fil0 str3" d="M-273 135.499l0.402 0c0.2633,-0.4552 0.6429,-0.8345 1.098,-1.0978l0 -0.4022 3 0 0 0.4019c0.4553,0.2633 0.8352,0.6428 1.0988,1.0981l0.4012 0 0 1.4542 0.0006 0.0465 -0.0006 0.0464 0 1.4529 -0.4007 0c-0.2635,0.4557 -0.6435,0.8358 -1.0993,1.0994l0 0.4006 -1.4328 0 -0.0667 0.0008 -0.0668 -0.0008 -1.4337 0 0 -0.401c-0.4554,-0.2636 -0.8352,-0.6435 -1.0985,-1.099l-0.4015 0 0 -3z"/>
  <path class="fil0 str3" d="M-273 455.499l0.402 0c0.2633,-0.4552 0.6429,-0.8345 1.098,-1.0978l0 -0.4022 3 0 0 0.4019c0.4553,0.2633 0.8352,0.6428 1.0988,1.0981l0.4012 0 0 1.4542 0.0006 0.0465 -0.0006 0.0464 0 1.4529 -0.4007 0c-0.2635,0.4557 -0.6435,0.8358 -1.0993,1.0994l0 0.4006 -1.4328 0 -0.0667 0.0008 -0.0668 -0.0008 -1.4337 0 0 -0.401c-0.4554,-0.2636 -0.8352,-0.6435 -1.0985,-1.099l-0.4015 0 0 -3z"/>
 </g>
</svg>
