<?xml version="1.0" encoding="UTF-8" standalone="no"?>
<!-- Created with Inkscape (http://www.inkscape.org/) -->

<svg
   xmlns:dc="http://purl.org/dc/elements/1.1/"
   xmlns:cc="http://creativecommons.org/ns#"
   xmlns:rdf="http://www.w3.org/1999/02/22-rdf-syntax-ns#"
   xmlns:svg="http://www.w3.org/2000/svg"
   xmlns="http://www.w3.org/2000/svg"
   xmlns:sodipodi="http://sodipodi.sourceforge.net/DTD/sodipodi-0.dtd"
   xmlns:inkscape="http://www.inkscape.org/namespaces/inkscape"
   width="885.82672"
   height="885.82672"
   id="svg3016"
   version="1.1"
   inkscape:version="0.48.4 r9939"
   sodipodi:docname="10.svg">
  <defs
     id="defs3018" />
  <sodipodi:namedview
     id="base"
     pagecolor="#ffffff"
     bordercolor="#666666"
     borderopacity="1.0"
     inkscape:pageopacity="0.0"
     inkscape:pageshadow="2"
     inkscape:zoom="0.56783114"
     inkscape:cx="442.91336"
     inkscape:cy="442.91336"
     inkscape:document-units="mm"
     inkscape:current-layer="layer1"
     showgrid="false"
     units="mm"
     inkscape:window-width="1366"
     inkscape:window-height="702"
     inkscape:window-x="0"
     inkscape:window-y="27"
     inkscape:window-maximized="1">
    <inkscape:grid
       type="xygrid"
       id="grid3024"
       empspacing="5"
       visible="true"
       enabled="true"
       snapvisiblegridlinesonly="true"
       units="mm"
       spacingx="1mm"
       spacingy="1mm" />
  </sodipodi:namedview>
  <metadata
     id="metadata3021">
    <rdf:RDF>
      <cc:Work
         rdf:about="">
        <dc:format>image/svg+xml</dc:format>
        <dc:type
           rdf:resource="http://purl.org/dc/dcmitype/StillImage" />
        <dc:title></dc:title>
      </cc:Work>
    </rdf:RDF>
  </metadata>
  <g
     inkscape:label="Layer 1"
     inkscape:groupmode="layer"
     id="layer1"
     transform="translate(0,-166.53541)">
    <path
       inkscape:connector-curvature="0"
       id="path2987"
       style="font-size:144px;font-style:normal;font-variant:normal;font-weight:normal;font-stretch:normal;text-align:end;line-height:125%;letter-spacing:0px;word-spacing:0px;text-anchor:end;fill:none;fill-opacity:1;stroke:#000000;font-family:'8bit';-inkscape-font-specification:'8bit'"
       d="m 752.07902,1002.0021 -61.488,0 0,-10.07998 20.304,0 0,-40.896 -9.936,0 0,-10.512 9.792,0 0,-10.224 20.736,0 0,61.2 20.592,0 0,10.51198" />
    <path
       inkscape:connector-curvature="0"
       id="path2989"
       style="font-size:144px;font-style:normal;font-variant:normal;font-weight:normal;font-stretch:normal;text-align:end;line-height:125%;letter-spacing:0px;word-spacing:0px;text-anchor:end;fill:none;fill-opacity:1;stroke:#000000;font-family:'8bit';-inkscape-font-specification:'8bit'"
       d="m 832.39952,981.41012 -9.792,0 0,10.224 -10.224,0 0,10.36798 -31.104,0 0,-9.79198 -10.224,0 0,-10.368 -10.368,0 0,-31.104 9.792,0 0,-10.224 10.368,0 0,-10.224 30.96,0 0,9.792 10.368,0 0,10.224 10.224,0 0,31.104 m -20.592,10.224 0,-41.328 -10.224,0 0,-9.792 -20.304,0 0,41.328 10.368,0 0,9.792 20.16,0" />
    <path
       style="font-size:32px;font-style:normal;font-variant:normal;font-weight:normal;font-stretch:normal;text-align:center;line-height:125%;letter-spacing:0px;word-spacing:0px;text-anchor:middle;fill:none;fill-opacity:1;stroke:#000000;font-family:invaders from space;-inkscape-font-specification:invaders from space"
       d="M 277.46875 217.9375 L 277.46875 275.71875 L 335.28125 275.71875 L 335.28125 217.9375 L 277.46875 217.9375 z M 335.28125 275.71875 L 335.28125 333.5 L 277.46875 333.5 L 277.46875 391.28125 L 219.6875 391.28125 L 161.90625 391.28125 L 161.90625 449.0625 L 161.90625 506.875 L 161.90625 564.65625 L 161.90625 622.4375 L 219.6875 622.4375 L 219.6875 564.65625 L 219.6875 506.875 L 277.46875 506.875 L 277.46875 564.65625 L 277.46875 622.4375 L 335.28125 622.4375 L 335.28125 564.65625 L 393.0625 564.65625 L 450.84375 564.65625 L 508.625 564.65625 L 566.40625 564.65625 L 566.40625 622.4375 L 624.1875 622.4375 L 624.1875 564.65625 L 624.1875 506.875 L 681.96875 506.875 L 681.96875 564.65625 L 681.96875 622.4375 L 739.75 622.4375 L 739.75 564.65625 L 739.75 506.875 L 739.75 449.0625 L 739.75 391.28125 L 681.96875 391.28125 L 624.1875 391.28125 L 624.1875 333.5 L 566.40625 333.5 L 566.40625 275.71875 L 508.625 275.71875 L 508.625 333.5 L 450.84375 333.5 L 393.0625 333.5 L 393.0625 275.71875 L 335.28125 275.71875 z M 566.40625 275.71875 L 624.1875 275.71875 L 624.1875 217.9375 L 566.40625 217.9375 L 566.40625 275.71875 z M 566.40625 622.4375 L 508.625 622.4375 L 508.625 680.21875 L 566.40625 680.21875 L 566.40625 622.4375 z M 335.28125 622.4375 L 335.28125 680.21875 L 393.0625 680.21875 L 393.0625 622.4375 L 335.28125 622.4375 z M 335.28125 391.28125 L 393.0625 391.28125 L 393.0625 449.0625 L 335.28125 449.0625 L 335.28125 391.28125 z M 508.625 391.28125 L 566.40625 391.28125 L 566.40625 449.0625 L 508.625 449.0625 L 508.625 391.28125 z "
       transform="translate(0,166.53541)"
       id="path3075" />
  </g>
</svg>
