<?xml version="1.0" encoding="UTF-8" standalone="no"?>
<!-- Created with Inkscape (http://www.inkscape.org/) -->

<svg
   xmlns:dc="http://purl.org/dc/elements/1.1/"
   xmlns:cc="http://creativecommons.org/ns#"
   xmlns:rdf="http://www.w3.org/1999/02/22-rdf-syntax-ns#"
   xmlns:svg="http://www.w3.org/2000/svg"
   xmlns="http://www.w3.org/2000/svg"
   xmlns:sodipodi="http://sodipodi.sourceforge.net/DTD/sodipodi-0.dtd"
   xmlns:inkscape="http://www.inkscape.org/namespaces/inkscape"
   width="885.82672"
   height="885.82672"
   id="svg3016"
   version="1.1"
   inkscape:version="0.48.4 r9939"
   sodipodi:docname="2.svg">
  <defs
     id="defs3018" />
  <sodipodi:namedview
     id="base"
     pagecolor="#ffffff"
     bordercolor="#666666"
     borderopacity="1.0"
     inkscape:pageopacity="0.0"
     inkscape:pageshadow="2"
     inkscape:zoom="0.47797233"
     inkscape:cx="372.04724"
     inkscape:cy="526.18109"
     inkscape:document-units="mm"
     inkscape:current-layer="layer1"
     showgrid="false"
     units="mm"
     inkscape:window-width="1366"
     inkscape:window-height="702"
     inkscape:window-x="0"
     inkscape:window-y="27"
     inkscape:window-maximized="1">
    <inkscape:grid
       type="xygrid"
       id="grid3024"
       empspacing="5"
       visible="true"
       enabled="true"
       snapvisiblegridlinesonly="true"
       units="mm"
       spacingx="1mm"
       spacingy="1mm" />
  </sodipodi:namedview>
  <metadata
     id="metadata3021">
    <rdf:RDF>
      <cc:Work
         rdf:about="">
        <dc:format>image/svg+xml</dc:format>
        <dc:type
           rdf:resource="http://purl.org/dc/dcmitype/StillImage" />
        <dc:title></dc:title>
      </cc:Work>
    </rdf:RDF>
  </metadata>
  <g
     inkscape:label="Layer 1"
     inkscape:groupmode="layer"
     id="layer1"
     transform="translate(0,-166.53541)">
    <g
       style="font-size:144px;font-style:normal;font-variant:normal;font-weight:normal;font-stretch:normal;text-align:center;line-height:125%;letter-spacing:0px;word-spacing:0px;text-anchor:middle;fill:none;fill-opacity:1;stroke:#000000;font-family:'8bit';-inkscape-font-specification:'8bit'"
       id="text3064">
      <path
         d="m 836.19975,960.81812 -9.792,0 0,10.224 -10.224,0 0,10.368 -20.88,0 0,10.08 40.896,0 0,10.51198 -71.712,0 0,-20.30398 9.792,0 0,-10.368 10.368,0 0,-10.224 20.448,0 0,-10.368 10.656,0 0,-10.224 -30.384,0 0,9.936 -20.88,0 0,-9.936 9.792,0 0,-10.224 51.696,0 0,9.792 10.224,0 0,20.736"
         style="stroke:#000000;fill:none"
         id="path2987" />
    </g>
    <path
       style="fill:none;stroke:#000000"
       d="m 581.46223,283.5365 0,55.16877 27.46287,0 0,-55.16877 -27.46287,0 z m 82.63163,27.46287 0,27.7059 27.46287,0 0,-27.7059 -27.46287,0 z m 0,27.7059 -27.7059,0 0,27.46287 27.7059,0 0,-27.46287 z m -248.13793,0 0,27.46287 82.63164,0 0,-27.46287 -82.63164,0 z m 82.63164,27.46287 0,27.46286 27.70589,0 0,-27.46286 -27.70589,0 z m 27.70589,27.46286 0,27.70591 82.63164,0 0,-27.70591 -82.63164,0 z m -110.33753,-27.46286 -27.46287,0 0,27.46286 27.46287,0 0,-27.46286 z m -27.46287,27.46286 -27.70589,0 0,82.87467 -54.92574,0 0,54.92573 -55.16876,0 0,27.70591 -27.46287,0 0,27.46286 -27.7059,0 0,55.16876 -27.46286,0 0,137.8004 27.46286,0 0,55.16877 27.7059,0 0,27.46287 27.46287,0 0,27.46286 55.16876,0 0,27.70591 137.8004,0 0,-27.70591 54.92574,0 0,-27.46286 27.70589,0 0,-27.46287 27.46287,0 0,-55.16877 27.7059,0 0,-137.8004 -27.7059,0 0,-55.16876 -27.46287,0 0,-27.46286 -27.70589,0 0,-27.70591 -54.92574,0 0,-54.92573 -55.16877,0 0,-82.87467 z m 275.6008,0 0,27.70591 54.92573,0 0,-27.70591 -54.92573,0 z m -27.7059,55.16877 0,27.7059 27.7059,0 0,-27.7059 -27.7059,0 z m 27.7059,27.7059 0,27.46287 27.46287,0 0,-27.46287 -27.46287,0 z m -82.63163,0 0,54.92573 27.46287,0 0,-54.92573 -27.46287,0 z m -303.3067,110.0945 82.63164,0 0,27.46287 -27.46287,0 0,27.70589 -27.46287,0 0,27.46288 -27.7059,0 0,27.70589 -27.46286,0 0,-82.87466 27.46286,0 0,-27.46287 z"
       id="path3214"
       inkscape:connector-curvature="0" />
  </g>
</svg>
