<?xml version="1.0" encoding="UTF-8" standalone="no"?>
<!-- Created with Inkscape (http://www.inkscape.org/) -->

<svg
   xmlns:dc="http://purl.org/dc/elements/1.1/"
   xmlns:cc="http://creativecommons.org/ns#"
   xmlns:rdf="http://www.w3.org/1999/02/22-rdf-syntax-ns#"
   xmlns:svg="http://www.w3.org/2000/svg"
   xmlns="http://www.w3.org/2000/svg"
   xmlns:sodipodi="http://sodipodi.sourceforge.net/DTD/sodipodi-0.dtd"
   xmlns:inkscape="http://www.inkscape.org/namespaces/inkscape"
   width="885.82672"
   height="885.82672"
   id="svg3016"
   version="1.1"
   inkscape:version="0.48.4 r9939"
   sodipodi:docname="5.svg">
  <defs
     id="defs3018" />
  <sodipodi:namedview
     id="base"
     pagecolor="#ffffff"
     bordercolor="#666666"
     borderopacity="1.0"
     inkscape:pageopacity="0.0"
     inkscape:pageshadow="2"
     inkscape:zoom="0.47797233"
     inkscape:cx="414.89243"
     inkscape:cy="402.52853"
     inkscape:document-units="mm"
     inkscape:current-layer="layer1"
     showgrid="false"
     units="mm"
     inkscape:window-width="1366"
     inkscape:window-height="702"
     inkscape:window-x="0"
     inkscape:window-y="27"
     inkscape:window-maximized="1">
    <inkscape:grid
       type="xygrid"
       id="grid3024"
       empspacing="5"
       visible="true"
       enabled="true"
       snapvisiblegridlinesonly="true"
       units="mm"
       spacingx="1mm"
       spacingy="1mm" />
  </sodipodi:namedview>
  <metadata
     id="metadata3021">
    <rdf:RDF>
      <cc:Work
         rdf:about="">
        <dc:format>image/svg+xml</dc:format>
        <dc:type
           rdf:resource="http://purl.org/dc/dcmitype/StillImage" />
        <dc:title></dc:title>
      </cc:Work>
    </rdf:RDF>
  </metadata>
  <g
     inkscape:label="Layer 1"
     inkscape:groupmode="layer"
     id="layer1"
     transform="translate(0,-166.53541)">
    <text
       xml:space="preserve"
       style="font-size:144px;font-style:normal;font-variant:normal;font-weight:normal;font-stretch:normal;text-align:center;line-height:125%;letter-spacing:0px;word-spacing:0px;text-anchor:middle;fill:#000000;fill-opacity:1;stroke:none;font-family:'8bit';-inkscape-font-specification:'8bit'"
       x="804"
       y="1011.3621"
       id="text3064"
       sodipodi:linespacing="125%"><tspan
         sodipodi:role="line"
         x="804"
         y="1011.3621"
         id="tspan3185">5</tspan></text>
    <path
       style="fill:#000000;stroke:none"
       d="m 368.03297,245.73064 0,88.25478 43.93299,0 0,-88.25478 -43.93299,0 z m 43.93299,88.25478 0,88.25477 44.32178,0 0,-88.25477 -44.32178,0 z m 0,88.25477 -43.93299,0 0,87.86599 43.93299,0 0,-87.86599 z M 235.8452,289.66364 l 0,88.25477 43.93299,0 0,-88.25477 -43.93299,0 z m 43.93299,88.25477 0,88.25477 44.32178,0 0,-88.25477 -44.32178,0 z m 0,88.25477 -43.93299,0 0,88.25478 43.93299,0 0,-88.25478 z m 220.44254,-176.50954 0,88.25477 43.93299,0 0,-88.25477 -43.93299,0 z m 43.93299,88.25477 0,88.25477 44.32179,0 0,-88.25477 -44.32179,0 z m 0,88.25477 -43.93299,0 0,88.25478 43.93299,0 0,-88.25478 z m -352.6303,132.18777 0,264.37553 44.32178,0 0,44.32178 43.93299,0 0,43.933 264.37553,0 0,-43.933 44.32179,0 0,-44.32178 43.93299,0 0,-43.93299 44.32178,0 43.93299,0 0,-132.18777 0,-44.32178 -88.25477,0 0,-43.93299 -440.88508,0 z m 88.25477,43.93299 44.32178,0 0,176.50955 43.933,0 0,43.93299 -43.933,0 0,-43.93299 -44.32178,0 0,-176.50955 z m 352.63031,44.32178 44.32178,0 0,88.25478 -44.32178,0 0,-88.25478 z"
       id="path3117"
       inkscape:connector-curvature="0" />
  </g>
</svg>
