<?xml version="1.0" encoding="UTF-8" standalone="no"?>
<!-- Created with Inkscape (http://www.inkscape.org/) -->

<svg
   xmlns:dc="http://purl.org/dc/elements/1.1/"
   xmlns:cc="http://creativecommons.org/ns#"
   xmlns:rdf="http://www.w3.org/1999/02/22-rdf-syntax-ns#"
   xmlns:svg="http://www.w3.org/2000/svg"
   xmlns="http://www.w3.org/2000/svg"
   xmlns:sodipodi="http://sodipodi.sourceforge.net/DTD/sodipodi-0.dtd"
   xmlns:inkscape="http://www.inkscape.org/namespaces/inkscape"
   width="885.82672"
   height="885.82672"
   id="svg3016"
   version="1.1"
   inkscape:version="0.48.4 r9939"
   sodipodi:docname="6.svg">
  <defs
     id="defs3018" />
  <sodipodi:namedview
     id="base"
     pagecolor="#ffffff"
     bordercolor="#666666"
     borderopacity="1.0"
     inkscape:pageopacity="0.0"
     inkscape:pageshadow="2"
     inkscape:zoom="0.47797233"
     inkscape:cx="414.89243"
     inkscape:cy="402.52853"
     inkscape:document-units="mm"
     inkscape:current-layer="layer1"
     showgrid="false"
     units="mm"
     inkscape:window-width="1366"
     inkscape:window-height="702"
     inkscape:window-x="0"
     inkscape:window-y="27"
     inkscape:window-maximized="1">
    <inkscape:grid
       type="xygrid"
       id="grid3024"
       empspacing="5"
       visible="true"
       enabled="true"
       snapvisiblegridlinesonly="true"
       units="mm"
       spacingx="1mm"
       spacingy="1mm" />
  </sodipodi:namedview>
  <metadata
     id="metadata3021">
    <rdf:RDF>
      <cc:Work
         rdf:about="">
        <dc:format>image/svg+xml</dc:format>
        <dc:type
           rdf:resource="http://purl.org/dc/dcmitype/StillImage" />
        <dc:title></dc:title>
      </cc:Work>
    </rdf:RDF>
  </metadata>
  <g
     inkscape:label="Layer 1"
     inkscape:groupmode="layer"
     id="layer1"
     transform="translate(0,-166.53541)">
    <path
       inkscape:connector-curvature="0"
       id="path2987"
       style="font-size:144px;font-style:normal;font-variant:normal;font-weight:normal;font-stretch:normal;text-align:center;line-height:125%;letter-spacing:0px;word-spacing:0px;text-anchor:middle;fill:none;fill-opacity:1;stroke:#000000;font-family:'8bit';-inkscape-font-specification:'8bit'"
       d="m 836.19975,991.63412 -9.792,0 0,10.36798 -51.552,0 0,-9.79198 -10.368,0 0,-41.472 9.792,0 0,-10.224 10.368,0 0,-10.224 41.328,0 0,9.936 -30.384,0 0,10.224 -10.512,0 0,10.08 40.896,0 0,10.368 10.224,0 0,20.736 m -20.592,0 0,-20.304 -30.528,0 0,20.304 30.528,0" />
    <path
       style="fill:none;stroke:#000000"
       d="m 382.61575,235.74311 0,31.78721 -31.78721,0 0,31.50837 -31.50837,0 0,31.50837 -31.78721,0 0,31.78721 -31.50837,0 0,31.50837 -31.50837,0 0,31.50837 -31.7872,0 0,31.78721 94.80394,0 0,94.80395 31.78721,0 0,-31.50838 252.90347,0 0,31.50838 31.50838,0 0,-94.80395 94.80394,0 0,-31.78721 -31.50837,0 0,-31.50837 -31.50837,0 0,-31.50837 -31.7872,0 0,-31.78721 -31.50838,0 0,-31.50837 -31.7872,0 0,-31.50837 -31.50837,0 0,-31.78721 -126.31232,0 z m 189.60789,316.19906 -63.29557,0 0,31.50837 63.29557,0 0,-31.50837 z m 0,31.50837 0,63.29557 31.50838,0 0,-63.29557 -31.50838,0 z m 31.50838,63.29557 0,31.78721 -31.50838,0 0,-31.78721 -63.29557,0 0,31.78721 -126.31232,0 0,-31.78721 -63.29558,0 0,31.78721 -31.78721,0 0,-31.78721 -31.50837,0 0,221.39511 31.50837,0 0,94.8039 31.78721,0 0,-221.39506 31.50837,0 0,189.88676 31.78721,0 0,63.0167 31.50837,0 0,-221.11625 63.29558,0 0,221.11625 31.50837,0 0,-63.0167 31.50837,0 0,-189.88676 31.7872,0 0,221.39506 31.50838,0 0,-94.8039 31.7872,0 0,-221.39511 -31.7872,0 z m -316.19906,0 31.78721,0 0,-63.29557 -31.78721,0 0,63.29557 z m 31.78721,-63.29557 63.29558,0 0,-31.50837 -63.29558,0 0,31.50837 z m 63.29558,0 0,63.29557 31.50837,0 0,-63.29557 -31.50837,0 z m 126.31232,63.29557 0,-63.29557 -31.50837,0 0,63.29557 31.50837,0 z"
       id="path3186"
       inkscape:connector-curvature="0" />
  </g>
</svg>
