<?xml version="1.0" encoding="UTF-8" standalone="no"?>
<!-- Created with Inkscape (http://www.inkscape.org/) -->

<svg
   xmlns:dc="http://purl.org/dc/elements/1.1/"
   xmlns:cc="http://creativecommons.org/ns#"
   xmlns:rdf="http://www.w3.org/1999/02/22-rdf-syntax-ns#"
   xmlns:svg="http://www.w3.org/2000/svg"
   xmlns="http://www.w3.org/2000/svg"
   xmlns:sodipodi="http://sodipodi.sourceforge.net/DTD/sodipodi-0.dtd"
   xmlns:inkscape="http://www.inkscape.org/namespaces/inkscape"
   width="885.82672"
   height="885.82672"
   id="svg3016"
   version="1.1"
   inkscape:version="0.48.4 r9939"
   sodipodi:docname="7.svg">
  <defs
     id="defs3018" />
  <sodipodi:namedview
     id="base"
     pagecolor="#ffffff"
     bordercolor="#666666"
     borderopacity="1.0"
     inkscape:pageopacity="0.0"
     inkscape:pageshadow="2"
     inkscape:zoom="0.47797233"
     inkscape:cx="414.89243"
     inkscape:cy="402.52853"
     inkscape:document-units="mm"
     inkscape:current-layer="layer1"
     showgrid="false"
     units="mm"
     inkscape:window-width="1366"
     inkscape:window-height="702"
     inkscape:window-x="0"
     inkscape:window-y="27"
     inkscape:window-maximized="1">
    <inkscape:grid
       type="xygrid"
       id="grid3024"
       empspacing="5"
       visible="true"
       enabled="true"
       snapvisiblegridlinesonly="true"
       units="mm"
       spacingx="1mm"
       spacingy="1mm" />
  </sodipodi:namedview>
  <metadata
     id="metadata3021">
    <rdf:RDF>
      <cc:Work
         rdf:about="">
        <dc:format>image/svg+xml</dc:format>
        <dc:type
           rdf:resource="http://purl.org/dc/dcmitype/StillImage" />
        <dc:title></dc:title>
      </cc:Work>
    </rdf:RDF>
  </metadata>
  <g
     inkscape:label="Layer 1"
     inkscape:groupmode="layer"
     id="layer1"
     transform="translate(0,-166.53541)">
    <text
       xml:space="preserve"
       style="font-size:144px;font-style:normal;font-variant:normal;font-weight:normal;font-stretch:normal;text-align:center;line-height:125%;letter-spacing:0px;word-spacing:0px;text-anchor:middle;fill:#000000;fill-opacity:1;stroke:none;font-family:'8bit';-inkscape-font-specification:'8bit'"
       x="804"
       y="1011.3621"
       id="text3064"
       sodipodi:linespacing="125%"><tspan
         sodipodi:role="line"
         x="804"
         y="1011.3621"
         id="tspan3185">7</tspan></text>
    <path
       style="fill:#000000;stroke:none"
       d="m 436.33283,276.19936 0,39.17738 39.17739,0 0,-39.17738 -39.17739,0 z m 39.17739,39.17738 0,77.66744 38.83372,0 0,-77.66744 -38.83372,0 z m 38.83372,77.66744 0,78.0111 39.17738,0 0,-78.0111 -39.17738,0 z m 39.17738,78.0111 0,39.17738 155.67853,0 0,38.83372 39.1774,0 0,-78.0111 -194.85593,0 z m 155.67853,78.0111 -38.8337,0 0,38.83372 38.8337,0 0,-38.83372 z m -38.8337,38.83372 -39.1774,0 0,39.17738 39.1774,0 0,-39.17738 z m -39.1774,39.17738 -38.83371,0 0,38.83372 38.83371,0 0,-38.83372 z m 0,38.83372 0,78.0111 39.1774,0 0,-78.0111 -39.1774,0 z m 39.1774,78.0111 0,78.0111 38.8337,0 0,-78.0111 -38.8337,0 z m 38.8337,78.0111 0,38.83372 -78.0111,0 0,38.83372 117.1885,0 0,-77.66744 -39.1774,0 z m -78.0111,38.83372 0,-38.83372 -77.66743,0 0,38.83372 77.66743,0 z m -77.66743,-38.83372 0,-39.17738 -78.0111,0 0,39.17738 78.0111,0 z m -78.0111,-39.17738 0,-38.83372 -39.17739,0 0,38.83372 39.17739,0 z m -39.17739,0 -77.66744,0 0,39.17738 77.66744,0 0,-39.17738 z m -77.66744,39.17738 -78.0111,0 0,38.83372 78.0111,0 0,-38.83372 z m -78.0111,38.83372 -78.0111,0 0,-38.83372 -38.83372,0 0,77.66744 116.84482,0 0,-38.83372 z m -78.0111,-38.83372 38.83372,0 0,-78.0111 -38.83372,0 0,78.0111 z m 38.83372,-78.0111 39.17738,0 0,-78.0111 -39.17738,0 0,78.0111 z m 39.17738,-78.0111 38.83372,0 0,-38.83372 -38.83372,0 0,38.83372 z m 0,-38.83372 0,-39.17738 -39.17738,0 0,39.17738 39.17738,0 z m -39.17738,-39.17738 0,-38.83372 -38.83372,0 0,38.83372 38.83372,0 z m -38.83372,-38.83372 0,-38.83372 156.0222,0 0,-39.17738 -194.85592,0 0,78.0111 38.83372,0 z m 156.0222,-78.0111 38.83372,0 0,-78.0111 -38.83372,0 0,78.0111 z m 38.83372,-78.0111 38.83372,0 0,-77.66744 -38.83372,0 0,77.66744 z m 0,117.18848 0,116.84482 38.83372,0 0,-116.84482 -38.83372,0 z m 78.01111,0 0,116.84482 38.83372,0 0,-116.84482 -38.83372,0 z"
       id="path3151"
       inkscape:connector-curvature="0" />
  </g>
</svg>
