<?xml version="1.0" encoding="UTF-8" standalone="no"?>
<!-- Created with Inkscape (http://www.inkscape.org/) -->

<svg
   xmlns:dc="http://purl.org/dc/elements/1.1/"
   xmlns:cc="http://creativecommons.org/ns#"
   xmlns:rdf="http://www.w3.org/1999/02/22-rdf-syntax-ns#"
   xmlns:svg="http://www.w3.org/2000/svg"
   xmlns="http://www.w3.org/2000/svg"
   xmlns:sodipodi="http://sodipodi.sourceforge.net/DTD/sodipodi-0.dtd"
   xmlns:inkscape="http://www.inkscape.org/namespaces/inkscape"
   width="885.82672"
   height="885.82672"
   id="svg3016"
   version="1.1"
   inkscape:version="0.48.4 r9939"
   sodipodi:docname="8.svg">
  <defs
     id="defs3018" />
  <sodipodi:namedview
     id="base"
     pagecolor="#ffffff"
     bordercolor="#666666"
     borderopacity="1.0"
     inkscape:pageopacity="0.0"
     inkscape:pageshadow="2"
     inkscape:zoom="0.47797233"
     inkscape:cx="414.89243"
     inkscape:cy="402.52853"
     inkscape:document-units="mm"
     inkscape:current-layer="layer1"
     showgrid="false"
     units="mm"
     inkscape:window-width="1366"
     inkscape:window-height="702"
     inkscape:window-x="0"
     inkscape:window-y="27"
     inkscape:window-maximized="1">
    <inkscape:grid
       type="xygrid"
       id="grid3024"
       empspacing="5"
       visible="true"
       enabled="true"
       snapvisiblegridlinesonly="true"
       units="mm"
       spacingx="1mm"
       spacingy="1mm" />
  </sodipodi:namedview>
  <metadata
     id="metadata3021">
    <rdf:RDF>
      <cc:Work
         rdf:about="">
        <dc:format>image/svg+xml</dc:format>
        <dc:type
           rdf:resource="http://purl.org/dc/dcmitype/StillImage" />
        <dc:title></dc:title>
      </cc:Work>
    </rdf:RDF>
  </metadata>
  <g
     inkscape:label="Layer 1"
     inkscape:groupmode="layer"
     id="layer1"
     transform="translate(0,-166.53541)">
    <text
       xml:space="preserve"
       style="font-size:144px;font-style:normal;font-variant:normal;font-weight:normal;font-stretch:normal;text-align:center;line-height:125%;letter-spacing:0px;word-spacing:0px;text-anchor:middle;fill:#000000;fill-opacity:1;stroke:none;font-family:'8bit';-inkscape-font-specification:'8bit'"
       x="804"
       y="1011.3621"
       id="text3064"
       sodipodi:linespacing="125%"><tspan
         sodipodi:role="line"
         x="804"
         y="1011.3621"
         id="tspan3185">8</tspan></text>
    <path
       style="fill:#000000;stroke:none"
       d="m 156.33481,485.16694 0,14.33109 -28.41077,0 0,14.20539 -14.33109,0 0,14.20538 -14.205383,0 0,28.53648 -14.331094,0 0,71.27833 14.331094,0 0,28.53648 14.205383,0 0,14.20538 14.33109,0 0,14.3311 28.41077,0 0,14.20538 99.81481,0 0,-14.20538 57.07295,0 0,-14.3311 85.48372,0 0,-14.20538 14.20538,0 0,-14.33109 14.3311,0 0,-28.41077 14.20538,0 14.20538,0 0,28.41077 14.3311,0 0,14.33109 14.20538,0 0,14.20538 85.48372,0 0,14.3311 57.07295,0 0,14.20538 99.81481,0 0,-14.20538 28.53648,0 0,-14.3311 14.20538,0 0,-14.20538 14.20539,0 0,-28.53648 14.33109,0 0,-71.27833 -14.33109,0 0,-28.53648 -14.20539,0 0,-14.20538 -14.20538,0 0,-14.20539 -28.53648,0 0,-14.33109 -71.27833,0 0,14.33109 -14.3311,0 0,14.20539 -14.20538,0 0,42.74186 14.20538,0 0,14.20538 14.3311,0 0,14.33109 14.20538,0 0,-57.07295 42.74186,0 0,14.33109 14.33109,0 0,14.20539 14.20539,0 0,57.07295 -14.20539,0 0,14.20538 -14.33109,0 0,14.20539 -28.41076,0 0,14.33109 -28.53648,0 0,-14.33109 -42.74186,0 0,-14.20539 -14.33109,0 0,-14.20538 -28.53648,0 0,-14.33109 -42.74186,0 0,-14.20539 -85.48372,0 -85.48372,0 0,14.20539 -42.74186,0 0,14.33109 -28.53648,0 0,14.20538 -14.33109,0 0,14.20539 -42.74186,0 0,14.33109 -28.53648,0 0,-14.33109 -28.41076,0 0,-14.20539 -14.33109,0 0,-14.20538 -14.20539,0 0,-57.07295 14.20539,0 0,-14.20539 14.33109,0 0,-14.33109 42.74186,0 0,57.07295 14.20538,0 0,-14.33109 14.3311,0 0,-14.20538 14.20538,0 0,-42.74186 -14.20538,0 0,-14.20539 -14.3311,0 0,-14.33109 -71.27833,0 z"
       id="path3246"
       inkscape:connector-curvature="0" />
  </g>
</svg>
