<?xml version="1.0" encoding="UTF-8" standalone="no"?>
<!-- Created with Inkscape (http://www.inkscape.org/) -->

<svg
   xmlns:dc="http://purl.org/dc/elements/1.1/"
   xmlns:cc="http://creativecommons.org/ns#"
   xmlns:rdf="http://www.w3.org/1999/02/22-rdf-syntax-ns#"
   xmlns:svg="http://www.w3.org/2000/svg"
   xmlns="http://www.w3.org/2000/svg"
   xmlns:sodipodi="http://sodipodi.sourceforge.net/DTD/sodipodi-0.dtd"
   xmlns:inkscape="http://www.inkscape.org/namespaces/inkscape"
   width="885.82672"
   height="885.82672"
   id="svg3016"
   version="1.1"
   inkscape:version="0.48.4 r9939"
   sodipodi:docname="9.svg">
  <defs
     id="defs3018" />
  <sodipodi:namedview
     id="base"
     pagecolor="#ffffff"
     bordercolor="#666666"
     borderopacity="1.0"
     inkscape:pageopacity="0.0"
     inkscape:pageshadow="2"
     inkscape:zoom="0.56783114"
     inkscape:cx="442.91336"
     inkscape:cy="442.91336"
     inkscape:document-units="mm"
     inkscape:current-layer="layer1"
     showgrid="false"
     units="mm"
     inkscape:window-width="1366"
     inkscape:window-height="702"
     inkscape:window-x="0"
     inkscape:window-y="27"
     inkscape:window-maximized="1">
    <inkscape:grid
       type="xygrid"
       id="grid3024"
       empspacing="5"
       visible="true"
       enabled="true"
       snapvisiblegridlinesonly="true"
       units="mm"
       spacingx="1mm"
       spacingy="1mm" />
  </sodipodi:namedview>
  <metadata
     id="metadata3021">
    <rdf:RDF>
      <cc:Work
         rdf:about="">
        <dc:format>image/svg+xml</dc:format>
        <dc:type
           rdf:resource="http://purl.org/dc/dcmitype/StillImage" />
        <dc:title></dc:title>
      </cc:Work>
    </rdf:RDF>
  </metadata>
  <g
     inkscape:label="Layer 1"
     inkscape:groupmode="layer"
     id="layer1"
     transform="translate(0,-166.53541)">
    <path
       inkscape:connector-curvature="0"
       id="path2987"
       style="font-size:144px;font-style:normal;font-variant:normal;font-weight:normal;font-stretch:normal;text-align:center;line-height:125%;letter-spacing:0px;word-spacing:0px;text-anchor:middle;fill:none;fill-opacity:1;stroke:#000000;font-family:'8bit';-inkscape-font-specification:'8bit'"
       d="m 836.19975,981.41012 -9.792,0 0,10.224 -10.224,0 0,10.36798 -41.328,0 0,-10.07998 30.24,0 0,-10.224 10.656,0 0,-10.08 -40.896,0 0,-10.368 -10.368,0 0,-20.736 9.792,0 0,-10.224 51.696,0 0,9.792 10.224,0 0,41.328 m -20.592,-20.592 0,-20.304 -30.528,0 0,20.304 30.528,0" />
    <path
       inkscape:connector-curvature="0"
       style="fill:none;stroke:#000000"
       d="m 314.33923,438.0389 0,43.02465 -86.43004,0 0,43.40539 -43.02464,0 0,43.02464 -43.40539,0 0,43.4054 -43.024655,0 0,43.02464 86.430045,0 0,43.02464 43.02464,0 0,43.4054 43.4054,0 0,-43.4054 43.02464,0 0,-43.02464 86.43004,0 0,43.02464 86.43003,0 0,-43.02464 86.04929,0 0,43.02464 43.40539,0 0,43.4054 43.02465,0 0,-43.4054 43.02464,0 0,-43.02464 86.43004,0 0,-43.02464 -43.02465,0 0,-43.4054 -43.40539,0 0,-43.02464 -43.02464,0 0,-43.40539 -86.43004,0 0,-43.02465 -258.90936,0 z m -86.43004,129.45468 43.4054,0 0,43.4054 -43.4054,0 0,-43.4054 z m 129.45468,0 43.4054,0 0,43.4054 -43.4054,0 0,-43.4054 z m 129.83543,0 43.02465,0 0,43.4054 -43.02465,0 0,-43.4054 z m 129.45468,0 43.02465,0 0,43.4054 -43.02465,0 0,-43.4054 z"
       id="path3288" />
  </g>
</svg>
