<?xml version="1.0" encoding="UTF-8" standalone="no"?>
<!-- Created with Inkscape (http://www.inkscape.org/) -->

<svg
   xmlns:dc="http://purl.org/dc/elements/1.1/"
   xmlns:cc="http://creativecommons.org/ns#"
   xmlns:rdf="http://www.w3.org/1999/02/22-rdf-syntax-ns#"
   xmlns:svg="http://www.w3.org/2000/svg"
   xmlns="http://www.w3.org/2000/svg"
   xmlns:sodipodi="http://sodipodi.sourceforge.net/DTD/sodipodi-0.dtd"
   xmlns:inkscape="http://www.inkscape.org/namespaces/inkscape"
   width="2979.9211"
   height="4212.9922"
   id="svg2"
   version="1.1"
   inkscape:version="0.48.4 r9939"
   sodipodi:docname="cardboard_box.svg">
  <defs
     id="defs4" />
  <sodipodi:namedview
     id="base"
     pagecolor="#ffffff"
     bordercolor="#666666"
     borderopacity="1.0"
     inkscape:pageopacity="0.0"
     inkscape:pageshadow="2"
     inkscape:zoom="0.32931208"
     inkscape:cx="1591.7449"
     inkscape:cy="2173.8477"
     inkscape:document-units="mm"
     inkscape:current-layer="layer7"
     showgrid="false"
     units="cm"
     inkscape:window-width="960"
     inkscape:window-height="1018"
     inkscape:window-x="0"
     inkscape:window-y="27"
     inkscape:window-maximized="0"
     showguides="false"
     inkscape:guide-bbox="true"
     inkscape:object-nodes="true"
     inkscape:snap-smooth-nodes="false"
     inkscape:object-paths="true"
     inkscape:snap-intersection-paths="true"
     inkscape:snap-global="true">
    <inkscape:grid
       type="xygrid"
       id="grid2985"
       empspacing="5"
       visible="true"
       enabled="true"
       snapvisiblegridlinesonly="true"
       units="mm"
       spacingx="1mm"
       spacingy="1mm" />
    <sodipodi:guide
       orientation="1,0"
       position="1224.2126,2708.8582"
       id="guide3025" />
    <sodipodi:guide
       orientation="0,1"
       position="1224.2126,2708.8582"
       id="guide3027" />
    <sodipodi:guide
       orientation="1,0"
       position="1660.0394,2708.8582"
       id="guide3029" />
    <sodipodi:guide
       orientation="0,1"
       position="1224.2126,2273.0315"
       id="guide3031" />
    <sodipodi:guide
       orientation="0,1"
       position="1442.126,2490.945"
       id="guide3033" />
    <sodipodi:guide
       orientation="1,0"
       position="1442.126,2490.945"
       id="guide3035" />
    <sodipodi:guide
       orientation="0,1"
       position="1091.3387,951.37768"
       id="guide3069" />
    <sodipodi:guide
       orientation="0,1"
       position="1100.1969,515.55094"
       id="guide3071" />
    <sodipodi:guide
       orientation="-0.70710678,0.70710678"
       position="1006.2992,3812.5984"
       id="guide3016" />
    <sodipodi:guide
       orientation="0.70710678,0.70710678"
       position="1877.9528,3812.5984"
       id="guide3018" />
    <sodipodi:guide
       orientation="1,0"
       position="953.14961,3663.7795"
       id="guide3020" />
    <sodipodi:guide
       orientation="0.70710678,0.70710678"
       position="1006.2992,2926.7717"
       id="guide3024" />
    <sodipodi:guide
       orientation="-0.70710678,0.70710678"
       position="2763.7795,2055.1181"
       id="guide3019" />
    <sodipodi:guide
       orientation="1,0"
       position="2816.9291,2108.2677"
       id="guide3021" />
    <sodipodi:guide
       orientation="0,1"
       position="2196.8504,2979.9213"
       id="guide3028" />
    <sodipodi:guide
       orientation="0.70710678,0.70710678"
       position="2586.6142,2926.7717"
       id="guide3030" />
    <sodipodi:guide
       orientation="1,0"
       position="1240.1575,3812.5984"
       id="guide3084" />
    <sodipodi:guide
       orientation="1,0"
       position="1651.1811,3819.685"
       id="guide3086" />
    <sodipodi:guide
       orientation="1,0"
       position="1328.7402,283.46457"
       id="guide3072" />
    <sodipodi:guide
       orientation="1,0"
       position="1204.7244,283.46457"
       id="guide3074" />
    <sodipodi:guide
       orientation="1,0"
       position="1364.1732,283.46457"
       id="guide3076" />
    <sodipodi:guide
       orientation="1,0"
       position="1527.1654,283.46457"
       id="guide3078" />
    <sodipodi:guide
       orientation="1,0"
       position="1562.5984,279.92126"
       id="guide3080" />
    <sodipodi:guide
       orientation="1,0"
       position="1686.6142,290.55118"
       id="guide3082" />
    <sodipodi:guide
       orientation="1,0"
       position="2462.5984,2923.2283"
       id="guide3091" />
    <sodipodi:guide
       orientation="-0.70710678,0.70710678"
       position="1924.0157,2979.9213"
       id="guide3384" />
    <sodipodi:guide
       orientation="1,0"
       position="1959.4488,3805.5118"
       id="guide3386" />
    <sodipodi:guide
       orientation="0.70710678,0.70710678"
       position="1870.8661,2048.0315"
       id="guide3411" />
    <sodipodi:guide
       orientation="1,0"
       position="1877.9528,2882.9205"
       id="guide3096" />
    <sodipodi:guide
       orientation="0,1"
       position="1795.3991,2926.7717"
       id="guide3098" />
    <sodipodi:guide
       orientation="1,0"
       position="1006.2992,2751.0997"
       id="guide3100" />
    <sodipodi:guide
       orientation="0,1"
       position="1076.9758,2055.1181"
       id="guide3102" />
    <sodipodi:guide
       orientation="1,0"
       position="1424.409,2708.8577"
       id="guide3128" />
    <sodipodi:guide
       orientation="1,0"
       position="1459.8431,2708.8577"
       id="guide3130" />
    <sodipodi:guide
       orientation="0,1"
       position="1660.0388,2508.6619"
       id="guide3132" />
    <sodipodi:guide
       orientation="0,1"
       position="1660.0388,2473.2278"
       id="guide3134" />
    <sodipodi:guide
       orientation="0,1"
       position="1619.2914,2668.1101"
       id="guide3136" />
    <sodipodi:guide
       orientation="1,0"
       position="1619.2914,2668.1101"
       id="guide3138" />
    <sodipodi:guide
       orientation="0,1"
       position="1619.2914,2313.7795"
       id="guide3140" />
    <sodipodi:guide
       orientation="1,0"
       position="1264.9607,2668.1101"
       id="guide3142" />
  </sodipodi:namedview>
  <metadata
     id="metadata7">
    <rdf:RDF>
      <cc:Work
         rdf:about="">
        <dc:format>image/svg+xml</dc:format>
        <dc:type
           rdf:resource="http://purl.org/dc/dcmitype/StillImage" />
        <dc:title />
      </cc:Work>
    </rdf:RDF>
  </metadata>
  <g
     inkscape:groupmode="layer"
     id="layer6"
     inkscape:label="Info Text"
     style="display:inline">
    <g
       style="font-size:40px;font-style:normal;font-weight:normal;line-height:125%;letter-spacing:0px;word-spacing:0px;fill:#808000;fill-opacity:1;stroke:#808000;font-family:Sans"
       id="text4238">
      <path
         d="m 2009.2733,536.22546 4.2383,0 8.0859,11.99219 8.0274,-11.99219 4.2383,0 -10.3125,15.27344 0,13.88672 -3.9649,0 0,-13.88672 -10.3125,-15.27344"
         style="fill:none;stroke:#808000"
         id="path3288" />
      <path
         d="m 2050.9725,553.54968 0,1.75782 -16.5234,0 c 0.1562,2.47396 0.8984,4.36198 2.2266,5.66406 1.3411,1.28906 3.2031,1.93359 5.5859,1.93359 1.3802,0 2.7148,-0.16927 4.0039,-0.50781 1.3021,-0.33854 2.5911,-0.84635 3.8672,-1.52344 l 0,3.39844 c -1.2891,0.54687 -2.6107,0.96354 -3.9649,1.25 -1.3541,0.28646 -2.7278,0.42969 -4.121,0.42969 -3.4896,0 -6.2566,-1.01563 -8.3008,-3.04688 -2.0313,-2.03124 -3.0469,-4.77864 -3.0469,-8.24219 0,-3.58071 0.9635,-6.41925 2.8906,-8.51562 1.9401,-2.10935 4.5508,-3.16404 7.8321,-3.16406 2.9426,2e-5 5.2669,0.95054 6.9726,2.85156 1.7187,1.88804 2.5781,4.45965 2.5781,7.71484 m -3.5937,-1.05468 c -0.026,-1.96614 -0.5795,-3.53514 -1.6602,-4.70704 -1.0677,-1.17185 -2.487,-1.75779 -4.2578,-1.75781 -2.0052,2e-5 -3.6133,0.56643 -4.8242,1.69922 -1.1979,1.13283 -1.888,2.72788 -2.0703,4.78516 l 12.8125,-0.0195"
         style="fill:none;stroke:#808000"
         id="path3290" />
      <path
         d="m 2056.871,534.995 3.5937,0 0,30.39062 -3.5937,0 0,-30.39062"
         style="fill:none;stroke:#808000"
         id="path3292" />
      <path
         d="m 2067.9647,534.995 3.5938,0 0,30.39062 -3.5938,0 0,-30.39062"
         style="fill:none;stroke:#808000"
         id="path3294" />
      <path
         d="m 2087.535,546.03015 c -1.9271,2e-5 -3.4505,0.75523 -4.5703,2.26563 -1.1198,1.49741 -1.6797,3.5547 -1.6797,6.17187 0,2.6172 0.5534,4.681 1.6602,6.19141 1.1198,1.4974 2.6497,2.24609 4.5898,2.24609 1.9141,0 3.431,-0.7552 4.5508,-2.26562 1.1198,-1.51041 1.6797,-3.5677 1.6797,-6.17188 0,-2.59113 -0.5599,-4.64191 -1.6797,-6.15234 -1.1198,-1.52342 -2.6367,-2.28514 -4.5508,-2.28516 m 0,-3.04687 c 3.125,2e-5 5.5794,1.01564 7.3633,3.04687 1.7838,2.03127 2.6758,4.84377 2.6758,8.4375 0,3.58074 -0.892,6.39324 -2.6758,8.4375 -1.7839,2.03125 -4.2383,3.04688 -7.3633,3.04688 -3.138,0 -5.5989,-1.01563 -7.3828,-3.04688 -1.7708,-2.04426 -2.6562,-4.85676 -2.6562,-8.4375 0,-3.59373 0.8854,-6.40623 2.6562,-8.4375 1.7839,-2.03123 4.2448,-3.04685 7.3828,-3.04687"
         style="fill:none;stroke:#808000"
         id="path3296" />
      <path
         d="m 2101.4218,543.51062 3.5937,0 4.4922,17.07031 4.4726,-17.07031 4.2383,0 4.4922,17.07031 4.4727,-17.07031 3.5937,0 -5.7226,21.875 -4.2383,0 -4.707,-17.92969 -4.7266,17.92969 -4.2383,0 -5.7226,-21.875"
         style="fill:none;stroke:#808000"
         id="path3298" />
      <path
         d="m 2148.9803,543.51062 3.5938,0 0,21.875 -3.5938,0 0,-21.875 m 0,-8.51562 3.5938,0 0,4.55078 -3.5938,0 0,-4.55078"
         style="fill:none;stroke:#808000"
         id="path3300" />
      <path
         d="m 2174.0194,544.15515 0,3.39844 c -1.0156,-0.52082 -2.0703,-0.91144 -3.1641,-1.17188 -1.0937,-0.26039 -2.2265,-0.3906 -3.3984,-0.39062 -1.7839,2e-5 -3.125,0.27346 -4.0234,0.82031 -0.8855,0.54689 -1.3282,1.36721 -1.3282,2.46094 0,0.83335 0.3191,1.4909 0.9571,1.97266 0.638,0.46876 1.9205,0.91798 3.8476,1.34765 l 1.2305,0.27344 c 2.5521,0.54689 4.362,1.32162 5.4297,2.32422 1.0807,0.98959 1.6211,2.37631 1.6211,4.16015 0,2.03126 -0.8073,3.63933 -2.4219,4.82422 -1.6016,1.1849 -3.8086,1.77735 -6.6211,1.77735 -1.1719,0 -2.3958,-0.11719 -3.6719,-0.35157 -1.263,-0.22135 -2.5976,-0.55989 -4.0039,-1.01562 l 0,-3.71094 c 1.3282,0.69011 2.6367,1.21094 3.9258,1.5625 1.2891,0.33855 2.5651,0.50782 3.8281,0.50781 1.6927,10e-6 2.9948,-0.28645 3.9063,-0.85937 0.9114,-0.58593 1.3672,-1.40625 1.3672,-2.46094 0,-0.97655 -0.3321,-1.72525 -0.9961,-2.24609 -0.6511,-0.52083 -2.0899,-1.02213 -4.3164,-1.50391 l -1.25,-0.29297 c -2.2266,-0.46874 -3.8347,-1.18488 -4.8242,-2.14843 -0.9896,-0.97655 -1.4844,-2.31119 -1.4844,-4.00391 0,-2.05727 0.7291,-3.64581 2.1875,-4.76563 1.4583,-1.11977 3.5286,-1.67966 6.2109,-1.67968 1.3281,2e-5 2.5781,0.0977 3.75,0.29297 1.1719,0.19533 2.2526,0.4883 3.2422,0.8789"
         style="fill:none;stroke:#808000"
         id="path3302" />
      <path
         d="m 2204.7421,534.995 0,2.98828 -3.4375,0 c -1.2891,2e-5 -2.1875,0.26044 -2.6953,0.78125 -0.4948,0.52086 -0.7422,1.45835 -0.7422,2.8125 l 0,1.93359 5.9179,0 0,2.79297 -5.9179,0 0,19.08203 -3.6133,0 0,-19.08203 -3.4375,0 0,-2.79297 3.4375,0 0,-1.52344 c 0,-2.43487 0.5664,-4.2057 1.6992,-5.3125 1.1328,-1.11976 2.9297,-1.67965 5.3906,-1.67968 l 3.3985,0"
         style="fill:none;stroke:#808000"
         id="path3304" />
      <path
         d="m 2216.2069,546.03015 c -1.9271,2e-5 -3.4505,0.75523 -4.5703,2.26563 -1.1198,1.49741 -1.6797,3.5547 -1.6797,6.17187 0,2.6172 0.5534,4.681 1.6602,6.19141 1.1197,1.4974 2.6497,2.24609 4.5898,2.24609 1.9141,0 3.431,-0.7552 4.5508,-2.26562 1.1198,-1.51041 1.6797,-3.5677 1.6797,-6.17188 0,-2.59113 -0.5599,-4.64191 -1.6797,-6.15234 -1.1198,-1.52342 -2.6367,-2.28514 -4.5508,-2.28516 m 0,-3.04687 c 3.125,2e-5 5.5794,1.01564 7.3633,3.04687 1.7838,2.03127 2.6757,4.84377 2.6758,8.4375 -1e-4,3.58074 -0.892,6.39324 -2.6758,8.4375 -1.7839,2.03125 -4.2383,3.04688 -7.3633,3.04688 -3.138,0 -5.599,-1.01563 -7.3828,-3.04688 -1.7708,-2.04426 -2.6563,-4.85676 -2.6563,-8.4375 0,-3.59373 0.8855,-6.40623 2.6563,-8.4375 1.7838,-2.03123 4.2448,-3.04685 7.3828,-3.04687"
         style="fill:none;stroke:#808000"
         id="path3306" />
      <path
         d="m 2232.1835,534.995 3.5937,0 0,30.39062 -3.5937,0 0,-30.39062"
         style="fill:none;stroke:#808000"
         id="path3308" />
      <path
         d="m 2257.6718,546.83093 0,-11.83593 3.5937,0 0,30.39062 -3.5937,0 0,-3.28125 c -0.7553,1.30209 -1.7123,2.27214 -2.8711,2.91016 -1.1459,0.625 -2.5261,0.9375 -4.1407,0.9375 -2.6432,0 -4.7981,-1.05469 -6.4648,-3.16407 -1.6537,-2.10937 -2.4805,-4.8828 -2.4805,-8.32031 0,-3.43748 0.8268,-6.21092 2.4805,-8.32031 1.6667,-2.10935 3.8216,-3.16404 6.4648,-3.16406 1.6146,2e-5 2.9948,0.31903 4.1407,0.95703 1.1588,0.62502 2.1158,1.58856 2.8711,2.89062 m -12.2461,7.63672 c 0,2.64324 0.5403,4.72006 1.6211,6.23047 1.0937,1.4974 2.5911,2.2461 4.4921,2.24609 1.9011,10e-6 3.3985,-0.74869 4.4922,-2.24609 1.0938,-1.51041 1.6406,-3.58723 1.6407,-6.23047 -1e-4,-2.64321 -0.5469,-4.71352 -1.6407,-6.21094 -1.0937,-1.51039 -2.5911,-2.2656 -4.4922,-2.26562 -1.901,2e-5 -3.3984,0.75523 -4.4921,2.26562 -1.0808,1.49742 -1.6211,3.56773 -1.6211,6.21094"
         style="fill:none;stroke:#808000"
         id="path3310" />
      <path
         d="m 2017.2225,601.45984 0,10.68359 6.3282,0 c 2.1223,1e-5 3.6913,-0.43619 4.707,-1.30859 1.0286,-0.88541 1.5429,-2.23307 1.543,-4.04297 -10e-5,-1.82291 -0.5144,-3.16405 -1.543,-4.02344 -1.0157,-0.87238 -2.5847,-1.30858 -4.707,-1.30859 l -6.3282,0 m 0,-11.99219 0,8.78906 5.8399,0 c 1.927,2e-5 3.3593,-0.35805 4.2969,-1.07421 0.9505,-0.72915 1.4257,-1.83592 1.4257,-3.32032 0,-1.47133 -0.4752,-2.57159 -1.4257,-3.30078 -0.9376,-0.72914 -2.3699,-1.09372 -4.2969,-1.09375 l -5.8399,0 m -3.9453,-3.24219 10.0781,0 c 3.0078,3e-5 5.3255,0.62503 6.9532,1.875 1.6276,1.25003 2.4414,3.02737 2.4414,5.33204 0,1.78387 -0.4167,3.20314 -1.25,4.25781 -0.8334,1.0547 -2.0573,1.71225 -3.6719,1.97265 1.9401,0.41669 3.444,1.28908 4.5117,2.61719 1.0807,1.31512 1.6211,2.96225 1.6211,4.94141 0,2.60417 -0.8854,4.61589 -2.6562,6.03515 -1.7709,1.41928 -4.2904,2.12891 -7.5586,2.12891 l -10.4688,0 0,-29.16016"
         style="fill:none;stroke:#0000ff"
         id="path3312" />
      <path
         d="m 2040.5428,584.995 3.5938,0 0,30.39062 -3.5938,0 0,-30.39062"
         style="fill:none;stroke:#0000ff"
         id="path3314" />
      <path
         d="m 2051.2655,606.75281 0,-13.24219 3.5938,0 0,13.10547 c -1e-4,2.07032 0.4036,3.62631 1.2109,4.66797 0.8073,1.02865 2.0182,1.54297 3.6328,1.54297 1.9401,0 3.47,-0.61849 4.5898,-1.85547 1.1328,-1.23698 1.6992,-2.92317 1.6993,-5.0586 l 0,-12.40234 3.5937,0 0,21.875 -3.5937,0 0,-3.35937 c -0.8724,1.32812 -1.8881,2.3177 -3.0469,2.96875 -1.1459,0.63802 -2.4805,0.95703 -4.0039,0.95703 -2.513,0 -4.4206,-0.78125 -5.7227,-2.34375 -1.3021,-1.5625 -1.9531,-3.84765 -1.9531,-6.85547 m 9.043,-13.76953 0,0"
         style="fill:none;stroke:#0000ff"
         id="path3316" />
      <path
         d="m 2095.7382,603.54968 0,1.75782 -16.5235,0 c 0.1563,2.47396 0.8985,4.36198 2.2266,5.66406 1.3411,1.28906 3.2031,1.93359 5.5859,1.93359 1.3802,0 2.7148,-0.16927 4.0039,-0.50781 1.3021,-0.33854 2.5912,-0.84635 3.8672,-1.52344 l 0,3.39844 c -1.2891,0.54687 -2.6107,0.96354 -3.9648,1.25 -1.3542,0.28646 -2.7279,0.42969 -4.1211,0.42969 -3.4896,0 -6.2565,-1.01563 -8.3008,-3.04688 -2.0313,-2.03124 -3.0469,-4.77864 -3.0469,-8.24219 0,-3.58071 0.9636,-6.41925 2.8906,-8.51562 1.9401,-2.10935 4.5508,-3.16404 7.8321,-3.16406 2.9427,2e-5 5.2669,0.95054 6.9726,2.85156 1.7188,1.88804 2.5781,4.45965 2.5782,7.71484 m -3.5938,-1.05468 c -0.026,-1.96614 -0.5794,-3.53514 -1.6601,-4.70704 -1.0678,-1.17185 -2.487,-1.75779 -4.2579,-1.75781 -2.0052,2e-5 -3.6133,0.56643 -4.8242,1.69922 -1.1979,1.13283 -1.888,2.72788 -2.0703,4.78516 l 12.8125,-0.0195"
         style="fill:none;stroke:#0000ff"
         id="path3318" />
      <path
         d="m 2114.371,593.51062 3.5937,0 0,21.875 -3.5937,0 0,-21.875 m 0,-8.51562 3.5937,0 0,4.55078 -3.5937,0 0,-4.55078"
         style="fill:none;stroke:#0000ff"
         id="path3320" />
      <path
         d="m 2139.41,594.15515 0,3.39844 c -1.0156,-0.52082 -2.0703,-0.91144 -3.164,-1.17188 -1.0938,-0.26039 -2.2266,-0.3906 -3.3985,-0.39062 -1.7838,2e-5 -3.125,0.27346 -4.0234,0.82031 -0.8854,0.54689 -1.3281,1.36721 -1.3281,2.46094 0,0.83335 0.319,1.4909 0.957,1.97266 0.638,0.46876 1.9206,0.91798 3.8477,1.34765 l 1.2304,0.27344 c 2.5521,0.54689 4.362,1.32162 5.4297,2.32422 1.0807,0.98959 1.6211,2.37631 1.6211,4.16015 0,2.03126 -0.8073,3.63933 -2.4219,4.82422 -1.6015,1.1849 -3.8086,1.77735 -6.6211,1.77735 -1.1718,0 -2.3958,-0.11719 -3.6718,-0.35157 -1.2631,-0.22135 -2.5977,-0.55989 -4.0039,-1.01562 l 0,-3.71094 c 1.3281,0.69011 2.6367,1.21094 3.9257,1.5625 1.2891,0.33855 2.5651,0.50782 3.8282,0.50781 1.6927,10e-6 2.9947,-0.28645 3.9062,-0.85937 0.9115,-0.58593 1.3672,-1.40625 1.3672,-2.46094 0,-0.97655 -0.332,-1.72525 -0.9961,-2.24609 -0.651,-0.52083 -2.0898,-1.02213 -4.3164,-1.50391 l -1.25,-0.29297 c -2.2266,-0.46874 -3.8346,-1.18488 -4.8242,-2.14843 -0.9896,-0.97655 -1.4844,-2.31119 -1.4844,-4.00391 0,-2.05727 0.7292,-3.64581 2.1875,-4.76563 1.4583,-1.11977 3.5286,-1.67966 6.2109,-1.67968 1.3282,2e-5 2.5782,0.0977 3.75,0.29297 1.1719,0.19533 2.2526,0.4883 3.2422,0.8789"
         style="fill:none;stroke:#0000ff"
         id="path3322" />
      <path
         d="m 2174.8007,594.35046 0,3.35938 c -1.0157,-0.55988 -2.0378,-0.97654 -3.0664,-1.25 -1.0157,-0.28644 -2.0443,-0.42967 -3.086,-0.42969 -2.3307,2e-5 -4.1406,0.74221 -5.4297,2.22656 -1.289,1.47137 -1.9336,3.54168 -1.9336,6.21094 0,2.66928 0.6446,4.7461 1.9336,6.23047 1.2891,1.47136 3.099,2.20703 5.4297,2.20703 1.0417,0 2.0703,-0.13671 3.086,-0.41015 1.0286,-0.28646 2.0507,-0.70964 3.0664,-1.26954 l 0,3.32032 c -1.0027,0.46875 -2.0443,0.82031 -3.125,1.05468 -1.0678,0.23438 -2.2071,0.35157 -3.418,0.35157 -3.2943,0 -5.9115,-1.03516 -7.8516,-3.10547 -1.9401,-2.07031 -2.9101,-4.86328 -2.9101,-8.37891 0,-3.56769 0.9765,-6.37368 2.9297,-8.41797 1.9661,-2.04425 4.6549,-3.06638 8.0664,-3.0664 1.1067,2e-5 2.1875,0.11721 3.2422,0.35156 1.0546,0.22137 2.0768,0.55992 3.0664,1.01562"
         style="fill:none;stroke:#0000ff"
         id="path3324" />
      <path
         d="m 2180.7186,606.75281 0,-13.24219 3.5938,0 0,13.10547 c 0,2.07032 0.4036,3.62631 1.2109,4.66797 0.8073,1.02865 2.0182,1.54297 3.6328,1.54297 1.9401,0 3.4701,-0.61849 4.5899,-1.85547 1.1328,-1.23698 1.6992,-2.92317 1.6992,-5.0586 l 0,-12.40234 3.5937,0 0,21.875 -3.5937,0 0,-3.35937 c -0.8724,1.32812 -1.888,2.3177 -3.0469,2.96875 -1.1458,0.63802 -2.4805,0.95703 -4.0039,0.95703 -2.513,0 -4.4206,-0.78125 -5.7226,-2.34375 -1.3021,-1.5625 -1.9532,-3.84765 -1.9532,-6.85547 m 9.043,-13.76953 0,0"
         style="fill:none;stroke:#0000ff"
         id="path3326" />
      <path
         d="m 2210.035,587.29968 0,6.21094 7.4024,0 0,2.79297 -7.4024,0 0,11.875 c 0,1.78386 0.2409,2.92969 0.7227,3.4375 0.4948,0.50781 1.4909,0.76172 2.9883,0.76172 l 3.6914,0 0,3.00781 -3.6914,0 c -2.7735,0 -4.6875,-0.51432 -5.7422,-1.54297 -1.0547,-1.04166 -1.5821,-2.92968 -1.582,-5.66406 l 0,-11.875 -2.6368,0 0,-2.79297 2.6368,0 0,-6.21094 3.6132,0"
         style="fill:none;stroke:#0000ff"
         id="path3328" />
    </g>
  </g>
  <g
     inkscape:groupmode="layer"
     id="layer7"
     inkscape:label="Die Cut"
     style="display:inline">
    <path
       style="fill:none;stroke:#0000ff;stroke-width:1.41732287000000001;stroke-linecap:butt;stroke-linejoin:miter;stroke-miterlimit:4;stroke-opacity:1;stroke-dasharray:none"
       d="m 2756.6875,1293.3125 -173.625,0 3.5625,-3.5313 c 1.5502,-1.5499 2.2745,-3.1218 2.375,-4.9687 0.1292,-2.3746 -0.7805,-5.2323 -2.375,-9.2187 l -12.8125,-32 c -0.7931,-1.9792 -3.1529,-3.4273 -4.875,-3.4063 l -124.0937,0 c -1.7221,-0.021 -4.0818,1.4271 -4.875,3.4063 l -12.8126,32 c -1.5942,3.9864 -2.5041,6.8441 -2.375,9.2187 0.1007,1.8469 0.8253,3.4188 2.375,4.9687 l 3.5626,3.5313 -170.0938,0 3.5625,-3.5313 c 1.5502,-1.5498 2.2745,-3.1216 2.375,-4.9687 0.1292,-2.3746 -0.7805,-5.2323 -2.375,-9.2187 l -12.8125,-32 c -0.7931,-1.9792 -3.1529,-3.4272 -4.875,-3.4063 l -124.0938,0 c -1.7219,-0.021 -4.0814,1.4271 -4.875,3.4063 l -12.8124,32 c -1.5946,3.9864 -2.5047,6.8442 -2.375,9.2187 0.1005,1.847 0.8247,3.4189 2.375,4.9687 l 3.5624,3.5313 -237.4062,0 0,-7.0937 88.5625,-88.5938 0,-754.71875 -88.5625,-35.4375 -187.8125,0 3.5625,-3.53125 c 1.5502,-1.5505 2.2745,-3.12185 2.375,-4.96875 0.1292,-2.3746 -0.7805,-5.23225 -2.375,-9.21875 l -12.8125,-32 c -0.7931,-1.9791 -3.1529,-3.42725 -4.875,-3.40625 l -124.0937,0 c -1.7229,-0.021 -4.0826,1.42715 -4.875,3.40625 l -12.8126,32 c -1.5942,3.9866 -2.5036,6.84415 -2.375,9.21875 0.1014,1.8469 0.8252,3.41825 2.375,4.96875 l 3.5626,3.53125 -170.0938,0 3.5625,-3.53125 c 1.5502,-1.5505 2.2745,-3.12185 2.375,-4.96875 0.1292,-2.3746 -0.7805,-5.23225 -2.375,-9.21875 l -12.8125,-32 c -0.7931,-1.9791 -3.1529,-3.42725 -4.875,-3.40625 l -124.0938,0 c -1.7219,-0.021 -4.0815,1.42715 -4.875,3.40625 l -12.8124,32 c -1.5956,3.9866 -2.5053,6.84415 -2.375,9.21875 0.1005,1.8469 0.8237,3.41825 2.375,4.96875 l 3.5624,3.53125 -194.9062,0 -88.5625,35.4375 0.40625,754.71875 88.59375,88.5938 0,7.0937 -237.84375,0 3.5625,-3.5313 c 1.5502,-1.5505 2.2745,-3.1218 2.375,-4.9687 0.1292,-2.3746 -0.7805,-5.2322 -2.375,-9.2187 l -12.8125,-32 c -0.7931,-1.9792 -3.1529,-3.4273 -4.875,-3.4063 l -124.09375,0 c -1.7221,-0.021 -4.0818,1.4272 -4.875,3.4063 l -12.8125,32 c -1.5945,3.9865 -2.5042,6.8441 -2.375,9.2187 0.1006,1.8469 0.8248,3.4182 2.375,4.9687 l 3.5625,3.5313 -170.09375,0 3.5625,-3.5313 c 1.5502,-1.5504 2.2745,-3.1218 2.375,-4.9687 0.1292,-2.3746 -0.7805,-5.2323 -2.375,-9.2187 l -12.8125,-32 c -0.7931,-1.9792 -3.1529,-3.4273 -4.875,-3.4063 l -124.09375,0 c -1.7221,-0.021 -4.0818,1.4271 -4.875,3.4063 l -12.8125,32 c -1.5945,3.9864 -2.5042,6.8441 -2.375,9.2187 0.1006,1.8469 0.8248,3.4183 2.375,4.9687 l 3.5625,3.5313 -173.21875,0 -0.1875,17.7187 L 124,1300.4062 c -1.8809,-5.6422 -5.1868,-7.2963 -9.625,-7.1562 -4.4382,0.1402 -9.995,2.0602 -16.375,3.5938 l -53.34375,12.8124 c -3.2998,0.7935 -5.7225,3.1531 -5.6875,4.875 l 0,815 c -0.035,1.7221 2.3877,4.0816 5.6875,4.875 L 98,2147.2188 c 6.38,1.5324 11.9368,3.4535 16.375,3.5937 4.4382,0.1401 7.7441,-1.5131 9.625,-7.1563 l 3.5625,-10.5937 0,17.7187 173.625,0 -3.5625,3.5313 c -1.5502,1.5505 -2.2744,3.1218 -2.375,4.9687 -0.1292,2.3749 0.7805,5.2322 2.375,9.2188 l 12.8125,32 c 0.7932,1.9791 3.1529,3.4273 4.875,3.4062 l 124.09375,0 c 1.7221,0.021 4.0819,-1.4271 4.875,-3.4062 l 12.8125,-32 c 1.5945,-3.9865 2.5042,-6.8439 2.375,-9.2188 -0.1005,-1.8469 -0.8248,-3.4182 -2.375,-4.9687 l -3.5625,-3.5313 170.09375,0 -3.5625,3.5313 c -1.5502,1.5505 -2.2744,3.1218 -2.375,4.9687 -0.1292,2.375 0.7805,5.2322 2.375,9.2188 l 12.8125,32 c 0.7932,1.9791 3.1529,3.4273 4.875,3.4062 l 124.09375,0 c 1.7221,0.021 4.0819,-1.4271 4.875,-3.4062 l 12.8125,-32 c 1.5945,-3.9865 2.5042,-6.8438 2.375,-9.2188 -0.1005,-1.8469 -0.8248,-3.4182 -2.375,-4.9687 l -3.5625,-3.5313 237.40625,0 0,14.1876 -88.5625,88.5624 0,751.1876 88.5625,35.4374 0,10.625 -7.0625,0 0,857.4882 17.7187,0 -10.625,3.5625 c -5.6426,1.8809 -7.2963,5.1868 -7.1562,9.625 0.1402,4.4382 2.0614,9.9949 3.5938,16.375 l 12.8124,53.3438 c 0.7935,3.2997 3.1531,5.7229 4.875,5.6874 l 829.2188,0 c 1.7219,0.035 4.0816,-2.3879 4.875,-5.6874 l 12.8125,-53.3438 c 1.5324,-6.38 3.4546,-11.9368 3.5937,-16.375 0.1404,-4.4382 -1.5134,-7.7441 -7.1562,-9.625 l -10.625,-3.5625 17.6875,0 0,-861.0194 -7.0625,0 0,-7.0938 88.5625,-35.4374 0,-751.1876 -88.5625,-88.5624 0,-14.1876 237.4062,0 -3.5624,3.5313 c -1.5503,1.5505 -2.2745,3.1218 -2.375,4.9687 -0.1297,2.375 0.7804,5.2322 2.375,9.2188 l 12.8124,32 c 0.7936,1.9791 3.1531,3.4273 4.875,3.4062 l 124.0938,0 c 1.7221,0.021 4.0819,-1.4271 4.875,-3.4062 l 12.8125,-32 c 1.5945,-3.9865 2.5042,-6.8438 2.375,-9.2188 -0.1005,-1.8469 -0.8248,-3.4182 -2.375,-4.9687 l -3.5625,-3.5313 170.0938,0 -3.5626,3.5313 c -1.5498,1.5505 -2.2743,3.1218 -2.375,4.9687 -0.1291,2.375 0.7808,5.2322 2.375,9.2188 l 12.8126,32 c 0.7932,1.9791 3.1529,3.4273 4.875,3.4062 l 124.0937,0 c 1.7221,0.021 4.0819,-1.4271 4.875,-3.4062 l 12.8125,-32 c 1.5945,-3.9865 2.5042,-6.8438 2.375,-9.2188 -0.1005,-1.8469 -0.8248,-3.4182 -2.375,-4.9687 l -3.5625,-3.5313 173.625,0 0,-17.7187 3.5625,10.625 c 1.8809,5.6428 5.1868,7.2964 9.625,7.1563 4.4382,-0.1402 9.995,-2.0614 16.375,-3.5938 l 53.3438,-12.8125 c 3.2998,-0.7934 5.7224,-3.1531 5.6874,-4.875 l 0,-815 c 0.035,-1.7219 -2.3876,-4.0816 -5.6874,-4.875 L 2786.25,1296.875 c -6.38,-1.5324 -11.9368,-3.4536 -16.375,-3.5938 -4.4382,-0.1401 -7.7441,1.5135 -9.625,7.1563 l -3.5625,10.6093 z"
       id="path3514"
       inkscape:connector-curvature="0"
       sodipodi:nodetypes="cccscccccccccccsccccccccccccccccsccccsccccccsccccccccccccccccscccccccccccsccccccccccccccccccscccccccccccccccccccccccccccccccccccccccsccccscccccccccccccccccccccccccccccccccccccccsccccscccc" />
    <path
       style="fill:none;stroke:#0000ff;stroke-width:1.41732287;stroke-miterlimit:4;stroke-dasharray:none"
       d="m 1863.7795,733.45331 10.625,0 c 1.963,0 3.5313,-1.59951 3.5313,-3.5625 l 0,-152.34375 c 0,-1.96299 -1.5683,-3.53125 -3.5313,-3.53125 l -10.625,0"
       id="rect3345"
       inkscape:connector-curvature="0"
       sodipodi:nodetypes="cssssc" />
    <path
       style="fill:none;stroke:#0000ff;stroke-width:1.41732287;stroke-miterlimit:4;stroke-dasharray:none"
       d="m 1863.7965,1055.9063 10.625,0 c 1.963,0 3.5313,-1.5995 3.5313,-3.5625 l 0,-152.34374 c 0,-1.96299 -1.5683,-3.53125 -3.5313,-3.53125 l -10.625,0"
       id="rect3345-1"
       inkscape:connector-curvature="0"
       sodipodi:nodetypes="cssssc" />
    <path
       style="fill:none;stroke:#0000ff;stroke-width:1.41732287;stroke-miterlimit:4;stroke-dasharray:none"
       d="m 1020.4555,1055.9063 -10.625,0 c -1.963,0 -3.5313,-1.5995 -3.5313,-3.5625 l 0,-152.34374 c 0,-1.96299 1.5683,-3.53125 3.5313,-3.53125 l 10.625,0"
       id="rect3345-8"
       inkscape:connector-curvature="0"
       sodipodi:nodetypes="cssssc" />
    <path
       style="fill:none;stroke:#0000ff;stroke-width:1.41732287;stroke-miterlimit:4;stroke-dasharray:none"
       d="m 1020.4555,733.46537 -10.625,0 c -1.963,0 -3.5313,-1.59951 -3.5313,-3.5625 l 0,-152.34375 c 0,-1.96299 1.5683,-3.53125 3.5313,-3.53125 l 10.625,0"
       id="rect3345-17"
       inkscape:connector-curvature="0"
       sodipodi:nodetypes="cssssc" />
    <path
       sodipodi:nodetypes="cssssc"
       inkscape:connector-curvature="0"
       id="path3479"
       d="m 1863.7795,2547.6265 10.625,0 c 1.963,0 3.5313,-1.5995 3.5313,-3.5625 l 0,-152.3438 c 0,-1.963 -1.5683,-3.5312 -3.5313,-3.5312 l -10.625,0"
       style="fill:none;stroke:#0000ff;stroke-width:1.41732287;stroke-miterlimit:4;stroke-dasharray:none" />
    <path
       sodipodi:nodetypes="cssssc"
       inkscape:connector-curvature="0"
       id="path3481"
       d="m 1863.7965,2870.0795 10.625,0 c 1.963,0 3.5313,-1.5995 3.5313,-3.5625 l 0,-152.3438 c 0,-1.963 -1.5683,-3.5312 -3.5313,-3.5312 l -10.625,0"
       style="fill:none;stroke:#0000ff;stroke-width:1.41732287;stroke-miterlimit:4;stroke-dasharray:none" />
    <path
       sodipodi:nodetypes="cssssc"
       inkscape:connector-curvature="0"
       id="path3483"
       d="m 1020.4555,2870.0795 -10.625,0 c -1.963,0 -3.5313,-1.5995 -3.5313,-3.5625 l 0,-152.3438 c 0,-1.963 1.5683,-3.5312 3.5313,-3.5312 l 10.625,0"
       style="fill:none;stroke:#0000ff;stroke-width:1.41732287;stroke-miterlimit:4;stroke-dasharray:none" />
    <path
       sodipodi:nodetypes="cssssc"
       inkscape:connector-curvature="0"
       id="path3485"
       d="m 1020.4555,2547.6385 -10.625,0 c -1.963,0 -3.5313,-1.5995 -3.5313,-3.5625 l 0,-152.3437 c 0,-1.963 1.5683,-3.5313 3.5313,-3.5313 l 10.625,0"
       style="fill:none;stroke:#0000ff;stroke-width:1.41732287;stroke-miterlimit:4;stroke-dasharray:none" />
    <path
       style="fill:none;stroke:#0000ff;stroke-width:1.41732287;stroke-miterlimit:4;stroke-dasharray:none"
       d="m 1686.6029,3901.1861 0,10.625 c 0,1.963 -1.5995,3.5313 -3.5625,3.5313 l -152.3438,0 c -1.963,0 -3.5312,-1.5683 -3.5312,-3.5313 l 0,-10.625"
       id="path3499"
       inkscape:connector-curvature="0"
       sodipodi:nodetypes="cssssc" />
    <path
       style="fill:none;stroke:#0000ff;stroke-width:1.41732287;stroke-miterlimit:4;stroke-dasharray:none"
       d="m 1364.1619,3901.1861 0,10.625 c 0,1.963 -1.5995,3.5313 -3.5625,3.5313 l -152.3437,0 c -1.963,0 -3.5313,-1.5683 -3.5313,-3.5313 l 0,-10.625"
       id="path3501"
       inkscape:connector-curvature="0"
       sodipodi:nodetypes="cssssc" />
    <path
       transform="matrix(3.75,0,0,3.75,-3293.5037,-2568.0118)"
       d="m 1240.1574,1555.5118 a 35.433071,35.433071 0 1 1 -70.8661,0 35.433071,35.433071 0 1 1 70.8661,0 z"
       sodipodi:ry="35.433071"
       sodipodi:rx="35.433071"
       sodipodi:cy="1555.5118"
       sodipodi:cx="1204.7244"
       id="path4502"
       style="fill:none;stroke:#0000ff;stroke-width:0.47244093;stroke-miterlimit:4;stroke-dasharray:none;display:inline"
       sodipodi:type="arc" />
    <path
       sodipodi:type="arc"
       style="fill:none;stroke:#0000ff;stroke-width:0.47244093;stroke-miterlimit:4;stroke-dasharray:none;display:inline"
       id="path4504"
       sodipodi:cx="1204.7244"
       sodipodi:cy="1555.5118"
       sodipodi:rx="35.433071"
       sodipodi:ry="35.433071"
       d="m 1240.1574,1555.5118 a 35.433071,35.433071 0 1 1 -70.8661,0 35.433071,35.433071 0 1 1 70.8661,0 z"
       transform="matrix(3.75,0,0,3.75,-2857.6769,-2568.0118)" />
    <path
       sodipodi:type="arc"
       style="fill:none;stroke:#0000ff;stroke-width:0.47244093;stroke-miterlimit:4;stroke-dasharray:none;display:inline"
       id="path4506"
       sodipodi:cx="1204.7244"
       sodipodi:cy="1555.5118"
       sodipodi:rx="35.433071"
       sodipodi:ry="35.433071"
       d="m 1240.1574,1555.5118 a 35.433071,35.433071 0 1 1 -70.8661,0 35.433071,35.433071 0 1 1 70.8661,0 z"
       transform="matrix(3.75,0,0,3.75,-3293.5037,-2132.1851)" />
    <path
       sodipodi:type="arc"
       style="fill:none;stroke:#0000ff;stroke-width:0.47244093;stroke-miterlimit:4;stroke-dasharray:none;display:inline"
       id="path4508"
       sodipodi:cx="1204.7244"
       sodipodi:cy="1555.5118"
       sodipodi:rx="35.433071"
       sodipodi:ry="35.433071"
       d="m 1240.1574,1555.5118 a 35.433071,35.433071 0 1 1 -70.8661,0 35.433071,35.433071 0 1 1 70.8661,0 z"
       transform="matrix(3.75,0,0,3.75,-2857.6769,-2132.1851)" />
    <path
       inkscape:tile-y0="2316.6142"
       inkscape:tile-x0="2089.8426"
       sodipodi:type="arc"
       style="fill:none;stroke:#0000ff;stroke-width:0.40494937;stroke-miterlimit:4;stroke-dasharray:none;display:inline"
       id="use4573"
       sodipodi:cx="1204.7244"
       sodipodi:cy="1555.5118"
       sodipodi:rx="35.433071"
       sodipodi:ry="35.433071"
       d="m 1240.1574,1555.5118 a 35.433071,35.433071 0 1 1 -70.8661,0 35.433071,35.433071 0 1 1 70.8661,0 z"
       transform="matrix(3.5,0,0,3.5,-1950.8676,-2077.2974)" />
    <path
       inkscape:tile-y0="2316.6142"
       inkscape:tile-x0="2089.8426"
       sodipodi:type="arc"
       style="fill:none;stroke:#0000ff;stroke-width:0.40494937;stroke-miterlimit:4;stroke-dasharray:none;display:inline"
       id="use4575"
       sodipodi:cx="1204.7244"
       sodipodi:cy="1555.5118"
       sodipodi:rx="35.433071"
       sodipodi:ry="35.433071"
       d="m 1240.1574,1555.5118 a 35.433071,35.433071 0 1 1 -70.8661,0 35.433071,35.433071 0 1 1 70.8661,0 z"
       transform="matrix(3.5,0,0,3.5,-1950.8676,-1802.9037)" />
    <path
       inkscape:tile-y0="2316.6142"
       inkscape:tile-x0="2089.8426"
       sodipodi:type="arc"
       style="fill:none;stroke:#0000ff;stroke-width:0.40494937;stroke-miterlimit:4;stroke-dasharray:none;display:inline"
       id="use4581"
       sodipodi:cx="1204.7244"
       sodipodi:cy="1555.5118"
       sodipodi:rx="35.433071"
       sodipodi:ry="35.433071"
       d="m 1240.1574,1555.5118 a 35.433071,35.433071 0 1 1 -70.8661,0 35.433071,35.433071 0 1 1 70.8661,0 z"
       transform="matrix(3.5,0,0,3.5,-1676.4739,-2077.2974)" />
    <path
       inkscape:tile-y0="2316.6142"
       inkscape:tile-x0="2089.8426"
       sodipodi:type="arc"
       style="fill:none;stroke:#0000ff;stroke-width:0.40494937;stroke-miterlimit:4;stroke-dasharray:none;display:inline"
       id="use4583"
       sodipodi:cx="1204.7244"
       sodipodi:cy="1555.5118"
       sodipodi:rx="35.433071"
       sodipodi:ry="35.433071"
       d="m 1240.1574,1555.5118 a 35.433071,35.433071 0 1 1 -70.8661,0 35.433071,35.433071 0 1 1 70.8661,0 z"
       transform="matrix(3.5,0,0,3.5,-1676.4739,-1802.9037)" />
  </g>
  <g
     style="display:inline"
     inkscape:label="Die Fold"
     id="g3524"
     inkscape:groupmode="layer">
    <path
       transform="matrix(3.5,0,0,3.5,-2992.3227,-3940.1574)"
       d="m 1240.1574,1555.5118 a 35.433071,35.433071 0 1 1 -70.8661,0 35.433071,35.433071 0 1 1 70.8661,0 z"
       sodipodi:ry="35.433071"
       sodipodi:rx="35.433071"
       sodipodi:cy="1555.5118"
       sodipodi:cx="1204.7244"
       id="path3526"
       style="fill:none;stroke:#808000;stroke-width:0.40494936999999998;stroke-miterlimit:4;stroke-dasharray:none;display:inline"
       sodipodi:type="arc" />
    <path
       sodipodi:type="arc"
       style="fill:none;stroke:#808000;stroke-width:0.40494936999999998;stroke-miterlimit:4;stroke-dasharray:none;display:inline"
       id="path3528"
       sodipodi:cx="1204.7244"
       sodipodi:cy="1555.5118"
       sodipodi:rx="35.433071"
       sodipodi:ry="35.433071"
       d="m 1240.1574,1555.5118 a 35.433071,35.433071 0 1 1 -70.8661,0 35.433071,35.433071 0 1 1 70.8661,0 z"
       transform="matrix(3.5,0,0,3.5,-2556.4959,-3940.1574)" />
    <path
       transform="matrix(3.5,0,0,3.5,-2556.4959,-3504.3307)"
       d="m 1240.1574,1555.5118 a 35.433071,35.433071 0 1 1 -70.8661,0 35.433071,35.433071 0 1 1 70.8661,0 z"
       sodipodi:ry="35.433071"
       sodipodi:rx="35.433071"
       sodipodi:cy="1555.5118"
       sodipodi:cx="1204.7244"
       id="path3530"
       style="fill:none;stroke:#808000;stroke-width:0.40494936999999998;stroke-miterlimit:4;stroke-dasharray:none;display:inline"
       sodipodi:type="arc" />
    <path
       sodipodi:type="arc"
       style="fill:none;stroke:#808000;stroke-width:0.40494936999999998;stroke-miterlimit:4;stroke-dasharray:none;display:inline"
       id="path3532"
       sodipodi:cx="1204.7244"
       sodipodi:cy="1555.5118"
       sodipodi:rx="35.433071"
       sodipodi:ry="35.433071"
       d="m 1240.1574,1555.5118 a 35.433071,35.433071 0 1 1 -70.8661,0 35.433071,35.433071 0 1 1 70.8661,0 z"
       transform="matrix(3.5,0,0,3.5,-2992.3227,-3504.3307)" />
    <path
       sodipodi:nodetypes="cc"
       inkscape:connector-curvature="0"
       id="path3534"
       d="m 127.55906,1314.567 0,814.9606"
       style="fill:none;stroke:#808000;stroke-width:1.41732287000000001;stroke-linecap:butt;stroke-linejoin:miter;stroke-miterlimit:4;stroke-opacity:1;stroke-dasharray:none" />
    <path
       inkscape:connector-curvature="0"
       id="path3536"
       d="m 1013.3858,1282.6772 0,-223.2283"
       style="fill:none;stroke:#808000;stroke-width:1.41732287000000001;stroke-linecap:butt;stroke-linejoin:miter;stroke-miterlimit:4;stroke-opacity:1;stroke-dasharray:none" />
    <path
       inkscape:connector-curvature="0"
       id="path3538"
       d="m 1013.3858,892.91348 0,-155.90551"
       style="fill:none;stroke:#808000;stroke-width:1.41732287000000001;stroke-linecap:butt;stroke-linejoin:miter;stroke-miterlimit:4;stroke-opacity:1;stroke-dasharray:none" />
    <path
       inkscape:connector-curvature="0"
       id="path3540"
       d="m 1013.3858,570.47253 0,-159.44882"
       style="fill:none;stroke:#808000;stroke-width:1.41732287000000001;stroke-linecap:butt;stroke-linejoin:miter;stroke-miterlimit:4;stroke-opacity:1;stroke-dasharray:none" />
    <path
       inkscape:connector-curvature="0"
       id="path3544"
       d="m 1534.252,407.48038 145.2756,0"
       style="fill:none;stroke:#808000;stroke-width:1.41732287000000001;stroke-linecap:butt;stroke-linejoin:miter;stroke-miterlimit:4;stroke-opacity:1;stroke-dasharray:none"
       sodipodi:nodetypes="cc" />
    <path
       inkscape:connector-curvature="0"
       id="path3546"
       d="m 1870.8661,411.02371 0,159.44882"
       style="fill:none;stroke:#808000;stroke-width:1.41732287000000001;stroke-linecap:butt;stroke-linejoin:miter;stroke-miterlimit:4;stroke-opacity:1;stroke-dasharray:none" />
    <path
       inkscape:connector-curvature="0"
       id="path3548"
       d="m 1870.8661,737.00797 0,155.90551"
       style="fill:none;stroke:#808000;stroke-width:1.41732287000000001;stroke-linecap:butt;stroke-linejoin:miter;stroke-miterlimit:4;stroke-opacity:1;stroke-dasharray:none" />
    <path
       inkscape:connector-curvature="0"
       id="path3550"
       d="m 1870.8661,1059.4489 0,223.2283"
       style="fill:none;stroke:#808000;stroke-width:1.41732287000000001;stroke-linecap:butt;stroke-linejoin:miter;stroke-miterlimit:4;stroke-opacity:1;stroke-dasharray:none" />
    <path
       sodipodi:nodetypes="cc"
       inkscape:connector-curvature="0"
       id="path3552"
       d="m 1877.9528,1296.8505 0,850.3937"
       style="fill:none;stroke:#808000;stroke-width:1.41732287000000001;stroke-linecap:butt;stroke-linejoin:miter;stroke-miterlimit:4;stroke-opacity:1;stroke-dasharray:none" />
    <path
       sodipodi:nodetypes="cc"
       inkscape:connector-curvature="0"
       id="path3558"
       d="m 2756.6929,2129.5276 0,-814.9606"
       style="fill:none;stroke:#808000;stroke-width:1.41732287000000001;stroke-linecap:butt;stroke-linejoin:miter;stroke-miterlimit:4;stroke-opacity:1;stroke-dasharray:none" />
    <path
       sodipodi:nodetypes="cc"
       inkscape:connector-curvature="0"
       id="path3560"
       d="m 1870.8661,2168.504 0,216.1417"
       style="fill:none;stroke:#808000;stroke-width:1.41732287000000001;stroke-linecap:butt;stroke-linejoin:miter;stroke-miterlimit:4;stroke-opacity:1;stroke-dasharray:none" />
    <path
       inkscape:connector-curvature="0"
       id="path3562"
       d="m 1870.8661,2551.1812 0,155.9055"
       style="fill:none;stroke:#808000;stroke-width:1.41732287000000001;stroke-linecap:butt;stroke-linejoin:miter;stroke-miterlimit:4;stroke-opacity:1;stroke-dasharray:none" />
    <path
       inkscape:connector-curvature="0"
       id="path3564"
       d="m 1870.8661,2873.6221 0,162.9921"
       style="fill:none;stroke:#808000;stroke-width:1.41732287000000001;stroke-linecap:butt;stroke-linejoin:miter;stroke-miterlimit:4;stroke-opacity:1;stroke-dasharray:none" />
    <path
       sodipodi:nodetypes="cc"
       inkscape:connector-curvature="0"
       id="path3566"
       d="m 1867.3228,3043.7008 -850.3937,0"
       style="fill:none;stroke:#808000;stroke-width:1.41732287000000001;stroke-linecap:butt;stroke-linejoin:miter;stroke-miterlimit:4;stroke-opacity:1;stroke-dasharray:none" />
    <path
       sodipodi:nodetypes="cc"
       inkscape:connector-curvature="0"
       id="path3568"
       d="m 1027.5591,3908.2678 173.622,0.01"
       style="fill:none;stroke:#808000;stroke-width:1.41732287000000001;stroke-linecap:butt;stroke-linejoin:miter;stroke-miterlimit:4;stroke-opacity:1;stroke-dasharray:none" />
    <path
       sodipodi:nodetypes="cc"
       inkscape:connector-curvature="0"
       id="path3570"
       d="m 1367.7165,3908.278 155.9055,0"
       style="fill:none;stroke:#808000;stroke-width:1.41732287000000001;stroke-linecap:butt;stroke-linejoin:miter;stroke-miterlimit:4;stroke-opacity:1;stroke-dasharray:none" />
    <path
       sodipodi:nodetypes="cc"
       inkscape:connector-curvature="0"
       id="path3572"
       d="m 1690.1575,3908.278 166.5354,-0.01"
       style="fill:none;stroke:#808000;stroke-width:1.41732287000000001;stroke-linecap:butt;stroke-linejoin:miter;stroke-miterlimit:4;stroke-opacity:1;stroke-dasharray:none" />
    <path
       inkscape:connector-curvature="0"
       id="path3574"
       d="m 1013.3858,3036.6142 0,-162.9921"
       style="fill:none;stroke:#808000;stroke-width:1.41732287000000001;stroke-linecap:butt;stroke-linejoin:miter;stroke-miterlimit:4;stroke-opacity:1;stroke-dasharray:none" />
    <path
       inkscape:connector-curvature="0"
       id="path3576"
       d="m 1013.3858,2707.0867 0,-155.9055"
       style="fill:none;stroke:#808000;stroke-width:1.41732287000000001;stroke-linecap:butt;stroke-linejoin:miter;stroke-miterlimit:4;stroke-opacity:1;stroke-dasharray:none" />
    <path
       inkscape:connector-curvature="0"
       id="path3578"
       d="m 1013.3858,2384.6457 0,-216.1417"
       style="fill:none;stroke:#808000;stroke-width:1.41732287000000001;stroke-linecap:butt;stroke-linejoin:miter;stroke-miterlimit:4;stroke-opacity:1;stroke-dasharray:none"
       sodipodi:nodetypes="cc" />
    <path
       sodipodi:nodetypes="cc"
       inkscape:connector-curvature="0"
       id="path3580"
       d="m 1006.2992,2147.2442 0,-850.3937"
       style="fill:none;stroke:#808000;stroke-width:1.41732287000000001;stroke-linecap:butt;stroke-linejoin:miter;stroke-miterlimit:4;stroke-opacity:1;stroke-dasharray:none" />
    <path
       sodipodi:nodetypes="cc"
       inkscape:connector-curvature="0"
       id="path3594"
       d="m 1867.3228,1286.2205 -850.3937,0"
       style="fill:none;stroke:#808000;stroke-width:1.41732287000000001;stroke-linecap:butt;stroke-linejoin:miter;stroke-miterlimit:4;stroke-opacity:1;stroke-dasharray:none" />
    <path
       sodipodi:nodetypes="cc"
       inkscape:connector-curvature="0"
       id="path3596"
       d="m 1016.9291,2157.8741 850.3937,0"
       style="fill:none;stroke:#808000;stroke-width:1.41732287000000001;stroke-linecap:butt;stroke-linejoin:miter;stroke-miterlimit:4;stroke-opacity:1;stroke-dasharray:none" />
    <path
       sodipodi:nodetypes="cc"
       style="fill:none;stroke:#808000;stroke-width:1.41732287000000001;stroke-linecap:butt;stroke-linejoin:miter;stroke-miterlimit:4;stroke-opacity:1;stroke-dasharray:none"
       d="m 1211.811,407.48038 145.2756,0"
       id="path4366"
       inkscape:connector-curvature="0" />
    <path
       inkscape:connector-curvature="0"
       id="path4368"
       d="m 2111.811,1293.3071 145.2756,0"
       style="fill:none;stroke:#808000;stroke-width:1.41732287000000001;stroke-linecap:butt;stroke-linejoin:miter;stroke-miterlimit:4;stroke-opacity:1;stroke-dasharray:none"
       sodipodi:nodetypes="cc" />
    <path
       inkscape:connector-curvature="0"
       id="path4368-7"
       d="m 2434.252,1293.3071 145.2756,0"
       style="fill:none;stroke:#808000;stroke-width:1.41732287000000001;stroke-linecap:butt;stroke-linejoin:miter;stroke-miterlimit:4;stroke-opacity:1;stroke-dasharray:none;display:inline"
       sodipodi:nodetypes="cc" />
    <path
       inkscape:connector-curvature="0"
       id="path4368-5"
       d="m 2434.252,2150.7875 145.2756,0"
       style="fill:none;stroke:#808000;stroke-width:1.41732287000000001;stroke-linecap:butt;stroke-linejoin:miter;stroke-miterlimit:4;stroke-opacity:1;stroke-dasharray:none;display:inline"
       sodipodi:nodetypes="cc" />
    <path
       inkscape:connector-curvature="0"
       id="path4368-2"
       d="m 2111.811,2150.7875 145.2756,0"
       style="fill:none;stroke:#808000;stroke-width:1.41732287000000001;stroke-linecap:butt;stroke-linejoin:miter;stroke-miterlimit:4;stroke-opacity:1;stroke-dasharray:none;display:inline"
       sodipodi:nodetypes="cc" />
    <path
       inkscape:connector-curvature="0"
       id="path4368-4"
       d="m 627.16534,2150.7875 145.2756,0"
       style="fill:none;stroke:#808000;stroke-width:1.41732287000000001;stroke-linecap:butt;stroke-linejoin:miter;stroke-miterlimit:4;stroke-opacity:1;stroke-dasharray:none;display:inline"
       sodipodi:nodetypes="cc" />
    <path
       inkscape:connector-curvature="0"
       id="path4368-8"
       d="m 304.72441,2150.7875 145.2756,0"
       style="fill:none;stroke:#808000;stroke-width:1.41732287000000001;stroke-linecap:butt;stroke-linejoin:miter;stroke-miterlimit:4;stroke-opacity:1;stroke-dasharray:none;display:inline"
       sodipodi:nodetypes="cc" />
    <path
       inkscape:connector-curvature="0"
       id="path4368-3"
       d="m 304.72441,1293.3071 145.2756,0"
       style="fill:none;stroke:#808000;stroke-width:1.41732287000000001;stroke-linecap:butt;stroke-linejoin:miter;stroke-miterlimit:4;stroke-opacity:1;stroke-dasharray:none;display:inline"
       sodipodi:nodetypes="cc" />
    <path
       inkscape:connector-curvature="0"
       id="path4368-9"
       d="m 627.16535,1293.3071 145.2756,0"
       style="fill:none;stroke:#808000;stroke-width:1.41732287000000001;stroke-linecap:butt;stroke-linejoin:miter;stroke-miterlimit:4;stroke-opacity:1;stroke-dasharray:none;display:inline"
       sodipodi:nodetypes="cc" />
  </g>
</svg>
