G04 (created by PCBNEW (2013-jul-07)-stable) date Sun 08 Feb 2015 22:31:34 GMT*
%MOIN*%
G04 Gerber Fmt 3.4, Leading zero omitted, Abs format*
%FSLAX34Y34*%
G01*
G70*
G90*
G04 APERTURE LIST*
%ADD10C,0.00590551*%
%ADD11C,0.055*%
%ADD12C,0.0669291*%
%ADD13R,0.0669291X0.0669291*%
%ADD14R,0.055X0.055*%
%ADD15C,0.01*%
G04 APERTURE END LIST*
G54D10*
G54D11*
X83000Y-58000D03*
X83000Y-61000D03*
G54D12*
X76500Y-53000D03*
G54D13*
X76500Y-61000D03*
G54D12*
X87500Y-53000D03*
G54D13*
X87500Y-61000D03*
G54D14*
X81000Y-58000D03*
G54D11*
X81000Y-61000D03*
G54D14*
X79000Y-58000D03*
G54D11*
X79000Y-61000D03*
G54D14*
X79000Y-56000D03*
G54D11*
X79000Y-53000D03*
X85000Y-59000D03*
X85000Y-60000D03*
G54D15*
X85000Y-60000D02*
X85000Y-61000D01*
X83000Y-61000D02*
X85000Y-61000D01*
X85000Y-61000D02*
X87500Y-61000D01*
X81000Y-61000D02*
X83000Y-61000D01*
X79000Y-61000D02*
X81000Y-61000D01*
X76500Y-61000D02*
X79000Y-61000D01*
X76500Y-53000D02*
X79000Y-53000D01*
X85000Y-59000D02*
X85000Y-54500D01*
X86500Y-53000D02*
X87500Y-53000D01*
X85000Y-54500D02*
X86500Y-53000D01*
X83000Y-58000D02*
X84000Y-58000D01*
X84000Y-58000D02*
X85000Y-59000D01*
X81000Y-58000D02*
X83000Y-58000D01*
X79000Y-58000D02*
X81000Y-58000D01*
X79000Y-56000D02*
X79000Y-58000D01*
M02*
